<svg width="52" height="49" viewBox="0 0 52 49" fill="none" xmlns="http://www.w3.org/2000/svg">
<path d="M20.0593 7.79184C20.563 5.76966 23.437 5.76966 23.9407 7.79183L26.0963 16.4464C26.2751 17.1643 26.8357 17.7249 27.5536 17.9037L36.2082 20.0593C38.2303 20.563 38.2303 23.437 36.2082 23.9407L27.5536 26.0963C26.8357 26.2751 26.2751 26.8357 26.0963 27.5536L23.9407 36.2082C23.437 38.2303 20.563 38.2303 20.0593 36.2082L17.9037 27.5536C17.7249 26.8357 17.1643 26.2751 16.4464 26.0963L7.79184 23.9407C5.76966 23.437 5.76966 20.563 7.79183 20.0593L16.4464 17.9037C17.1643 17.7249 17.7249 17.1643 17.9037 16.4464L20.0593 7.79184Z" fill="#5C24FF"/>
<path d="M40.0296 30.8959C40.2815 29.8848 41.7185 29.8848 41.9704 30.8959L43.0481 35.2232C43.1376 35.5822 43.4178 35.8624 43.7768 35.9519L48.1041 37.0296C49.1152 37.2815 49.1152 38.7185 48.1041 38.9704L43.7768 40.0481C43.4178 40.1376 43.1376 40.4178 43.0481 40.7768L41.9704 45.1041C41.7185 46.1152 40.2815 46.1152 40.0296 45.1041L38.9519 40.7768C38.8624 40.4178 38.5822 40.1376 38.2232 40.0481L33.8959 38.9704C32.8848 38.7185 32.8848 37.2815 33.8959 37.0296L38.2232 35.9519C38.5822 35.8624 38.8624 35.5822 38.9519 35.2232L40.0296 30.8959Z" fill="#B79EFF"/>
</svg>
