<svg width="312" height="312" viewBox="0 0 312 312" fill="none" xmlns="http://www.w3.org/2000/svg">
<g clip-path="url(#clip0_1_258)">
<g filter="url(#filter0_d_1_258)">
<circle cx="156.249" cy="155.752" r="138.061" fill="url(#paint0_radial_1_258)"/>
</g>
<g filter="url(#filter1_ii_1_258)">
<path fill-rule="evenodd" clip-rule="evenodd" d="M156.249 293.813C232.498 293.813 294.31 232.001 294.31 155.752C294.31 79.5026 232.498 17.6904 156.249 17.6904C79.9995 17.6904 18.1873 79.5026 18.1873 155.752C18.1873 232.001 79.9995 293.813 156.249 293.813ZM156.248 275.737C222.514 275.737 276.234 222.018 276.234 155.752C276.234 89.4855 222.514 35.7661 156.248 35.7661C89.9819 35.7661 36.2625 89.4855 36.2625 155.752C36.2625 222.018 89.9819 275.737 156.248 275.737Z" fill="white"/>
</g>
<circle cx="156.248" cy="155.752" r="119.986" fill="url(#paint1_angular_1_258)"/>
<g style="mix-blend-mode:color-dodge" filter="url(#filter2_f_1_258)">
<circle cx="156.248" cy="155.752" r="119.986" fill="black"/>
<circle cx="156.248" cy="155.752" r="103.624" stroke="white" stroke-width="0.311651"/>
<circle cx="156.248" cy="155.752" r="82.4317" stroke="white" stroke-width="0.311651"/>
<circle cx="156.248" cy="155.752" r="60.6161" stroke="white" stroke-width="0.311651"/>
<circle cx="156.249" cy="155.752" r="38.8005" stroke="white" stroke-width="0.311651"/>
<line x1="36.8864" y1="155.907" x2="276.234" y2="155.907" stroke="white" stroke-width="0.311651"/>
<line x1="156.716" y1="34.5194" x2="156.716" y2="275.737" stroke="white" stroke-width="0.311651"/>
</g>
<g style="mix-blend-mode:overlay" opacity="0.5">
<path fill-rule="evenodd" clip-rule="evenodd" d="M253.872 253.376C307.789 199.46 307.789 112.044 253.872 58.1276C199.956 4.21124 112.54 4.21122 58.6241 58.1276C4.70776 112.044 4.70778 199.46 58.6241 253.376C112.54 307.292 199.956 307.292 253.872 253.376ZM241.972 241.476C289.316 194.132 289.316 117.372 241.972 70.0276C194.628 22.6834 117.868 22.6834 70.5238 70.0276C23.1796 117.372 23.1796 194.132 70.5238 241.476C117.868 288.82 194.628 288.82 241.972 241.476Z" fill="url(#paint2_angular_1_258)"/>
</g>
<g style="mix-blend-mode:color-dodge">
<rect x="111" y="156" width="46" height="124" fill="url(#paint3_linear_1_258)"/>
</g>
<path d="M105.984 236.086C105.408 237.532 103.753 238.245 102.279 237.658C100.805 237.071 100.094 235.415 100.67 233.968C101.247 232.522 102.902 231.809 104.376 232.396C105.85 232.984 106.56 234.64 105.984 236.086Z" stroke="#B79EFF" stroke-width="2.07489"/>
<path d="M111.298 238.204C110.721 239.65 109.066 240.363 107.593 239.776C106.119 239.188 105.408 237.532 105.984 236.086C106.561 234.64 108.215 233.927 109.689 234.514C111.163 235.101 111.874 236.757 111.298 238.204Z" stroke="#B79EFF" stroke-width="2.07489"/>
<mask id="path-15-inside-1_1_258" fill="white">
<path d="M105.02 235.702C105.208 235.23 105.488 234.8 105.844 234.436C106.2 234.073 106.624 233.783 107.093 233.583C107.563 233.383 108.067 233.277 108.578 233.272C109.09 233.266 109.598 233.361 110.073 233.55L109.311 235.463C109.088 235.374 108.851 235.33 108.612 235.333C108.372 235.335 108.136 235.385 107.917 235.478C107.697 235.572 107.498 235.707 107.332 235.877C107.166 236.048 107.035 236.249 106.947 236.47L105.02 235.702Z"/>
<path d="M106.948 236.47C106.759 236.942 106.479 237.372 106.124 237.736C105.768 238.099 105.343 238.389 104.874 238.589C104.405 238.789 103.9 238.895 103.389 238.9C102.878 238.906 102.37 238.811 101.895 238.622L102.657 236.709C102.879 236.797 103.117 236.842 103.356 236.839C103.595 236.837 103.831 236.787 104.051 236.694C104.27 236.6 104.469 236.464 104.636 236.294C104.802 236.124 104.933 235.923 105.021 235.702L106.948 236.47Z"/>
</mask>
<path d="M105.02 235.702L104.252 237.629L102.324 236.861L103.093 234.934L105.02 235.702ZM110.073 233.55L110.841 231.623L112.769 232.391L112 234.318L110.073 233.55ZM109.311 235.463L111.238 236.231L110.47 238.159L108.543 237.39L109.311 235.463ZM106.947 236.47L108.874 237.238L108.106 239.165L106.178 238.397L106.947 236.47ZM106.948 236.47L107.716 234.542L109.643 235.311L108.875 237.238L106.948 236.47ZM101.895 238.622L101.126 240.549L99.1989 239.781L99.9671 237.853L101.895 238.622ZM102.657 236.709L100.729 235.941L101.497 234.013L103.425 234.781L102.657 236.709ZM105.021 235.702L103.093 234.934L103.862 233.007L105.789 233.775L105.021 235.702ZM103.093 234.934C103.382 234.207 103.813 233.544 104.361 232.985L107.327 235.887C107.163 236.055 107.034 236.253 106.948 236.47L103.093 234.934ZM104.361 232.985C104.908 232.426 105.561 231.98 106.281 231.674L107.906 235.492C107.688 235.585 107.491 235.719 107.327 235.887L104.361 232.985ZM106.281 231.674C107 231.367 107.774 231.205 108.556 231.197L108.601 235.346C108.361 235.349 108.125 235.399 107.906 235.492L106.281 231.674ZM108.556 231.197C109.338 231.188 110.115 231.333 110.841 231.623L109.305 235.478C109.081 235.388 108.841 235.344 108.601 235.346L108.556 231.197ZM112 234.318L111.238 236.231L107.383 234.695L108.146 232.782L112 234.318ZM108.543 237.39C108.571 237.402 108.602 237.408 108.634 237.407L108.589 233.258C109.099 233.252 109.605 233.347 110.079 233.535L108.543 237.39ZM108.634 237.407C108.666 237.407 108.698 237.4 108.73 237.387L107.104 233.569C107.574 233.369 108.079 233.263 108.589 233.258L108.634 237.407ZM108.73 237.387C108.761 237.374 108.79 237.354 108.815 237.328L105.849 234.426C106.207 234.06 106.634 233.769 107.104 233.569L108.73 237.387ZM108.815 237.328C108.84 237.303 108.86 237.272 108.874 237.238L105.019 235.701C105.209 235.226 105.491 234.792 105.849 234.426L108.815 237.328ZM106.178 238.397L104.252 237.629L105.788 233.774L107.715 234.542L106.178 238.397ZM108.875 237.238C108.585 237.965 108.154 238.627 107.607 239.187L104.641 236.285C104.805 236.117 104.934 235.919 105.02 235.702L108.875 237.238ZM107.607 239.187C107.059 239.746 106.407 240.191 105.687 240.498L104.061 236.68C104.28 236.587 104.476 236.452 104.641 236.285L107.607 239.187ZM105.687 240.498C104.967 240.805 104.194 240.966 103.412 240.975L103.366 236.825C103.607 236.823 103.843 236.773 104.061 236.68L105.687 240.498ZM103.412 240.975C102.63 240.983 101.853 240.839 101.126 240.549L102.663 236.694C102.887 236.783 103.126 236.828 103.366 236.825L103.412 240.975ZM99.9671 237.853L100.729 235.941L104.584 237.477L103.822 239.39L99.9671 237.853ZM103.425 234.781C103.396 234.77 103.365 234.764 103.333 234.764L103.379 238.914C102.869 238.919 102.362 238.825 101.889 238.636L103.425 234.781ZM103.333 234.764C103.302 234.765 103.269 234.771 103.238 234.785L104.864 238.603C104.394 238.803 103.889 238.908 103.379 238.914L103.333 234.764ZM103.238 234.785C103.207 234.798 103.178 234.818 103.152 234.843L106.119 237.745C105.761 238.111 105.334 238.402 104.864 238.603L103.238 234.785ZM103.152 234.843C103.127 234.869 103.107 234.9 103.093 234.934L106.948 236.47C106.759 236.946 106.477 237.379 106.119 237.745L103.152 234.843ZM105.789 233.775L107.716 234.542L106.179 238.397L104.253 237.63L105.789 233.775Z" fill="#B79EFF" mask="url(#path-15-inside-1_1_258)"/>
<mask id="path-17-inside-2_1_258" fill="white">
<path d="M106.948 236.47C107.136 235.998 107.229 235.493 107.22 234.985C107.212 234.476 107.104 233.974 106.9 233.506C106.697 233.038 106.404 232.614 106.036 232.259C105.669 231.903 105.235 231.622 104.76 231.433L103.998 233.345C104.22 233.434 104.423 233.565 104.595 233.732C104.767 233.898 104.904 234.097 104.999 234.315C105.094 234.534 105.145 234.769 105.149 235.007C105.153 235.245 105.109 235.481 105.021 235.702L106.948 236.47Z"/>
<path d="M105.02 235.702C104.832 236.174 104.74 236.679 104.748 237.187C104.756 237.696 104.865 238.198 105.068 238.666C105.271 239.134 105.565 239.558 105.932 239.913C106.299 240.269 106.733 240.55 107.208 240.739L107.971 238.827C107.748 238.738 107.545 238.607 107.373 238.44C107.202 238.274 107.064 238.075 106.969 237.857C106.874 237.638 106.823 237.403 106.819 237.165C106.816 236.927 106.859 236.691 106.947 236.47L105.02 235.702Z"/>
</mask>
<path d="M106.948 236.47L106.18 238.398L108.107 239.166L108.875 237.238L106.948 236.47ZM104.76 231.433L105.528 229.505L103.601 228.737L102.832 230.665L104.76 231.433ZM103.998 233.345L102.07 232.577L101.302 234.505L103.229 235.273L103.998 233.345ZM105.021 235.702L103.094 234.934L102.326 236.862L104.253 237.63L105.021 235.702ZM105.02 235.702L105.789 233.774L103.861 233.006L103.093 234.934L105.02 235.702ZM107.208 240.739L106.44 242.667L108.368 243.435L109.136 241.507L107.208 240.739ZM107.971 238.827L109.898 239.595L110.666 237.667L108.739 236.899L107.971 238.827ZM106.947 236.47L108.874 237.238L109.643 235.31L107.715 234.542L106.947 236.47ZM108.875 237.238C109.165 236.511 109.308 235.734 109.295 234.951L105.146 235.018C105.15 235.253 105.107 235.485 105.02 235.702L108.875 237.238ZM109.295 234.951C109.283 234.169 109.115 233.397 108.803 232.679L104.997 234.332C105.092 234.55 105.142 234.783 105.146 235.018L109.295 234.951ZM108.803 232.679C108.492 231.962 108.042 231.312 107.48 230.768L104.593 233.749C104.765 233.916 104.903 234.115 104.997 234.332L108.803 232.679ZM107.48 230.768C106.918 230.224 106.255 229.795 105.528 229.505L103.992 233.36C104.216 233.45 104.42 233.582 104.593 233.749L107.48 230.768ZM102.832 230.665L102.07 232.577L105.925 234.114L106.687 232.201L102.832 230.665ZM103.229 235.273C103.201 235.261 103.174 235.244 103.151 235.222L106.038 232.241C105.672 231.886 105.239 231.607 104.766 231.418L103.229 235.273ZM103.151 235.222C103.128 235.2 103.109 235.173 103.096 235.142L106.902 233.489C106.699 233.02 106.405 232.596 106.038 232.241L103.151 235.222ZM103.096 235.142C103.082 235.111 103.075 235.077 103.074 235.041L107.223 234.974C107.215 234.462 107.106 233.958 106.902 233.489L103.096 235.142ZM103.074 235.041C103.074 235.005 103.08 234.968 103.094 234.934L106.949 236.47C107.138 235.995 107.232 235.486 107.223 234.974L103.074 235.041ZM104.253 237.63L106.18 238.398L107.716 234.543L105.789 233.775L104.253 237.63ZM103.093 234.934C102.803 235.661 102.661 236.438 102.673 237.221L106.822 237.154C106.819 236.919 106.861 236.687 106.948 236.47L103.093 234.934ZM102.673 237.221C102.686 238.003 102.853 238.775 103.165 239.493L106.971 237.84C106.876 237.622 106.826 237.389 106.822 237.154L102.673 237.221ZM103.165 239.493C103.477 240.211 103.927 240.86 104.488 241.404L107.375 238.423C107.203 238.256 107.066 238.057 106.971 237.84L103.165 239.493ZM104.488 241.404C105.05 241.948 105.714 242.377 106.44 242.667L107.977 238.812C107.752 238.722 107.548 238.59 107.375 238.423L104.488 241.404ZM109.136 241.507L109.898 239.595L106.043 238.058L105.281 239.971L109.136 241.507ZM108.739 236.899C108.768 236.911 108.794 236.928 108.817 236.95L105.93 239.931C106.296 240.286 106.729 240.565 107.203 240.754L108.739 236.899ZM108.817 236.95C108.84 236.972 108.859 236.999 108.872 237.03L105.066 238.683C105.27 239.152 105.563 239.576 105.93 239.931L108.817 236.95ZM108.872 237.03C108.886 237.061 108.893 237.096 108.894 237.131L104.745 237.198C104.753 237.71 104.862 238.214 105.066 238.683L108.872 237.03ZM108.894 237.131C108.895 237.167 108.888 237.204 108.874 237.238L105.019 235.702C104.83 236.177 104.737 236.686 104.745 237.198L108.894 237.131ZM107.715 234.542L105.789 233.774L104.252 237.629L106.179 238.397L107.715 234.542Z" fill="#B79EFF" mask="url(#path-17-inside-2_1_258)"/>
<g filter="url(#filter3_b_1_258)">
<rect x="81" y="75.0752" width="70.0246" height="18.037" rx="9.01848" transform="rotate(-10.7333 81 75.0752)" fill="white"/>
<path d="M88.4106 78.3794L90.3361 78.0145L93.3102 82.5905L93.3967 82.5741L94.4899 77.2271L96.4154 76.8621L97.8152 84.2467L96.3008 84.5338L95.3897 79.7273L95.3284 79.7389L94.3216 84.8716L93.2903 85.0671L90.4716 80.6409L90.4103 80.6525L91.3248 85.477L89.8104 85.7641L88.4106 78.3794ZM101.393 83.6807C100.832 83.7869 100.326 83.7597 99.8718 83.5992C99.4199 83.4358 99.0429 83.1611 98.7406 82.7752C98.4379 82.3868 98.2328 81.9089 98.1253 81.3416C98.0168 80.7695 98.0326 80.2486 98.1727 79.7788C98.3122 79.3065 98.5626 78.9129 98.9238 78.598C99.2868 78.2801 99.7484 78.0681 100.309 77.9619C100.869 77.8558 101.375 77.8844 101.826 78.0478C102.28 78.2083 102.658 78.4827 102.961 78.8711C103.263 79.257 103.469 79.7361 103.577 80.3082C103.685 80.8755 103.669 81.3953 103.529 81.8675C103.389 82.3373 103.137 82.7311 102.774 83.049C102.413 83.364 101.953 83.5745 101.393 83.6807ZM101.174 82.4894C101.429 82.4411 101.628 82.3287 101.771 82.1521C101.914 81.9731 102.005 81.7492 102.044 81.4804C102.085 81.2111 102.075 80.9155 102.014 80.5933C101.953 80.2712 101.854 79.9924 101.717 79.7568C101.583 79.5208 101.416 79.3457 101.218 79.2314C101.019 79.1171 100.793 79.0841 100.538 79.1324C100.281 79.1812 100.078 79.2955 99.9305 79.4754C99.7852 79.6549 99.6921 79.8792 99.651 80.1485C99.6123 80.4173 99.6234 80.7128 99.6845 81.0349C99.7456 81.357 99.8433 81.636 99.9777 81.872C100.114 82.1076 100.283 82.2823 100.484 82.3961C100.687 82.5071 100.917 82.5382 101.174 82.4894ZM103.537 78.6761L103.308 77.4682L108.327 76.5168L108.556 77.7247L106.771 78.063L107.592 82.3936L106.128 82.6711L105.307 78.3405L103.537 78.6761ZM111.188 79.6126L112.516 75.7226L114.031 75.4355L115.081 80.974L113.617 81.2515L112.949 77.7287L111.63 81.6281L110.105 81.9172L109.055 76.3787L110.522 76.1006L111.188 79.6126ZM116.109 80.7791L115.059 75.2406L117.421 74.7929C118.104 74.6635 118.668 74.691 119.114 74.8755C119.56 75.0599 119.828 75.3913 119.919 75.8697C119.975 76.1701 119.911 76.4413 119.725 76.6832C119.54 76.9251 119.255 77.1185 118.872 77.2634C119.208 77.2246 119.505 77.2468 119.762 77.33C120.021 77.4103 120.231 77.5386 120.392 77.7149C120.554 77.8907 120.659 78.1 120.705 78.3428C120.765 78.6577 120.732 78.9441 120.606 79.202C120.483 79.4594 120.272 79.6787 119.973 79.8599C119.676 80.0407 119.296 80.1749 118.835 80.2624L116.109 80.7791ZM117.322 79.3575L118.617 79.1121C118.831 79.0716 118.988 78.9894 119.089 78.8657C119.192 78.7391 119.227 78.5868 119.193 78.4089C119.156 78.2118 119.065 78.0684 118.921 77.9787C118.78 77.8885 118.602 77.8636 118.388 77.9042L117.093 78.1496L117.322 79.3575ZM116.923 77.2481L117.885 77.0656C118.039 77.0365 118.166 76.99 118.266 76.9262C118.368 76.8596 118.44 76.7787 118.482 76.6837C118.526 76.5881 118.537 76.4827 118.515 76.3673C118.483 76.1966 118.389 76.0762 118.234 76.006C118.078 75.9358 117.882 75.9233 117.644 75.9684L116.713 76.1448L116.923 77.2481ZM123.355 79.5138C123.002 79.5808 122.676 79.5792 122.376 79.509C122.076 79.4364 121.822 79.294 121.615 79.0817C121.41 78.8666 121.273 78.5763 121.203 78.211C121.145 77.9033 121.153 77.6341 121.226 77.4036C121.299 77.173 121.421 76.9756 121.592 76.8113C121.762 76.647 121.965 76.5089 122.201 76.3971C122.438 76.2848 122.692 76.1894 122.961 76.1111C123.276 76.0163 123.53 75.9359 123.722 75.8697C123.913 75.8011 124.047 75.7283 124.125 75.6513C124.202 75.5744 124.23 75.477 124.208 75.3592L124.204 75.3376C124.16 75.1092 124.055 74.9462 123.887 74.8485C123.721 74.7504 123.508 74.7262 123.245 74.7758C122.969 74.8282 122.761 74.9312 122.62 75.0848C122.48 75.236 122.4 75.4079 122.382 75.6007L120.94 75.7546C120.948 75.4044 121.035 75.0866 121.2 74.8013C121.364 74.5136 121.601 74.272 121.91 74.0765C122.221 73.878 122.598 73.7369 123.04 73.6531C123.348 73.5948 123.649 73.575 123.944 73.5938C124.241 73.6122 124.514 73.6763 124.761 73.7863C125.011 73.8958 125.222 74.0575 125.395 74.2713C125.567 74.4827 125.684 74.7531 125.747 75.0825L126.455 78.818L124.998 79.0942L124.852 78.3261L124.809 78.3343C124.753 78.5243 124.663 78.6995 124.539 78.8599C124.414 79.018 124.255 79.1541 124.06 79.2683C123.864 79.38 123.629 79.4619 123.355 79.5138ZM123.594 78.3703C123.82 78.3275 124.011 78.2452 124.168 78.1235C124.323 77.9993 124.436 77.851 124.505 77.6784C124.575 77.5059 124.591 77.3223 124.554 77.1276L124.443 76.5398C124.401 76.5802 124.34 76.6216 124.261 76.664C124.184 76.7035 124.095 76.7439 123.996 76.7851C123.896 76.8239 123.796 76.8616 123.696 76.898C123.596 76.932 123.504 76.963 123.423 76.991C123.247 77.0516 123.098 77.1235 122.974 77.2067C122.85 77.2899 122.761 77.3878 122.705 77.5005C122.649 77.6108 122.634 77.7381 122.661 77.8823C122.701 78.0914 122.807 78.2369 122.98 78.3188C123.154 78.3978 123.359 78.415 123.594 78.3703ZM131.236 72.1742L132.085 76.6526L132.968 76.4852L133.507 79.3265L132.014 79.6095L131.676 77.8282L127.443 78.6306L126.393 73.0922L127.861 72.814L128.682 77.1445L130.607 76.7795L129.786 72.449L131.236 72.1742ZM134.997 75.0995L136.325 71.2095L137.84 70.9225L138.89 76.461L137.426 76.7385L136.758 73.2156L135.439 77.1151L133.914 77.4042L132.864 71.8657L134.331 71.5875L134.997 75.0995ZM143.163 75.6509L142.341 71.3168L141.303 71.5136C141.022 71.5669 140.82 71.6724 140.698 71.83C140.576 71.9876 140.533 72.1551 140.569 72.3325C140.601 72.5133 140.7 72.6527 140.865 72.7508C141.033 72.8461 141.256 72.8673 141.535 72.8144L143.1 72.5178L143.296 73.5562L141.731 73.8529C141.258 73.9426 140.834 73.9482 140.461 73.8696C140.087 73.791 139.783 73.6408 139.546 73.4192C139.31 73.1951 139.16 72.911 139.097 72.5668C139.026 72.2066 139.059 71.873 139.195 71.5658C139.331 71.2562 139.558 70.9927 139.878 70.7752C140.2 70.5548 140.599 70.3995 141.075 70.3093L143.545 69.8411L144.595 75.3796L143.163 75.6509ZM139.644 76.318L140.637 73.1415L142.104 72.8633L141.115 76.0391L139.644 76.318Z" fill="#111111"/>
</g>
<g filter="url(#filter4_b_1_258)">
<rect x="164" y="90" width="59.3028" height="16.9542" rx="8.4771" fill="white"/>
<path d="M170.265 94.0589H171.756V98.5021H171.814L174.867 94.0589H176.175V101.124H174.681V96.6772H174.629L171.559 101.124H170.265V94.0589ZM180.875 97.8881V99.0437H178.108V97.8881H180.875ZM178.591 95.8252V101.124H177.187V95.8252H178.591ZM181.796 95.8252V101.124H180.402V95.8252H181.796ZM182.209 96.9808V95.8252H187.011V96.9808H185.304V101.124H183.903V96.9808H182.209ZM189.933 101.227C189.388 101.227 188.919 101.117 188.526 100.896C188.135 100.673 187.833 100.358 187.622 99.951C187.41 99.5416 187.304 99.0575 187.304 98.4987C187.304 97.9536 187.41 97.4753 187.622 97.0636C187.833 96.6519 188.131 96.3311 188.515 96.1011C188.902 95.8712 189.355 95.7562 189.874 95.7562C190.224 95.7562 190.549 95.8125 190.851 95.9252C191.154 96.0356 191.419 96.2023 191.644 96.4254C191.872 96.6485 192.049 96.9291 192.175 97.2671C192.302 97.6029 192.365 97.9962 192.365 98.4469V98.8505H187.891V97.9398H190.982C190.982 97.7282 190.936 97.5408 190.844 97.3775C190.752 97.2142 190.624 97.0866 190.461 96.9946C190.3 96.9003 190.112 96.8532 189.899 96.8532C189.675 96.8532 189.478 96.9049 189.305 97.0084C189.135 97.1096 189.002 97.2464 188.905 97.4189C188.808 97.5891 188.759 97.7788 188.757 97.9881V98.854C188.757 99.1162 188.805 99.3427 188.902 99.5336C189 99.7245 189.14 99.8716 189.319 99.9751C189.498 100.079 189.711 100.13 189.957 100.13C190.12 100.13 190.27 100.107 190.406 100.061C190.541 100.015 190.657 99.9464 190.754 99.8544C190.851 99.7624 190.924 99.6497 190.975 99.5163L192.334 99.606C192.265 99.9326 192.124 100.218 191.91 100.462C191.698 100.703 191.424 100.892 191.089 101.027C190.755 101.161 190.37 101.227 189.933 101.227ZM193.13 103.111V95.8252H194.579V96.7152H194.644C194.709 96.5726 194.802 96.4277 194.924 96.2805C195.048 96.131 195.209 96.0069 195.407 95.908C195.607 95.8068 195.855 95.7562 196.152 95.7562C196.538 95.7562 196.895 95.8574 197.221 96.0597C197.548 96.2598 197.809 96.5623 198.004 96.967C198.2 97.3695 198.297 97.8743 198.297 98.4814C198.297 99.0725 198.202 99.5715 198.011 99.9786C197.822 100.383 197.565 100.69 197.238 100.9C196.914 101.107 196.551 101.21 196.148 101.21C195.863 101.21 195.62 101.163 195.42 101.069C195.223 100.974 195.06 100.856 194.934 100.713C194.807 100.568 194.711 100.422 194.644 100.275H194.599V103.111H193.13ZM194.568 98.4745C194.568 98.7896 194.612 99.0644 194.699 99.299C194.787 99.5336 194.913 99.7164 195.079 99.8475C195.244 99.9763 195.446 100.041 195.683 100.041C195.922 100.041 196.124 99.9751 196.29 99.844C196.455 99.7107 196.581 99.5267 196.666 99.2921C196.753 99.0552 196.797 98.7827 196.797 98.4745C196.797 98.1686 196.754 97.8996 196.669 97.6673C196.584 97.435 196.459 97.2533 196.293 97.1222C196.128 96.9912 195.924 96.9256 195.683 96.9256C195.443 96.9256 195.241 96.9889 195.075 97.1153C194.912 97.2418 194.787 97.4212 194.699 97.6535C194.612 97.8858 194.568 98.1595 194.568 98.4745ZM199.083 101.124V95.8252H201.342C201.995 95.8252 202.512 95.9494 202.891 96.1977C203.271 96.4461 203.46 96.7991 203.46 97.2568C203.46 97.5443 203.354 97.7834 203.14 97.9743C202.926 98.1652 202.629 98.294 202.25 98.3607C202.567 98.3837 202.837 98.4561 203.06 98.578C203.286 98.6976 203.457 98.8528 203.574 99.0437C203.694 99.2346 203.754 99.4462 203.754 99.6785C203.754 99.9797 203.673 100.238 203.512 100.455C203.354 100.671 203.12 100.836 202.812 100.951C202.506 101.066 202.132 101.124 201.691 101.124H199.083ZM200.452 100.023H201.691C201.895 100.023 202.055 99.9751 202.17 99.8785C202.288 99.7796 202.346 99.6451 202.346 99.4749C202.346 99.2863 202.288 99.138 202.17 99.0299C202.055 98.9218 201.895 98.8678 201.691 98.8678H200.452V100.023ZM200.452 98.0054H201.373C201.521 98.0054 201.646 97.9847 201.749 97.9433C201.855 97.8996 201.936 97.8375 201.991 97.757C202.048 97.6765 202.077 97.5811 202.077 97.4707C202.077 97.3074 202.012 97.1797 201.88 97.0878C201.749 96.9958 201.57 96.9498 201.342 96.9498H200.452V98.0054ZM205.407 97.4534H206.99C207.692 97.4534 208.239 97.6213 208.632 97.9571C209.025 98.2905 209.222 98.7367 209.222 99.2955C209.222 99.6589 209.133 99.9786 208.956 100.255C208.779 100.528 208.524 100.742 208.191 100.896C207.857 101.048 207.457 101.124 206.99 101.124H204.486V95.8252H205.89V99.9682H206.99C207.236 99.9682 207.439 99.9061 207.597 99.7819C207.756 99.6578 207.836 99.4991 207.839 99.3059C207.836 99.1012 207.756 98.9345 207.597 98.8057C207.439 98.6746 207.236 98.6091 206.99 98.6091H205.407V97.4534ZM212.931 97.9191V99.0851H210.057V97.9191H212.931ZM211.192 95.8252V101.124H209.726V95.8252H211.192ZM214.518 101.227C213.994 101.227 213.54 101.11 213.159 100.875C212.777 100.641 212.483 100.317 212.276 99.9027C212.071 99.4887 211.969 99.0138 211.969 98.478C211.969 97.9421 212.071 97.4695 212.276 97.0602C212.483 96.6508 212.777 96.3311 213.159 96.1011C213.54 95.8712 213.994 95.7562 214.518 95.7562C215.045 95.7562 215.498 95.8712 215.877 96.1011C216.259 96.3311 216.552 96.6508 216.757 97.0602C216.964 97.4695 217.067 97.9421 217.067 98.478C217.067 99.0138 216.964 99.4887 216.757 99.9027C216.552 100.317 216.259 100.641 215.877 100.875C215.498 101.11 215.045 101.227 214.518 101.227ZM214.518 100.041C214.792 100.041 215.012 99.974 215.18 99.8406C215.348 99.7049 215.471 99.5198 215.549 99.2852C215.628 99.0483 215.667 98.7792 215.667 98.478C215.667 98.1767 215.628 97.9099 215.549 97.6776C215.471 97.4431 215.348 97.2591 215.18 97.1257C215.012 96.9923 214.792 96.9256 214.518 96.9256C214.247 96.9256 214.026 96.9923 213.856 97.1257C213.685 97.2568 213.56 97.4385 213.48 97.6707C213.401 97.903 213.362 98.1721 213.362 98.478C213.362 98.7815 213.401 99.0506 213.48 99.2852C213.56 99.5198 213.685 99.7049 213.856 99.8406C214.026 99.974 214.247 100.041 214.518 100.041Z" fill="#111111"/>
</g>
<g filter="url(#filter5_b_1_258)">
<rect x="60.3336" y="120" width="78.3028" height="16.9542" rx="8.4771" transform="rotate(4.5116 60.3336 120)" fill="white"/>
<path d="M66.2604 124.539L68.0968 124.684L69.663 129.569L69.7455 129.576L72.0585 124.997L73.8949 125.142L73.3392 132.185L71.8948 132.071L72.2565 127.487L72.198 127.482L70.0164 131.888L69.0328 131.81L67.5705 127.099L67.5121 127.095L67.149 131.696L65.7046 131.582L66.2604 124.539ZM75.897 130.442L78.0631 127.242L79.5074 127.356L79.0906 132.638L77.6944 132.528L77.9595 129.168L75.7995 132.379L74.3448 132.264L74.7616 126.982L76.1613 127.092L75.897 130.442ZM84.0022 129.78L83.9113 130.932L81.1532 130.715L81.2441 129.563L84.0022 129.78ZM81.8878 127.544L81.471 132.826L80.0714 132.716L80.4882 127.434L81.8878 127.544ZM85.0826 127.796L84.6658 133.078L83.2765 132.969L83.6933 127.686L85.0826 127.796ZM87.1609 131.331L89.327 128.131L90.7713 128.245L90.3545 133.527L88.9583 133.417L89.2234 130.057L87.0634 133.268L85.6087 133.153L86.0255 127.871L87.4252 127.981L87.1609 131.331ZM94.9005 130.391L94.8087 131.553L91.5967 131.3L91.6884 130.138L94.9005 130.391ZM98.0596 134.239C97.5254 134.197 97.0724 134.047 96.7005 133.789C96.3312 133.529 96.0571 133.187 95.8784 132.762C95.6998 132.335 95.6319 131.851 95.6746 131.31C95.7177 130.765 95.8608 130.296 96.1039 129.905C96.3472 129.511 96.6715 129.216 97.0769 129.019C97.4847 128.821 97.9557 128.743 98.4899 128.785C99.0241 128.827 99.4759 128.978 99.8453 129.238C100.217 129.496 100.492 129.838 100.671 130.265C100.85 130.69 100.917 131.175 100.874 131.721C100.832 132.262 100.689 132.729 100.445 133.123C100.202 133.514 99.8767 133.809 99.4689 134.008C99.0635 134.204 98.5938 134.281 98.0596 134.239ZM98.156 133.105C98.399 133.124 98.6073 133.071 98.781 132.946C98.9548 132.819 99.0925 132.639 99.194 132.405C99.2978 132.171 99.3618 131.9 99.3861 131.593C99.4103 131.285 99.3895 131.008 99.3237 130.761C99.2602 130.514 99.1525 130.314 99.0008 130.161C98.849 130.008 98.6516 129.922 98.4086 129.903C98.1633 129.884 97.9515 129.937 97.7731 130.064C97.5969 130.191 97.457 130.371 97.3532 130.605C97.2516 130.839 97.1887 131.11 97.1645 131.417C97.1403 131.725 97.1599 132.002 97.2235 132.249C97.2893 132.497 97.3992 132.697 97.5533 132.85C97.7098 133 97.9107 133.085 98.156 133.105ZM106.388 127.526L106.76 128.517C106.601 128.629 106.428 128.708 106.243 128.753C106.057 128.796 105.837 128.817 105.584 128.815C105.332 128.814 105.026 128.802 104.666 128.781C104.257 128.753 103.92 128.792 103.653 128.898C103.386 129.004 103.176 129.187 103.022 129.447C102.867 129.705 102.753 130.049 102.677 130.479L102.729 130.483C102.912 130.172 103.155 129.94 103.455 129.786C103.758 129.632 104.121 129.572 104.546 129.605C104.995 129.641 105.38 129.77 105.702 129.994C106.026 130.218 106.267 130.522 106.426 130.906C106.585 131.29 106.644 131.74 106.603 132.256C106.561 132.792 106.418 133.25 106.176 133.63C105.936 134.008 105.615 134.291 105.213 134.478C104.811 134.663 104.344 134.735 103.812 134.693C103.278 134.651 102.826 134.502 102.456 134.247C102.089 133.992 101.817 133.637 101.64 133.182C101.466 132.728 101.404 132.181 101.455 131.541L101.489 131.108C101.589 129.836 101.912 128.912 102.455 128.336C102.999 127.761 103.751 127.507 104.713 127.573C104.975 127.589 105.211 127.607 105.421 127.626C105.632 127.645 105.818 127.649 105.978 127.639C106.14 127.628 106.277 127.591 106.388 127.526ZM103.908 133.559C104.133 133.576 104.33 133.533 104.5 133.429C104.672 133.325 104.81 133.167 104.914 132.956C105.021 132.746 105.086 132.489 105.11 132.186C105.134 131.886 105.109 131.628 105.036 131.412C104.966 131.194 104.853 131.024 104.699 130.901C104.545 130.778 104.355 130.708 104.128 130.69C103.958 130.677 103.803 130.695 103.663 130.747C103.523 130.798 103.4 130.881 103.294 130.994C103.191 131.106 103.106 131.248 103.039 131.421C102.975 131.591 102.934 131.788 102.916 132.013C102.88 132.465 102.95 132.829 103.124 133.106C103.301 133.38 103.562 133.531 103.908 133.559ZM107.028 133.338L108.448 133.45C108.441 133.624 108.508 133.768 108.649 133.881C108.79 133.993 108.979 134.059 109.215 134.078C109.454 134.097 109.659 134.057 109.83 133.96C110.002 133.861 110.096 133.707 110.112 133.498C110.122 133.37 110.099 133.256 110.042 133.157C109.986 133.055 109.902 132.973 109.792 132.909C109.682 132.845 109.551 132.807 109.399 132.795L108.639 132.735L108.715 131.775L109.475 131.835C109.702 131.853 109.881 131.814 110.01 131.718C110.142 131.622 110.215 131.496 110.227 131.337C110.241 131.159 110.188 131.01 110.069 130.892C109.951 130.772 109.785 130.704 109.569 130.687C109.351 130.67 109.166 130.705 109.014 130.792C108.864 130.877 108.781 130.997 108.764 131.153L107.351 131.041C107.38 130.725 107.497 130.459 107.701 130.242C107.907 130.025 108.174 129.866 108.5 129.765C108.829 129.664 109.19 129.629 109.584 129.66C110.015 129.694 110.382 129.784 110.684 129.93C110.989 130.074 111.216 130.264 111.366 130.5C111.518 130.736 111.582 131.007 111.558 131.314C111.536 131.594 111.426 131.821 111.227 131.994C111.029 132.168 110.762 132.282 110.425 132.336L110.421 132.391C110.638 132.422 110.83 132.496 110.999 132.613C111.167 132.73 111.297 132.883 111.388 133.073C111.479 133.26 111.515 133.476 111.496 133.721C111.47 134.049 111.352 134.322 111.141 134.541C110.932 134.76 110.654 134.919 110.307 135.019C109.963 135.116 109.574 135.148 109.14 135.113C108.719 135.08 108.345 134.989 108.02 134.842C107.697 134.692 107.447 134.49 107.268 134.236C107.092 133.982 107.012 133.682 107.028 133.338ZM114.464 135.533C113.929 135.491 113.476 135.341 113.105 135.084C112.735 134.824 112.461 134.481 112.282 134.057C112.104 133.63 112.036 133.146 112.079 132.605C112.122 132.059 112.265 131.59 112.508 131.199C112.751 130.805 113.076 130.51 113.481 130.314C113.889 130.115 114.36 130.037 114.894 130.079C115.428 130.121 115.88 130.272 116.249 130.532C116.621 130.79 116.896 131.132 117.075 131.559C117.254 131.984 117.322 132.469 117.278 133.015C117.236 133.556 117.093 134.023 116.849 134.417C116.606 134.809 116.281 135.104 115.873 135.302C115.468 135.498 114.998 135.576 114.464 135.533ZM114.56 134.399C114.803 134.418 115.011 134.366 115.185 134.241C115.359 134.114 115.497 133.933 115.598 133.699C115.702 133.465 115.766 133.194 115.79 132.887C115.814 132.58 115.794 132.303 115.728 132.055C115.664 131.808 115.557 131.608 115.405 131.455C115.253 131.303 115.056 131.217 114.813 131.197C114.567 131.178 114.356 131.232 114.177 131.358C114.001 131.485 113.861 131.666 113.757 131.9C113.656 132.134 113.593 132.405 113.569 132.712C113.544 133.019 113.564 133.296 113.628 133.543C113.693 133.791 113.803 133.991 113.957 134.144C114.114 134.295 114.315 134.38 114.56 134.399ZM117.674 137.676L118.247 130.413L119.692 130.527L119.622 131.414L119.687 131.419C119.763 131.282 119.867 131.145 120 131.008C120.135 130.869 120.306 130.758 120.511 130.675C120.718 130.589 120.97 130.559 121.265 130.582C121.651 130.612 121.998 130.741 122.308 130.969C122.617 131.194 122.854 131.516 123.017 131.935C123.18 132.351 123.238 132.862 123.19 133.468C123.144 134.057 123.009 134.547 122.787 134.937C122.567 135.326 122.286 135.612 121.944 135.795C121.605 135.976 121.234 136.05 120.833 136.019C120.549 135.996 120.31 135.93 120.118 135.82C119.929 135.711 119.776 135.58 119.661 135.428C119.547 135.274 119.462 135.12 119.407 134.968L119.362 134.965L119.139 137.792L117.674 137.676ZM119.473 133.167C119.448 133.481 119.47 133.759 119.539 134C119.608 134.24 119.719 134.432 119.874 134.576C120.029 134.718 120.225 134.798 120.461 134.816C120.699 134.835 120.906 134.786 121.081 134.668C121.257 134.548 121.396 134.374 121.5 134.147C121.605 133.918 121.67 133.65 121.695 133.343C121.719 133.038 121.697 132.766 121.631 132.528C121.564 132.29 121.454 132.099 121.299 131.955C121.144 131.811 120.946 131.73 120.706 131.711C120.467 131.692 120.261 131.739 120.085 131.852C119.913 131.965 119.774 132.134 119.668 132.359C119.563 132.584 119.498 132.853 119.473 133.167ZM124.972 132.577L126.551 132.701C127.25 132.757 127.782 132.967 128.148 133.333C128.514 133.696 128.675 134.156 128.631 134.713C128.602 135.076 128.489 135.387 128.29 135.649C128.092 135.907 127.821 136.101 127.477 136.228C127.132 136.353 126.727 136.397 126.262 136.361L123.765 136.164L124.182 130.881L125.582 130.992L125.256 135.122L126.353 135.208C126.598 135.228 126.805 135.182 126.973 135.071C127.141 134.959 127.233 134.807 127.251 134.615C127.265 134.411 127.198 134.238 127.049 134.097C126.902 133.954 126.705 133.873 126.46 133.854L124.881 133.729L124.972 132.577ZM129.054 136.581L129.471 131.299L130.936 131.414L130.519 136.696L129.054 136.581Z" fill="#111111"/>
</g>
<g filter="url(#filter6_b_1_258)">
<rect x="51.9214" y="190" width="86.5368" height="17.3052" rx="8.65261" transform="rotate(3.05221 51.9214 190)" fill="white"/>
<path d="M58.0903 194.416L59.9679 194.516L61.693 199.46L61.7774 199.464L64.0184 194.732L65.896 194.832L65.512 202.033L64.0353 201.954L64.2852 197.267L64.2254 197.264L62.1138 201.816L61.1082 201.763L59.4937 196.994L59.4339 196.991L59.1831 201.695L57.7063 201.617L58.0903 194.416ZM68.9959 202.324C68.4404 202.295 67.9682 202.157 67.5793 201.91C67.193 201.662 66.903 201.324 66.7095 200.898C66.5161 200.469 66.4346 199.97 66.4649 199.4C66.4946 198.845 66.6284 198.363 66.8664 197.955C67.1044 197.547 67.4254 197.236 67.8294 197.022C68.2357 196.809 68.7037 196.716 69.2335 196.745C69.5898 196.764 69.9184 196.839 70.2194 196.97C70.5228 197.099 70.7833 197.283 71.0009 197.523C71.2208 197.763 71.3861 198.058 71.4966 198.41C71.6073 198.759 71.6504 199.163 71.6259 199.623L71.6039 200.034L67.0435 199.791L67.093 198.863L70.2435 199.031C70.255 198.815 70.2183 198.621 70.1334 198.45C70.0485 198.278 69.9253 198.141 69.7639 198.039C69.605 197.934 69.4165 197.876 69.1985 197.864C68.9711 197.852 68.7667 197.894 68.5853 197.99C68.4063 198.084 68.2629 198.216 68.1551 198.387C68.0474 198.555 67.9867 198.746 67.973 198.959L67.9259 199.841C67.9117 200.109 67.9486 200.342 68.0366 200.542C68.1271 200.742 68.2609 200.899 68.4381 201.015C68.6153 201.13 68.8293 201.194 69.0801 201.208C69.2466 201.216 69.4002 201.201 69.541 201.162C69.6818 201.122 69.8039 201.058 69.9074 200.97C70.0108 200.881 70.0919 200.77 70.1508 200.637L71.5312 200.802C71.4432 201.131 71.2835 201.414 71.0523 201.651C70.8235 201.886 70.5343 202.063 70.1847 202.183C69.8375 202.301 69.4413 202.348 68.9959 202.324ZM75.5408 200.907L77.2031 197.24L78.3424 197.301L75.9482 202.589L74.9532 202.536L73.1842 197.026L74.3199 197.086L75.5408 200.907ZM73.9789 197.068L73.6909 202.469L72.2598 202.393L72.5478 196.992L73.9789 197.068ZM77.2879 202.661L77.5758 197.26L78.9893 197.335L78.7013 202.736L77.2879 202.661ZM80.8002 199.096L82.414 199.182C83.129 199.22 83.6777 199.421 84.0603 199.785C84.443 200.146 84.6192 200.612 84.5888 201.181C84.5691 201.552 84.4615 201.873 84.266 202.144C84.0706 202.414 83.7988 202.618 83.4505 202.757C83.1024 202.893 82.6904 202.949 82.2146 202.923L79.6619 202.787L79.9498 197.387L81.3809 197.463L81.1557 201.686L82.2774 201.746C82.5282 201.759 82.7378 201.707 82.9063 201.589C83.0748 201.471 83.1655 201.313 83.1783 201.117C83.1871 200.908 83.1141 200.733 82.9594 200.594C82.8048 200.451 82.6021 200.374 82.3512 200.36L80.7373 200.274L80.8002 199.096ZM85.0696 203.076L85.3576 197.675L86.8555 197.755L86.5675 203.156L85.0696 203.076ZM92.0948 203.556C91.5416 203.527 91.0721 203.384 90.6861 203.128C90.3025 202.87 90.0153 202.526 89.8244 202.095C89.6358 201.664 89.556 201.176 89.5852 200.63C89.6147 200.076 89.7472 199.597 89.9827 199.191C90.2208 198.783 90.5441 198.472 90.9528 198.259C91.3615 198.043 91.839 197.95 92.3852 197.979C92.8563 198.004 93.2643 198.112 93.6091 198.302C93.954 198.492 94.2213 198.747 94.4111 199.067C94.6008 199.388 94.6952 199.757 94.694 200.176L93.2805 200.1C93.2551 199.829 93.1611 199.606 92.9988 199.433C92.8389 199.257 92.6218 199.162 92.3475 199.148C92.1155 199.135 91.9093 199.188 91.7291 199.305C91.5514 199.42 91.4081 199.595 91.2992 199.829C91.1904 200.063 91.1269 200.35 91.1088 200.69C91.0904 201.034 91.1216 201.33 91.2025 201.576C91.2858 201.823 91.4107 202.014 91.5774 202.15C91.7442 202.286 91.9435 202.36 92.1756 202.372C92.3467 202.381 92.5021 202.354 92.6418 202.291C92.7839 202.228 92.903 202.132 92.9992 202.003C93.0979 201.872 93.1663 201.713 93.2046 201.524L94.6181 201.6C94.5726 202.011 94.4407 202.368 94.2224 202.672C94.0065 202.973 93.7181 203.202 93.3571 203.359C92.9961 203.516 92.5754 203.582 92.0948 203.556ZM97.3671 203.731L97.6551 198.331L99.1529 198.411L99.0412 200.506L99.4631 200.529L101.045 198.511L102.803 198.605L100.751 201.183L102.536 204.007L100.757 203.912L99.5262 201.925L98.9671 201.895L98.865 203.811L97.3671 203.731ZM105.183 204.254C104.637 204.225 104.17 204.084 103.784 203.83C103.401 203.575 103.112 203.233 102.919 202.804C102.726 202.373 102.644 201.881 102.673 201.327C102.703 200.77 102.837 200.288 103.075 199.882C103.313 199.474 103.636 199.164 104.044 198.953C104.455 198.74 104.934 198.648 105.48 198.677C106.026 198.706 106.491 198.849 106.875 199.104C107.261 199.358 107.551 199.7 107.744 200.131C107.937 200.56 108.019 201.053 107.989 201.611C107.96 202.164 107.826 202.645 107.588 203.053C107.35 203.459 107.026 203.768 106.615 203.981C106.206 204.192 105.729 204.283 105.183 204.254ZM105.252 203.094C105.5 203.107 105.711 203.048 105.885 202.916C106.059 202.782 106.195 202.594 106.293 202.353C106.393 202.111 106.451 201.833 106.468 201.519C106.484 201.205 106.456 200.923 106.382 200.672C106.311 200.421 106.196 200.22 106.037 200.068C105.878 199.916 105.675 199.834 105.426 199.82C105.175 199.807 104.961 199.867 104.782 200.001C104.606 200.135 104.467 200.323 104.368 200.564C104.27 200.806 104.213 201.084 104.196 201.398C104.179 201.712 104.207 201.995 104.278 202.245C104.352 202.496 104.469 202.697 104.63 202.849C104.794 202.999 105.001 203.081 105.252 203.094ZM108.325 200.081L108.388 198.903L113.282 199.164L113.219 200.342L111.479 200.249L111.253 204.472L109.826 204.396L110.051 200.173L108.325 200.081ZM115.045 204.776C114.701 204.758 114.397 204.682 114.134 204.548C113.87 204.412 113.667 204.221 113.522 203.976C113.38 203.728 113.319 203.427 113.338 203.07C113.354 202.77 113.422 202.521 113.543 202.323C113.664 202.125 113.823 201.969 114.02 201.855C114.216 201.741 114.437 201.658 114.682 201.608C114.929 201.558 115.187 201.527 115.455 201.515C115.771 201.499 116.026 201.482 116.22 201.464C116.413 201.444 116.555 201.407 116.645 201.353C116.735 201.299 116.783 201.215 116.789 201.1L116.79 201.079C116.802 200.856 116.741 200.68 116.607 200.551C116.475 200.421 116.281 200.35 116.026 200.336C115.756 200.322 115.539 200.37 115.373 200.481C115.207 200.59 115.094 200.732 115.033 200.907L113.654 200.721C113.741 200.397 113.895 200.12 114.114 199.892C114.333 199.662 114.609 199.491 114.942 199.379C115.277 199.266 115.66 199.22 116.091 199.243C116.391 199.259 116.677 199.31 116.947 199.395C117.22 199.48 117.459 199.602 117.665 199.761C117.872 199.92 118.032 200.119 118.144 200.358C118.256 200.594 118.303 200.873 118.286 201.194L118.092 204.836L116.672 204.761L116.711 204.012L116.669 204.01C116.574 204.174 116.45 204.316 116.297 204.438C116.145 204.556 115.965 204.647 115.758 204.708C115.55 204.768 115.312 204.791 115.045 204.776ZM115.529 203.765C115.75 203.777 115.946 203.744 116.12 203.666C116.293 203.586 116.432 203.474 116.536 203.329C116.64 203.184 116.698 203.017 116.708 202.827L116.738 202.254C116.69 202.282 116.624 202.306 116.54 202.328C116.459 202.347 116.368 202.364 116.266 202.38C116.164 202.394 116.063 202.406 115.961 202.417C115.859 202.425 115.767 202.433 115.685 202.441C115.507 202.457 115.352 202.49 115.217 202.539C115.083 202.589 114.977 202.659 114.899 202.752C114.822 202.841 114.779 202.957 114.772 203.097C114.761 203.301 114.826 203.461 114.968 203.577C115.112 203.69 115.3 203.753 115.529 203.765ZM122.337 203.402L123.999 199.735L125.139 199.796L122.744 205.085L121.749 205.031L119.98 199.521L121.116 199.582L122.337 203.402ZM120.775 199.563L120.487 204.964L119.056 204.888L119.344 199.487L120.775 199.563ZM124.084 205.156L124.372 199.755L125.786 199.831L125.498 205.231L124.084 205.156ZM127.995 203.383L130.122 200.062L131.598 200.141L131.31 205.541L129.883 205.465L130.066 202.03L127.945 205.362L126.458 205.283L126.746 199.882L128.177 199.958L127.995 203.383Z" fill="#111111"/>
</g>
<rect x="192.096" y="70" width="38.9016" height="31.6728" transform="rotate(30.5431 192.096 70)" fill="url(#paint4_linear_1_258)"/>
</g>
<defs>
<filter id="filter0_d_1_258" x="-11.7627" y="-12.2596" width="336.023" height="336.023" filterUnits="userSpaceOnUse" color-interpolation-filters="sRGB">
<feFlood flood-opacity="0" result="BackgroundImageFix"/>
<feColorMatrix in="SourceAlpha" type="matrix" values="0 0 0 0 0 0 0 0 0 0 0 0 0 0 0 0 0 0 127 0" result="hardAlpha"/>
<feOffset/>
<feGaussianBlur stdDeviation="14.975"/>
<feComposite in2="hardAlpha" operator="out"/>
<feColorMatrix type="matrix" values="0 0 0 0 0 0 0 0 0 0 0 0 0 0 0 0 0 0 0.1 0"/>
<feBlend mode="normal" in2="BackgroundImageFix" result="effect1_dropShadow_1_258"/>
<feBlend mode="normal" in="SourceGraphic" in2="effect1_dropShadow_1_258" result="shape"/>
</filter>
<filter id="filter1_ii_1_258" x="18.1873" y="13.9506" width="276.123" height="281.109" filterUnits="userSpaceOnUse" color-interpolation-filters="sRGB">
<feFlood flood-opacity="0" result="BackgroundImageFix"/>
<feBlend mode="normal" in="SourceGraphic" in2="BackgroundImageFix" result="shape"/>
<feColorMatrix in="SourceAlpha" type="matrix" values="0 0 0 0 0 0 0 0 0 0 0 0 0 0 0 0 0 0 127 0" result="hardAlpha"/>
<feOffset dy="-3.73981"/>
<feGaussianBlur stdDeviation="3.73981"/>
<feComposite in2="hardAlpha" operator="arithmetic" k2="-1" k3="1"/>
<feColorMatrix type="matrix" values="0 0 0 0 0 0 0 0 0 0 0 0 0 0 0 0 0 0 0.11 0"/>
<feBlend mode="normal" in2="shape" result="effect1_innerShadow_1_258"/>
<feColorMatrix in="SourceAlpha" type="matrix" values="0 0 0 0 0 0 0 0 0 0 0 0 0 0 0 0 0 0 127 0" result="hardAlpha"/>
<feOffset dy="2.49321"/>
<feGaussianBlur stdDeviation="0.623302"/>
<feComposite in2="hardAlpha" operator="arithmetic" k2="-1" k3="1"/>
<feColorMatrix type="matrix" values="0 0 0 0 0.8625 0 0 0 0 0.675625 0 0 0 0 0.821387 0 0 0 0.04 0"/>
<feBlend mode="normal" in2="effect1_innerShadow_1_258" result="effect2_innerShadow_1_258"/>
</filter>
<filter id="filter2_f_1_258" x="35.0162" y="33.2728" width="242.465" height="243.711" filterUnits="userSpaceOnUse" color-interpolation-filters="sRGB">
<feFlood flood-opacity="0" result="BackgroundImageFix"/>
<feBlend mode="normal" in="SourceGraphic" in2="BackgroundImageFix" result="shape"/>
<feGaussianBlur stdDeviation="0.623302" result="effect1_foregroundBlur_1_258"/>
</filter>
<filter id="filter3_b_1_258" x="56.9507" y="37.9847" width="120.257" height="78.8611" filterUnits="userSpaceOnUse" color-interpolation-filters="sRGB">
<feFlood flood-opacity="0" result="BackgroundImageFix"/>
<feGaussianBlur in="BackgroundImageFix" stdDeviation="12.0246"/>
<feComposite in2="SourceAlpha" operator="in" result="effect1_backgroundBlur_1_258"/>
<feBlend mode="normal" in="SourceGraphic" in2="effect1_backgroundBlur_1_258" result="shape"/>
</filter>
<filter id="filter4_b_1_258" x="141.394" y="67.3944" width="104.514" height="62.1654" filterUnits="userSpaceOnUse" color-interpolation-filters="sRGB">
<feFlood flood-opacity="0" result="BackgroundImageFix"/>
<feGaussianBlur in="BackgroundImageFix" stdDeviation="11.3028"/>
<feComposite in2="SourceAlpha" operator="in" result="effect1_backgroundBlur_1_258"/>
<feBlend mode="normal" in="SourceGraphic" in2="effect1_backgroundBlur_1_258" result="shape"/>
</filter>
<filter id="filter5_b_1_258" x="36.3944" y="97.3944" width="124.605" height="68.2722" filterUnits="userSpaceOnUse" color-interpolation-filters="sRGB">
<feFlood flood-opacity="0" result="BackgroundImageFix"/>
<feGaussianBlur in="BackgroundImageFix" stdDeviation="11.3028"/>
<feComposite in2="SourceAlpha" operator="in" result="effect1_backgroundBlur_1_258"/>
<feBlend mode="normal" in="SourceGraphic" in2="effect1_backgroundBlur_1_258" result="shape"/>
</filter>
<filter id="filter6_b_1_258" x="27.9264" y="166.926" width="133.483" height="68.0357" filterUnits="userSpaceOnUse" color-interpolation-filters="sRGB">
<feFlood flood-opacity="0" result="BackgroundImageFix"/>
<feGaussianBlur in="BackgroundImageFix" stdDeviation="11.5368"/>
<feComposite in2="SourceAlpha" operator="in" result="effect1_backgroundBlur_1_258"/>
<feBlend mode="normal" in="SourceGraphic" in2="effect1_backgroundBlur_1_258" result="shape"/>
</filter>
<radialGradient id="paint0_radial_1_258" cx="0" cy="0" r="1" gradientUnits="userSpaceOnUse" gradientTransform="translate(156.249 155.752) rotate(90) scale(138.061)">
<stop stop-color="#160B15"/>
<stop offset="1" stop-color="#0C060B"/>
</radialGradient>
<radialGradient id="paint1_angular_1_258" cx="0" cy="0" r="1" gradientUnits="userSpaceOnUse" gradientTransform="translate(156.248 155.752) rotate(90) scale(119.986)">
<stop stop-color="#5C24FF"/>
<stop offset="0.62" stop-color="white"/>
<stop offset="0.9999" stop-color="white"/>
</radialGradient>
<radialGradient id="paint2_angular_1_258" cx="0" cy="0" r="1" gradientUnits="userSpaceOnUse" gradientTransform="translate(156.248 155.752) rotate(45) scale(138.061 138.061)">
<stop offset="0.03125" stop-color="#111111"/>
<stop offset="0.135417" stop-color="#9F0073"/>
<stop offset="0.255208" stop-color="#111111"/>
<stop offset="1" stop-color="#111111"/>
</radialGradient>
<linearGradient id="paint3_linear_1_258" x1="157" y1="218" x2="111" y2="218" gradientUnits="userSpaceOnUse">
<stop stop-color="#A889FF"/>
<stop offset="1" stop-color="#5C24FF" stop-opacity="0"/>
</linearGradient>
<linearGradient id="paint4_linear_1_258" x1="188.559" y1="74.319" x2="236.057" y2="80.1529" gradientUnits="userSpaceOnUse">
<stop stop-color="white" stop-opacity="0"/>
<stop offset="1" stop-color="white"/>
</linearGradient>
<clipPath id="clip0_1_258">
<rect width="312" height="312" fill="white"/>
</clipPath>
</defs>
</svg>
