<svg width="1728" height="304" viewBox="0 0 1728 304" fill="none" xmlns="http://www.w3.org/2000/svg">
<g clip-path="url(#clip0_1_73)">
<rect width="1728" height="304" transform="matrix(1 0 0 -1 0 304)" fill="url(#paint0_linear_1_73)"/>
<g filter="url(#filter0_d_1_73)">
<rect x="1644" y="16" width="68" height="56" rx="28" fill="white"/>
<path d="M1669.01 50V38.3636H1676.85V40.392H1671.47V43.1648H1676.45V45.1932H1671.47V47.9716H1676.88V50H1669.01ZM1680.86 44.9545V50H1678.44V41.2727H1680.75V42.8125H1680.85C1681.05 42.3049 1681.37 41.9034 1681.82 41.608C1682.28 41.3087 1682.83 41.1591 1683.48 41.1591C1684.08 41.1591 1684.61 41.2917 1685.06 41.5568C1685.51 41.822 1685.86 42.2008 1686.11 42.6932C1686.36 43.1818 1686.49 43.7652 1686.49 44.4432V50H1684.07V44.875C1684.07 44.3409 1683.94 43.9242 1683.66 43.625C1683.38 43.322 1683 43.1705 1682.52 43.1705C1682.19 43.1705 1681.9 43.2405 1681.65 43.3807C1681.41 43.5208 1681.21 43.7254 1681.07 43.9943C1680.94 44.2595 1680.87 44.5795 1680.86 44.9545Z" fill="#111111"/>
</g>
</g>
<defs>
<filter id="filter0_d_1_73" x="1622" y="-2" width="112" height="100" filterUnits="userSpaceOnUse" color-interpolation-filters="sRGB">
<feFlood flood-opacity="0" result="BackgroundImageFix"/>
<feColorMatrix in="SourceAlpha" type="matrix" values="0 0 0 0 0 0 0 0 0 0 0 0 0 0 0 0 0 0 127 0" result="hardAlpha"/>
<feOffset dy="4"/>
<feGaussianBlur stdDeviation="11"/>
<feComposite in2="hardAlpha" operator="out"/>
<feColorMatrix type="matrix" values="0 0 0 0 0.360784 0 0 0 0 0.141176 0 0 0 0 1 0 0 0 0.32 0"/>
<feBlend mode="normal" in2="BackgroundImageFix" result="effect1_dropShadow_1_73"/>
<feBlend mode="normal" in="SourceGraphic" in2="effect1_dropShadow_1_73" result="shape"/>
</filter>
<linearGradient id="paint0_linear_1_73" x1="864" y1="0" x2="864" y2="304" gradientUnits="userSpaceOnUse">
<stop stop-color="#AC24FF" stop-opacity="0"/>
<stop offset="1" stop-color="#5C24FF" stop-opacity="0.04"/>
</linearGradient>
<clipPath id="clip0_1_73">
<rect width="1728" height="304" fill="white" transform="matrix(1 0 0 -1 0 304)"/>
</clipPath>
</defs>
</svg>
