<svg width="226" height="45" viewBox="0 0 226 45" fill="none" xmlns="http://www.w3.org/2000/svg">
<path d="M31.8563 23.2648C31.8563 30.6049 25.8532 36.6154 18.3736 36.6154C10.8939 36.6154 4.8908 30.6049 4.8908 23.2648C4.8908 15.9247 10.8939 9.91424 18.3736 9.91424C25.8532 9.91424 31.8563 15.9247 31.8563 23.2648Z" stroke="#3E2193" stroke-width="9.78161"/>
<path d="M58.8221 23.2648C58.8221 30.6049 52.8191 36.6154 45.3394 36.6154C37.8597 36.6154 31.8566 30.6049 31.8566 23.2648C31.8566 15.9247 37.8597 9.91424 45.3394 9.91424C52.8191 9.91424 58.8221 15.9247 58.8221 23.2648Z" stroke="#5C24FF" stroke-width="9.78161"/>
<mask id="path-3-inside-1_1_85" fill="white">
<path d="M26.9653 23.2648C26.9653 20.8693 27.4405 18.4973 28.3639 16.2841C29.2873 14.071 30.6407 12.0601 32.3468 10.3662C34.0529 8.67234 36.0784 7.32869 38.3076 6.41198C40.5368 5.49526 42.926 5.02344 45.3389 5.02344L45.3389 14.7301C44.21 14.7301 43.0921 14.9509 42.0491 15.3798C41.0061 15.8087 40.0585 16.4374 39.2602 17.2299C38.4619 18.0224 37.8287 18.9633 37.3967 19.9987C36.9647 21.0342 36.7423 22.144 36.7423 23.2648H26.9653Z"/>
<path d="M36.7469 23.2648C36.7469 25.6603 36.2717 28.0323 35.3483 30.2455C34.425 32.4586 33.0716 34.4696 31.3654 36.1634C29.6593 37.8573 27.6338 39.2009 25.4046 40.1177C23.1754 41.0344 20.7862 41.5062 18.3733 41.5062V31.7995C19.5023 31.7995 20.6201 31.5787 21.6631 31.1498C22.7061 30.7209 23.6537 30.0923 24.452 29.2997C25.2503 28.5072 25.8835 27.5664 26.3155 26.5309C26.7475 25.4954 26.9699 24.3856 26.9699 23.2648H36.7469Z"/>
</mask>
<path d="M26.9653 23.2648V33.0464H17.1837V23.2648H26.9653ZM45.3389 5.02344L45.3389 -4.75817H55.1205V5.02344L45.3389 5.02344ZM45.3389 14.7301H55.1205L55.1205 24.5118H45.3389L45.3389 14.7301ZM36.7423 23.2648H46.524V33.0464H36.7423V23.2648ZM36.7469 23.2648V13.4832H46.5285V23.2648H36.7469ZM18.3733 41.5062L18.3733 51.2878H8.59174V41.5062H18.3733ZM18.3733 31.7995H8.59174V22.0179H18.3733V31.7995ZM26.9699 23.2648H17.1883V13.4832H26.9699V23.2648ZM17.1837 23.2648C17.1837 19.5749 17.9158 15.9229 19.3365 12.5178L37.3913 20.0505C36.9653 21.0717 36.7469 22.1637 36.7469 23.2648H17.1837ZM19.3365 12.5178C20.7571 9.1128 22.8374 6.02358 25.4552 3.42465L39.2384 17.3078C38.4439 18.0966 37.8174 19.0292 37.3913 20.0505L19.3365 12.5178ZM25.4552 3.42465C28.0728 0.82586 31.1765 -1.2319 34.5874 -2.63455L42.0278 15.4585C40.9803 15.8893 40.0331 16.5188 39.2384 17.3078L25.4552 3.42465ZM34.5874 -2.63455C37.9981 -4.03715 41.6512 -4.75817 45.3389 -4.75817L45.3389 14.805C44.2008 14.805 43.0755 15.0277 42.0278 15.4585L34.5874 -2.63455ZM55.1205 5.02344V14.7301H35.5573V5.02344L55.1205 5.02344ZM45.3389 24.5118C45.4847 24.5118 45.6308 24.4833 45.7694 24.4263L38.3289 6.33327C40.5534 5.41848 42.9352 4.94853 45.3389 4.94853L45.3389 24.5118ZM45.7694 24.4263C45.908 24.3693 46.0386 24.2839 46.1518 24.1715L32.3686 10.2883C34.0783 8.59088 36.1042 7.24812 38.3289 6.33327L45.7694 24.4263ZM46.1518 24.1715C46.2652 24.0589 46.3589 23.9215 46.4241 23.7651L28.3693 16.2324C29.2986 14.0051 30.6587 11.9859 32.3686 10.2883L46.1518 24.1715ZM46.4241 23.7651C46.4894 23.6086 46.524 23.4384 46.524 23.2648H26.9607C26.9607 20.8496 27.44 18.4598 28.3693 16.2324L46.4241 23.7651ZM36.7423 33.0464H26.9653V13.4832H36.7423V33.0464ZM46.5285 23.2648C46.5285 26.9547 45.7964 30.6068 44.3757 34.0119L26.3209 26.4791C26.7469 25.4579 26.9653 24.3659 26.9653 23.2648H46.5285ZM44.3757 34.0119C42.9551 37.4168 40.8748 40.5061 38.257 43.105L24.4738 29.2219C25.2683 28.433 25.8948 27.5004 26.3209 26.4791L44.3757 34.0119ZM38.257 43.105C35.6394 45.7038 32.5357 47.7615 29.1248 49.1642L21.6844 31.0711C22.7319 30.6404 23.6791 30.0108 24.4738 29.2219L38.257 43.105ZM29.1248 49.1642C25.7141 50.5668 22.061 51.2878 18.3733 51.2878L18.3733 31.7246C19.5114 31.7246 20.6367 31.502 21.6844 31.0711L29.1248 49.1642ZM8.59174 41.5062V31.7995H28.155V41.5062H8.59174ZM18.3733 22.0179C18.2275 22.0179 18.0814 22.0463 17.9429 22.1033L25.3833 40.1964C23.1588 41.1112 20.777 41.5811 18.3733 41.5811L18.3733 22.0179ZM17.9429 22.1033C17.8042 22.1603 17.6736 22.2458 17.5604 22.3582L31.3436 36.2413C29.6339 37.9387 27.608 39.2815 25.3833 40.1964L17.9429 22.1033ZM17.5604 22.3582C17.447 22.4707 17.3533 22.6082 17.2881 22.7645L35.3429 30.2973C34.4137 32.5246 33.0535 34.5437 31.3436 36.2413L17.5604 22.3582ZM17.2881 22.7645C17.2228 22.921 17.1883 23.0912 17.1883 23.2648H36.7515C36.7515 25.68 36.2722 28.0698 35.3429 30.2973L17.2881 22.7645ZM26.9699 13.4832H36.7469V33.0464H26.9699V13.4832Z" fill="url(#paint0_linear_1_85)" mask="url(#path-3-inside-1_1_85)"/>
<mask id="path-5-inside-2_1_85" fill="white">
<path d="M36.7466 23.2648C36.7466 20.8693 36.2714 18.4973 35.348 16.2841C34.4247 14.071 33.0713 12.0601 31.3651 10.3662C29.659 8.67234 27.6335 7.32869 25.4043 6.41198C23.1751 5.49526 20.7859 5.02344 18.373 5.02344L18.373 14.7301C19.502 14.7301 20.6198 14.9509 21.6628 15.3798C22.7058 15.8087 23.6534 16.4374 24.4517 17.2299C25.25 18.0224 25.8832 18.9633 26.3152 19.9987C26.7472 21.0342 26.9696 22.144 26.9696 23.2648H36.7466Z"/>
<path d="M26.965 23.2648C26.965 25.6603 27.4402 28.0323 28.3636 30.2455C29.287 32.4586 30.6404 34.4696 32.3465 36.1634C34.0526 37.8573 36.0781 39.2009 38.3073 40.1177C40.5365 41.0344 42.9257 41.5062 45.3386 41.5062V31.7995C44.2097 31.7995 43.0918 31.5787 42.0488 31.1498C41.0058 30.7209 40.0582 30.0923 39.2599 29.2997C38.4616 28.5072 37.8284 27.5664 37.3964 26.5309C36.9644 25.4954 36.742 24.3856 36.742 23.2648H26.965Z"/>
</mask>
<path d="M36.7466 23.2648V33.0464H46.5282V23.2648H36.7466ZM18.373 5.02344L18.373 -4.75817H8.59144V5.02344L18.373 5.02344ZM18.373 14.7301H8.59144L8.59144 24.5118H18.373L18.373 14.7301ZM26.9696 23.2648H17.188V33.0464H26.9696V23.2648ZM26.965 23.2648V13.4832H17.1834V23.2648H26.965ZM45.3386 41.5062L45.3386 51.2878H55.1202V41.5062H45.3386ZM45.3386 31.7995H55.1202V22.0179H45.3386V31.7995ZM36.742 23.2648H46.5237V13.4832H36.742V23.2648ZM46.5282 23.2648C46.5282 19.5749 45.7961 15.9229 44.3754 12.5178L26.3206 20.0505C26.7466 21.0717 26.965 22.1637 26.965 23.2648H46.5282ZM44.3754 12.5178C42.9548 9.1128 40.8745 6.02358 38.2567 3.42465L24.4735 17.3078C25.268 18.0966 25.8945 19.0292 26.3206 20.0505L44.3754 12.5178ZM38.2567 3.42465C35.6391 0.82586 32.5354 -1.2319 29.1245 -2.63455L21.6841 15.4585C22.7316 15.8893 23.6788 16.5188 24.4735 17.3078L38.2567 3.42465ZM29.1245 -2.63455C25.7138 -4.03715 22.0607 -4.75817 18.373 -4.75817L18.373 14.805C19.5111 14.805 20.6364 15.0277 21.6841 15.4585L29.1245 -2.63455ZM8.59144 5.02344V14.7301H28.1547V5.02344L8.59144 5.02344ZM18.373 24.5118C18.2272 24.5118 18.0811 24.4833 17.9426 24.4263L25.383 6.33327C23.1585 5.41848 20.7767 4.94853 18.373 4.94853L18.373 24.5118ZM17.9426 24.4263C17.8039 24.3693 17.6733 24.2839 17.5601 24.1715L31.3433 10.2883C29.6336 8.59088 27.6077 7.24812 25.383 6.33327L17.9426 24.4263ZM17.5601 24.1715C17.4467 24.0589 17.353 23.9215 17.2878 23.7651L35.3426 16.2324C34.4134 14.0051 33.0532 11.9859 31.3433 10.2883L17.5601 24.1715ZM17.2878 23.7651C17.2225 23.6086 17.188 23.4384 17.188 23.2648H36.7512C36.7512 20.8496 36.2719 18.4598 35.3426 16.2324L17.2878 23.7651ZM26.9696 33.0464H36.7466V13.4832H26.9696V33.0464ZM17.1834 23.2648C17.1834 26.9547 17.9155 30.6068 19.3362 34.0119L37.391 26.4791C36.965 25.4579 36.7466 24.3659 36.7466 23.2648H17.1834ZM19.3362 34.0119C20.7568 37.4168 22.8371 40.5061 25.4549 43.105L39.2381 29.2219C38.4436 28.433 37.8171 27.5004 37.391 26.4791L19.3362 34.0119ZM25.4549 43.105C28.0725 45.7038 31.1762 47.7615 34.5871 49.1642L42.0275 31.0711C40.98 30.6404 40.0328 30.0108 39.2381 29.2219L25.4549 43.105ZM34.5871 49.1642C37.9978 50.5668 41.6509 51.2878 45.3386 51.2878L45.3386 31.7246C44.2005 31.7246 43.0752 31.502 42.0275 31.0711L34.5871 49.1642ZM55.1202 41.5062V31.7995H35.557V41.5062H55.1202ZM45.3386 22.0179C45.4844 22.0179 45.6305 22.0463 45.7691 22.1033L38.3286 40.1964C40.5531 41.1112 42.9349 41.5811 45.3386 41.5811L45.3386 22.0179ZM45.7691 22.1033C45.9077 22.1603 46.0383 22.2458 46.1515 22.3582L32.3683 36.2413C34.078 37.9387 36.1039 39.2815 38.3286 40.1964L45.7691 22.1033ZM46.1515 22.3582C46.2649 22.4707 46.3586 22.6082 46.4238 22.7645L28.369 30.2973C29.2983 32.5246 30.6584 34.5437 32.3683 36.2413L46.1515 22.3582ZM46.4238 22.7645C46.4891 22.921 46.5237 23.0912 46.5237 23.2648H26.9604C26.9604 25.68 27.4397 28.0698 28.369 30.2973L46.4238 22.7645ZM36.742 13.4832H26.965V33.0464H36.742V13.4832Z" fill="url(#paint1_linear_1_85)" mask="url(#path-5-inside-2_1_85)"/>
<path d="M77.5172 38V7.87135H84.3523V38H77.5172Z" fill="#5C24FF"/>
<path d="M88.0421 38V7.87135H95.9808L101.887 24.6396C102.106 25.2979 102.313 25.9627 102.506 26.634C102.7 27.2923 102.906 27.8861 103.126 28.4154H103.455C103.3 27.8861 103.177 27.2794 103.087 26.5953C102.997 25.8982 102.951 25.285 102.951 24.7558V7.87135H110.58V38H102.835L96.8134 21.6384C96.5424 20.8897 96.2906 20.1474 96.0583 19.4116C95.8259 18.6758 95.6646 18.0498 95.5742 17.5334H95.1095C95.3031 18.011 95.4451 18.5726 95.5355 19.218C95.6259 19.8505 95.671 20.3927 95.671 20.8445L95.6904 38H88.0421Z" fill="#5C24FF"/>
<path d="M114.212 38V7.87135H129.102V14.7452H120.873V20.5928H128.057V26.7695H120.873V38H114.212Z" fill="#5C24FF"/>
<path d="M130.953 38V7.87135H137.633V31.01H147.682V38H130.953Z" fill="#5C24FF"/>
<path d="M148.08 25.356V7.87135H154.838V26.1693C154.838 28.4799 155.096 30.1128 155.612 31.0681C156.142 32.0233 156.858 32.5009 157.762 32.5009C158.82 32.5009 159.562 32.0233 159.988 31.0681C160.414 30.0999 160.627 28.467 160.627 26.1693V7.87135H169.98V25.356C169.98 29.9644 169.07 33.3142 167.249 35.4054C165.442 37.4966 162.815 38.5421 159.369 38.5421C155.599 38.5421 152.772 37.4836 150.888 35.3666C149.016 33.2367 148.08 29.8999 148.08 25.356Z" fill="#5C24FF"/>
<path d="M180.941 38L190.139 7.77454H199.491L208.591 38H201.195L196.412 18.153C196.244 17.5463 196.07 16.9396 195.889 16.3329C195.722 15.7133 195.599 15.2357 195.522 14.9001H195.405C195.302 15.2357 195.16 15.7198 194.979 16.3523C194.799 16.9848 194.631 17.5786 194.476 18.1337L190.1 38H180.941ZM187.176 32.7914L188.725 26.9244H201.718L203.325 32.7914H187.176Z" fill="#5C24FF"/>
<path d="M209.338 38V7.87135H216.173V38H209.338Z" fill="#5C24FF"/>
<path d="M219.044 3.87784C219.183 3.09506 219.588 2.4517 220.262 1.94775C220.935 1.44173 221.725 1.18872 222.632 1.18872C223.541 1.18872 224.244 1.44173 224.742 1.94775C225.239 2.4517 225.419 3.09506 225.281 3.87784C225.144 4.66061 224.737 5.30501 224.06 5.81103C223.385 6.31704 222.593 6.57005 221.684 6.57005C220.777 6.57005 220.076 6.31704 219.58 5.81103C219.087 5.30501 218.908 4.66061 219.044 3.87784ZM219.955 3.87784C219.844 4.47886 219.958 4.97352 220.299 5.36181C220.642 5.74803 221.135 5.94115 221.78 5.94115C222.422 5.94115 222.987 5.74803 223.474 5.36181C223.962 4.97352 224.261 4.47886 224.373 3.87784C224.487 3.28094 224.372 2.78939 224.029 2.40316C223.688 2.01487 223.197 1.82073 222.554 1.82073C221.91 1.82073 221.344 2.01487 220.857 2.40316C220.369 2.78939 220.069 3.28094 219.955 3.87784ZM222.099 4.29298H221.69L221.492 5.36181H220.649L221.182 2.3474H222.486C222.976 2.3474 223.314 2.42278 223.502 2.57355C223.69 2.72433 223.756 2.96701 223.701 3.3016C223.661 3.49368 223.572 3.66407 223.431 3.81278C223.291 3.95942 223.097 4.06785 222.849 4.13807C222.89 4.16286 222.923 4.19177 222.948 4.22482C222.973 4.2558 222.994 4.29401 223.013 4.33945L223.44 5.27816L223.422 5.36181H222.52L222.099 4.29298ZM222.375 2.9825H221.913L221.789 3.66097H222.251C222.445 3.66097 222.588 3.63412 222.681 3.58042C222.776 3.52672 222.835 3.43688 222.858 3.31089C222.879 3.19523 222.851 3.11158 222.774 3.05995C222.7 3.00831 222.567 2.9825 222.375 2.9825Z" fill="#5C24FF"/>
<defs>
<linearGradient id="paint0_linear_1_85" x1="38.994" y1="13.351" x2="34.632" y2="20.0924" gradientUnits="userSpaceOnUse">
<stop stop-color="#5C24FF"/>
<stop offset="1" stop-color="#3E2193"/>
</linearGradient>
<linearGradient id="paint1_linear_1_85" x1="24.7179" y1="13.351" x2="38.9937" y2="37.2763" gradientUnits="userSpaceOnUse">
<stop stop-color="#3E2193"/>
<stop offset="1" stop-color="#5C24FF"/>
</linearGradient>
</defs>
</svg>
