<svg width="1121" height="116" viewBox="0 0 1121 116" fill="none" xmlns="http://www.w3.org/2000/svg">
<rect width="1120.25" height="1" fill="#111111" fill-opacity="0.12"/>
<path d="M1.2642 75.5V60.9545H4.33949V66.956H10.5824V60.9545H13.6506V75.5H10.5824V69.4915H4.33949V75.5H1.2642ZM18.8401 75.706C18.144 75.706 17.5238 75.5852 16.9793 75.3438C16.4348 75.0975 16.0039 74.7353 15.6866 74.2571C15.3741 73.7741 15.2179 73.1728 15.2179 72.4531C15.2179 71.8471 15.3292 71.3381 15.5517 70.9261C15.7742 70.5142 16.0773 70.1828 16.4608 69.9318C16.8443 69.6809 17.2799 69.4915 17.7676 69.3636C18.26 69.2358 18.7761 69.1458 19.3159 69.0938C19.9504 69.0275 20.4617 68.9659 20.85 68.9091C21.2383 68.8475 21.52 68.7576 21.6952 68.6392C21.8704 68.5208 21.958 68.3456 21.958 68.1136V68.071C21.958 67.6212 21.8159 67.2732 21.5318 67.027C21.2525 66.7808 20.8547 66.6577 20.3386 66.6577C19.7941 66.6577 19.3609 66.7784 19.0389 67.0199C18.717 67.2566 18.5039 67.5549 18.3997 67.9148L15.6014 67.6875C15.7435 67.0246 16.0228 66.4517 16.4395 65.9688C16.8562 65.4811 17.3936 65.107 18.0517 64.8466C18.7146 64.5814 19.4816 64.4489 20.3528 64.4489C20.9589 64.4489 21.5389 64.5199 22.0929 64.6619C22.6516 64.804 23.1464 65.0241 23.5773 65.3224C24.0129 65.6207 24.3562 66.0043 24.6071 66.473C24.858 66.937 24.9835 67.4934 24.9835 68.142V75.5H22.1142V73.9872H22.029C21.8538 74.3281 21.6194 74.6288 21.3259 74.8892C21.0323 75.1449 20.6795 75.3461 20.2676 75.4929C19.8557 75.6349 19.3798 75.706 18.8401 75.706ZM19.7065 73.6179C20.1516 73.6179 20.5446 73.5303 20.8855 73.3551C21.2264 73.1752 21.4939 72.9337 21.6881 72.6307C21.8822 72.3277 21.9793 71.9844 21.9793 71.6009V70.4432C21.8846 70.5047 21.7544 70.5616 21.5886 70.6136C21.4277 70.661 21.2454 70.706 21.0418 70.7486C20.8382 70.7865 20.6346 70.822 20.431 70.8551C20.2274 70.8835 20.0427 70.9096 19.877 70.9332C19.5219 70.9853 19.2117 71.0682 18.9466 71.1818C18.6814 71.2955 18.4755 71.4493 18.3287 71.6435C18.1819 71.8329 18.1085 72.0696 18.1085 72.3537C18.1085 72.7656 18.2577 73.0805 18.556 73.2983C18.859 73.5114 19.2425 73.6179 19.7065 73.6179ZM33.3797 72.1548L36.3342 64.5909H38.6354L34.3811 75.5H32.3712L28.2163 64.5909H30.5104L33.3797 72.1548ZM29.8214 64.5909V75.5H26.9308V64.5909H29.8214ZM37.0871 75.5V64.5909H39.9422V75.5H37.0871ZM45.259 78.696V73.0994H46.0971C46.3386 72.9479 46.5327 72.7064 46.6795 72.375C46.831 72.0436 46.9541 71.6529 47.0488 71.2031C47.1482 70.7533 47.224 70.268 47.2761 69.7472C47.3329 69.2216 47.3826 68.6913 47.4252 68.1562L47.7093 64.5909H56.0758V73.0994H57.7661V78.696H54.8826V75.5H48.2136V78.696H45.259ZM49.1085 73.0994H53.2207V66.9205H50.2803L50.1667 68.1562C50.0862 69.321 49.9702 70.3106 49.8187 71.125C49.6672 71.9347 49.4304 72.5928 49.1085 73.0994ZM64.0582 75.7131C62.955 75.7131 62.0009 75.4787 61.196 75.0099C60.3958 74.5365 59.7779 73.8783 59.3423 73.0355C58.9067 72.188 58.6889 71.2055 58.6889 70.0881C58.6889 68.9612 58.9067 67.9763 59.3423 67.1335C59.7779 66.286 60.3958 65.6278 61.196 65.1591C62.0009 64.6856 62.955 64.4489 64.0582 64.4489C65.1615 64.4489 66.1132 64.6856 66.9134 65.1591C67.7183 65.6278 68.3385 66.286 68.7741 67.1335C69.2098 67.9763 69.4276 68.9612 69.4276 70.0881C69.4276 71.2055 69.2098 72.188 68.7741 73.0355C68.3385 73.8783 67.7183 74.5365 66.9134 75.0099C66.1132 75.4787 65.1615 75.7131 64.0582 75.7131ZM64.0724 73.3693C64.5743 73.3693 64.9934 73.2273 65.3295 72.9432C65.6657 72.6544 65.919 72.2614 66.0895 71.7642C66.2647 71.267 66.3523 70.7012 66.3523 70.0668C66.3523 69.4323 66.2647 68.8665 66.0895 68.3693C65.919 67.8722 65.6657 67.4792 65.3295 67.1903C64.9934 66.9015 64.5743 66.7571 64.0724 66.7571C63.5658 66.7571 63.1397 66.9015 62.794 67.1903C62.4531 67.4792 62.1951 67.8722 62.0199 68.3693C61.8494 68.8665 61.7642 69.4323 61.7642 70.0668C61.7642 70.7012 61.8494 71.267 62.0199 71.7642C62.1951 72.2614 62.4531 72.6544 62.794 72.9432C63.1397 73.2273 63.5658 73.3693 64.0724 73.3693ZM70.9949 75.5V64.5909H75.6469C76.9916 64.5909 78.0545 64.8466 78.8358 65.358C79.617 65.8693 80.0077 66.5961 80.0077 67.5384C80.0077 68.1302 79.7875 68.6226 79.3472 69.0156C78.9068 69.4086 78.296 69.6738 77.5148 69.8111C78.1682 69.8584 78.7245 70.0076 79.1838 70.2585C79.6478 70.5047 80.0006 70.8243 80.242 71.2173C80.4883 71.6103 80.6114 72.0459 80.6114 72.5241C80.6114 73.1444 80.4456 73.6771 80.1142 74.1222C79.7875 74.5672 79.3069 74.9081 78.6724 75.1449C78.0427 75.3816 77.2733 75.5 76.3642 75.5H70.9949ZM73.8145 73.2344H76.3642C76.7856 73.2344 77.1147 73.1349 77.3514 72.9361C77.5929 72.7325 77.7136 72.4555 77.7136 72.1051C77.7136 71.7169 77.5929 71.4115 77.3514 71.1889C77.1147 70.9664 76.7856 70.8551 76.3642 70.8551H73.8145V73.2344ZM73.8145 69.0795H75.7108C76.0138 69.0795 76.2719 69.0369 76.4849 68.9517C76.7027 68.8617 76.8685 68.7339 76.9821 68.5682C77.1005 68.4025 77.1597 68.206 77.1597 67.9787C77.1597 67.6425 77.0247 67.3797 76.7548 67.1903C76.4849 67.0009 76.1156 66.9062 75.6469 66.9062H73.8145V69.0795ZM87.0899 75.7131C85.9678 75.7131 85.0018 75.4858 84.1922 75.0312C83.3873 74.572 82.767 73.9233 82.3314 73.0852C81.8958 72.2424 81.678 71.2457 81.678 70.0952C81.678 68.973 81.8958 67.9882 82.3314 67.1406C82.767 66.2931 83.3802 65.6326 84.1709 65.1591C84.9663 64.6856 85.8991 64.4489 86.9692 64.4489C87.6889 64.4489 88.3589 64.5649 88.9791 64.7969C89.6041 65.0241 90.1486 65.3674 90.6126 65.8267C91.0814 66.286 91.446 66.8636 91.7064 67.5597C91.9668 68.2509 92.097 69.0606 92.097 69.9886V70.8196H82.8854V68.9446H89.249C89.249 68.509 89.1543 68.1231 88.9649 67.7869C88.7755 67.4508 88.5127 67.188 88.1766 66.9986C87.8451 66.8045 87.4592 66.7074 87.0189 66.7074C86.5596 66.7074 86.1524 66.8139 85.7973 67.027C85.4469 67.2353 85.1723 67.517 84.9734 67.8722C84.7746 68.2225 84.6728 68.6132 84.668 69.044V70.8267C84.668 71.3665 84.7675 71.8329 84.9663 72.2259C85.1699 72.6188 85.4564 72.9219 85.8257 73.1349C86.195 73.348 86.633 73.4545 87.1396 73.4545C87.4758 73.4545 87.7836 73.4072 88.0629 73.3125C88.3423 73.2178 88.5814 73.0758 88.7803 72.8864C88.9791 72.697 89.1306 72.465 89.2348 72.1903L92.0331 72.375C91.891 73.0473 91.5999 73.6345 91.1595 74.1364C90.7239 74.6335 90.1605 75.0218 89.4692 75.3011C88.7826 75.5758 87.9895 75.7131 87.0899 75.7131ZM93.6715 79.5909V64.5909H96.6544V66.4233H96.7893C96.9219 66.1297 97.1137 65.8314 97.3646 65.5284C97.6203 65.2206 97.9518 64.965 98.359 64.7614C98.7709 64.553 99.2822 64.4489 99.893 64.4489C100.688 64.4489 101.422 64.6572 102.095 65.0739C102.767 65.4858 103.305 66.1084 103.707 66.9418C104.109 67.7704 104.311 68.8097 104.311 70.0597C104.311 71.2765 104.114 72.304 103.721 73.142C103.333 73.9754 102.803 74.6075 102.13 75.0384C101.463 75.4645 100.715 75.6776 99.8859 75.6776C99.2988 75.6776 98.7993 75.5805 98.3874 75.3864C97.9802 75.1922 97.6464 74.9484 97.3859 74.6548C97.1255 74.3565 96.9267 74.0559 96.7893 73.7528H96.697V79.5909H93.6715ZM96.6331 70.0455C96.6331 70.6941 96.7231 71.2599 96.903 71.7429C97.0829 72.2259 97.3433 72.6023 97.6842 72.8722C98.0251 73.1373 98.4394 73.2699 98.9271 73.2699C99.4196 73.2699 99.8362 73.1349 100.177 72.8651C100.518 72.5904 100.776 72.2116 100.951 71.7287C101.131 71.241 101.221 70.6799 101.221 70.0455C101.221 69.4157 101.134 68.8617 100.958 68.3835C100.783 67.9053 100.525 67.5312 100.184 67.2614C99.8433 66.9915 99.4243 66.8565 98.9271 66.8565C98.4347 66.8565 98.018 66.9867 97.6771 67.2472C97.341 67.5076 97.0829 67.8769 96.903 68.3551C96.7231 68.8333 96.6331 69.3968 96.6331 70.0455ZM112.32 75.5V66.9631H110.274C109.72 66.9631 109.299 67.0909 109.01 67.3466C108.721 67.6023 108.579 67.9053 108.584 68.2557C108.579 68.6108 108.717 68.9115 108.996 69.1577C109.28 69.3991 109.697 69.5199 110.246 69.5199H113.328V71.5653H110.246C109.313 71.5653 108.506 71.4233 107.824 71.1392C107.142 70.8551 106.617 70.4598 106.247 69.9531C105.878 69.4418 105.696 68.8475 105.7 68.1705C105.696 67.4602 105.878 66.8376 106.247 66.3026C106.617 65.7628 107.145 65.3437 107.831 65.0455C108.522 64.7424 109.337 64.5909 110.274 64.5909H115.139V75.5H112.32ZM105.388 75.5L108.421 69.8182H111.311L108.286 75.5H105.388ZM123.12 68.902V71.3026H117.204V68.902H123.12ZM119.54 64.5909V75.5H116.522V64.5909H119.54ZM126.387 75.7131C125.308 75.7131 124.375 75.4716 123.589 74.9886C122.803 74.5057 122.197 73.8381 121.771 72.9858C121.349 72.1335 121.138 71.1558 121.138 70.0526C121.138 68.9493 121.349 67.9763 121.771 67.1335C122.197 66.2907 122.803 65.6326 123.589 65.1591C124.375 64.6856 125.308 64.4489 126.387 64.4489C127.471 64.4489 128.404 64.6856 129.185 65.1591C129.971 65.6326 130.575 66.2907 130.996 67.1335C131.423 67.9763 131.636 68.9493 131.636 70.0526C131.636 71.1558 131.423 72.1335 130.996 72.9858C130.575 73.8381 129.971 74.5057 129.185 74.9886C128.404 75.4716 127.471 75.7131 126.387 75.7131ZM126.387 73.2699C126.951 73.2699 127.405 73.1326 127.751 72.858C128.096 72.5786 128.35 72.1974 128.511 71.7145C128.672 71.2268 128.752 70.6728 128.752 70.0526C128.752 69.4323 128.672 68.883 128.511 68.4048C128.35 67.9219 128.096 67.5431 127.751 67.2685C127.405 66.9938 126.951 66.8565 126.387 66.8565C125.828 66.8565 125.374 66.9938 125.023 67.2685C124.673 67.5384 124.415 67.9124 124.249 68.3906C124.088 68.8688 124.008 69.4228 124.008 70.0526C124.008 70.6776 124.088 71.2315 124.249 71.7145C124.415 72.1974 124.673 72.5786 125.023 72.858C125.374 73.1326 125.828 73.2699 126.387 73.2699ZM132.235 66.9702V64.5909H142.122V66.9702H138.606V75.5H135.723V66.9702H132.235ZM147.785 75.5V64.5909H152.437C153.781 64.5909 154.844 64.8466 155.626 65.358C156.407 65.8693 156.798 66.5961 156.798 67.5384C156.798 68.1302 156.577 68.6226 156.137 69.0156C155.697 69.4086 155.086 69.6738 154.305 69.8111C154.958 69.8584 155.514 70.0076 155.974 70.2585C156.438 70.5047 156.79 70.8243 157.032 71.2173C157.278 71.6103 157.401 72.0459 157.401 72.5241C157.401 73.1444 157.235 73.6771 156.904 74.1222C156.577 74.5672 156.097 74.9081 155.462 75.1449C154.833 75.3816 154.063 75.5 153.154 75.5H147.785ZM150.604 73.2344H153.154C153.575 73.2344 153.905 73.1349 154.141 72.9361C154.383 72.7325 154.503 72.4555 154.503 72.1051C154.503 71.7169 154.383 71.4115 154.141 71.1889C153.905 70.9664 153.575 70.8551 153.154 70.8551H150.604V73.2344ZM150.604 69.0795H152.501C152.804 69.0795 153.062 69.0369 153.275 68.9517C153.493 68.8617 153.658 68.7339 153.772 68.5682C153.89 68.4025 153.95 68.206 153.95 67.9787C153.95 67.6425 153.815 67.3797 153.545 67.1903C153.275 67.0009 152.905 66.9062 152.437 66.9062H150.604V69.0795ZM163.88 75.7131C162.758 75.7131 161.792 75.4858 160.982 75.0312C160.177 74.572 159.557 73.9233 159.121 73.0852C158.686 72.2424 158.468 71.2457 158.468 70.0952C158.468 68.973 158.686 67.9882 159.121 67.1406C159.557 66.2931 160.17 65.6326 160.961 65.1591C161.756 64.6856 162.689 64.4489 163.759 64.4489C164.479 64.4489 165.149 64.5649 165.769 64.7969C166.394 65.0241 166.938 65.3674 167.402 65.8267C167.871 66.286 168.236 66.8636 168.496 67.5597C168.757 68.2509 168.887 69.0606 168.887 69.9886V70.8196H159.675V68.9446H166.039C166.039 68.509 165.944 68.1231 165.755 67.7869C165.565 67.4508 165.303 67.188 164.966 66.9986C164.635 66.8045 164.249 66.7074 163.809 66.7074C163.349 66.7074 162.942 66.8139 162.587 67.027C162.237 67.2353 161.962 67.517 161.763 67.8722C161.564 68.2225 161.463 68.6132 161.458 69.044V70.8267C161.458 71.3665 161.557 71.8329 161.756 72.2259C161.96 72.6188 162.246 72.9219 162.616 73.1349C162.985 73.348 163.423 73.4545 163.929 73.4545C164.266 73.4545 164.573 73.4072 164.853 73.3125C165.132 73.2178 165.371 73.0758 165.57 72.8864C165.769 72.697 165.92 72.465 166.025 72.1903L168.823 72.375C168.681 73.0473 168.39 73.6345 167.949 74.1364C167.514 74.6335 166.95 75.0218 166.259 75.3011C165.572 75.5758 164.779 75.7131 163.88 75.7131ZM169.609 78.696V73.0994H170.447C170.689 72.9479 170.883 72.7064 171.029 72.375C171.181 72.0436 171.304 71.6529 171.399 71.2031C171.498 70.7533 171.574 70.268 171.626 69.7472C171.683 69.2216 171.733 68.6913 171.775 68.1562L172.059 64.5909H180.426V73.0994H182.116V78.696H179.233V75.5H172.564V78.696H169.609ZM173.458 73.0994H177.571V66.9205H174.63L174.517 68.1562C174.436 69.321 174.32 70.3106 174.169 71.125C174.017 71.9347 173.78 72.5928 173.458 73.0994ZM185.347 79.5909C184.964 79.5909 184.604 79.5601 184.268 79.4986C183.936 79.4418 183.662 79.3684 183.444 79.2784L184.126 77.0199C184.481 77.1288 184.8 77.188 185.084 77.1974C185.373 77.2069 185.622 77.1406 185.83 76.9986C186.043 76.8565 186.216 76.6151 186.349 76.2741L186.526 75.8125L182.613 64.5909H185.795L188.053 72.6023H188.167L190.447 64.5909H193.65L189.41 76.679C189.206 77.2661 188.929 77.7775 188.579 78.2131C188.233 78.6534 187.795 78.992 187.265 79.2287C186.734 79.4702 186.095 79.5909 185.347 79.5909ZM211.936 73.1207L211.723 78.625H208.946V75.5H207.731V73.1207H211.936ZM194.798 64.5909H197.689V73.0994H200.764V64.5909H203.655V73.0994H206.73V64.5909H209.62V75.5H194.798V64.5909ZM216.234 71.5085L220.162 64.5909H223.144V75.5H220.261V68.5611L216.348 75.5H213.343V64.5909H216.234V71.5085ZM230.141 75.7131C229.019 75.7131 228.053 75.4858 227.244 75.0312C226.439 74.572 225.819 73.9233 225.383 73.0852C224.947 72.2424 224.73 71.2457 224.73 70.0952C224.73 68.973 224.947 67.9882 225.383 67.1406C225.819 66.2931 226.432 65.6326 227.222 65.1591C228.018 64.6856 228.951 64.4489 230.021 64.4489C230.74 64.4489 231.41 64.5649 232.031 64.7969C232.656 65.0241 233.2 65.3674 233.664 65.8267C234.133 66.286 234.498 66.8636 234.758 67.5597C235.018 68.2509 235.149 69.0606 235.149 69.9886V70.8196H225.937V68.9446H232.301C232.301 68.509 232.206 68.1231 232.016 67.7869C231.827 67.4508 231.564 67.188 231.228 66.9986C230.897 66.8045 230.511 66.7074 230.07 66.7074C229.611 66.7074 229.204 66.8139 228.849 67.027C228.498 67.2353 228.224 67.517 228.025 67.8722C227.826 68.2225 227.724 68.6132 227.72 69.044V70.8267C227.72 71.3665 227.819 71.8329 228.018 72.2259C228.221 72.6188 228.508 72.9219 228.877 73.1349C229.247 73.348 229.685 73.4545 230.191 73.4545C230.527 73.4545 230.835 73.4072 231.114 73.3125C231.394 73.2178 231.633 73.0758 231.832 72.8864C232.031 72.697 232.182 72.465 232.286 72.1903L235.085 72.375C234.943 73.0473 234.651 73.6345 234.211 74.1364C233.775 74.6335 233.212 75.0218 232.521 75.3011C231.834 75.5758 231.041 75.7131 230.141 75.7131ZM1.20739 103.5V92.5909H4.23295V96.8239H5.08523L8.05398 92.5909H11.6051L7.74858 98.0028L11.6477 103.5H8.05398L5.36222 99.6293H4.23295V103.5H1.20739ZM17.0059 103.713C15.9027 103.713 14.9486 103.479 14.1437 103.01C13.3435 102.536 12.7256 101.878 12.29 101.036C11.8544 100.188 11.6366 99.2055 11.6366 98.0881C11.6366 96.9612 11.8544 95.9763 12.29 95.1335C12.7256 94.286 13.3435 93.6278 14.1437 93.1591C14.9486 92.6856 15.9027 92.4489 17.0059 92.4489C18.1091 92.4489 19.0608 92.6856 19.861 93.1591C20.6659 93.6278 21.2862 94.286 21.7218 95.1335C22.1574 95.9763 22.3752 96.9612 22.3752 98.0881C22.3752 99.2055 22.1574 100.188 21.7218 101.036C21.2862 101.878 20.6659 102.536 19.861 103.01C19.0608 103.479 18.1091 103.713 17.0059 103.713ZM17.0201 101.369C17.522 101.369 17.941 101.227 18.2772 100.943C18.6134 100.654 18.8667 100.261 19.0371 99.7642C19.2123 99.267 19.2999 98.7012 19.2999 98.0668C19.2999 97.4323 19.2123 96.8665 19.0371 96.3693C18.8667 95.8722 18.6134 95.4792 18.2772 95.1903C17.941 94.9015 17.522 94.7571 17.0201 94.7571C16.5135 94.7571 16.0873 94.9015 15.7417 95.1903C15.4008 95.4792 15.1427 95.8722 14.9675 96.3693C14.7971 96.8665 14.7119 97.4323 14.7119 98.0668C14.7119 98.7012 14.7971 99.267 14.9675 99.7642C15.1427 100.261 15.4008 100.654 15.7417 100.943C16.0873 101.227 16.5135 101.369 17.0201 101.369ZM30.3914 100.155L33.346 92.5909H35.6471L31.3928 103.5H29.3829L25.2281 92.5909H27.5221L30.3914 100.155ZM26.8332 92.5909V103.5H23.9425V92.5909H26.8332ZM34.0988 103.5V92.5909H36.9539V103.5H34.0988ZM38.8941 103.5V92.5909H48.4325V103.5H45.5418V94.9702H41.7492V103.5H38.8941ZM53.558 103.706C52.862 103.706 52.2417 103.585 51.6972 103.344C51.1527 103.098 50.7219 102.735 50.4046 102.257C50.0921 101.774 49.9359 101.173 49.9359 100.453C49.9359 99.8471 50.0471 99.3381 50.2697 98.9261C50.4922 98.5142 50.7952 98.1828 51.1788 97.9318C51.5623 97.6809 51.9979 97.4915 52.4856 97.3636C52.978 97.2358 53.4941 97.1458 54.0339 97.0938C54.6683 97.0275 55.1797 96.9659 55.568 96.9091C55.9562 96.8475 56.238 96.7576 56.4131 96.6392C56.5883 96.5208 56.6759 96.3456 56.6759 96.1136V96.071C56.6759 95.6212 56.5339 95.2732 56.2498 95.027C55.9704 94.7808 55.5727 94.6577 55.0566 94.6577C54.5121 94.6577 54.0789 94.7784 53.7569 95.0199C53.4349 95.2566 53.2219 95.5549 53.1177 95.9148L50.3194 95.6875C50.4614 95.0246 50.7408 94.4517 51.1575 93.9688C51.5741 93.4811 52.1115 93.107 52.7697 92.8466C53.4326 92.5814 54.1996 92.4489 55.0708 92.4489C55.6769 92.4489 56.2569 92.5199 56.8109 92.6619C57.3696 92.804 57.8644 93.0241 58.2952 93.3224C58.7308 93.6207 59.0741 94.0043 59.3251 94.473C59.576 94.937 59.7015 95.4934 59.7015 96.142V103.5H56.8322V101.987H56.7469C56.5718 102.328 56.3374 102.629 56.0438 102.889C55.7503 103.145 55.3975 103.346 54.9856 103.493C54.5737 103.635 54.0978 103.706 53.558 103.706ZM54.4245 101.618C54.8696 101.618 55.2626 101.53 55.6035 101.355C55.9444 101.175 56.2119 100.934 56.406 100.631C56.6002 100.328 56.6972 99.9844 56.6972 99.6009V98.4432C56.6025 98.5047 56.4723 98.5616 56.3066 98.6136C56.1456 98.661 55.9633 98.706 55.7597 98.7486C55.5561 98.7865 55.3525 98.822 55.1489 98.8551C54.9453 98.8835 54.7607 98.9096 54.595 98.9332C54.2398 98.9853 53.9297 99.0682 53.6646 99.1818C53.3994 99.2955 53.1934 99.4493 53.0467 99.6435C52.8999 99.8329 52.8265 100.07 52.8265 100.354C52.8265 100.766 52.9756 101.08 53.2739 101.298C53.577 101.511 53.9605 101.618 54.4245 101.618ZM69.2411 96.8381V99.2173H63.5451V96.8381H69.2411ZM64.5394 92.5909V103.5H61.6488V92.5909H64.5394ZM71.1374 92.5909V103.5H68.2681V92.5909H71.1374ZM75.9754 99.5085L79.9029 92.5909H82.8859V103.5H80.0023V96.5611L76.089 103.5H73.0847V92.5909H75.9754V99.5085ZM87.8019 99.5085L91.7295 92.5909H94.7124V103.5H91.8289V96.5611L87.9156 103.5H84.9113V92.5909H87.8019V99.5085ZM100.967 103.5V92.5909H110.505V103.5H107.614V94.9702H103.822V103.5H100.967ZM117.449 103.713C116.346 103.713 115.392 103.479 114.587 103.01C113.786 102.536 113.169 101.878 112.733 101.036C112.297 100.188 112.08 99.2055 112.08 98.0881C112.08 96.9612 112.297 95.9763 112.733 95.1335C113.169 94.286 113.786 93.6278 114.587 93.1591C115.392 92.6856 116.346 92.4489 117.449 92.4489C118.552 92.4489 119.504 92.6856 120.304 93.1591C121.109 93.6278 121.729 94.286 122.165 95.1335C122.6 95.9763 122.818 96.9612 122.818 98.0881C122.818 99.2055 122.6 100.188 122.165 101.036C121.729 101.878 121.109 102.536 120.304 103.01C119.504 103.479 118.552 103.713 117.449 103.713ZM117.463 101.369C117.965 101.369 118.384 101.227 118.72 100.943C119.056 100.654 119.31 100.261 119.48 99.7642C119.655 99.267 119.743 98.7012 119.743 98.0668C119.743 97.4323 119.655 96.8665 119.48 96.3693C119.31 95.8722 119.056 95.4792 118.72 95.1903C118.384 94.9015 117.965 94.7571 117.463 94.7571C116.956 94.7571 116.53 94.9015 116.185 95.1903C115.844 95.4792 115.586 95.8722 115.411 96.3693C115.24 96.8665 115.155 97.4323 115.155 98.0668C115.155 98.7012 115.24 99.267 115.411 99.7642C115.586 100.261 115.844 100.654 116.185 100.943C116.53 101.227 116.956 101.369 117.463 101.369ZM128.614 103.5V92.5909H133.266C134.611 92.5909 135.674 92.8466 136.455 93.358C137.237 93.8693 137.627 94.5961 137.627 95.5384C137.627 96.1302 137.407 96.6226 136.967 97.0156C136.526 97.4086 135.916 97.6738 135.134 97.8111C135.788 97.8584 136.344 98.0076 136.803 98.2585C137.267 98.5047 137.62 98.8243 137.862 99.2173C138.108 99.6103 138.231 100.046 138.231 100.524C138.231 101.144 138.065 101.677 137.734 102.122C137.407 102.567 136.926 102.908 136.292 103.145C135.662 103.382 134.893 103.5 133.984 103.5H128.614ZM131.434 101.234H133.984C134.405 101.234 134.734 101.135 134.971 100.936C135.212 100.732 135.333 100.455 135.333 100.105C135.333 99.7169 135.212 99.4115 134.971 99.1889C134.734 98.9664 134.405 98.8551 133.984 98.8551H131.434V101.234ZM131.434 97.0795H133.33C133.633 97.0795 133.891 97.0369 134.104 96.9517C134.322 96.8617 134.488 96.7339 134.602 96.5682C134.72 96.4025 134.779 96.206 134.779 95.9787C134.779 95.6425 134.644 95.3797 134.374 95.1903C134.104 95.0009 133.735 94.9062 133.266 94.9062H131.434V97.0795ZM144.667 103.713C143.549 103.713 142.588 103.476 141.783 103.003C140.983 102.525 140.368 101.862 139.937 101.014C139.511 100.167 139.298 99.1913 139.298 98.0881C139.298 96.9706 139.513 95.9905 139.944 95.1477C140.379 94.3002 140.997 93.6397 141.798 93.1662C142.598 92.688 143.549 92.4489 144.653 92.4489C145.604 92.4489 146.438 92.6217 147.153 92.9673C147.868 93.313 148.433 93.7983 148.85 94.4233C149.267 95.0483 149.496 95.7822 149.539 96.625H146.684C146.603 96.0805 146.39 95.6425 146.045 95.3111C145.704 94.9749 145.256 94.8068 144.702 94.8068C144.234 94.8068 143.824 94.9347 143.474 95.1903C143.128 95.4413 142.858 95.8082 142.664 96.2912C142.47 96.7741 142.373 97.3589 142.373 98.0455C142.373 98.7415 142.467 99.3333 142.657 99.821C142.851 100.309 143.123 100.68 143.474 100.936C143.824 101.192 144.234 101.32 144.702 101.32C145.048 101.32 145.358 101.249 145.633 101.107C145.912 100.964 146.142 100.759 146.322 100.489C146.506 100.214 146.627 99.8849 146.684 99.5014H149.539C149.492 100.335 149.264 101.069 148.857 101.703C148.455 102.333 147.898 102.825 147.188 103.18C146.478 103.536 145.637 103.713 144.667 103.713ZM156.048 103.713C154.926 103.713 153.96 103.486 153.15 103.031C152.345 102.572 151.725 101.923 151.289 101.085C150.854 100.242 150.636 99.2457 150.636 98.0952C150.636 96.973 150.854 95.9882 151.289 95.1406C151.725 94.2931 152.338 93.6326 153.129 93.1591C153.924 92.6856 154.857 92.4489 155.927 92.4489C156.647 92.4489 157.317 92.5649 157.937 92.7969C158.562 93.0241 159.106 93.3674 159.57 93.8267C160.039 94.286 160.404 94.8636 160.664 95.5597C160.925 96.2509 161.055 97.0606 161.055 97.9886V98.8196H151.843V96.9446H158.207C158.207 96.509 158.112 96.1231 157.923 95.7869C157.733 95.4508 157.471 95.188 157.134 94.9986C156.803 94.8045 156.417 94.7074 155.977 94.7074C155.517 94.7074 155.11 94.8139 154.755 95.027C154.405 95.2353 154.13 95.517 153.931 95.8722C153.732 96.2225 153.631 96.6132 153.626 97.044V98.8267C153.626 99.3665 153.725 99.8329 153.924 100.226C154.128 100.619 154.414 100.922 154.784 101.135C155.153 101.348 155.591 101.455 156.097 101.455C156.434 101.455 156.741 101.407 157.021 101.312C157.3 101.218 157.539 101.076 157.738 100.886C157.937 100.697 158.088 100.465 158.193 100.19L160.991 100.375C160.849 101.047 160.558 101.634 160.117 102.136C159.682 102.634 159.118 103.022 158.427 103.301C157.74 103.576 156.947 103.713 156.048 103.713ZM169.078 100.155L172.033 92.5909H174.334L170.08 103.5H168.07L163.915 92.5909H166.209L169.078 100.155ZM165.52 92.5909V103.5H162.629V92.5909H165.52ZM172.786 103.5V92.5909H175.641V103.5H172.786ZM179.058 107.591C178.675 107.591 178.315 107.56 177.979 107.499C177.647 107.442 177.372 107.368 177.155 107.278L177.837 105.02C178.192 105.129 178.511 105.188 178.795 105.197C179.084 105.207 179.333 105.141 179.541 104.999C179.754 104.857 179.927 104.615 180.06 104.274L180.237 103.812L176.324 92.5909H179.506L181.764 100.602H181.878L184.158 92.5909H187.361L183.121 104.679C182.917 105.266 182.64 105.777 182.29 106.213C181.944 106.653 181.506 106.992 180.976 107.229C180.445 107.47 179.806 107.591 179.058 107.591ZM199.187 100.155L202.141 92.5909H204.442L200.188 103.5H198.178L194.023 92.5909H196.317L199.187 100.155ZM195.628 92.5909V103.5H192.738V92.5909H195.628ZM202.894 103.5V92.5909H205.749V103.5H202.894ZM210.58 99.5085L214.508 92.5909H217.491V103.5H214.607V96.5611L210.694 103.5H207.689V92.5909H210.58V99.5085ZM219.516 107.591V92.5909H222.499V94.4233H222.634C222.766 94.1297 222.958 93.8314 223.209 93.5284C223.465 93.2206 223.796 92.965 224.203 92.7614C224.615 92.553 225.127 92.4489 225.738 92.4489C226.533 92.4489 227.267 92.6572 227.939 93.0739C228.612 93.4858 229.149 94.1084 229.551 94.9418C229.954 95.7704 230.155 96.8097 230.155 98.0597C230.155 99.2765 229.959 100.304 229.566 101.142C229.177 101.975 228.647 102.607 227.975 103.038C227.307 103.464 226.559 103.678 225.73 103.678C225.143 103.678 224.644 103.58 224.232 103.386C223.825 103.192 223.491 102.948 223.23 102.655C222.97 102.357 222.771 102.056 222.634 101.753H222.542V107.591H219.516ZM222.478 98.0455C222.478 98.6941 222.568 99.2599 222.748 99.7429C222.927 100.226 223.188 100.602 223.529 100.872C223.87 101.137 224.284 101.27 224.772 101.27C225.264 101.27 225.681 101.135 226.022 100.865C226.363 100.59 226.621 100.212 226.796 99.7287C226.976 99.241 227.066 98.6799 227.066 98.0455C227.066 97.4157 226.978 96.8617 226.803 96.3835C226.628 95.9053 226.37 95.5312 226.029 95.2614C225.688 94.9915 225.269 94.8565 224.772 94.8565C224.279 94.8565 223.863 94.9867 223.522 95.2472C223.185 95.5076 222.927 95.8769 222.748 96.3551C222.568 96.8333 222.478 97.3968 222.478 98.0455ZM233.289 107.591C232.905 107.591 232.545 107.56 232.209 107.499C231.878 107.442 231.603 107.368 231.385 107.278L232.067 105.02C232.422 105.129 232.742 105.188 233.026 105.197C233.315 105.207 233.563 105.141 233.772 104.999C233.985 104.857 234.157 104.615 234.29 104.274L234.468 103.812L230.554 92.5909H233.736L235.995 100.602H236.108L238.388 92.5909H241.591L237.351 104.679C237.147 105.266 236.87 105.777 236.52 106.213C236.174 106.653 235.736 106.992 235.206 107.229C234.676 107.47 234.037 107.591 233.289 107.591Z" fill="#111111"/>
<path d="M516.68 90.6638C511.104 88.0232 510.215 83.9462 510.175 83.6438C510.128 83.2775 510.073 82.9895 510.486 82.6169C510.885 82.2569 512.652 81.1868 513.142 80.852C513.953 80.2976 514.31 79.7441 514.047 79.0637C513.863 78.593 513.415 78.4157 512.943 78.4157C512.794 78.4162 512.645 78.4325 512.5 78.4643C511.61 78.6533 510.745 79.0898 510.244 79.2077C510.184 79.2229 510.122 79.2311 510.06 79.232C509.794 79.232 509.692 79.1159 509.718 78.8018C509.781 77.8496 509.913 75.9911 509.76 74.255C509.549 71.8664 508.761 70.6829 507.828 69.6362C507.376 69.1286 505.278 66.9479 501.23 66.9479C497.182 66.9479 495.087 69.1286 494.638 69.6299C493.702 70.6766 492.915 71.8601 492.706 74.2487C492.553 75.9848 492.691 77.8424 492.748 78.7955C492.766 79.0943 492.672 79.2257 492.406 79.2257C492.343 79.2247 492.282 79.2165 492.222 79.2014C491.722 79.0835 490.857 78.647 489.967 78.458C489.821 78.4262 489.673 78.4099 489.524 78.4094C489.05 78.4094 488.604 78.5894 488.42 79.0574C488.157 79.7378 488.512 80.2913 489.325 80.8457C489.816 81.1805 491.583 82.2497 491.981 82.6106C492.394 82.9832 492.34 83.2712 492.292 83.6375C492.253 83.9444 491.363 88.0214 485.788 90.6575C485.461 90.8123 484.906 91.1399 485.886 91.6691C487.424 92.5007 488.448 92.4116 489.244 92.9129C489.919 93.3386 489.52 94.2566 490.011 94.5878C490.614 94.9955 492.398 94.559 494.703 95.3033C496.635 95.9261 497.809 97.6856 501.235 97.6856C504.661 97.6856 505.869 95.918 507.767 95.3033C510.067 94.559 511.854 94.9955 512.459 94.5878C512.949 94.2566 512.551 93.3386 513.226 92.9129C514.022 92.4116 515.045 92.5007 516.584 91.6691C517.562 91.1462 517.006 90.8186 516.68 90.6638Z" fill="#111111"/>
<path d="M519.106 90.3532C518.855 89.6872 518.379 89.3308 517.836 89.0356C517.734 88.9771 517.64 88.9303 517.56 88.8943C517.398 88.8124 517.233 88.7332 517.068 88.6495C515.376 87.772 514.055 86.665 513.139 85.3528C512.878 84.9834 512.653 84.5918 512.464 84.1828C512.386 83.9641 512.39 83.8399 512.446 83.7265C512.501 83.6392 512.575 83.5641 512.662 83.506C512.953 83.3179 513.253 83.1271 513.456 82.9984C513.818 82.7689 514.106 82.5871 514.29 82.4584C514.985 81.9832 515.471 81.4783 515.774 80.914C515.986 80.5242 516.11 80.0942 516.137 79.6535C516.163 79.2128 516.093 78.7715 515.93 78.3598C515.47 77.1754 514.326 76.4401 512.941 76.4401C512.649 76.4399 512.357 76.47 512.071 76.5301C511.995 76.5463 511.919 76.5634 511.844 76.5823C511.857 75.7723 511.839 74.9173 511.765 74.0758C511.504 71.1175 510.445 69.5668 509.341 68.3302C508.634 67.5553 507.801 66.8997 506.876 66.3898C505.201 65.4538 503.301 64.9786 501.23 64.9786C499.159 64.9786 497.269 65.4538 495.591 66.3898C494.664 66.8999 493.83 67.5568 493.122 68.3338C492.018 69.5704 490.959 71.1238 490.698 74.0794C490.624 74.9209 490.606 75.7804 490.618 76.5859C490.543 76.567 490.468 76.5499 490.392 76.5337C490.106 76.4736 489.814 76.4435 489.522 76.4437C488.136 76.4437 486.99 77.179 486.532 78.3634C486.368 78.7753 486.297 79.2169 486.323 79.6581C486.35 80.0993 486.473 80.5298 486.684 80.9203C486.989 81.4846 487.474 81.9895 488.169 82.4647C488.353 82.5907 488.641 82.7725 489.003 83.0047C489.199 83.1289 489.485 83.3107 489.766 83.4925C489.864 83.5546 489.948 83.6366 490.011 83.7328C490.07 83.8507 490.071 83.9776 489.984 84.2116C489.798 84.612 489.576 84.9955 489.321 85.3573C488.425 86.6398 487.142 87.727 485.505 88.5973C484.637 89.0473 483.735 89.3479 483.355 90.3604C483.067 91.1245 483.255 91.9939 483.985 92.7265C484.252 93 484.563 93.23 484.905 93.4078C485.616 93.7901 486.372 94.0859 487.156 94.2889C487.318 94.3298 487.471 94.397 487.61 94.4878C487.876 94.7155 487.839 95.0584 488.193 95.5606C488.371 95.8202 488.597 96.0449 488.859 96.223C489.602 96.7252 490.438 96.7567 491.323 96.79C492.122 96.8197 493.028 96.8539 494.063 97.1878C494.492 97.3264 494.937 97.5946 495.453 97.9078C496.693 98.653 498.389 99.6727 501.228 99.6727C504.067 99.6727 505.776 98.6476 507.024 97.8997C507.537 97.5919 507.979 97.3264 508.396 97.1914C509.431 96.8566 510.337 96.8233 511.137 96.7936C512.022 96.7603 512.857 96.7288 513.6 96.2266C513.911 96.0147 514.17 95.7381 514.359 95.4166C514.613 94.9927 514.607 94.6966 514.846 94.4896C514.976 94.4031 515.121 94.3387 515.273 94.2988C516.068 94.0952 516.834 93.7966 517.555 93.4096C517.918 93.2191 518.244 92.9689 518.521 92.6698L518.53 92.659C519.214 91.9426 519.386 91.0984 519.106 90.3532ZM516.582 91.6798C515.043 92.5114 514.02 92.4223 513.224 92.9236C512.548 93.3493 512.948 94.2673 512.457 94.5985C511.853 95.0062 510.069 94.5697 507.765 95.314C505.864 95.9287 504.652 97.6963 501.233 97.6963C497.814 97.6963 496.63 95.9323 494.698 95.3095C492.398 94.5652 490.611 95.0017 490.006 94.594C489.516 94.2628 489.914 93.3448 489.239 92.9191C488.442 92.4178 487.419 92.5069 485.881 91.6798C484.901 91.1506 485.457 90.823 485.783 90.6682C491.359 88.0276 492.248 83.9506 492.288 83.6482C492.336 83.2819 492.389 82.9939 491.977 82.6213C491.578 82.2613 489.811 81.1912 489.321 80.8564C488.509 80.302 488.152 79.7485 488.415 79.0681C488.599 78.5974 489.048 78.4201 489.519 78.4201C489.668 78.4206 489.817 78.4369 489.962 78.4687C490.853 78.6577 491.717 79.0942 492.217 79.2121C492.277 79.2272 492.339 79.2354 492.401 79.2364C492.668 79.2364 492.762 79.105 492.743 78.8062C492.686 77.8531 492.548 75.9955 492.702 74.2594C492.912 71.8708 493.699 70.6873 494.634 69.6406C495.083 69.1375 497.192 66.9568 501.226 66.9568C505.261 66.9568 507.376 69.1285 507.825 69.6298C508.76 70.6765 509.548 71.86 509.757 74.2486C509.91 75.9847 509.778 77.8432 509.715 78.7954C509.694 79.1095 509.791 79.2256 510.058 79.2256C510.12 79.2247 510.181 79.2165 510.242 79.2013C510.742 79.0834 511.607 78.6469 512.497 78.4579C512.643 78.4261 512.791 78.4098 512.94 78.4093C513.414 78.4093 513.86 78.5893 514.044 79.0573C514.307 79.7377 513.952 80.2912 513.14 80.8456C512.649 81.1804 510.882 82.2496 510.483 82.6105C510.07 82.9831 510.125 83.2711 510.173 83.6374C510.212 83.9443 511.101 88.0213 516.677 90.6574C517.006 90.8185 517.562 91.1461 516.582 91.6798Z" fill="#111111"/>
<g clip-path="url(#clip0_1_110)">
<path fill-rule="evenodd" clip-rule="evenodd" d="M638.446 100.575C631.402 105.764 621.194 108.541 612.392 108.541C600.062 108.541 588.969 103.982 580.567 96.3927C579.912 95.7986 580.494 94.9864 581.294 95.4471C590.351 100.721 601.565 103.885 613.131 103.885C620.939 103.885 629.523 102.273 637.415 98.9144C638.615 98.4174 639.61 99.7025 638.446 100.575Z" fill="#FF9900"/>
<path fill-rule="evenodd" clip-rule="evenodd" d="M641.368 97.2172C640.471 96.0654 635.415 96.6716 633.148 96.9383C632.457 97.0232 632.348 96.417 632.978 95.9927C637.003 93.1557 643.611 93.9802 644.387 94.9258C645.163 95.8836 644.181 102.503 640.398 105.667C639.816 106.152 639.258 105.898 639.525 105.255C640.374 103.134 642.277 98.3811 641.368 97.2172Z" fill="#FF9900"/>
<path fill-rule="evenodd" clip-rule="evenodd" d="M633.305 75.9885V73.2364C633.305 72.8242 633.62 72.5453 633.996 72.5453H646.326C646.726 72.5453 647.041 72.8363 647.041 73.2364V75.6005C647.041 76.0006 646.702 76.5098 646.108 77.3342L639.731 86.4512C642.107 86.3906 644.617 86.7422 646.763 87.9546C647.248 88.2334 647.381 88.6335 647.417 89.0215V91.9554C647.417 92.3555 646.969 92.8283 646.508 92.5858C642.713 90.5975 637.67 90.3793 633.475 92.6101C633.051 92.8404 632.602 92.3797 632.602 91.9796V89.1912C632.602 88.7426 632.602 87.9788 633.051 87.2999L640.458 76.6795H634.021C633.62 76.6795 633.305 76.4007 633.305 75.9885Z" fill="#111111"/>
<path fill-rule="evenodd" clip-rule="evenodd" d="M588.314 93.18H584.568C584.204 93.1558 583.926 92.8891 583.901 92.5375V73.285C583.901 72.897 584.229 72.5939 584.629 72.5939H588.133C588.496 72.6061 588.787 72.8849 588.811 73.2365V75.7582H588.884C589.793 73.3214 591.515 72.1939 593.819 72.1939C596.171 72.1939 597.638 73.3335 598.692 75.7582C599.602 73.3214 601.663 72.1939 603.869 72.1939C605.445 72.1939 607.167 72.8485 608.209 74.3034C609.398 75.928 609.155 78.28 609.155 80.341V92.489C609.155 92.8769 608.828 93.18 608.428 93.18H604.681C604.306 93.1558 604.002 92.8527 604.002 92.489V82.2808C604.002 81.4685 604.075 79.4438 603.893 78.6679C603.615 77.3707 602.778 77.007 601.687 77.007C600.778 77.007 599.832 77.6132 599.444 78.5831C599.056 79.553 599.092 81.1775 599.092 82.2687V92.4769C599.092 92.8648 598.765 93.1679 598.365 93.1679H594.631C594.255 93.1437 593.952 92.8406 593.952 92.4769V82.2687C593.952 80.1228 594.304 76.9585 591.636 76.9585C588.945 76.9585 589.042 80.0379 589.042 82.2687V92.4769C589.042 92.8648 588.714 93.18 588.314 93.18Z" fill="#111111"/>
<path fill-rule="evenodd" clip-rule="evenodd" d="M657.674 72.182C663.239 72.182 666.258 76.9588 666.258 83.0449C666.258 88.9128 662.924 93.5804 657.674 93.5804C652.206 93.5804 649.236 88.8036 649.236 82.8388C649.224 76.8497 652.243 72.182 657.674 72.182ZM657.698 76.1222C654.934 76.1222 654.764 79.8806 654.764 82.2326C654.764 84.5846 654.728 89.6159 657.674 89.6159C660.584 89.6159 660.717 85.5666 660.717 83.0934C660.717 81.4688 660.644 79.529 660.159 77.9893C659.735 76.6436 658.898 76.1222 657.698 76.1222Z" fill="#111111"/>
<path fill-rule="evenodd" clip-rule="evenodd" d="M673.471 93.1803H669.737C669.361 93.1561 669.058 92.853 669.058 92.4893V73.2247C669.094 72.8731 669.398 72.5942 669.786 72.5942H673.265C673.592 72.6064 673.859 72.8367 673.932 73.1277V76.0737H674.005C675.059 73.4429 676.526 72.182 679.121 72.182C680.806 72.182 682.443 72.7882 683.497 74.4492C684.479 75.9889 684.479 78.5833 684.479 80.4383V92.562C684.443 92.9015 684.128 93.1682 683.752 93.1682H679.994C679.654 93.1439 679.363 92.8893 679.327 92.562V82.1114C679.327 80.0018 679.569 76.9224 676.975 76.9224C676.066 76.9224 675.217 77.5286 674.805 78.4621C674.271 79.6381 674.211 80.8141 674.211 82.1114V92.4771C674.199 92.8651 673.871 93.1803 673.471 93.1803Z" fill="#111111"/>
<path fill-rule="evenodd" clip-rule="evenodd" d="M623.473 83.9782C623.473 85.4452 623.509 86.6576 622.77 87.9548C622.176 89.0096 621.218 89.6642 620.175 89.6642C618.732 89.6642 617.896 88.561 617.896 86.9485C617.896 83.7479 620.757 83.1659 623.485 83.1659L623.473 83.9782ZM627.255 93.1195C627.013 93.3377 626.649 93.362 626.37 93.2044C625.122 92.1738 624.903 91.6889 624.212 90.7069C622.151 92.8043 620.697 93.4347 618.029 93.4347C614.865 93.4347 612.416 91.4828 612.416 87.5911C612.416 84.548 614.065 82.4749 616.417 81.4565C618.454 80.5593 621.303 80.4017 623.473 80.1471V79.6622C623.473 78.765 623.546 77.7102 623.012 76.9464C622.564 76.2554 621.679 75.9644 620.903 75.9644C619.472 75.9644 618.199 76.704 617.884 78.2194C617.823 78.5589 617.569 78.8862 617.229 78.9105L613.592 78.5225C613.289 78.4498 612.937 78.2073 613.034 77.7345C613.883 73.3336 617.872 72 621.436 72C623.267 72 625.643 72.4849 627.086 73.867C628.916 75.5765 628.735 77.8436 628.735 80.3168V86.1605C628.735 87.9184 629.462 88.6943 630.153 89.64C630.395 89.9795 630.444 90.3795 630.141 90.6341C629.377 91.2888 628.019 92.4769 627.255 93.1195Z" fill="#111111"/>
<path fill-rule="evenodd" clip-rule="evenodd" d="M574.287 83.9782C574.287 85.4452 574.323 86.6576 573.584 87.9548C572.99 89.0096 572.044 89.6643 570.989 89.6643C569.546 89.6643 568.71 88.561 568.71 86.9486C568.71 83.7479 571.571 83.1659 574.287 83.1659V83.9782ZM578.069 93.1195C577.827 93.3378 577.463 93.362 577.184 93.2044C575.936 92.1739 575.717 91.6889 575.026 90.7069C572.965 92.8043 571.51 93.4347 568.843 93.4347C565.691 93.4347 563.23 91.4828 563.23 87.5911C563.23 84.5481 564.879 82.4749 567.231 81.4565C569.268 80.5593 572.117 80.4017 574.287 80.1471V79.6622C574.287 78.765 574.36 77.7103 573.838 76.9465C573.378 76.2554 572.505 75.9645 571.729 75.9645C570.298 75.9645 569.025 76.704 568.71 78.2195C568.649 78.5589 568.395 78.8863 568.055 78.9105L564.418 78.5226C564.115 78.4498 563.776 78.2073 563.86 77.7345C564.697 73.3336 568.686 72 572.25 72C574.081 72 576.457 72.4849 577.9 73.8671C579.73 75.5765 579.549 77.8436 579.549 80.3169V86.1605C579.549 87.9184 580.276 88.6944 580.967 89.64C581.209 89.9795 581.258 90.3796 580.955 90.6342C580.191 91.2888 578.833 92.477 578.069 93.1195Z" fill="#111111"/>
</g>
<g clip-path="url(#clip1_1_110)">
<path d="M731.907 78.7611L732.348 69.5137H726.623L726.55 86.2839L723.467 95.568H729.265L732.201 86.7242L743.43 69.5137H736.935L731.907 78.7611Z" fill="#111111"/>
<path d="M731.509 95.568H737.417L739.619 90.8709H744.316L743.472 95.568H749.05L752.829 69.5137H745.013L731.509 95.568ZM747.068 75.0915L745.16 85.9536H741.967L747.068 75.0915Z" fill="#111111"/>
<path d="M763.83 84.4123L764.564 69.5137H758.252L749.592 95.568H754.913L760.087 80.0088L759.28 95.568H765.445L774.105 69.5137H768.784L763.83 84.4123Z" fill="#111111"/>
<path d="M781.983 73.6604C782.9 73.6604 783.267 74.5778 783.341 77.6603L788.514 75.8989C788.551 72.0091 786.643 69 782.57 69C777.359 69 773.946 73.587 771.121 81.7702C768.295 89.9535 769.983 96.0084 774.387 96.0084C776.148 96.0084 777.249 95.3111 778.496 93.7332L778.166 95.568H782.313L787.23 80.8161H779.304L777.689 85.7334H780.478L780.368 86.0637C779.561 88.5224 778.093 91.3113 776.552 91.3113C774.9 91.3113 774.754 89.0728 776.955 82.4675C779.157 75.8622 780.331 73.6604 781.983 73.6604Z" fill="#111111"/>
<path d="M792.661 96.0451C797.211 96.0451 801.028 91.8984 803.817 83.5317C806.422 75.7521 806.165 69.0367 799.192 69.0367C794.642 69.0367 790.862 73.1834 788.037 81.5501C785.395 89.3664 785.688 96.0451 792.661 96.0451ZM793.211 91.3847C791.01 91.3847 792.44 86.7243 793.872 82.284C796.074 75.4585 797.358 73.6971 798.642 73.6971C800.844 73.6971 799.413 78.3575 797.982 82.7978C795.78 89.6232 794.496 91.3847 793.211 91.3847Z" fill="#111111"/>
</g>
<g clip-path="url(#clip2_1_110)">
<path d="M888.583 72.048H892.783L899.924 84.966L907.065 72.048H911.174V93.2746H907.747V77.006L901.485 88.2713H898.271L892.009 77.006V93.2746H888.583V72.048Z" fill="#111111"/>
<path d="M922.227 93.6538C920.64 93.6538 919.245 93.3026 918.042 92.6001C916.839 91.8976 915.901 90.9247 915.229 89.6814C914.557 88.4381 914.221 87.0129 914.221 85.4058C914.221 83.7785 914.55 82.3381 915.207 81.0846C915.864 79.8314 916.776 78.8509 917.943 78.1431C919.111 77.4357 920.453 77.082 921.969 77.0818C923.475 77.0818 924.771 77.4381 925.858 78.1506C926.944 78.8634 927.781 79.8616 928.367 81.1452C928.953 82.429 929.246 83.9351 929.247 85.6635V86.6034H917.617C917.83 87.8974 918.353 88.9158 919.187 89.6585C920.021 90.4015 921.074 90.773 922.348 90.7729C923.369 90.7729 924.248 90.6213 924.986 90.3181C925.724 90.0148 926.416 89.555 927.063 88.9384L928.883 91.1672C927.073 92.8251 924.854 93.6539 922.227 93.6538ZM924.728 81.0617C924.011 80.329 923.07 79.9626 921.908 79.9625C920.776 79.9625 919.828 80.3365 919.065 81.0846C918.302 81.8326 917.819 82.8383 917.617 84.1018H925.956C925.855 82.8079 925.446 81.7946 924.728 81.0617Z" fill="#111111"/>
<path d="M933.401 80.2658H930.247V77.4608H933.401V72.8214H936.706V77.4608H941.498V80.2658H936.706V87.3767C936.706 88.5592 936.909 89.4032 937.313 89.9086C937.717 90.4142 938.409 90.6669 939.39 90.6667C939.825 90.6667 940.194 90.649 940.497 90.6137C940.8 90.5784 941.134 90.5304 941.498 90.4696V93.2442C941.082 93.3643 940.659 93.4555 940.232 93.5172C939.742 93.5892 939.248 93.6247 938.753 93.6233C935.185 93.6233 933.401 91.6725 933.401 87.7709V80.2658Z" fill="#111111"/>
<path d="M958.722 93.2747H955.477V91.061C954.901 91.89 954.168 92.5293 953.279 92.979C952.389 93.4286 951.378 93.6536 950.246 93.6538C948.852 93.6538 947.616 93.2975 946.539 92.5848C945.463 91.8722 944.616 90.8918 944 89.6435C943.383 88.3951 943.075 86.9674 943.075 85.3603C943.075 83.743 943.388 82.3127 944.015 81.0693C944.642 79.8262 945.508 78.8508 946.615 78.1431C947.722 77.4358 948.993 77.082 950.428 77.0818C951.51 77.0818 952.48 77.2916 953.339 77.7111C954.187 78.1211 954.921 78.7328 955.477 79.4925V77.4609H958.722V93.2747ZM955.417 82.995C955.063 82.0954 954.504 81.3852 953.741 80.8646C952.978 80.3441 952.096 80.0839 951.096 80.0839C949.68 80.0839 948.553 80.5589 947.714 81.509C946.875 82.4592 946.456 83.7429 946.456 85.3602C946.456 86.9877 946.86 88.2765 947.669 89.2265C948.477 90.1767 949.574 90.6518 950.959 90.6517C951.98 90.6517 952.89 90.3889 953.688 89.8632C954.487 89.3379 955.063 88.6303 955.417 87.7406V82.995Z" fill="#111111"/>
<path d="M872.026 71.3305C869.271 71.3305 867.117 73.4058 865.167 76.0421C862.488 72.6305 860.247 71.3305 857.565 71.3305C852.098 71.3305 847.909 78.4455 847.909 85.9763C847.909 90.6888 850.189 93.6611 854.008 93.6611C856.756 93.6611 858.733 92.3653 862.247 86.2227C862.247 86.2227 863.712 83.6359 864.72 81.854C865.073 82.4241 865.445 83.0385 865.835 83.697L867.483 86.4691C870.693 91.8407 872.482 93.6611 875.722 93.6611C879.443 93.6611 881.513 90.6482 881.513 85.8377C881.513 77.9527 877.23 71.3305 872.026 71.3305ZM859.567 84.5595C856.718 89.0256 855.733 90.0266 854.147 90.0266C852.514 90.0266 851.544 88.5935 851.544 86.0379C851.544 80.5708 854.27 74.9804 857.519 74.9804C859.279 74.9804 860.749 75.9967 863.002 79.2213C860.863 82.5019 859.567 84.5595 859.567 84.5595ZM870.32 83.9972L868.35 80.7113C867.817 79.8442 867.304 79.046 866.813 78.3168C868.589 75.5761 870.053 74.2104 871.795 74.2104C875.414 74.2104 878.31 79.5389 878.31 86.0841C878.31 88.579 877.493 90.0266 875.799 90.0266C874.177 90.0266 873.401 88.9549 870.32 83.9972Z" fill="#111111"/>
</g>
<g clip-path="url(#clip3_1_110)">
<path fill-rule="evenodd" clip-rule="evenodd" d="M1081.3 69H1086.13V96.5202H1081.3V69ZM1120.25 80.6054V76.3387H1115.29V70.792H1110.46V91.0588C1110.46 92.9362 1110.92 94.3442 1111.83 95.2828C1112.75 96.2215 1114.12 96.6909 1116 96.6909H1120.25V92.4242H1117.12C1116.46 92.4242 1115.96 92.2535 1115.67 91.9548C1115.42 91.6988 1115.25 90.9735 1115.25 90.2055V80.6054H1120.25ZM1048.59 91.1441L1053.55 76.296H1058.59L1051.43 96.4775H1045.72L1038.55 76.3387H1043.59L1048.59 91.1441ZM1102.63 86.4081C1102.63 87.6881 1102.42 88.7975 1102.08 89.6935C1101.71 90.5895 1101.17 91.3148 1100.5 91.7842C1099.84 92.2535 1099 92.4668 1098.04 92.4668C1096.67 92.4668 1095.63 91.9975 1094.96 91.1015C1094.29 90.1628 1093.92 88.7975 1093.92 86.9628V76.296H1089.09V87.4748C1089.09 89.2241 1089.3 90.7175 1089.71 91.8695C1090.13 93.0642 1090.71 94.0028 1091.42 94.7282C1092.13 95.4535 1092.96 95.9655 1093.92 96.2642C1094.84 96.5629 1095.84 96.7335 1096.88 96.7335C1098.38 96.7335 1099.63 96.4349 1100.58 95.9228C1101.46 95.4108 1102.17 94.8135 1102.75 94.1735L1103.17 96.5202H1107.38V76.3387H1102.54V86.4081H1102.63ZM1073.92 77.3627C1072.42 76.5094 1070.59 76.0827 1068.59 76.0827C1066.59 76.0827 1064.8 76.5094 1063.26 77.3627C1061.72 78.2161 1060.51 79.4534 1059.67 80.9894C1058.84 82.5254 1058.42 84.3601 1058.42 86.4081C1058.42 88.4561 1058.84 90.2481 1059.67 91.7842C1060.51 93.3202 1061.72 94.5575 1063.26 95.4108C1064.8 96.2642 1066.59 96.6909 1068.59 96.6909C1070.63 96.6909 1072.42 96.2642 1073.92 95.4108C1075.42 94.5575 1076.63 93.3202 1077.46 91.7842C1078.3 90.2481 1078.71 88.4135 1078.71 86.4081C1078.71 84.3601 1078.3 82.5254 1077.46 80.9894C1076.67 79.4534 1075.46 78.2587 1073.92 77.3627ZM1071.38 91.7842C1070.59 92.2962 1069.67 92.5522 1068.59 92.5522C1067.51 92.5522 1066.59 92.2962 1065.8 91.7842C1065.01 91.2722 1064.38 90.5468 1063.97 89.6081C1063.55 88.6695 1063.3 87.6028 1063.3 86.4081C1063.3 85.1708 1063.51 84.1041 1063.97 83.2081C1064.38 82.3121 1065.01 81.5441 1065.8 81.0321C1066.59 80.5201 1067.51 80.2214 1068.59 80.2214C1069.67 80.2214 1070.63 80.4774 1071.38 81.0321C1072.17 81.5441 1072.76 82.3121 1073.21 83.2081C1073.63 84.1041 1073.88 85.2134 1073.88 86.4081C1073.88 87.6028 1073.67 88.6695 1073.21 89.6081C1072.8 90.5468 1072.17 91.2722 1071.38 91.7842ZM1002.68 75.784H997.684V96.4775H1002.68V75.784ZM1018.39 76.9787C1018.39 72.584 1014.89 69 1010.6 69H997.684V73.4374H1009.97C1011.93 73.4374 1013.52 75.016 1013.56 76.9361C1013.56 77.9174 1013.22 78.8134 1012.56 79.4961C1011.89 80.1361 1011.02 80.5201 1010.1 80.5201H1005.31C1005.14 80.5201 1005.02 80.6481 1005.02 80.8187V84.7868C1005.02 84.8721 1005.02 84.9148 1005.06 84.9574L1013.18 96.4775H1019.14L1010.97 84.9148C1015.06 84.7441 1018.39 81.2027 1018.39 76.9787ZM1033.76 77.2774C1032.3 76.5094 1030.6 76.0827 1028.68 76.0827C1026.76 76.0827 1025.01 76.5094 1023.56 77.3627C1022.06 78.2161 1020.93 79.4534 1020.1 80.9894C1019.26 82.5254 1018.89 84.3601 1018.89 86.4508C1018.89 88.4988 1019.31 90.2908 1020.14 91.8268C1020.97 93.3628 1022.18 94.6002 1023.68 95.4108C1025.22 96.2642 1027.05 96.6909 1029.14 96.6909C1030.8 96.6909 1032.26 96.3922 1033.55 95.7522C1034.85 95.1122 1035.89 94.2588 1036.64 93.1922C1037.39 92.1682 1037.89 91.0588 1038.14 89.8215L1038.18 89.6935H1033.3L1033.26 89.7788C1033.01 90.7175 1032.47 91.4428 1031.76 91.9548C1030.97 92.5095 1029.97 92.8082 1028.85 92.8082C1027.89 92.8082 1027.01 92.5948 1026.26 92.1682C1025.51 91.7415 1024.93 91.1441 1024.51 90.4188C1024.1 89.6508 1023.89 88.7548 1023.81 87.7308V87.5601H1038.26V87.4748C1038.3 87.1761 1038.34 86.8775 1038.34 86.6215C1038.34 86.3228 1038.34 86.0668 1038.34 85.7681C1038.3 83.8054 1037.89 82.0988 1037.09 80.6481C1036.34 79.1547 1035.18 78.0454 1033.76 77.2774ZM1032.01 81.0747C1032.85 81.8001 1033.35 82.7814 1033.55 84.0614H1024.01C1024.14 83.2508 1024.39 82.5254 1024.81 81.9281C1025.26 81.2881 1025.8 80.8187 1026.51 80.4774C1027.18 80.1361 1027.93 79.9654 1028.72 79.9654C1030.05 79.9654 1031.14 80.3494 1032.01 81.0747Z" fill="#111111"/>
</g>
<defs>
<clipPath id="clip0_1_110">
<rect width="121.237" height="67" fill="white" transform="translate(563.23 49)"/>
</clipPath>
<clipPath id="clip1_1_110">
<rect width="82.217" height="67" fill="white" transform="translate(723.467 49)"/>
</clipPath>
<clipPath id="clip2_1_110">
<rect width="114" height="67" fill="white" transform="translate(844.684 49)"/>
</clipPath>
<clipPath id="clip3_1_110">
<rect width="122.564" height="67" fill="white" transform="translate(997.684 49)"/>
</clipPath>
</defs>
</svg>
