<svg width="312" height="194" viewBox="0 0 312 194" fill="none" xmlns="http://www.w3.org/2000/svg">
<path d="M37.0291 7.54545V10.5881H29.1371V25H25.4467V7.54545H37.0291ZM43.3913 25.2557C42.0447 25.2557 40.8857 24.983 39.9141 24.4375C38.9482 23.8864 38.2038 23.108 37.6811 22.1023C37.1584 21.0909 36.897 19.8949 36.897 18.5142C36.897 17.1676 37.1584 15.9858 37.6811 14.9688C38.2038 13.9517 38.9396 13.1591 39.8885 12.5909C40.843 12.0227 41.9624 11.7386 43.2464 11.7386C44.1101 11.7386 44.9141 11.8778 45.6584 12.1562C46.4084 12.429 47.0618 12.8409 47.6186 13.392C48.1811 13.9432 48.6186 14.6364 48.9311 15.4716C49.2436 16.3011 49.3999 17.2727 49.3999 18.3864V19.3835H38.3459V17.1335H45.9822C45.9822 16.6108 45.8686 16.1477 45.6413 15.7443C45.4141 15.3409 45.0987 15.0256 44.6953 14.7983C44.2976 14.5653 43.8345 14.4489 43.3061 14.4489C42.755 14.4489 42.2663 14.5767 41.8402 14.8324C41.4197 15.0824 41.0902 15.4205 40.8516 15.8466C40.6129 16.267 40.4908 16.7358 40.4851 17.2528V19.392C40.4851 20.0398 40.6044 20.5994 40.843 21.071C41.0874 21.5426 41.4311 21.9062 41.8743 22.1619C42.3175 22.4176 42.843 22.5455 43.451 22.5455C43.8544 22.5455 44.2237 22.4886 44.5589 22.375C44.8942 22.2614 45.1811 22.0909 45.4197 21.8636C45.6584 21.6364 45.8402 21.358 45.9652 21.0284L49.3232 21.25C49.1527 22.0568 48.8033 22.7614 48.2749 23.3636C47.7521 23.9602 47.076 24.4261 46.2464 24.7614C45.4226 25.0909 44.4709 25.2557 43.3913 25.2557ZM60.88 17.0057V19.8608H54.0447V17.0057H60.88ZM55.2379 11.9091V25H51.7692V11.9091H55.2379ZM63.1555 11.9091V25H59.7124V11.9091H63.1555ZM71.9382 25.2557C70.5916 25.2557 69.4325 24.983 68.4609 24.4375C67.495 23.8864 66.7507 23.108 66.228 22.1023C65.7053 21.0909 65.4439 19.8949 65.4439 18.5142C65.4439 17.1676 65.7053 15.9858 66.228 14.9688C66.7507 13.9517 67.4865 13.1591 68.4354 12.5909C69.3899 12.0227 70.5092 11.7386 71.7933 11.7386C72.657 11.7386 73.4609 11.8778 74.2053 12.1562C74.9553 12.429 75.6087 12.8409 76.1655 13.392C76.728 13.9432 77.1655 14.6364 77.478 15.4716C77.7905 16.3011 77.9467 17.2727 77.9467 18.3864V19.3835H66.8928V17.1335H74.5291C74.5291 16.6108 74.4155 16.1477 74.1882 15.7443C73.9609 15.3409 73.6456 15.0256 73.2422 14.7983C72.8445 14.5653 72.3814 14.4489 71.853 14.4489C71.3018 14.4489 70.8132 14.5767 70.3871 14.8324C69.9666 15.0824 69.6371 15.4205 69.3984 15.8466C69.1598 16.267 69.0376 16.7358 69.032 17.2528V19.392C69.032 20.0398 69.1513 20.5994 69.3899 21.071C69.6342 21.5426 69.978 21.9062 70.4212 22.1619C70.8643 22.4176 71.3899 22.5455 71.9979 22.5455C72.4013 22.5455 72.7706 22.4886 73.1058 22.375C73.4411 22.2614 73.728 22.0909 73.9666 21.8636C74.2053 21.6364 74.3871 21.358 74.5121 21.0284L77.87 21.25C77.6996 22.0568 77.3501 22.7614 76.8217 23.3636C76.299 23.9602 75.6229 24.4261 74.7933 24.7614C73.9695 25.0909 73.0178 25.2557 71.9382 25.2557ZM80.3161 29.9091V11.9091H83.8956V14.108H84.0575C84.2166 13.7557 84.4467 13.3977 84.7479 13.0341C85.0547 12.6648 85.4524 12.358 85.9411 12.1136C86.4354 11.8636 87.049 11.7386 87.782 11.7386C88.7365 11.7386 89.6172 11.9886 90.424 12.4886C91.2308 12.983 91.8757 13.7301 92.3587 14.7301C92.8416 15.7244 93.0831 16.9716 93.0831 18.4716C93.0831 19.9318 92.8473 21.1648 92.3757 22.1705C91.9098 23.1705 91.2734 23.929 90.4666 24.446C89.6655 24.9574 88.7678 25.2131 87.7734 25.2131C87.0689 25.2131 86.4695 25.0966 85.9751 24.8636C85.4865 24.6307 85.0859 24.3381 84.7734 23.9858C84.4609 23.6278 84.2223 23.267 84.0575 22.9034H83.9467V29.9091H80.3161ZM83.87 18.4545C83.87 19.233 83.978 19.9119 84.1939 20.4915C84.4098 21.071 84.7223 21.5227 85.1314 21.8466C85.5405 22.1648 86.0376 22.3239 86.6229 22.3239C87.2138 22.3239 87.7138 22.1619 88.1229 21.8381C88.532 21.5085 88.8416 21.054 89.0518 20.4744C89.2678 19.8892 89.3757 19.2159 89.3757 18.4545C89.3757 17.6989 89.2706 17.0341 89.0604 16.4602C88.8501 15.8864 88.5405 15.4375 88.1314 15.1136C87.7223 14.7898 87.2195 14.6278 86.6229 14.6278C86.032 14.6278 85.532 14.7841 85.1229 15.0966C84.7195 15.4091 84.4098 15.8523 84.1939 16.4261C83.978 17 83.87 17.6761 83.87 18.4545ZM99.2365 25.2472C98.4013 25.2472 97.657 25.1023 97.0036 24.8125C96.3501 24.517 95.8331 24.0824 95.4524 23.5085C95.0774 22.929 94.8899 22.2074 94.8899 21.3438C94.8899 20.6165 95.0234 20.0057 95.2905 19.5114C95.5575 19.017 95.9212 18.6193 96.3814 18.3182C96.8416 18.017 97.3643 17.7898 97.9496 17.6364C98.5405 17.483 99.1598 17.375 99.8075 17.3125C100.569 17.233 101.183 17.1591 101.648 17.0909C102.114 17.017 102.452 16.9091 102.663 16.767C102.873 16.625 102.978 16.4148 102.978 16.1364V16.0852C102.978 15.5455 102.808 15.1278 102.467 14.8324C102.131 14.5369 101.654 14.3892 101.035 14.3892C100.381 14.3892 99.8615 14.5341 99.4751 14.8239C99.0888 15.108 98.8331 15.4659 98.7081 15.8977L95.3501 15.625C95.5206 14.8295 95.8558 14.142 96.3558 13.5625C96.8558 12.9773 97.5007 12.5284 98.2905 12.2159C99.0859 11.8977 100.006 11.7386 101.052 11.7386C101.779 11.7386 102.475 11.8239 103.14 11.9943C103.81 12.1648 104.404 12.429 104.921 12.7869C105.444 13.1449 105.856 13.6051 106.157 14.1676C106.458 14.7244 106.609 15.392 106.609 16.1705V25H103.165V23.1847H103.063C102.853 23.5938 102.572 23.9545 102.219 24.267C101.867 24.5739 101.444 24.8153 100.95 24.9915C100.455 25.1619 99.8842 25.2472 99.2365 25.2472ZM100.276 22.7415C100.81 22.7415 101.282 22.6364 101.691 22.4261C102.1 22.2102 102.421 21.9205 102.654 21.5568C102.887 21.1932 103.004 20.7812 103.004 20.321V18.9318C102.89 19.0057 102.734 19.0739 102.535 19.1364C102.342 19.1932 102.123 19.2472 101.879 19.2983C101.634 19.3437 101.39 19.3864 101.146 19.4261C100.901 19.4602 100.68 19.4915 100.481 19.5199C100.055 19.5824 99.6825 19.6818 99.3643 19.8182C99.0462 19.9545 98.799 20.1392 98.6229 20.3722C98.4467 20.5994 98.3587 20.8835 98.3587 21.2244C98.3587 21.7188 98.5376 22.0966 98.8956 22.358C99.2592 22.6136 99.7195 22.7415 100.276 22.7415ZM120.871 11.9091V22.4943H122.96V29.2102H119.431V25H109.425V11.9091H112.894V22.1449H117.445V11.9091H120.871ZM128.668 20.2102L133.381 11.9091H136.96V25H133.5V16.6733L128.804 25H125.199V11.9091H128.668V20.2102ZM147.541 25V14.7557H145.087C144.422 14.7557 143.916 14.9091 143.57 15.2159C143.223 15.5227 143.053 15.8864 143.058 16.3068C143.053 16.733 143.217 17.0937 143.553 17.3892C143.893 17.679 144.393 17.8239 145.053 17.8239H148.751V20.2784H145.053C143.933 20.2784 142.964 20.108 142.146 19.767C141.328 19.4261 140.697 18.9517 140.254 18.3438C139.811 17.7301 139.592 17.017 139.598 16.2045C139.592 15.3523 139.811 14.6051 140.254 13.9631C140.697 13.3153 141.331 12.8125 142.155 12.4545C142.984 12.0909 143.962 11.9091 145.087 11.9091H150.925V25H147.541ZM139.223 25L142.862 18.1818H146.331L142.7 25H139.223ZM165.215 25.2557C163.874 25.2557 162.721 24.9716 161.755 24.4034C160.795 23.8295 160.056 23.0341 159.539 22.017C159.028 21 158.772 19.8295 158.772 18.5057C158.772 17.1648 159.031 15.9886 159.548 14.9773C160.07 13.9602 160.812 13.1676 161.772 12.5994C162.732 12.0256 163.874 11.7386 165.198 11.7386C166.34 11.7386 167.34 11.946 168.198 12.3608C169.056 12.7756 169.735 13.358 170.235 14.108C170.735 14.858 171.011 15.7386 171.062 16.75H167.636C167.539 16.0966 167.283 15.571 166.869 15.1733C166.46 14.7699 165.923 14.5682 165.258 14.5682C164.695 14.5682 164.204 14.7216 163.783 15.0284C163.369 15.3295 163.045 15.7699 162.812 16.3494C162.579 16.929 162.462 17.6307 162.462 18.4545C162.462 19.2898 162.576 20 162.803 20.5852C163.036 21.1705 163.363 21.6165 163.783 21.9233C164.204 22.2301 164.695 22.3835 165.258 22.3835C165.673 22.3835 166.045 22.2983 166.374 22.1278C166.71 21.9574 166.985 21.7102 167.201 21.3864C167.423 21.0568 167.567 20.6619 167.636 20.2017H171.062C171.005 21.2017 170.732 22.0824 170.244 22.8438C169.761 23.5994 169.093 24.1903 168.241 24.6165C167.388 25.0426 166.38 25.2557 165.215 25.2557ZM184.832 11.9091V22.4943H186.92V29.2102H183.392V25H173.386V11.9091H176.855V22.1449H181.406V11.9091H184.832ZM194.985 25.2557C193.638 25.2557 192.479 24.983 191.508 24.4375C190.542 23.8864 189.798 23.108 189.275 22.1023C188.752 21.0909 188.491 19.8949 188.491 18.5142C188.491 17.1676 188.752 15.9858 189.275 14.9688C189.798 13.9517 190.533 13.1591 191.482 12.5909C192.437 12.0227 193.556 11.7386 194.84 11.7386C195.704 11.7386 196.508 11.8778 197.252 12.1562C198.002 12.429 198.656 12.8409 199.212 13.392C199.775 13.9432 200.212 14.6364 200.525 15.4716C200.837 16.3011 200.994 17.2727 200.994 18.3864V19.3835H189.94V17.1335H197.576C197.576 16.6108 197.462 16.1477 197.235 15.7443C197.008 15.3409 196.692 15.0256 196.289 14.7983C195.891 14.5653 195.428 14.4489 194.9 14.4489C194.349 14.4489 193.86 14.5767 193.434 14.8324C193.013 15.0824 192.684 15.4205 192.445 15.8466C192.207 16.267 192.085 16.7358 192.079 17.2528V19.392C192.079 20.0398 192.198 20.5994 192.437 21.071C192.681 21.5426 193.025 21.9062 193.468 22.1619C193.911 22.4176 194.437 22.5455 195.045 22.5455C195.448 22.5455 195.817 22.4886 196.153 22.375C196.488 22.2614 196.775 22.0909 197.013 21.8636C197.252 21.6364 197.434 21.358 197.559 21.0284L200.917 21.25C200.746 22.0568 200.397 22.7614 199.869 23.3636C199.346 23.9602 198.67 24.4261 197.84 24.7614C197.016 25.0909 196.065 25.2557 194.985 25.2557ZM212.474 17.0057V19.8608H205.638V17.0057H212.474ZM206.832 11.9091V25H203.363V11.9091H206.832ZM214.749 11.9091V25H211.306V11.9091H214.749ZM221.299 25.2472C220.464 25.2472 219.719 25.1023 219.066 24.8125C218.413 24.517 217.896 24.0824 217.515 23.5085C217.14 22.929 216.952 22.2074 216.952 21.3438C216.952 20.6165 217.086 20.0057 217.353 19.5114C217.62 19.017 217.984 18.6193 218.444 18.3182C218.904 18.017 219.427 17.7898 220.012 17.6364C220.603 17.483 221.222 17.375 221.87 17.3125C222.631 17.233 223.245 17.1591 223.711 17.0909C224.177 17.017 224.515 16.9091 224.725 16.767C224.935 16.625 225.04 16.4148 225.04 16.1364V16.0852C225.04 15.5455 224.87 15.1278 224.529 14.8324C224.194 14.5369 223.717 14.3892 223.097 14.3892C222.444 14.3892 221.924 14.5341 221.538 14.8239C221.151 15.108 220.896 15.4659 220.771 15.8977L217.413 15.625C217.583 14.8295 217.918 14.142 218.418 13.5625C218.918 12.9773 219.563 12.5284 220.353 12.2159C221.148 11.8977 222.069 11.7386 223.114 11.7386C223.842 11.7386 224.538 11.8239 225.202 11.9943C225.873 12.1648 226.467 12.429 226.984 12.7869C227.506 13.1449 227.918 13.6051 228.219 14.1676C228.521 14.7244 228.671 15.392 228.671 16.1705V25H225.228V23.1847H225.126C224.915 23.5938 224.634 23.9545 224.282 24.267C223.93 24.5739 223.506 24.8153 223.012 24.9915C222.518 25.1619 221.947 25.2472 221.299 25.2472ZM222.339 22.7415C222.873 22.7415 223.344 22.6364 223.754 22.4261C224.163 22.2102 224.484 21.9205 224.717 21.5568C224.95 21.1932 225.066 20.7812 225.066 20.321V18.9318C224.952 19.0057 224.796 19.0739 224.597 19.1364C224.404 19.1932 224.185 19.2472 223.941 19.2983C223.697 19.3437 223.452 19.3864 223.208 19.4261C222.964 19.4602 222.742 19.4915 222.543 19.5199C222.117 19.5824 221.745 19.6818 221.427 19.8182C221.109 19.9545 220.862 20.1392 220.685 20.3722C220.509 20.5994 220.421 20.8835 220.421 21.2244C220.421 21.7188 220.6 22.0966 220.958 22.358C221.322 22.6136 221.782 22.7415 222.339 22.7415ZM231.488 29.9091V11.9091H235.067V14.108H235.229C235.388 13.7557 235.619 13.3977 235.92 13.0341C236.227 12.6648 236.624 12.358 237.113 12.1136C237.607 11.8636 238.221 11.7386 238.954 11.7386C239.908 11.7386 240.789 11.9886 241.596 12.4886C242.403 12.983 243.048 13.7301 243.531 14.7301C244.013 15.7244 244.255 16.9716 244.255 18.4716C244.255 19.9318 244.019 21.1648 243.548 22.1705C243.082 23.1705 242.445 23.929 241.638 24.446C240.837 24.9574 239.94 25.2131 238.945 25.2131C238.241 25.2131 237.641 25.0966 237.147 24.8636C236.658 24.6307 236.258 24.3381 235.945 23.9858C235.633 23.6278 235.394 23.267 235.229 22.9034H235.119V29.9091H231.488ZM235.042 18.4545C235.042 19.233 235.15 19.9119 235.366 20.4915C235.582 21.071 235.894 21.5227 236.303 21.8466C236.712 22.1648 237.21 22.3239 237.795 22.3239C238.386 22.3239 238.886 22.1619 239.295 21.8381C239.704 21.5085 240.013 21.054 240.224 20.4744C240.44 19.8892 240.548 19.2159 240.548 18.4545C240.548 17.6989 240.442 17.0341 240.232 16.4602C240.022 15.8864 239.712 15.4375 239.303 15.1136C238.894 14.7898 238.391 14.6278 237.795 14.6278C237.204 14.6278 236.704 14.7841 236.295 15.0966C235.891 15.4091 235.582 15.8523 235.366 16.4261C235.15 17 235.042 17.6761 235.042 18.4545ZM250.144 20.2102L254.857 11.9091H258.437V25H254.977V16.6733L250.281 25H246.675V11.9091H250.144V20.2102ZM267.313 25.2557C265.967 25.2557 264.808 24.983 263.836 24.4375C262.87 23.8864 262.126 23.108 261.603 22.1023C261.08 21.0909 260.819 19.8949 260.819 18.5142C260.819 17.1676 261.08 15.9858 261.603 14.9688C262.126 13.9517 262.862 13.1591 263.81 12.5909C264.765 12.0227 265.884 11.7386 267.168 11.7386C268.032 11.7386 268.836 11.8778 269.58 12.1562C270.33 12.429 270.984 12.8409 271.54 13.392C272.103 13.9432 272.54 14.6364 272.853 15.4716C273.165 16.3011 273.322 17.2727 273.322 18.3864V19.3835H262.268V17.1335H269.904C269.904 16.6108 269.79 16.1477 269.563 15.7443C269.336 15.3409 269.021 15.0256 268.617 14.7983C268.219 14.5653 267.756 14.4489 267.228 14.4489C266.677 14.4489 266.188 14.5767 265.762 14.8324C265.342 15.0824 265.012 15.4205 264.773 15.8466C264.535 16.267 264.413 16.7358 264.407 17.2528V19.392C264.407 20.0398 264.526 20.5994 264.765 21.071C265.009 21.5426 265.353 21.9062 265.796 22.1619C266.239 22.4176 266.765 22.5455 267.373 22.5455C267.776 22.5455 268.146 22.4886 268.481 22.375C268.816 22.2614 269.103 22.0909 269.342 21.8636C269.58 21.6364 269.762 21.358 269.887 21.0284L273.245 21.25C273.075 22.0568 272.725 22.7614 272.197 23.3636C271.674 23.9602 270.998 24.4261 270.168 24.7614C269.344 25.0909 268.393 25.2557 267.313 25.2557ZM275.691 25V11.9091H281.273C282.887 11.9091 284.163 12.2159 285.1 12.8295C286.038 13.4432 286.506 14.3153 286.506 15.446C286.506 16.1562 286.242 16.7472 285.714 17.2188C285.185 17.6903 284.452 18.0085 283.515 18.1733C284.299 18.2301 284.967 18.4091 285.518 18.7102C286.075 19.0057 286.498 19.3892 286.788 19.8608C287.083 20.3324 287.231 20.8551 287.231 21.429C287.231 22.1733 287.032 22.8125 286.634 23.3466C286.242 23.8807 285.665 24.2898 284.904 24.5739C284.148 24.858 283.225 25 282.134 25H275.691ZM279.075 22.2812H282.134C282.64 22.2812 283.035 22.1619 283.319 21.9233C283.609 21.679 283.754 21.3466 283.754 20.9261C283.754 20.4602 283.609 20.0937 283.319 19.8267C283.035 19.5597 282.64 19.4261 282.134 19.4261H279.075V22.2812ZM279.075 17.2955H281.35C281.714 17.2955 282.023 17.2443 282.279 17.142C282.54 17.0341 282.739 16.8807 282.876 16.6818C283.018 16.483 283.089 16.2472 283.089 15.9744C283.089 15.571 282.927 15.2557 282.603 15.0284C282.279 14.8011 281.836 14.6875 281.273 14.6875H279.075V17.2955Z" fill="#111111"/>
<path d="M38.6651 50.1477H36.8923C36.8242 49.7689 36.6973 49.4356 36.5117 49.1477C36.326 48.8598 36.0988 48.6155 35.8298 48.4148C35.5609 48.214 35.2598 48.0625 34.9264 47.9602C34.5969 47.858 34.2465 47.8068 33.8753 47.8068C33.2048 47.8068 32.6045 47.9754 32.0742 48.3125C31.5476 48.6496 31.131 49.1439 30.8242 49.7955C30.5211 50.447 30.3696 51.2424 30.3696 52.1818C30.3696 53.1288 30.5211 53.928 30.8242 54.5795C31.131 55.2311 31.5495 55.7235 32.0798 56.0568C32.6101 56.3902 33.2067 56.5568 33.8696 56.5568C34.237 56.5568 34.5855 56.5076 34.9151 56.4091C35.2484 56.3068 35.5495 56.1572 35.8185 55.9602C36.0874 55.7633 36.3147 55.5227 36.5003 55.2386C36.6897 54.9508 36.8204 54.6212 36.8923 54.25L38.6651 54.2557C38.5704 54.8277 38.3867 55.3542 38.1139 55.8352C37.845 56.3125 37.4984 56.7254 37.0742 57.0739C36.6537 57.4186 36.1726 57.6856 35.631 57.875C35.0893 58.0644 34.4984 58.1591 33.8582 58.1591C32.8507 58.1591 31.9529 57.9205 31.1651 57.4432C30.3772 56.9621 29.756 56.2746 29.3014 55.3807C28.8507 54.4867 28.6253 53.4205 28.6253 52.1818C28.6253 50.9394 28.8526 49.8731 29.3071 48.983C29.7617 48.089 30.3829 47.4034 31.1707 46.9261C31.9586 46.4451 32.8545 46.2045 33.8582 46.2045C34.4757 46.2045 35.0514 46.2936 35.5855 46.4716C36.1234 46.6458 36.6063 46.9034 37.0344 47.2443C37.4624 47.5814 37.8166 47.9943 38.0969 48.483C38.3772 48.9678 38.5666 49.5227 38.6651 50.1477ZM43.9857 58.1761C43.1675 58.1761 42.4535 57.9886 41.8436 57.6136C41.2338 57.2386 40.7603 56.714 40.4232 56.0398C40.0861 55.3655 39.9175 54.5777 39.9175 53.6761C39.9175 52.7708 40.0861 51.9792 40.4232 51.3011C40.7603 50.6231 41.2338 50.0966 41.8436 49.7216C42.4535 49.3466 43.1675 49.1591 43.9857 49.1591C44.8039 49.1591 45.5179 49.3466 46.1277 49.7216C46.7376 50.0966 47.2111 50.6231 47.5482 51.3011C47.8853 51.9792 48.0539 52.7708 48.0539 53.6761C48.0539 54.5777 47.8853 55.3655 47.5482 56.0398C47.2111 56.714 46.7376 57.2386 46.1277 57.6136C45.5179 57.9886 44.8039 58.1761 43.9857 58.1761ZM43.9914 56.75C44.5217 56.75 44.9611 56.6098 45.3095 56.3295C45.658 56.0492 45.9156 55.6761 46.0823 55.2102C46.2527 54.7443 46.338 54.2311 46.338 53.6705C46.338 53.1136 46.2527 52.6023 46.0823 52.1364C45.9156 51.6667 45.658 51.2898 45.3095 51.0057C44.9611 50.7216 44.5217 50.5795 43.9914 50.5795C43.4573 50.5795 43.0141 50.7216 42.6618 51.0057C42.3133 51.2898 42.0539 51.6667 41.8834 52.1364C41.7167 52.6023 41.6334 53.1136 41.6334 53.6705C41.6334 54.2311 41.7167 54.7443 41.8834 55.2102C42.0539 55.6761 42.3133 56.0492 42.6618 56.3295C43.0141 56.6098 43.4573 56.75 43.9914 56.75ZM49.1131 55.6932H50.8518C50.8745 56.0492 51.0355 56.3239 51.3347 56.517C51.6377 56.7102 52.0298 56.8068 52.5109 56.8068C52.9995 56.8068 53.4162 56.7027 53.7609 56.4943C54.1056 56.2822 54.2779 55.9545 54.2779 55.5114C54.2779 55.2462 54.2116 55.0152 54.079 54.8182C53.9503 54.6174 53.7665 54.4621 53.5279 54.3523C53.2931 54.2424 53.0146 54.1875 52.6927 54.1875H51.2722V52.8523H52.6927C53.1737 52.8523 53.5336 52.7424 53.7722 52.5227C54.0109 52.303 54.1302 52.0284 54.1302 51.6989C54.1302 51.3428 54.0014 51.0568 53.7438 50.8409C53.49 50.6212 53.1359 50.5114 52.6813 50.5114C52.2192 50.5114 51.8347 50.6155 51.5279 50.8239C51.2211 51.0284 51.0601 51.2936 51.0449 51.6193H49.329C49.3404 51.1307 49.4881 50.7027 49.7722 50.3352C50.0601 49.964 50.4465 49.6761 50.9313 49.4716C51.4199 49.2633 51.9749 49.1591 52.5961 49.1591C53.2438 49.1591 53.8044 49.2633 54.2779 49.4716C54.7514 49.6799 55.1169 49.9678 55.3745 50.3352C55.6359 50.7027 55.7665 51.125 55.7665 51.6023C55.7665 52.0833 55.6226 52.4773 55.3347 52.7841C55.0506 53.0871 54.6794 53.3049 54.2211 53.4375V53.5284C54.5582 53.5511 54.8574 53.6534 55.1188 53.8352C55.3802 54.017 55.5847 54.2576 55.7324 54.5568C55.8802 54.8561 55.954 55.1951 55.954 55.5739C55.954 56.108 55.8063 56.5701 55.5109 56.9602C55.2192 57.3504 54.8139 57.6515 54.2949 57.8636C53.7798 58.072 53.1908 58.1761 52.5279 58.1761C51.884 58.1761 51.3063 58.0758 50.7949 57.875C50.2874 57.6705 49.884 57.3826 49.5847 57.0114C49.2893 56.6402 49.1321 56.2008 49.1131 55.6932ZM56.536 60.517V56.5284H57.2463C57.4281 56.3617 57.5815 56.1629 57.7065 55.9318C57.8353 55.7008 57.9432 55.4261 58.0303 55.108C58.1213 54.7898 58.197 54.4186 58.2576 53.9943C58.3182 53.5663 58.3713 53.0777 58.4167 52.5284L58.6894 49.2727H64.6213V56.5284H65.9622V60.517H64.3031V58H58.2178V60.517H56.536ZM59.0644 56.5284H62.9622V50.7273H60.2122L60.0303 52.5284C59.9432 53.4451 59.8334 54.2405 59.7008 54.9148C59.5682 55.5852 59.3561 56.1231 59.0644 56.5284ZM69.8424 58.1932C69.2894 58.1932 68.7894 58.0909 68.3424 57.8864C67.8955 57.678 67.5413 57.3769 67.2799 56.983C67.0224 56.589 66.8936 56.1061 66.8936 55.5341C66.8936 55.0417 66.9883 54.6364 67.1777 54.3182C67.3671 54 67.6228 53.7481 67.9447 53.5625C68.2667 53.3769 68.6265 53.2367 69.0243 53.142C69.422 53.0473 69.8273 52.9754 70.2402 52.9261C70.7629 52.8655 71.1871 52.8163 71.5129 52.7784C71.8387 52.7367 72.0754 52.6705 72.2231 52.5795C72.3709 52.4886 72.4447 52.3409 72.4447 52.1364V52.0966C72.4447 51.6004 72.3046 51.2159 72.0243 50.9432C71.7478 50.6705 71.3349 50.5341 70.7856 50.5341C70.2137 50.5341 69.7629 50.661 69.4334 50.9148C69.1076 51.1648 68.8822 51.4432 68.7572 51.75L67.1606 51.3864C67.35 50.8561 67.6265 50.428 67.9902 50.1023C68.3576 49.7727 68.7799 49.5341 69.2572 49.3864C69.7345 49.2348 70.2364 49.1591 70.7629 49.1591C71.1114 49.1591 71.4807 49.2008 71.8709 49.2841C72.2648 49.3636 72.6322 49.5114 72.9731 49.7273C73.3178 49.9432 73.6 50.2519 73.8197 50.6534C74.0394 51.0511 74.1493 51.5682 74.1493 52.2045V58H72.4902V56.8068H72.422C72.3121 57.0265 72.1474 57.2424 71.9277 57.4545C71.708 57.6667 71.4258 57.8428 71.0811 57.983C70.7364 58.1231 70.3235 58.1932 69.8424 58.1932ZM70.2118 56.8295C70.6815 56.8295 71.083 56.7367 71.4163 56.5511C71.7534 56.3655 72.0091 56.1231 72.1834 55.8239C72.3614 55.5208 72.4504 55.197 72.4504 54.8523V53.7273C72.3898 53.7879 72.2724 53.8447 72.0981 53.8977C71.9277 53.947 71.7326 53.9905 71.5129 54.0284C71.2932 54.0625 71.0792 54.0947 70.8709 54.125C70.6625 54.1515 70.4883 54.1742 70.3481 54.1932C70.0186 54.2348 69.7174 54.3049 69.4447 54.4034C69.1758 54.5019 68.9599 54.6439 68.797 54.8295C68.6379 55.0114 68.5584 55.2538 68.5584 55.5568C68.5584 55.9773 68.7137 56.2955 69.0243 56.5114C69.3349 56.7235 69.7307 56.8295 70.2118 56.8295ZM79.8534 58.1761C78.9936 58.1761 78.253 57.9924 77.6318 57.625C77.0144 57.2538 76.5371 56.733 76.2 56.0625C75.8667 55.3883 75.7 54.5985 75.7 53.6932C75.7 52.7992 75.8667 52.0114 76.2 51.3295C76.5371 50.6477 77.0068 50.1155 77.6091 49.733C78.2152 49.3504 78.9235 49.1591 79.7341 49.1591C80.2265 49.1591 80.7038 49.2405 81.1659 49.4034C81.628 49.5663 82.0428 49.822 82.4102 50.1705C82.7777 50.5189 83.0674 50.9716 83.2796 51.5284C83.4917 52.0814 83.5977 52.7538 83.5977 53.5455V54.1477H76.6602V52.875H81.933C81.933 52.428 81.8421 52.0322 81.6602 51.6875C81.4784 51.339 81.2227 51.0644 80.8932 50.8636C80.5674 50.6629 80.1849 50.5625 79.7455 50.5625C79.2682 50.5625 78.8515 50.6799 78.4955 50.9148C78.1432 51.1458 77.8705 51.4489 77.6773 51.8239C77.4879 52.1951 77.3932 52.5985 77.3932 53.0341V54.0284C77.3932 54.6117 77.4955 55.108 77.7 55.517C77.9083 55.9261 78.1981 56.2386 78.5693 56.4545C78.9405 56.6667 79.3742 56.7727 79.8705 56.7727C80.1924 56.7727 80.486 56.7273 80.7511 56.6364C81.0163 56.5417 81.2455 56.4015 81.4386 56.2159C81.6318 56.0303 81.7796 55.8011 81.8818 55.5284L83.4898 55.8182C83.361 56.2917 83.1299 56.7064 82.7966 57.0625C82.4671 57.4148 82.0523 57.6894 81.5523 57.8864C81.0561 58.0795 80.4898 58.1761 79.8534 58.1761ZM90.0604 55.8977L92.8786 49.2727H94.3445L90.6911 58H89.4297L85.8502 49.2727H87.299L90.0604 55.8977ZM86.8274 49.2727V58H85.1627V49.2727H86.8274ZM93.3388 58V49.2727H94.9922V58H93.3388ZM100.851 61.2727V49.2727H102.51V50.6875H102.652C102.75 50.5057 102.892 50.2955 103.078 50.0568C103.264 49.8182 103.521 49.6098 103.851 49.4318C104.18 49.25 104.616 49.1591 105.158 49.1591C105.862 49.1591 106.491 49.3371 107.044 49.6932C107.597 50.0492 108.031 50.5625 108.345 51.233C108.663 51.9034 108.822 52.7102 108.822 53.6534C108.822 54.5966 108.665 55.4053 108.351 56.0795C108.036 56.75 107.605 57.267 107.055 57.6307C106.506 57.9905 105.879 58.1705 105.175 58.1705C104.644 58.1705 104.211 58.0814 103.874 57.9034C103.54 57.7254 103.279 57.517 103.089 57.2784C102.9 57.0398 102.754 56.8277 102.652 56.642H102.55V61.2727H100.851ZM102.516 53.6364C102.516 54.25 102.605 54.7879 102.783 55.25C102.961 55.7121 103.218 56.0739 103.555 56.3352C103.892 56.5928 104.305 56.7216 104.794 56.7216C105.302 56.7216 105.726 56.5871 106.067 56.3182C106.408 56.0455 106.665 55.6761 106.839 55.2102C107.017 54.7443 107.106 54.2197 107.106 53.6364C107.106 53.0606 107.019 52.5436 106.845 52.0852C106.675 51.6269 106.417 51.2652 106.072 51C105.731 50.7348 105.305 50.6023 104.794 50.6023C104.302 50.6023 103.885 50.7292 103.544 50.983C103.207 51.2367 102.951 51.5909 102.777 52.0455C102.603 52.5 102.516 53.0303 102.516 53.6364ZM112.946 58.1932C112.393 58.1932 111.893 58.0909 111.446 57.8864C110.999 57.678 110.644 57.3769 110.383 56.983C110.125 56.589 109.997 56.1061 109.997 55.5341C109.997 55.0417 110.091 54.6364 110.281 54.3182C110.47 54 110.726 53.7481 111.048 53.5625C111.37 53.3769 111.73 53.2367 112.127 53.142C112.525 53.0473 112.93 52.9754 113.343 52.9261C113.866 52.8655 114.29 52.8163 114.616 52.7784C114.942 52.7367 115.179 52.6705 115.326 52.5795C115.474 52.4886 115.548 52.3409 115.548 52.1364V52.0966C115.548 51.6004 115.408 51.2159 115.127 50.9432C114.851 50.6705 114.438 50.5341 113.889 50.5341C113.317 50.5341 112.866 50.661 112.536 50.9148C112.211 51.1648 111.985 51.4432 111.86 51.75L110.264 51.3864C110.453 50.8561 110.73 50.428 111.093 50.1023C111.461 49.7727 111.883 49.5341 112.36 49.3864C112.838 49.2348 113.34 49.1591 113.866 49.1591C114.215 49.1591 114.584 49.2008 114.974 49.2841C115.368 49.3636 115.735 49.5114 116.076 49.7273C116.421 49.9432 116.703 50.2519 116.923 50.6534C117.143 51.0511 117.252 51.5682 117.252 52.2045V58H115.593V56.8068H115.525C115.415 57.0265 115.25 57.2424 115.031 57.4545C114.811 57.6667 114.529 57.8428 114.184 57.983C113.84 58.1231 113.427 58.1932 112.946 58.1932ZM113.315 56.8295C113.785 56.8295 114.186 56.7367 114.519 56.5511C114.857 56.3655 115.112 56.1231 115.286 55.8239C115.465 55.5208 115.554 55.197 115.554 54.8523V53.7273C115.493 53.7879 115.375 53.8447 115.201 53.8977C115.031 53.947 114.836 53.9905 114.616 54.0284C114.396 54.0625 114.182 54.0947 113.974 54.125C113.766 54.1515 113.591 54.1742 113.451 54.1932C113.122 54.2348 112.821 54.3049 112.548 54.4034C112.279 54.5019 112.063 54.6439 111.9 54.8295C111.741 55.0114 111.661 55.2538 111.661 55.5568C111.661 55.9773 111.817 56.2955 112.127 56.5114C112.438 56.7235 112.834 56.8295 113.315 56.8295ZM122.871 58.1761C122.027 58.1761 121.299 57.9848 120.689 57.6023C120.083 57.2159 119.618 56.6837 119.292 56.0057C118.966 55.3277 118.803 54.5511 118.803 53.6761C118.803 52.7898 118.97 52.0076 119.303 51.3295C119.636 50.6477 120.106 50.1155 120.712 49.733C121.318 49.3504 122.032 49.1591 122.854 49.1591C123.517 49.1591 124.108 49.2822 124.627 49.5284C125.146 49.7708 125.564 50.1117 125.883 50.5511C126.205 50.9905 126.396 51.5038 126.457 52.0909H124.803C124.712 51.6818 124.504 51.3295 124.178 51.0341C123.856 50.7386 123.424 50.5909 122.883 50.5909C122.409 50.5909 121.994 50.7159 121.638 50.9659C121.286 51.2121 121.011 51.5644 120.814 52.0227C120.618 52.4773 120.519 53.0152 120.519 53.6364C120.519 54.2727 120.616 54.822 120.809 55.2841C121.002 55.7462 121.275 56.1042 121.627 56.358C121.983 56.6117 122.402 56.7386 122.883 56.7386C123.205 56.7386 123.496 56.6799 123.758 56.5625C124.023 56.4413 124.244 56.2689 124.422 56.0455C124.604 55.822 124.731 55.553 124.803 55.2386H126.457C126.396 55.803 126.212 56.3068 125.905 56.75C125.599 57.1932 125.188 57.5417 124.672 57.7955C124.161 58.0492 123.561 58.1761 122.871 58.1761ZM127.953 58V49.2727H129.652V52.9318H130.47L133.351 49.2727H135.453L132.073 53.517L135.493 58H133.385L130.754 54.5114H129.652V58H127.953ZM139.032 58.1932C138.479 58.1932 137.979 58.0909 137.532 57.8864C137.085 57.678 136.731 57.3769 136.47 56.983C136.212 56.589 136.084 56.1061 136.084 55.5341C136.084 55.0417 136.178 54.6364 136.368 54.3182C136.557 54 136.813 53.7481 137.135 53.5625C137.457 53.3769 137.817 53.2367 138.214 53.142C138.612 53.0473 139.017 52.9754 139.43 52.9261C139.953 52.8655 140.377 52.8163 140.703 52.7784C141.029 52.7367 141.265 52.6705 141.413 52.5795C141.561 52.4886 141.635 52.3409 141.635 52.1364V52.0966C141.635 51.6004 141.495 51.2159 141.214 50.9432C140.938 50.6705 140.525 50.5341 139.976 50.5341C139.404 50.5341 138.953 50.661 138.623 50.9148C138.298 51.1648 138.072 51.4432 137.947 51.75L136.351 51.3864C136.54 50.8561 136.817 50.428 137.18 50.1023C137.548 49.7727 137.97 49.5341 138.447 49.3864C138.924 49.2348 139.426 49.1591 139.953 49.1591C140.301 49.1591 140.671 49.2008 141.061 49.2841C141.455 49.3636 141.822 49.5114 142.163 49.7273C142.508 49.9432 142.79 50.2519 143.01 50.6534C143.229 51.0511 143.339 51.5682 143.339 52.2045V58H141.68V56.8068H141.612C141.502 57.0265 141.337 57.2424 141.118 57.4545C140.898 57.6667 140.616 57.8428 140.271 57.983C139.926 58.1231 139.514 58.1932 139.032 58.1932ZM139.402 56.8295C139.871 56.8295 140.273 56.7367 140.606 56.5511C140.943 56.3655 141.199 56.1231 141.373 55.8239C141.551 55.5208 141.64 55.197 141.64 54.8523V53.7273C141.58 53.7879 141.462 53.8447 141.288 53.8977C141.118 53.947 140.923 53.9905 140.703 54.0284C140.483 54.0625 140.269 54.0947 140.061 54.125C139.853 54.1515 139.678 54.1742 139.538 54.1932C139.209 54.2348 138.907 54.3049 138.635 54.4034C138.366 54.5019 138.15 54.6439 137.987 54.8295C137.828 55.0114 137.748 55.2538 137.748 55.5568C137.748 55.9773 137.904 56.2955 138.214 56.5114C138.525 56.7235 138.921 56.8295 139.402 56.8295ZM144.43 60.517V56.5284H145.14C145.322 56.3617 145.475 56.1629 145.6 55.9318C145.729 55.7008 145.837 55.4261 145.924 55.108C146.015 54.7898 146.091 54.4186 146.151 53.9943C146.212 53.5663 146.265 53.0777 146.31 52.5284L146.583 49.2727H152.515V56.5284H153.856V60.517H152.197V58H146.112V60.517H144.43ZM146.958 56.5284H150.856V50.7273H148.106L147.924 52.5284C147.837 53.4451 147.727 54.2405 147.595 54.9148C147.462 55.5852 147.25 56.1231 146.958 56.5284ZM155.196 61.2727V49.2727H156.856V50.6875H156.998C157.096 50.5057 157.238 50.2955 157.424 50.0568C157.609 49.8182 157.867 49.6098 158.196 49.4318C158.526 49.25 158.962 49.1591 159.503 49.1591C160.208 49.1591 160.837 49.3371 161.39 49.6932C161.943 50.0492 162.376 50.5625 162.691 51.233C163.009 51.9034 163.168 52.7102 163.168 53.6534C163.168 54.5966 163.011 55.4053 162.696 56.0795C162.382 56.75 161.95 57.267 161.401 57.6307C160.852 57.9905 160.225 58.1705 159.52 58.1705C158.99 58.1705 158.556 58.0814 158.219 57.9034C157.886 57.7254 157.624 57.517 157.435 57.2784C157.246 57.0398 157.1 56.8277 156.998 56.642H156.895V61.2727H155.196ZM156.861 53.6364C156.861 54.25 156.95 54.7879 157.128 55.25C157.306 55.7121 157.564 56.0739 157.901 56.3352C158.238 56.5928 158.651 56.7216 159.14 56.7216C159.647 56.7216 160.071 56.5871 160.412 56.3182C160.753 56.0455 161.011 55.6761 161.185 55.2102C161.363 54.7443 161.452 54.2197 161.452 53.6364C161.452 53.0606 161.365 52.5436 161.191 52.0852C161.02 51.6269 160.763 51.2652 160.418 51C160.077 50.7348 159.651 50.6023 159.14 50.6023C158.647 50.6023 158.231 50.7292 157.89 50.983C157.552 51.2367 157.297 51.5909 157.123 52.0455C156.948 52.5 156.861 53.0303 156.861 53.6364ZM168.428 58.1761C167.609 58.1761 166.895 57.9886 166.286 57.6136C165.676 57.2386 165.202 56.714 164.865 56.0398C164.528 55.3655 164.359 54.5777 164.359 53.6761C164.359 52.7708 164.528 51.9792 164.865 51.3011C165.202 50.6231 165.676 50.0966 166.286 49.7216C166.895 49.3466 167.609 49.1591 168.428 49.1591C169.246 49.1591 169.96 49.3466 170.57 49.7216C171.179 50.0966 171.653 50.6231 171.99 51.3011C172.327 51.9792 172.496 52.7708 172.496 53.6761C172.496 54.5777 172.327 55.3655 171.99 56.0398C171.653 56.714 171.179 57.2386 170.57 57.6136C169.96 57.9886 169.246 58.1761 168.428 58.1761ZM168.433 56.75C168.964 56.75 169.403 56.6098 169.751 56.3295C170.1 56.0492 170.357 55.6761 170.524 55.2102C170.695 54.7443 170.78 54.2311 170.78 53.6705C170.78 53.1136 170.695 52.6023 170.524 52.1364C170.357 51.6667 170.1 51.2898 169.751 51.0057C169.403 50.7216 168.964 50.5795 168.433 50.5795C167.899 50.5795 167.456 50.7216 167.104 51.0057C166.755 51.2898 166.496 51.6667 166.325 52.1364C166.159 52.6023 166.075 53.1136 166.075 53.6705C166.075 54.2311 166.159 54.7443 166.325 55.2102C166.496 55.6761 166.755 56.0492 167.104 56.3295C167.456 56.6098 167.899 56.75 168.433 56.75ZM174.072 58V49.2727H177.691C178.676 49.2727 179.457 49.483 180.032 49.9034C180.608 50.3201 180.896 50.8864 180.896 51.6023C180.896 52.1136 180.733 52.5189 180.407 52.8182C180.082 53.1174 179.65 53.3182 179.112 53.4205C179.502 53.4659 179.86 53.5833 180.186 53.7727C180.511 53.9583 180.773 54.2083 180.97 54.5227C181.171 54.8371 181.271 55.2121 181.271 55.6477C181.271 56.1098 181.152 56.5189 180.913 56.875C180.674 57.2273 180.328 57.5038 179.873 57.7045C179.422 57.9015 178.879 58 178.243 58H174.072ZM175.669 56.5795H178.243C178.663 56.5795 178.993 56.4792 179.231 56.2784C179.47 56.0777 179.589 55.8049 179.589 55.4602C179.589 55.0549 179.47 54.7367 179.231 54.5057C178.993 54.2708 178.663 54.1534 178.243 54.1534H175.669V56.5795ZM175.669 52.9091H177.708C178.027 52.9091 178.299 52.8636 178.527 52.7727C178.758 52.6818 178.934 52.553 179.055 52.3864C179.18 52.2159 179.243 52.0152 179.243 51.7841C179.243 51.447 179.104 51.1837 178.828 50.9943C178.551 50.8049 178.172 50.7102 177.691 50.7102H175.669V52.9091ZM182.815 58V49.2727H184.513V52.9318H185.332L188.212 49.2727H190.315L186.934 53.517L190.354 58H188.246L185.616 54.5114H184.513V58H182.815ZM192.475 61.2727C192.221 61.2727 191.99 61.2519 191.781 61.2102C191.573 61.1723 191.418 61.1307 191.316 61.0852L191.725 59.6932C192.035 59.7765 192.312 59.8125 192.554 59.8011C192.797 59.7898 193.011 59.6989 193.196 59.5284C193.386 59.358 193.552 59.0795 193.696 58.6932L193.906 58.1136L190.713 49.2727H192.531L194.742 56.0455H194.833L197.043 49.2727H198.867L195.27 59.1648C195.103 59.6193 194.891 60.0038 194.634 60.3182C194.376 60.6364 194.069 60.875 193.713 61.0341C193.357 61.1932 192.944 61.2727 192.475 61.2727ZM201.807 56.4091L201.721 57.0284C201.665 57.483 201.568 57.9564 201.432 58.4489C201.299 58.9451 201.161 59.4053 201.017 59.8295C200.877 60.2538 200.761 60.5909 200.67 60.8409H199.466C199.515 60.6061 199.583 60.2879 199.67 59.8864C199.757 59.4886 199.843 59.0436 199.926 58.5511C200.009 58.0587 200.072 57.5568 200.113 57.0455L200.17 56.4091H201.807ZM211.289 58.1761C210.444 58.1761 209.717 57.9848 209.107 57.6023C208.501 57.2159 208.035 56.6837 207.709 56.0057C207.384 55.3277 207.221 54.5511 207.221 53.6761C207.221 52.7898 207.387 52.0076 207.721 51.3295C208.054 50.6477 208.524 50.1155 209.13 49.733C209.736 49.3504 210.45 49.1591 211.272 49.1591C211.935 49.1591 212.526 49.2822 213.044 49.5284C213.563 49.7708 213.982 50.1117 214.3 50.5511C214.622 50.9905 214.813 51.5038 214.874 52.0909H213.221C213.13 51.6818 212.921 51.3295 212.596 51.0341C212.274 50.7386 211.842 50.5909 211.3 50.5909C210.827 50.5909 210.412 50.7159 210.056 50.9659C209.704 51.2121 209.429 51.5644 209.232 52.0227C209.035 52.4773 208.937 53.0152 208.937 53.6364C208.937 54.2727 209.033 54.822 209.226 55.2841C209.419 55.7462 209.692 56.1042 210.044 56.358C210.401 56.6117 210.819 56.7386 211.3 56.7386C211.622 56.7386 211.914 56.6799 212.175 56.5625C212.44 56.4413 212.662 56.2689 212.84 56.0455C213.022 55.822 213.149 55.553 213.221 55.2386H214.874C214.813 55.803 214.63 56.3068 214.323 56.75C214.016 57.1932 213.605 57.5417 213.09 57.7955C212.579 58.0492 211.978 58.1761 211.289 58.1761ZM223.49 49.2727V56.608H224.769V60.8125H223.092V58H216.371V49.2727H218.036V56.5341H221.831V49.2727H223.49ZM230 58.1761C229.14 58.1761 228.399 57.9924 227.778 57.625C227.161 57.2538 226.683 56.733 226.346 56.0625C226.013 55.3883 225.846 54.5985 225.846 53.6932C225.846 52.7992 226.013 52.0114 226.346 51.3295C226.683 50.6477 227.153 50.1155 227.755 49.733C228.361 49.3504 229.07 49.1591 229.88 49.1591C230.373 49.1591 230.85 49.2405 231.312 49.4034C231.774 49.5663 232.189 49.822 232.556 50.1705C232.924 50.5189 233.214 50.9716 233.426 51.5284C233.638 52.0814 233.744 52.7538 233.744 53.5455V54.1477H226.806V52.875H232.079C232.079 52.428 231.988 52.0322 231.806 51.6875C231.625 51.339 231.369 51.0644 231.039 50.8636C230.714 50.6629 230.331 50.5625 229.892 50.5625C229.414 50.5625 228.998 50.6799 228.642 50.9148C228.289 51.1458 228.017 51.4489 227.824 51.8239C227.634 52.1951 227.539 52.5985 227.539 53.0341V54.0284C227.539 54.6117 227.642 55.108 227.846 55.517C228.055 55.9261 228.344 56.2386 228.716 56.4545C229.087 56.6667 229.52 56.7727 230.017 56.7727C230.339 56.7727 230.632 56.7273 230.897 56.6364C231.163 56.5417 231.392 56.4015 231.585 56.2159C231.778 56.0303 231.926 55.8011 232.028 55.5284L233.636 55.8182C233.507 56.2917 233.276 56.7064 232.943 57.0625C232.613 57.4148 232.199 57.6894 231.699 57.8864C231.202 58.0795 230.636 58.1761 230 58.1761ZM241.224 52.9034V54.375H236.496V52.9034H241.224ZM236.974 49.2727V58H235.309V49.2727H236.974ZM242.411 49.2727V58H240.752V49.2727H242.411ZM246.904 58.1932C246.351 58.1932 245.851 58.0909 245.404 57.8864C244.957 57.678 244.603 57.3769 244.341 56.983C244.084 56.589 243.955 56.1061 243.955 55.5341C243.955 55.0417 244.05 54.6364 244.239 54.3182C244.428 54 244.684 53.7481 245.006 53.5625C245.328 53.3769 245.688 53.2367 246.086 53.142C246.483 53.0473 246.889 52.9754 247.301 52.9261C247.824 52.8655 248.248 52.8163 248.574 52.7784C248.9 52.7367 249.137 52.6705 249.284 52.5795C249.432 52.4886 249.506 52.3409 249.506 52.1364V52.0966C249.506 51.6004 249.366 51.2159 249.086 50.9432C248.809 50.6705 248.396 50.5341 247.847 50.5341C247.275 50.5341 246.824 50.661 246.495 50.9148C246.169 51.1648 245.943 51.4432 245.818 51.75L244.222 51.3864C244.411 50.8561 244.688 50.428 245.051 50.1023C245.419 49.7727 245.841 49.5341 246.318 49.3864C246.796 49.2348 247.298 49.1591 247.824 49.1591C248.173 49.1591 248.542 49.2008 248.932 49.2841C249.326 49.3636 249.693 49.5114 250.034 49.7273C250.379 49.9432 250.661 50.2519 250.881 50.6534C251.101 51.0511 251.211 51.5682 251.211 52.2045V58H249.551V56.8068H249.483C249.373 57.0265 249.209 57.2424 248.989 57.4545C248.769 57.6667 248.487 57.8428 248.142 57.983C247.798 58.1231 247.385 58.1932 246.904 58.1932ZM247.273 56.8295C247.743 56.8295 248.144 56.7367 248.478 56.5511C248.815 56.3655 249.07 56.1231 249.245 55.8239C249.423 55.5208 249.512 55.197 249.512 54.8523V53.7273C249.451 53.7879 249.334 53.8447 249.159 53.8977C248.989 53.947 248.794 53.9905 248.574 54.0284C248.354 54.0625 248.14 54.0947 247.932 54.125C247.724 54.1515 247.55 54.1742 247.409 54.1932C247.08 54.2348 246.779 54.3049 246.506 54.4034C246.237 54.5019 246.021 54.6439 245.858 54.8295C245.699 55.0114 245.62 55.2538 245.62 55.5568C245.62 55.9773 245.775 56.2955 246.086 56.5114C246.396 56.7235 246.792 56.8295 247.273 56.8295ZM253.153 61.2727V49.2727H254.812V50.6875H254.954C255.053 50.5057 255.195 50.2955 255.381 50.0568C255.566 49.8182 255.824 49.6098 256.153 49.4318C256.483 49.25 256.918 49.1591 257.46 49.1591C258.165 49.1591 258.793 49.3371 259.346 49.6932C259.9 50.0492 260.333 50.5625 260.648 51.233C260.966 51.9034 261.125 52.7102 261.125 53.6534C261.125 54.5966 260.968 55.4053 260.653 56.0795C260.339 56.75 259.907 57.267 259.358 57.6307C258.809 57.9905 258.182 58.1705 257.477 58.1705C256.947 58.1705 256.513 58.0814 256.176 57.9034C255.843 57.7254 255.581 57.517 255.392 57.2784C255.203 57.0398 255.057 56.8277 254.954 56.642H254.852V61.2727H253.153ZM254.818 53.6364C254.818 54.25 254.907 54.7879 255.085 55.25C255.263 55.7121 255.521 56.0739 255.858 56.3352C256.195 56.5928 256.608 56.7216 257.096 56.7216C257.604 56.7216 258.028 56.5871 258.369 56.3182C258.71 56.0455 258.968 55.6761 259.142 55.2102C259.32 54.7443 259.409 54.2197 259.409 53.6364C259.409 53.0606 259.322 52.5436 259.148 52.0852C258.977 51.6269 258.72 51.2652 258.375 51C258.034 50.7348 257.608 50.6023 257.096 50.6023C256.604 50.6023 256.187 50.7292 255.846 50.983C255.509 51.2367 255.254 51.5909 255.079 52.0455C254.905 52.5 254.818 53.0303 254.818 53.6364ZM264.373 55.6193L268.22 49.2727H270.049V58H268.384V51.6477L264.555 58H262.708V49.2727H264.373V55.6193ZM273.678 55.6193L277.525 49.2727H279.354V58H277.689V51.6477L273.86 58H272.013V49.2727H273.678V55.6193ZM276.797 46.3182H278.195C278.195 46.9583 277.968 47.4792 277.513 47.8807C277.063 48.2784 276.453 48.4773 275.684 48.4773C274.919 48.4773 274.311 48.2784 273.86 47.8807C273.409 47.4792 273.184 46.9583 273.184 46.3182H274.576C274.576 46.6023 274.659 46.8542 274.826 47.0739C274.992 47.2898 275.278 47.3977 275.684 47.3977C276.081 47.3977 276.366 47.2898 276.536 47.0739C276.71 46.858 276.797 46.6061 276.797 46.3182ZM283.529 56.4091L283.443 57.0284C283.386 57.483 283.29 57.9564 283.154 58.4489C283.021 58.9451 282.883 59.4053 282.739 59.8295C282.599 60.2538 282.483 60.5909 282.392 60.8409H281.188C281.237 60.6061 281.305 60.2879 281.392 59.8864C281.479 59.4886 281.565 59.0436 281.648 58.5511C281.731 58.0587 281.794 57.5568 281.835 57.0455L281.892 56.4091H283.529ZM20.6638 79.8977L23.482 73.2727H24.9479L21.2945 82H20.0332L16.4536 73.2727H17.9025L20.6638 79.8977ZM17.4309 73.2727V82H15.7661V73.2727H17.4309ZM23.9423 82V73.2727H25.5957V82H23.9423ZM28.3012 85.2727C28.0474 85.2727 27.8164 85.2519 27.608 85.2102C27.3997 85.1723 27.2444 85.1307 27.1421 85.0852L27.5512 83.6932C27.8618 83.7765 28.1383 83.8125 28.3808 83.8011C28.6232 83.7898 28.8372 83.6989 29.0228 83.5284C29.2122 83.358 29.3789 83.0795 29.5228 82.6932L29.733 82.1136L26.5399 73.2727H28.358L30.5683 80.0455H30.6592L32.8694 73.2727H34.6933L31.0967 83.1648C30.93 83.6193 30.7179 84.0038 30.4603 84.3182C30.2027 84.6364 29.8959 84.875 29.5399 85.0341C29.1838 85.1932 28.7709 85.2727 28.3012 85.2727ZM35.4528 79.6932H37.1915C37.2142 80.0492 37.3752 80.3239 37.6744 80.517C37.9774 80.7102 38.3695 80.8068 38.8505 80.8068C39.3392 80.8068 39.7559 80.7027 40.1005 80.4943C40.4452 80.2822 40.6176 79.9545 40.6176 79.5114C40.6176 79.2462 40.5513 79.0152 40.4187 78.8182C40.2899 78.6174 40.1062 78.4621 39.8676 78.3523C39.6327 78.2424 39.3543 78.1875 39.0324 78.1875H37.6119V76.8523H39.0324C39.5134 76.8523 39.8733 76.7424 40.1119 76.5227C40.3505 76.303 40.4699 76.0284 40.4699 75.6989C40.4699 75.3428 40.3411 75.0568 40.0835 74.8409C39.8297 74.6212 39.4755 74.5114 39.021 74.5114C38.5589 74.5114 38.1744 74.6155 37.8676 74.8239C37.5608 75.0284 37.3998 75.2936 37.3846 75.6193H35.6687C35.6801 75.1307 35.8278 74.7027 36.1119 74.3352C36.3998 73.964 36.7862 73.6761 37.271 73.4716C37.7596 73.2633 38.3146 73.1591 38.9358 73.1591C39.5835 73.1591 40.1441 73.2633 40.6176 73.4716C41.0911 73.6799 41.4566 73.9678 41.7142 74.3352C41.9755 74.7027 42.1062 75.125 42.1062 75.6023C42.1062 76.0833 41.9623 76.4773 41.6744 76.7841C41.3903 77.0871 41.0191 77.3049 40.5608 77.4375V77.5284C40.8979 77.5511 41.1971 77.6534 41.4585 77.8352C41.7199 78.017 41.9244 78.2576 42.0721 78.5568C42.2199 78.8561 42.2937 79.1951 42.2937 79.5739C42.2937 80.108 42.146 80.5701 41.8505 80.9602C41.5589 81.3504 41.1536 81.6515 40.6346 81.8636C40.1195 82.072 39.5305 82.1761 38.8676 82.1761C38.2237 82.1761 37.646 82.0758 37.1346 81.875C36.6271 81.6705 36.2237 81.3826 35.9244 81.0114C35.629 80.6402 35.4718 80.2008 35.4528 79.6932ZM45.0064 76.2727H47.5405C48.6087 76.2727 49.4306 76.5379 50.0064 77.0682C50.5822 77.5985 50.87 78.2822 50.87 79.1193C50.87 79.6648 50.7412 80.1553 50.4837 80.5909C50.2261 81.0265 49.8492 81.3712 49.353 81.625C48.8568 81.875 48.2526 82 47.5405 82H43.728V73.2727H45.3928V80.5341H47.5405C48.0291 80.5341 48.4306 80.4072 48.745 80.1534C49.0594 79.8958 49.2166 79.5682 49.2166 79.1705C49.2166 78.75 49.0594 78.4072 48.745 78.142C48.4306 77.8731 48.0291 77.7386 47.5405 77.7386H45.0064V76.2727ZM52.1087 82V73.2727H53.8075V82H52.1087ZM55.7674 82V73.2727H57.4662V76.9318H58.2844L61.1651 73.2727H63.2674L59.8867 77.517L63.3071 82H61.1992L58.5685 78.5114H57.4662V82H55.7674ZM65.4275 85.2727C65.1737 85.2727 64.9426 85.2519 64.7343 85.2102C64.526 85.1723 64.3707 85.1307 64.2684 85.0852L64.6775 83.6932C64.9881 83.7765 65.2646 83.8125 65.507 83.8011C65.7494 83.7898 65.9635 83.6989 66.1491 83.5284C66.3385 83.358 66.5051 83.0795 66.6491 82.6932L66.8593 82.1136L63.6661 73.2727H65.4843L67.6945 80.0455H67.7854L69.9957 73.2727H71.8195L68.2229 83.1648C68.0563 83.6193 67.8441 84.0038 67.5866 84.3182C67.329 84.6364 67.0222 84.875 66.6661 85.0341C66.3101 85.1932 65.8972 85.2727 65.4275 85.2727ZM78.6753 79.6193L82.5218 73.2727H84.3514V82H82.6866V75.6477L78.8571 82H77.0105V73.2727H78.6753V79.6193ZM90.2299 82V73.2727H97.3492V82H95.6844V74.7386H91.8833V82H90.2299ZM99.3005 85.2727V73.2727H100.96V74.6875H101.102C101.2 74.5057 101.342 74.2955 101.528 74.0568C101.713 73.8182 101.971 73.6098 102.3 73.4318C102.63 73.25 103.066 73.1591 103.607 73.1591C104.312 73.1591 104.941 73.3371 105.494 73.6932C106.047 74.0492 106.48 74.5625 106.795 75.233C107.113 75.9034 107.272 76.7102 107.272 77.6534C107.272 78.5966 107.115 79.4053 106.8 80.0795C106.486 80.75 106.054 81.267 105.505 81.6307C104.956 81.9905 104.329 82.1705 103.624 82.1705C103.094 82.1705 102.66 82.0814 102.323 81.9034C101.99 81.7254 101.729 81.517 101.539 81.2784C101.35 81.0398 101.204 80.8277 101.102 80.642H100.999V85.2727H99.3005ZM100.965 77.6364C100.965 78.25 101.054 78.7879 101.232 79.25C101.41 79.7121 101.668 80.0739 102.005 80.3352C102.342 80.5928 102.755 80.7216 103.244 80.7216C103.751 80.7216 104.175 80.5871 104.516 80.3182C104.857 80.0455 105.115 79.6761 105.289 79.2102C105.467 78.7443 105.556 78.2197 105.556 77.6364C105.556 77.0606 105.469 76.5436 105.295 76.0852C105.124 75.6269 104.867 75.2652 104.522 75C104.181 74.7348 103.755 74.6023 103.244 74.6023C102.751 74.6023 102.335 74.7292 101.994 74.983C101.657 75.2367 101.401 75.5909 101.227 76.0455C101.052 76.5 100.965 77.0303 100.965 77.6364ZM110.52 79.6193L114.367 73.2727H116.196V82H114.532V75.6477L110.702 82H108.855V73.2727H110.52V79.6193ZM123.058 79.8977L125.876 73.2727H127.342L123.689 82H122.428L118.848 73.2727H120.297L123.058 79.8977ZM119.825 73.2727V82H118.16V73.2727H119.825ZM126.337 82V73.2727H127.99V82H126.337ZM133.696 82.1761C132.836 82.1761 132.095 81.9924 131.474 81.625C130.857 81.2538 130.379 80.733 130.042 80.0625C129.709 79.3883 129.542 78.5985 129.542 77.6932C129.542 76.7992 129.709 76.0114 130.042 75.3295C130.379 74.6477 130.849 74.1155 131.451 73.733C132.057 73.3504 132.766 73.1591 133.576 73.1591C134.069 73.1591 134.546 73.2405 135.008 73.4034C135.47 73.5663 135.885 73.822 136.252 74.1705C136.62 74.5189 136.91 74.9716 137.122 75.5284C137.334 76.0814 137.44 76.7538 137.44 77.5455V78.1477H130.502V76.875H135.775C135.775 76.428 135.684 76.0322 135.502 75.6875C135.321 75.339 135.065 75.0644 134.735 74.8636C134.41 74.6629 134.027 74.5625 133.588 74.5625C133.11 74.5625 132.694 74.6799 132.338 74.9148C131.985 75.1458 131.713 75.4489 131.519 75.8239C131.33 76.1951 131.235 76.5985 131.235 77.0341V78.0284C131.235 78.6117 131.338 79.108 131.542 79.517C131.751 79.9261 132.04 80.2386 132.412 80.4545C132.783 80.6667 133.216 80.7727 133.713 80.7727C134.035 80.7727 134.328 80.7273 134.593 80.6364C134.858 80.5417 135.088 80.4015 135.281 80.2159C135.474 80.0303 135.622 79.8011 135.724 79.5284L137.332 79.8182C137.203 80.2917 136.972 80.7064 136.639 81.0625C136.309 81.4148 135.894 81.6894 135.394 81.8864C134.898 82.0795 134.332 82.1761 133.696 82.1761ZM139.005 85.2727V73.2727H140.664V74.6875H140.806C140.904 74.5057 141.047 74.2955 141.232 74.0568C141.418 73.8182 141.675 73.6098 142.005 73.4318C142.334 73.25 142.77 73.1591 143.312 73.1591C144.016 73.1591 144.645 73.3371 145.198 73.6932C145.751 74.0492 146.185 74.5625 146.499 75.233C146.817 75.9034 146.976 76.7102 146.976 77.6534C146.976 78.5966 146.819 79.4053 146.505 80.0795C146.19 80.75 145.759 81.267 145.209 81.6307C144.66 81.9905 144.033 82.1705 143.329 82.1705C142.798 82.1705 142.365 82.0814 142.028 81.9034C141.694 81.7254 141.433 81.517 141.244 81.2784C141.054 81.0398 140.908 80.8277 140.806 80.642H140.704V85.2727H139.005ZM140.67 77.6364C140.67 78.25 140.759 78.7879 140.937 79.25C141.115 79.7121 141.372 80.0739 141.709 80.3352C142.047 80.5928 142.459 80.7216 142.948 80.7216C143.456 80.7216 143.88 80.5871 144.221 80.3182C144.562 80.0455 144.819 79.6761 144.994 79.2102C145.172 78.7443 145.261 78.2197 145.261 77.6364C145.261 77.0606 145.173 76.5436 144.999 76.0852C144.829 75.6269 144.571 75.2652 144.226 75C143.886 74.7348 143.459 74.6023 142.948 74.6023C142.456 74.6023 142.039 74.7292 141.698 74.983C141.361 75.2367 141.105 75.5909 140.931 76.0455C140.757 76.5 140.67 77.0303 140.67 77.6364ZM149.838 76.2727H152.372C153.441 76.2727 154.263 76.5379 154.838 77.0682C155.414 77.5985 155.702 78.2822 155.702 79.1193C155.702 79.6648 155.573 80.1553 155.316 80.5909C155.058 81.0265 154.681 81.3712 154.185 81.625C153.689 81.875 153.084 82 152.372 82H148.56V73.2727H150.225V80.5341H152.372C152.861 80.5341 153.263 80.4072 153.577 80.1534C153.891 79.8958 154.048 79.5682 154.048 79.1705C154.048 78.75 153.891 78.4072 153.577 78.142C153.263 77.8731 152.861 77.7386 152.372 77.7386H149.838V76.2727ZM156.941 82V73.2727H158.639V82H156.941ZM164.514 82V73.2727H171.633V82H169.968V74.7386H166.167V82H164.514ZM177.26 82.1761C176.442 82.1761 175.728 81.9886 175.118 81.6136C174.508 81.2386 174.035 80.714 173.698 80.0398C173.361 79.3655 173.192 78.5777 173.192 77.6761C173.192 76.7708 173.361 75.9792 173.698 75.3011C174.035 74.6231 174.508 74.0966 175.118 73.7216C175.728 73.3466 176.442 73.1591 177.26 73.1591C178.079 73.1591 178.793 73.3466 179.402 73.7216C180.012 74.0966 180.486 74.6231 180.823 75.3011C181.16 75.9792 181.329 76.7708 181.329 77.6761C181.329 78.5777 181.16 79.3655 180.823 80.0398C180.486 80.714 180.012 81.2386 179.402 81.6136C178.793 81.9886 178.079 82.1761 177.26 82.1761ZM177.266 80.75C177.796 80.75 178.236 80.6098 178.584 80.3295C178.933 80.0492 179.19 79.6761 179.357 79.2102C179.527 78.7443 179.613 78.2311 179.613 77.6705C179.613 77.1136 179.527 76.6023 179.357 76.1364C179.19 75.6667 178.933 75.2898 178.584 75.0057C178.236 74.7216 177.796 74.5795 177.266 74.5795C176.732 74.5795 176.289 74.7216 175.937 75.0057C175.588 75.2898 175.329 75.6667 175.158 76.1364C174.991 76.6023 174.908 77.1136 174.908 77.6705C174.908 78.2311 174.991 78.7443 175.158 79.2102C175.329 79.6761 175.588 80.0492 175.937 80.3295C176.289 80.6098 176.732 80.75 177.266 80.75ZM183.902 73.2727L185.828 76.6705L187.771 73.2727H189.629L186.908 77.6364L189.652 82H187.794L185.828 78.7386L183.868 82H182.004L184.72 77.6364L182.038 73.2727H183.902ZM194.386 82.1761C193.568 82.1761 192.854 81.9886 192.244 81.6136C191.634 81.2386 191.161 80.714 190.824 80.0398C190.486 79.3655 190.318 78.5777 190.318 77.6761C190.318 76.7708 190.486 75.9792 190.824 75.3011C191.161 74.6231 191.634 74.0966 192.244 73.7216C192.854 73.3466 193.568 73.1591 194.386 73.1591C195.204 73.1591 195.918 73.3466 196.528 73.7216C197.138 74.0966 197.611 74.6231 197.949 75.3011C198.286 75.9792 198.454 76.7708 198.454 77.6761C198.454 78.5777 198.286 79.3655 197.949 80.0398C197.611 80.714 197.138 81.2386 196.528 81.6136C195.918 81.9886 195.204 82.1761 194.386 82.1761ZM194.392 80.75C194.922 80.75 195.361 80.6098 195.71 80.3295C196.058 80.0492 196.316 79.6761 196.483 79.2102C196.653 78.7443 196.738 78.2311 196.738 77.6705C196.738 77.1136 196.653 76.6023 196.483 76.1364C196.316 75.6667 196.058 75.2898 195.71 75.0057C195.361 74.7216 194.922 74.5795 194.392 74.5795C193.858 74.5795 193.414 74.7216 193.062 75.0057C192.714 75.2898 192.454 75.6667 192.284 76.1364C192.117 76.6023 192.034 77.1136 192.034 77.6705C192.034 78.2311 192.117 78.7443 192.284 79.2102C192.454 79.6761 192.714 80.0492 193.062 80.3295C193.414 80.6098 193.858 80.75 194.392 80.75ZM199.13 82L202.511 77.5341L199.17 73.2727H201.147L203.846 76.8977H204.454V73.2727H206.153V76.8977H206.744L209.442 73.2727H211.42L208.096 77.5341L211.459 82H209.442L206.721 78.3636H206.153V82H204.454V78.3636H203.886L201.147 82H199.13ZM214.532 79.6193L218.378 73.2727H220.208V82H218.543V75.6477L214.713 82H212.867V73.2727H214.532V79.6193ZM223.513 73.2727L225.439 76.6705L227.382 73.2727H229.24L226.518 77.6364L229.263 82H227.405L225.439 78.7386L223.479 82H221.615L224.331 77.6364L221.649 73.2727H223.513ZM234.579 85.2727V73.2727H236.238V74.6875H236.38C236.478 74.5057 236.62 74.2955 236.806 74.0568C236.991 73.8182 237.249 73.6098 237.579 73.4318C237.908 73.25 238.344 73.1591 238.885 73.1591C239.59 73.1591 240.219 73.3371 240.772 73.6932C241.325 74.0492 241.759 74.5625 242.073 75.233C242.391 75.9034 242.55 76.7102 242.55 77.6534C242.55 78.5966 242.393 79.4053 242.079 80.0795C241.764 80.75 241.332 81.267 240.783 81.6307C240.234 81.9905 239.607 82.1705 238.902 82.1705C238.372 82.1705 237.938 82.0814 237.601 81.9034C237.268 81.7254 237.007 81.517 236.817 81.2784C236.628 81.0398 236.482 80.8277 236.38 80.642H236.277V85.2727H234.579ZM236.243 77.6364C236.243 78.25 236.332 78.7879 236.51 79.25C236.688 79.7121 236.946 80.0739 237.283 80.3352C237.62 80.5928 238.033 80.7216 238.522 80.7216C239.029 80.7216 239.454 80.5871 239.795 80.3182C240.135 80.0455 240.393 79.6761 240.567 79.2102C240.745 78.7443 240.834 78.2197 240.834 77.6364C240.834 77.0606 240.747 76.5436 240.573 76.0852C240.402 75.6269 240.145 75.2652 239.8 75C239.459 74.7348 239.033 74.6023 238.522 74.6023C238.029 74.6023 237.613 74.7292 237.272 74.983C236.935 75.2367 236.679 75.5909 236.505 76.0455C236.331 76.5 236.243 77.0303 236.243 77.6364ZM247.81 82.1761C246.992 82.1761 246.278 81.9886 245.668 81.6136C245.058 81.2386 244.584 80.714 244.247 80.0398C243.91 79.3655 243.742 78.5777 243.742 77.6761C243.742 76.7708 243.91 75.9792 244.247 75.3011C244.584 74.6231 245.058 74.0966 245.668 73.7216C246.278 73.3466 246.992 73.1591 247.81 73.1591C248.628 73.1591 249.342 73.3466 249.952 73.7216C250.562 74.0966 251.035 74.6231 251.372 75.3011C251.709 75.9792 251.878 76.7708 251.878 77.6761C251.878 78.5777 251.709 79.3655 251.372 80.0398C251.035 80.714 250.562 81.2386 249.952 81.6136C249.342 81.9886 248.628 82.1761 247.81 82.1761ZM247.815 80.75C248.346 80.75 248.785 80.6098 249.134 80.3295C249.482 80.0492 249.74 79.6761 249.906 79.2102C250.077 78.7443 250.162 78.2311 250.162 77.6705C250.162 77.1136 250.077 76.6023 249.906 76.1364C249.74 75.6667 249.482 75.2898 249.134 75.0057C248.785 74.7216 248.346 74.5795 247.815 74.5795C247.281 74.5795 246.838 74.7216 246.486 75.0057C246.137 75.2898 245.878 75.6667 245.707 76.1364C245.541 76.6023 245.457 77.1136 245.457 77.6705C245.457 78.2311 245.541 78.7443 245.707 79.2102C245.878 79.6761 246.137 80.0492 246.486 80.3295C246.838 80.6098 247.281 80.75 247.815 80.75ZM252.767 82L252.761 80.5284H253.074C253.316 80.5284 253.519 80.4773 253.682 80.375C253.848 80.2689 253.985 80.0909 254.091 79.8409C254.197 79.5909 254.278 79.2462 254.335 78.8068C254.392 78.3636 254.433 77.8068 254.46 77.1364L254.613 73.2727H260.704V82H259.039V74.7386H256.187L256.051 77.7045C256.017 78.4242 255.943 79.053 255.829 79.5909C255.719 80.1288 255.558 80.5777 255.346 80.9375C255.134 81.2936 254.861 81.5606 254.528 81.7386C254.195 81.9129 253.789 82 253.312 82H252.767ZM264.315 79.6193L268.161 73.2727H269.991V82H268.326V75.6477L264.496 82H262.65V73.2727H264.315V79.6193ZM271.955 82V73.2727H273.654V76.9318H274.472L277.353 73.2727H279.455L276.074 77.517L279.495 82H277.387L274.756 78.5114H273.654V82H271.955ZM283.811 82.1761C282.993 82.1761 282.279 81.9886 281.669 81.6136C281.059 81.2386 280.586 80.714 280.248 80.0398C279.911 79.3655 279.743 78.5777 279.743 77.6761C279.743 76.7708 279.911 75.9792 280.248 75.3011C280.586 74.6231 281.059 74.0966 281.669 73.7216C282.279 73.3466 282.993 73.1591 283.811 73.1591C284.629 73.1591 285.343 73.3466 285.953 73.7216C286.563 74.0966 287.036 74.6231 287.373 75.3011C287.711 75.9792 287.879 76.7708 287.879 77.6761C287.879 78.5777 287.711 79.3655 287.373 80.0398C287.036 80.714 286.563 81.2386 285.953 81.6136C285.343 81.9886 284.629 82.1761 283.811 82.1761ZM283.817 80.75C284.347 80.75 284.786 80.6098 285.135 80.3295C285.483 80.0492 285.741 79.6761 285.908 79.2102C286.078 78.7443 286.163 78.2311 286.163 77.6705C286.163 77.1136 286.078 76.6023 285.908 76.1364C285.741 75.6667 285.483 75.2898 285.135 75.0057C284.786 74.7216 284.347 74.5795 283.817 74.5795C283.283 74.5795 282.839 74.7216 282.487 75.0057C282.139 75.2898 281.879 75.6667 281.709 76.1364C281.542 76.6023 281.459 77.1136 281.459 77.6705C281.459 78.2311 281.542 78.7443 281.709 79.2102C281.879 79.6761 282.139 80.0492 282.487 80.3295C282.839 80.6098 283.283 80.75 283.817 80.75ZM289.455 82V73.2727H293.075C294.06 73.2727 294.84 73.483 295.416 73.9034C295.991 74.3201 296.279 74.8864 296.279 75.6023C296.279 76.1136 296.116 76.5189 295.791 76.8182C295.465 77.1174 295.033 77.3182 294.495 77.4205C294.885 77.4659 295.243 77.5833 295.569 77.7727C295.895 77.9583 296.156 78.2083 296.353 78.5227C296.554 78.8371 296.654 79.2121 296.654 79.6477C296.654 80.1098 296.535 80.5189 296.296 80.875C296.058 81.2273 295.711 81.5038 295.257 81.7045C294.806 81.9015 294.262 82 293.626 82H289.455ZM291.052 80.5795H293.626C294.046 80.5795 294.376 80.4792 294.615 80.2784C294.853 80.0777 294.973 79.8049 294.973 79.4602C294.973 79.0549 294.853 78.7367 294.615 78.5057C294.376 78.2708 294.046 78.1534 293.626 78.1534H291.052V80.5795ZM291.052 76.9091H293.092C293.41 76.9091 293.683 76.8636 293.91 76.7727C294.141 76.6818 294.317 76.553 294.438 76.3864C294.563 76.2159 294.626 76.0152 294.626 75.7841C294.626 75.447 294.488 75.1837 294.211 74.9943C293.935 74.8049 293.556 74.7102 293.075 74.7102H291.052V76.9091Z" fill="black"/>
<g filter="url(#filter0_d_1_329)">
<rect x="71.5" y="112" width="169" height="56" rx="28" fill="#5C24FF"/>
<path d="M106.778 138.438H104.29C104.244 138.116 104.152 137.83 104.011 137.58C103.871 137.326 103.691 137.11 103.472 136.932C103.252 136.754 102.998 136.617 102.71 136.523C102.426 136.428 102.117 136.381 101.784 136.381C101.182 136.381 100.657 136.53 100.21 136.83C99.7633 137.125 99.4167 137.557 99.1705 138.125C98.9242 138.689 98.8011 139.375 98.8011 140.182C98.8011 141.011 98.9242 141.708 99.1705 142.273C99.4205 142.837 99.7689 143.263 100.216 143.551C100.663 143.839 101.18 143.983 101.767 143.983C102.097 143.983 102.402 143.939 102.682 143.852C102.966 143.765 103.218 143.638 103.438 143.472C103.657 143.301 103.839 143.095 103.983 142.852C104.131 142.61 104.233 142.333 104.29 142.023L106.778 142.034C106.714 142.568 106.553 143.083 106.295 143.58C106.042 144.072 105.699 144.513 105.267 144.903C104.839 145.29 104.328 145.597 103.733 145.824C103.142 146.047 102.473 146.159 101.727 146.159C100.689 146.159 99.7614 145.924 98.9432 145.455C98.1288 144.985 97.4848 144.305 97.0114 143.415C96.5417 142.525 96.3068 141.447 96.3068 140.182C96.3068 138.913 96.5455 137.833 97.0227 136.943C97.5 136.053 98.1477 135.375 98.9659 134.909C99.7841 134.439 100.705 134.205 101.727 134.205C102.402 134.205 103.027 134.299 103.602 134.489C104.182 134.678 104.695 134.955 105.142 135.318C105.589 135.678 105.953 136.119 106.233 136.642C106.517 137.165 106.699 137.763 106.778 138.438ZM114.154 137.273V139.176H110.529V146H108.177V137.273H114.154ZM118.975 146.17C118.077 146.17 117.305 145.989 116.657 145.625C116.013 145.258 115.517 144.739 115.168 144.068C114.82 143.394 114.646 142.597 114.646 141.676C114.646 140.778 114.82 139.991 115.168 139.312C115.517 138.634 116.007 138.106 116.64 137.727C117.276 137.348 118.022 137.159 118.878 137.159C119.454 137.159 119.99 137.252 120.486 137.438C120.986 137.619 121.422 137.894 121.793 138.261C122.168 138.629 122.46 139.091 122.668 139.648C122.877 140.201 122.981 140.848 122.981 141.591V142.256H115.611V140.756H120.702C120.702 140.407 120.627 140.098 120.475 139.83C120.324 139.561 120.113 139.35 119.844 139.199C119.579 139.044 119.271 138.966 118.918 138.966C118.551 138.966 118.225 139.051 117.941 139.222C117.661 139.388 117.441 139.614 117.282 139.898C117.123 140.178 117.041 140.491 117.038 140.835V142.261C117.038 142.693 117.117 143.066 117.276 143.381C117.439 143.695 117.668 143.938 117.964 144.108C118.259 144.278 118.61 144.364 119.015 144.364C119.284 144.364 119.53 144.326 119.753 144.25C119.977 144.174 120.168 144.061 120.327 143.909C120.486 143.758 120.608 143.572 120.691 143.352L122.93 143.5C122.816 144.038 122.583 144.508 122.231 144.909C121.882 145.307 121.431 145.617 120.878 145.841C120.329 146.061 119.695 146.17 118.975 146.17ZM130.314 140.67V142.574H125.757V140.67H130.314ZM126.553 137.273V146H124.24V137.273H126.553ZM131.831 137.273V146H129.536V137.273H131.831ZM137.366 146.17C136.469 146.17 135.696 145.989 135.048 145.625C134.404 145.258 133.908 144.739 133.559 144.068C133.211 143.394 133.037 142.597 133.037 141.676C133.037 140.778 133.211 139.991 133.559 139.312C133.908 138.634 134.399 138.106 135.031 137.727C135.667 137.348 136.414 137.159 137.27 137.159C137.845 137.159 138.381 137.252 138.878 137.438C139.378 137.619 139.813 137.894 140.184 138.261C140.559 138.629 140.851 139.091 141.059 139.648C141.268 140.201 141.372 140.848 141.372 141.591V142.256H134.003V140.756H139.094C139.094 140.407 139.018 140.098 138.866 139.83C138.715 139.561 138.505 139.35 138.236 139.199C137.97 139.044 137.662 138.966 137.309 138.966C136.942 138.966 136.616 139.051 136.332 139.222C136.052 139.388 135.832 139.614 135.673 139.898C135.514 140.178 135.433 140.491 135.429 140.835V142.261C135.429 142.693 135.508 143.066 135.667 143.381C135.83 143.695 136.059 143.938 136.355 144.108C136.65 144.278 137.001 144.364 137.406 144.364C137.675 144.364 137.921 144.326 138.145 144.25C138.368 144.174 138.559 144.061 138.719 143.909C138.878 143.758 138.999 143.572 139.082 143.352L141.321 143.5C141.207 144.038 140.974 144.508 140.622 144.909C140.274 145.307 139.823 145.617 139.27 145.841C138.72 146.061 138.086 146.17 137.366 146.17ZM142.632 149.273V137.273H145.018V138.739H145.126C145.232 138.504 145.385 138.265 145.586 138.023C145.791 137.777 146.056 137.572 146.382 137.409C146.711 137.242 147.12 137.159 147.609 137.159C148.245 137.159 148.832 137.326 149.37 137.659C149.908 137.989 150.338 138.487 150.66 139.153C150.982 139.816 151.143 140.648 151.143 141.648C151.143 142.621 150.986 143.443 150.671 144.114C150.361 144.78 149.936 145.286 149.399 145.631C148.864 145.972 148.266 146.142 147.603 146.142C147.133 146.142 146.734 146.064 146.404 145.909C146.079 145.754 145.811 145.559 145.603 145.324C145.395 145.085 145.236 144.845 145.126 144.602H145.052V149.273H142.632ZM145.001 141.636C145.001 142.155 145.073 142.608 145.217 142.994C145.361 143.381 145.569 143.682 145.842 143.898C146.114 144.11 146.446 144.216 146.836 144.216C147.23 144.216 147.563 144.108 147.836 143.892C148.109 143.672 148.315 143.369 148.455 142.983C148.599 142.593 148.671 142.144 148.671 141.636C148.671 141.133 148.601 140.689 148.461 140.307C148.321 139.924 148.114 139.625 147.842 139.409C147.569 139.193 147.234 139.085 146.836 139.085C146.442 139.085 146.109 139.189 145.836 139.398C145.567 139.606 145.361 139.902 145.217 140.284C145.073 140.667 145.001 141.117 145.001 141.636ZM154.749 142.807L157.891 137.273H160.277V146H157.971V140.449L154.84 146H152.437V137.273H154.749V142.807ZM161.898 149.273V137.273H164.284V138.739H164.392C164.498 138.504 164.652 138.265 164.852 138.023C165.057 137.777 165.322 137.572 165.648 137.409C165.977 137.242 166.386 137.159 166.875 137.159C167.511 137.159 168.099 137.326 168.636 137.659C169.174 137.989 169.604 138.487 169.926 139.153C170.248 139.816 170.409 140.648 170.409 141.648C170.409 142.621 170.252 143.443 169.938 144.114C169.627 144.78 169.203 145.286 168.665 145.631C168.131 145.972 167.532 146.142 166.869 146.142C166.4 146.142 166 146.064 165.671 145.909C165.345 145.754 165.078 145.559 164.869 145.324C164.661 145.085 164.502 144.845 164.392 144.602H164.318V149.273H161.898ZM164.267 141.636C164.267 142.155 164.339 142.608 164.483 142.994C164.627 143.381 164.835 143.682 165.108 143.898C165.381 144.11 165.712 144.216 166.102 144.216C166.496 144.216 166.83 144.108 167.102 143.892C167.375 143.672 167.581 143.369 167.722 142.983C167.866 142.593 167.938 142.144 167.938 141.636C167.938 141.133 167.867 140.689 167.727 140.307C167.587 139.924 167.381 139.625 167.108 139.409C166.835 139.193 166.5 139.085 166.102 139.085C165.708 139.085 165.375 139.189 165.102 139.398C164.833 139.606 164.627 139.902 164.483 140.284C164.339 140.667 164.267 141.117 164.267 141.636ZM175.646 146.17C174.763 146.17 174 145.983 173.356 145.608C172.716 145.229 172.222 144.703 171.873 144.028C171.525 143.35 171.351 142.564 171.351 141.67C171.351 140.769 171.525 139.981 171.873 139.307C172.222 138.629 172.716 138.102 173.356 137.727C174 137.348 174.763 137.159 175.646 137.159C176.529 137.159 177.29 137.348 177.93 137.727C178.574 138.102 179.07 138.629 179.419 139.307C179.767 139.981 179.941 140.769 179.941 141.67C179.941 142.564 179.767 143.35 179.419 144.028C179.07 144.703 178.574 145.229 177.93 145.608C177.29 145.983 176.529 146.17 175.646 146.17ZM175.657 144.295C176.059 144.295 176.394 144.182 176.663 143.955C176.932 143.723 177.135 143.409 177.271 143.011C177.411 142.614 177.481 142.161 177.481 141.653C177.481 141.146 177.411 140.693 177.271 140.295C177.135 139.898 176.932 139.583 176.663 139.352C176.394 139.121 176.059 139.006 175.657 139.006C175.252 139.006 174.911 139.121 174.635 139.352C174.362 139.583 174.155 139.898 174.015 140.295C173.879 140.693 173.811 141.146 173.811 141.653C173.811 142.161 173.879 142.614 174.015 143.011C174.155 143.409 174.362 143.723 174.635 143.955C174.911 144.182 175.252 144.295 175.657 144.295ZM181.195 146V137.273H184.917C185.993 137.273 186.843 137.477 187.468 137.886C188.093 138.295 188.406 138.877 188.406 139.631C188.406 140.104 188.229 140.498 187.877 140.812C187.525 141.127 187.036 141.339 186.411 141.449C186.934 141.487 187.379 141.606 187.746 141.807C188.118 142.004 188.4 142.259 188.593 142.574C188.79 142.888 188.888 143.237 188.888 143.619C188.888 144.116 188.756 144.542 188.491 144.898C188.229 145.254 187.845 145.527 187.337 145.716C186.834 145.905 186.218 146 185.491 146H181.195ZM183.451 144.188H185.491C185.828 144.188 186.091 144.108 186.281 143.949C186.474 143.786 186.57 143.564 186.57 143.284C186.57 142.973 186.474 142.729 186.281 142.551C186.091 142.373 185.828 142.284 185.491 142.284H183.451V144.188ZM183.451 140.864H184.968C185.21 140.864 185.417 140.83 185.587 140.761C185.762 140.689 185.894 140.587 185.985 140.455C186.08 140.322 186.127 140.165 186.127 139.983C186.127 139.714 186.019 139.504 185.803 139.352C185.587 139.201 185.292 139.125 184.917 139.125H183.451V140.864ZM192.583 146.165C192.026 146.165 191.53 146.068 191.094 145.875C190.658 145.678 190.314 145.388 190.06 145.006C189.81 144.619 189.685 144.138 189.685 143.562C189.685 143.078 189.774 142.67 189.952 142.341C190.13 142.011 190.372 141.746 190.679 141.545C190.986 141.345 191.335 141.193 191.725 141.091C192.119 140.989 192.532 140.917 192.963 140.875C193.471 140.822 193.88 140.773 194.191 140.727C194.501 140.678 194.727 140.606 194.867 140.511C195.007 140.417 195.077 140.277 195.077 140.091V140.057C195.077 139.697 194.963 139.419 194.736 139.222C194.513 139.025 194.194 138.926 193.782 138.926C193.346 138.926 192.999 139.023 192.742 139.216C192.484 139.405 192.314 139.644 192.23 139.932L189.992 139.75C190.105 139.22 190.329 138.761 190.662 138.375C190.996 137.985 191.425 137.686 191.952 137.477C192.482 137.265 193.096 137.159 193.793 137.159C194.278 137.159 194.742 137.216 195.185 137.33C195.632 137.443 196.028 137.619 196.372 137.858C196.721 138.097 196.996 138.403 197.196 138.778C197.397 139.15 197.497 139.595 197.497 140.114V146H195.202V144.79H195.134C194.994 145.062 194.806 145.303 194.571 145.511C194.336 145.716 194.054 145.877 193.725 145.994C193.395 146.108 193.014 146.165 192.583 146.165ZM193.276 144.494C193.632 144.494 193.946 144.424 194.219 144.284C194.492 144.14 194.706 143.947 194.861 143.705C195.016 143.462 195.094 143.187 195.094 142.881V141.955C195.018 142.004 194.914 142.049 194.782 142.091C194.653 142.129 194.507 142.165 194.344 142.199C194.181 142.229 194.018 142.258 193.855 142.284C193.693 142.307 193.545 142.328 193.412 142.347C193.128 142.388 192.88 142.455 192.668 142.545C192.456 142.636 192.291 142.759 192.174 142.915C192.056 143.066 191.997 143.256 191.997 143.483C191.997 143.812 192.117 144.064 192.355 144.239C192.598 144.409 192.905 144.494 193.276 144.494ZM198.179 139.176V137.273H206.088V139.176H203.275V146H200.969V139.176H198.179ZM208.752 139.955H211.36C212.516 139.955 213.417 140.231 214.065 140.784C214.713 141.333 215.036 142.068 215.036 142.989C215.036 143.587 214.891 144.114 214.599 144.568C214.307 145.019 213.887 145.371 213.338 145.625C212.788 145.875 212.129 146 211.36 146H207.235V137.273H209.548V144.097H211.36C211.766 144.097 212.099 143.994 212.36 143.79C212.622 143.585 212.754 143.324 212.758 143.006C212.754 142.669 212.622 142.394 212.36 142.182C212.099 141.966 211.766 141.858 211.36 141.858H208.752V139.955Z" fill="white"/>
</g>
<defs>
<filter id="filter0_d_1_329" x="49.5" y="94" width="213" height="100" filterUnits="userSpaceOnUse" color-interpolation-filters="sRGB">
<feFlood flood-opacity="0" result="BackgroundImageFix"/>
<feColorMatrix in="SourceAlpha" type="matrix" values="0 0 0 0 0 0 0 0 0 0 0 0 0 0 0 0 0 0 127 0" result="hardAlpha"/>
<feOffset dy="4"/>
<feGaussianBlur stdDeviation="11"/>
<feComposite in2="hardAlpha" operator="out"/>
<feColorMatrix type="matrix" values="0 0 0 0 0.360784 0 0 0 0 0.141176 0 0 0 0 1 0 0 0 0.32 0"/>
<feBlend mode="normal" in2="BackgroundImageFix" result="effect1_dropShadow_1_329"/>
<feBlend mode="normal" in="SourceGraphic" in2="effect1_dropShadow_1_329" result="shape"/>
</filter>
</defs>
</svg>
