<svg width="736" height="282" viewBox="0 0 736 282" fill="none" xmlns="http://www.w3.org/2000/svg">
<path d="M150.084 9.90909V39H144.004V14.9091H132.243V39H126.163V9.90909H150.084ZM164.884 39.4261C162.677 39.4261 160.769 38.9574 159.159 38.0199C157.559 37.0729 156.323 35.7566 155.452 34.071C154.581 32.3759 154.145 30.411 154.145 28.1761C154.145 25.9223 154.581 23.9527 155.452 22.267C156.323 20.572 157.559 19.2557 159.159 18.3182C160.769 17.3712 162.677 16.8977 164.884 16.8977C167.09 16.8977 168.994 17.3712 170.594 18.3182C172.204 19.2557 173.444 20.572 174.315 22.267C175.187 23.9527 175.622 25.9223 175.622 28.1761C175.622 30.411 175.187 32.3759 174.315 34.071C173.444 35.7566 172.204 37.0729 170.594 38.0199C168.994 38.9574 167.09 39.4261 164.884 39.4261ZM164.912 34.7386C165.916 34.7386 166.754 34.4545 167.426 33.8864C168.099 33.3087 168.605 32.5227 168.946 31.5284C169.297 30.5341 169.472 29.4025 169.472 28.1335C169.472 26.8646 169.297 25.733 168.946 24.7386C168.605 23.7443 168.099 22.9583 167.426 22.3807C166.754 21.803 165.916 21.5142 164.912 21.5142C163.899 21.5142 163.047 21.803 162.355 22.3807C161.673 22.9583 161.157 23.7443 160.807 24.7386C160.466 25.733 160.296 26.8646 160.296 28.1335C160.296 29.4025 160.466 30.5341 160.807 31.5284C161.157 32.5227 161.673 33.3087 162.355 33.8864C163.047 34.4545 163.899 34.7386 164.912 34.7386ZM177.479 39L177.45 34.1989H178.175C178.686 34.1989 179.126 34.0758 179.496 33.8295C179.874 33.5739 180.187 33.1619 180.433 32.5938C180.679 32.0256 180.873 31.2727 181.015 30.3352C181.158 29.3883 181.252 28.2235 181.3 26.8409L181.655 17.1818H198.246V39H192.479V21.9403H187.095L186.754 28.6023C186.669 30.4299 186.446 32.0019 186.087 33.3182C185.736 34.6345 185.248 35.714 184.623 36.5568C183.998 37.3902 183.246 38.0057 182.365 38.4034C181.484 38.8011 180.462 39 179.297 39H177.479ZM205.091 47.1818C204.324 47.1818 203.604 47.1203 202.932 46.9972C202.269 46.8835 201.72 46.7367 201.284 46.5568L202.648 42.0398C203.358 42.2576 203.997 42.3759 204.566 42.3949C205.143 42.4138 205.64 42.2813 206.057 41.9972C206.483 41.7131 206.829 41.2301 207.094 40.5483L207.449 39.625L199.622 17.1818H205.986L210.503 33.2045H210.73L215.29 17.1818H221.696L213.216 41.358C212.809 42.5322 212.255 43.5549 211.554 44.4261C210.863 45.3068 209.987 45.9839 208.926 46.4574C207.866 46.9403 206.587 47.1818 205.091 47.1818ZM242.342 17.1818V39H236.603V17.1818H242.342ZM239.543 26.7557V31.5284C239.079 31.7367 238.502 31.9356 237.81 32.125C237.119 32.3049 236.395 32.4517 235.637 32.5653C234.879 32.679 234.169 32.7358 233.506 32.7358C230.372 32.7358 227.905 32.0919 226.106 30.804C224.307 29.5066 223.407 27.4375 223.407 24.5966V17.1534H229.117V24.5966C229.117 25.4394 229.259 26.107 229.543 26.5994C229.837 27.0919 230.301 27.447 230.935 27.6648C231.579 27.8731 232.436 27.9773 233.506 27.9773C234.501 27.9773 235.476 27.8731 236.433 27.6648C237.389 27.4564 238.426 27.1534 239.543 26.7557ZM252.021 31.017L259.876 17.1818H265.842V39H260.075V25.1222L252.248 39H246.24V17.1818H252.021V31.017ZM267.702 21.9403V17.1818H287.475V21.9403H280.443V39H274.676V21.9403H267.702ZM299.505 39.4261C297.26 39.4261 295.329 38.9716 293.709 38.0625C292.1 37.1439 290.859 35.8466 289.988 34.1705C289.117 32.4848 288.681 30.4915 288.681 28.1903C288.681 25.946 289.117 23.9763 289.988 22.2812C290.859 20.5862 292.085 19.2652 293.667 18.3182C295.258 17.3712 297.123 16.8977 299.263 16.8977C300.703 16.8977 302.043 17.1297 303.283 17.5938C304.533 18.0483 305.622 18.7348 306.55 19.6534C307.488 20.572 308.217 21.7273 308.738 23.1193C309.259 24.5019 309.519 26.1212 309.519 27.9773V29.6392H291.096V25.8892H303.823C303.823 25.018 303.634 24.2462 303.255 23.5739C302.876 22.9015 302.35 22.3759 301.678 21.9972C301.015 21.6089 300.243 21.4148 299.363 21.4148C298.444 21.4148 297.63 21.6278 296.92 22.054C296.219 22.4706 295.67 23.0341 295.272 23.7443C294.874 24.4451 294.671 25.2263 294.661 26.0881V29.6534C294.661 30.733 294.86 31.6657 295.258 32.4517C295.665 33.2377 296.238 33.8438 296.976 34.2699C297.715 34.696 298.591 34.9091 299.604 34.9091C300.277 34.9091 300.892 34.8144 301.451 34.625C302.01 34.4356 302.488 34.1515 302.885 33.7727C303.283 33.3939 303.586 32.9299 303.795 32.3807L309.391 32.75C309.107 34.0947 308.525 35.2689 307.644 36.2727C306.773 37.267 305.646 38.0436 304.263 38.6023C302.89 39.1515 301.304 39.4261 299.505 39.4261ZM321.126 39V17.1818H330.43C333.119 17.1818 335.245 17.6932 336.808 18.7159C338.37 19.7386 339.151 21.1922 339.151 23.0767C339.151 24.2604 338.711 25.2453 337.83 26.0312C336.95 26.8172 335.728 27.3475 334.165 27.6222C335.472 27.7169 336.585 28.0152 337.504 28.517C338.432 29.0095 339.137 29.6487 339.62 30.4347C340.112 31.2206 340.359 32.0919 340.359 33.0483C340.359 34.2888 340.027 35.3542 339.364 36.2443C338.711 37.1345 337.75 37.8163 336.481 38.2898C335.221 38.7633 333.683 39 331.864 39H321.126ZM326.765 34.4688H331.864C332.707 34.4688 333.365 34.2699 333.839 33.8722C334.322 33.465 334.563 32.911 334.563 32.2102C334.563 31.4337 334.322 30.8229 333.839 30.3778C333.365 29.9328 332.707 29.7102 331.864 29.7102H326.765V34.4688ZM326.765 26.1591H330.558C331.164 26.1591 331.68 26.0739 332.106 25.9034C332.541 25.7235 332.873 25.4678 333.1 25.1364C333.337 24.8049 333.455 24.4119 333.455 23.9574C333.455 23.285 333.185 22.7595 332.646 22.3807C332.106 22.0019 331.367 21.8125 330.43 21.8125H326.765V26.1591ZM351.83 39V17.1818H370.907V39H365.126V21.9403H357.541V39H351.83ZM384.795 39.4261C382.588 39.4261 380.68 38.9574 379.07 38.0199C377.47 37.0729 376.234 35.7566 375.363 34.071C374.492 32.3759 374.056 30.411 374.056 28.1761C374.056 25.9223 374.492 23.9527 375.363 22.267C376.234 20.572 377.47 19.2557 379.07 18.3182C380.68 17.3712 382.588 16.8977 384.795 16.8977C387.001 16.8977 388.904 17.3712 390.505 18.3182C392.115 19.2557 393.355 20.572 394.226 22.267C395.098 23.9527 395.533 25.9223 395.533 28.1761C395.533 30.411 395.098 32.3759 394.226 34.071C393.355 35.7566 392.115 37.0729 390.505 38.0199C388.904 38.9574 387.001 39.4261 384.795 39.4261ZM384.823 34.7386C385.827 34.7386 386.665 34.4545 387.337 33.8864C388.01 33.3087 388.516 32.5227 388.857 31.5284C389.207 30.5341 389.383 29.4025 389.383 28.1335C389.383 26.8646 389.207 25.733 388.857 24.7386C388.516 23.7443 388.01 22.9583 387.337 22.3807C386.665 21.803 385.827 21.5142 384.823 21.5142C383.81 21.5142 382.957 21.803 382.266 22.3807C381.584 22.9583 381.068 23.7443 380.718 24.7386C380.377 25.733 380.207 26.8646 380.207 28.1335C380.207 29.4025 380.377 30.5341 380.718 31.5284C381.068 32.5227 381.584 33.3087 382.266 33.8864C382.957 34.4545 383.81 34.7386 384.823 34.7386ZM396.963 45.392V34.1989H398.639C399.122 33.8958 399.511 33.4129 399.804 32.75C400.107 32.0871 400.353 31.3059 400.543 30.4062C400.742 29.5066 400.893 28.536 400.997 27.4943C401.111 26.4432 401.21 25.3826 401.296 24.3125L401.864 17.1818H418.597V34.1989H421.978V45.392H416.211V39H402.872V45.392H396.963ZM404.662 34.1989H412.887V21.8409H407.006L406.779 24.3125C406.618 26.642 406.386 28.6212 406.083 30.25C405.78 31.8693 405.306 33.1856 404.662 34.1989ZM430.925 39.4119C429.533 39.4119 428.293 39.1705 427.204 38.6875C426.115 38.1951 425.253 37.4706 424.619 36.5142C423.994 35.5483 423.681 34.3456 423.681 32.9062C423.681 31.6941 423.904 30.6761 424.349 29.8523C424.794 29.0284 425.4 28.3655 426.167 27.8636C426.934 27.3617 427.805 26.983 428.781 26.7273C429.765 26.4716 430.798 26.2917 431.877 26.1875C433.146 26.0549 434.169 25.9318 434.945 25.8182C435.722 25.6951 436.285 25.5152 436.636 25.2784C436.986 25.0417 437.161 24.6913 437.161 24.2273V24.142C437.161 23.2424 436.877 22.5464 436.309 22.054C435.75 21.5616 434.955 21.3153 433.923 21.3153C432.834 21.3153 431.967 21.5568 431.323 22.0398C430.679 22.5133 430.253 23.1098 430.045 23.8295L424.448 23.375C424.732 22.0492 425.291 20.9034 426.124 19.9375C426.958 18.9621 428.032 18.214 429.349 17.6932C430.674 17.1629 432.209 16.8977 433.951 16.8977C435.163 16.8977 436.323 17.0398 437.431 17.3239C438.549 17.608 439.538 18.0483 440.4 18.6449C441.271 19.2415 441.958 20.0085 442.46 20.946C442.961 21.8741 443.212 22.9867 443.212 24.2841V39H437.474V35.9744H437.303C436.953 36.6562 436.484 37.2576 435.897 37.7784C435.31 38.2898 434.604 38.6922 433.781 38.9858C432.957 39.2699 432.005 39.4119 430.925 39.4119ZM432.658 35.2358C433.549 35.2358 434.335 35.0606 435.016 34.7102C435.698 34.3504 436.233 33.8674 436.621 33.2614C437.01 32.6553 437.204 31.9687 437.204 31.2017V28.8864C437.014 29.0095 436.754 29.1231 436.423 29.2273C436.101 29.322 435.736 29.4119 435.329 29.4972C434.922 29.5729 434.514 29.6439 434.107 29.7102C433.7 29.767 433.331 29.8191 432.999 29.8665C432.289 29.9706 431.669 30.1364 431.138 30.3636C430.608 30.5909 430.196 30.8987 429.903 31.2869C429.609 31.6657 429.462 32.1392 429.462 32.7074C429.462 33.5312 429.761 34.161 430.357 34.5966C430.963 35.0227 431.73 35.2358 432.658 35.2358ZM447.107 47.1818V17.1818H453.073V20.8466H453.343C453.608 20.2595 453.991 19.6629 454.493 19.0568C455.005 18.4413 455.668 17.9299 456.482 17.5227C457.306 17.1061 458.329 16.8977 459.55 16.8977C461.141 16.8977 462.609 17.3144 463.954 18.1477C465.298 18.9716 466.373 20.2169 467.178 21.8835C467.983 23.5407 468.385 25.6193 468.385 28.1193C468.385 30.553 467.992 32.608 467.206 34.2841C466.43 35.9508 465.369 37.215 464.025 38.0767C462.689 38.929 461.193 39.3551 459.536 39.3551C458.362 39.3551 457.363 39.161 456.539 38.7727C455.724 38.3845 455.057 37.8968 454.536 37.3097C454.015 36.7131 453.617 36.1117 453.343 35.5057H453.158V47.1818H447.107ZM453.03 28.0909C453.03 29.3883 453.21 30.5199 453.57 31.4858C453.93 32.4517 454.451 33.2045 455.133 33.7443C455.814 34.2746 456.643 34.5398 457.618 34.5398C458.603 34.5398 459.437 34.2699 460.118 33.7301C460.8 33.1809 461.316 32.4233 461.667 31.4574C462.026 30.482 462.206 29.3598 462.206 28.0909C462.206 26.8314 462.031 25.7235 461.681 24.767C461.33 23.8106 460.814 23.0625 460.133 22.5227C459.451 21.983 458.613 21.7131 457.618 21.7131C456.633 21.7131 455.8 21.9735 455.118 22.4943C454.446 23.0152 453.93 23.7538 453.57 24.7102C453.21 25.6667 453.03 26.7936 453.03 28.0909ZM481.477 39.4261C479.271 39.4261 477.363 38.9574 475.753 38.0199C474.153 37.0729 472.917 35.7566 472.046 34.071C471.174 32.3759 470.739 30.411 470.739 28.1761C470.739 25.9223 471.174 23.9527 472.046 22.267C472.917 20.572 474.153 19.2557 475.753 18.3182C477.363 17.3712 479.271 16.8977 481.477 16.8977C483.684 16.8977 485.587 17.3712 487.188 18.3182C488.798 19.2557 490.038 20.572 490.909 22.267C491.78 23.9527 492.216 25.9223 492.216 28.1761C492.216 30.411 491.78 32.3759 490.909 34.071C490.038 35.7566 488.798 37.0729 487.188 38.0199C485.587 38.9574 483.684 39.4261 481.477 39.4261ZM481.506 34.7386C482.51 34.7386 483.348 34.4545 484.02 33.8864C484.692 33.3087 485.199 32.5227 485.54 31.5284C485.89 30.5341 486.066 29.4025 486.066 28.1335C486.066 26.8646 485.89 25.733 485.54 24.7386C485.199 23.7443 484.692 22.9583 484.02 22.3807C483.348 21.803 482.51 21.5142 481.506 21.5142C480.493 21.5142 479.64 21.803 478.949 22.3807C478.267 22.9583 477.751 23.7443 477.401 24.7386C477.06 25.733 476.889 26.8646 476.889 28.1335C476.889 29.4025 477.06 30.5341 477.401 31.5284C477.751 32.5227 478.267 33.3087 478.949 33.8864C479.64 34.4545 480.493 34.7386 481.506 34.7386ZM495.351 39V17.1818H501.402V25.6477H503.106L509.044 17.1818H516.146L508.433 28.0057L516.231 39H509.044L503.66 31.2585H501.402V39H495.351ZM541.389 17.1818V21.9403H532.327V39H526.446V17.1818H541.389ZM549.719 39.4119C548.327 39.4119 547.087 39.1705 545.998 38.6875C544.909 38.1951 544.047 37.4706 543.412 36.5142C542.787 35.5483 542.475 34.3456 542.475 32.9062C542.475 31.6941 542.697 30.6761 543.142 29.8523C543.588 29.0284 544.194 28.3655 544.961 27.8636C545.728 27.3617 546.599 26.983 547.574 26.7273C548.559 26.4716 549.591 26.2917 550.671 26.1875C551.94 26.0549 552.963 25.9318 553.739 25.8182C554.516 25.6951 555.079 25.5152 555.429 25.2784C555.78 25.0417 555.955 24.6913 555.955 24.2273V24.142C555.955 23.2424 555.671 22.5464 555.103 22.054C554.544 21.5616 553.749 21.3153 552.716 21.3153C551.627 21.3153 550.761 21.5568 550.117 22.0398C549.473 22.5133 549.047 23.1098 548.839 23.8295L543.242 23.375C543.526 22.0492 544.085 20.9034 544.918 19.9375C545.751 18.9621 546.826 18.214 548.142 17.6932C549.468 17.1629 551.002 16.8977 552.745 16.8977C553.957 16.8977 555.117 17.0398 556.225 17.3239C557.342 17.608 558.332 18.0483 559.194 18.6449C560.065 19.2415 560.751 20.0085 561.253 20.946C561.755 21.8741 562.006 22.9867 562.006 24.2841V39H556.267V35.9744H556.097C555.747 36.6562 555.278 37.2576 554.691 37.7784C554.104 38.2898 553.398 38.6922 552.574 38.9858C551.75 39.2699 550.799 39.4119 549.719 39.4119ZM551.452 35.2358C552.342 35.2358 553.128 35.0606 553.81 34.7102C554.492 34.3504 555.027 33.8674 555.415 33.2614C555.803 32.6553 555.998 31.9687 555.998 31.2017V28.8864C555.808 29.0095 555.548 29.1231 555.216 29.2273C554.894 29.322 554.53 29.4119 554.123 29.4972C553.715 29.5729 553.308 29.6439 552.901 29.7102C552.494 29.767 552.124 29.8191 551.793 29.8665C551.083 29.9706 550.463 30.1364 549.932 30.3636C549.402 30.5909 548.99 30.8987 548.696 31.2869C548.403 31.6657 548.256 32.1392 548.256 32.7074C548.256 33.5312 548.554 34.161 549.151 34.5966C549.757 35.0227 550.524 35.2358 551.452 35.2358ZM571.682 31.017L579.537 17.1818H585.503V39H579.736V25.1222L571.909 39H565.901V17.1818H571.682V31.017ZM578.5 9.56818H582.719C582.709 11.2917 582.07 12.679 580.801 13.7301C579.542 14.7812 577.837 15.3068 575.688 15.3068C573.529 15.3068 571.819 14.7812 570.56 13.7301C569.3 12.679 568.671 11.2917 568.671 9.56818H572.861C572.851 10.2216 573.06 10.8087 573.486 11.3295C573.922 11.8504 574.655 12.1108 575.688 12.1108C576.691 12.1108 577.411 11.8551 577.847 11.3438C578.282 10.8324 578.5 10.2405 578.5 9.56818ZM587.849 45.392V34.1989H589.525C590.008 33.8958 590.397 33.4129 590.69 32.75C590.993 32.0871 591.239 31.3059 591.429 30.4062C591.628 29.5066 591.779 28.536 591.883 27.4943C591.997 26.4432 592.096 25.3826 592.182 24.3125L592.75 17.1818H609.483V34.1989H612.863V45.392H607.096V39H593.758V45.392H587.849ZM595.548 34.1989H603.773V21.8409H597.892L597.665 24.3125C597.504 26.642 597.272 28.6212 596.969 30.25C596.666 31.8693 596.192 33.1856 595.548 34.1989ZM128.61 87V65.1818H147.687V87H141.906V69.9403H134.32V87H128.61ZM161.574 87.4261C159.368 87.4261 157.46 86.9574 155.85 86.0199C154.249 85.0729 153.014 83.7566 152.142 82.071C151.271 80.3759 150.836 78.411 150.836 76.1761C150.836 73.9223 151.271 71.9527 152.142 70.267C153.014 68.572 154.249 67.2557 155.85 66.3182C157.46 65.3712 159.368 64.8977 161.574 64.8977C163.781 64.8977 165.684 65.3712 167.285 66.3182C168.894 67.2557 170.135 68.572 171.006 70.267C171.877 71.9527 172.313 73.9223 172.313 76.1761C172.313 78.411 171.877 80.3759 171.006 82.071C170.135 83.7566 168.894 85.0729 167.285 86.0199C165.684 86.9574 163.781 87.4261 161.574 87.4261ZM161.603 82.7386C162.606 82.7386 163.445 82.4545 164.117 81.8864C164.789 81.3087 165.296 80.5227 165.637 79.5284C165.987 78.5341 166.162 77.4025 166.162 76.1335C166.162 74.8646 165.987 73.733 165.637 72.7386C165.296 71.7443 164.789 70.9583 164.117 70.3807C163.445 69.803 162.606 69.5142 161.603 69.5142C160.589 69.5142 159.737 69.803 159.046 70.3807C158.364 70.9583 157.848 71.7443 157.498 72.7386C157.157 73.733 156.986 74.8646 156.986 76.1335C156.986 77.4025 157.157 78.5341 157.498 79.5284C157.848 80.5227 158.364 81.3087 159.046 81.8864C159.737 82.4545 160.589 82.7386 161.603 82.7386ZM183.905 87V65.1818H202.982V87H197.201V69.9403H189.616V87H183.905ZM207.012 95.1818V65.1818H212.978V68.8466H213.247C213.513 68.2595 213.896 67.6629 214.398 67.0568C214.909 66.4413 215.572 65.9299 216.387 65.5227C217.211 65.1061 218.233 64.8977 219.455 64.8977C221.046 64.8977 222.514 65.3144 223.858 66.1477C225.203 66.9716 226.278 68.2169 227.083 69.8835C227.888 71.5407 228.29 73.6193 228.29 76.1193C228.29 78.553 227.897 80.608 227.111 82.2841C226.335 83.9508 225.274 85.215 223.929 86.0767C222.594 86.929 221.098 87.3551 219.441 87.3551C218.266 87.3551 217.267 87.161 216.443 86.7727C215.629 86.3845 214.961 85.8968 214.441 85.3097C213.92 84.7131 213.522 84.1117 213.247 83.5057H213.063V95.1818H207.012ZM212.935 76.0909C212.935 77.3883 213.115 78.5199 213.475 79.4858C213.835 80.4517 214.355 81.2045 215.037 81.7443C215.719 82.2746 216.548 82.5398 217.523 82.5398C218.508 82.5398 219.341 82.2699 220.023 81.7301C220.705 81.1809 221.221 80.4233 221.571 79.4574C221.931 78.482 222.111 77.3598 222.111 76.0909C222.111 74.8314 221.936 73.7235 221.586 72.767C221.235 71.8106 220.719 71.0625 220.037 70.5227C219.355 69.983 218.517 69.7131 217.523 69.7131C216.538 69.7131 215.705 69.9735 215.023 70.4943C214.351 71.0152 213.835 71.7538 213.475 72.7102C213.115 73.6667 212.935 74.7936 212.935 76.0909ZM241.382 87.4261C239.176 87.4261 237.268 86.9574 235.658 86.0199C234.057 85.0729 232.821 83.7566 231.95 82.071C231.079 80.3759 230.643 78.411 230.643 76.1761C230.643 73.9223 231.079 71.9527 231.95 70.267C232.821 68.572 234.057 67.2557 235.658 66.3182C237.268 65.3712 239.176 64.8977 241.382 64.8977C243.589 64.8977 245.492 65.3712 247.092 66.3182C248.702 67.2557 249.943 68.572 250.814 70.267C251.685 71.9527 252.121 73.9223 252.121 76.1761C252.121 78.411 251.685 80.3759 250.814 82.071C249.943 83.7566 248.702 85.0729 247.092 86.0199C245.492 86.9574 243.589 87.4261 241.382 87.4261ZM241.411 82.7386C242.414 82.7386 243.252 82.4545 243.925 81.8864C244.597 81.3087 245.104 80.5227 245.445 79.5284C245.795 78.5341 245.97 77.4025 245.97 76.1335C245.97 74.8646 245.795 73.733 245.445 72.7386C245.104 71.7443 244.597 70.9583 243.925 70.3807C243.252 69.803 242.414 69.5142 241.411 69.5142C240.397 69.5142 239.545 69.803 238.854 70.3807C238.172 70.9583 237.656 71.7443 237.305 72.7386C236.964 73.733 236.794 74.8646 236.794 76.1335C236.794 77.4025 236.964 78.5341 237.305 79.5284C237.656 80.5227 238.172 81.3087 238.854 81.8864C239.545 82.4545 240.397 82.7386 241.411 82.7386ZM253.551 93.392V82.1989H255.227C255.71 81.8958 256.098 81.4129 256.392 80.75C256.695 80.0871 256.941 79.3059 257.13 78.4062C257.329 77.5066 257.481 76.536 257.585 75.4943C257.699 74.4432 257.798 73.3826 257.883 72.3125L258.451 65.1818H275.184V82.1989H278.565V93.392H272.798V87H259.46V93.392H253.551ZM261.25 82.1989H269.474V69.8409H263.593L263.366 72.3125C263.205 74.642 262.973 76.6212 262.67 78.25C262.367 79.8693 261.894 81.1856 261.25 82.1989ZM281.291 87V65.1818H290.595C293.285 65.1818 295.411 65.6932 296.973 66.7159C298.536 67.7386 299.317 69.1922 299.317 71.0767C299.317 72.2604 298.877 73.2453 297.996 74.0312C297.115 74.8172 295.894 75.3475 294.331 75.6222C295.638 75.7169 296.751 76.0152 297.669 76.517C298.597 77.0095 299.303 77.6487 299.786 78.4347C300.278 79.2206 300.524 80.0919 300.524 81.0483C300.524 82.2888 300.193 83.3542 299.53 84.2443C298.877 85.1345 297.915 85.8163 296.646 86.2898C295.387 86.7633 293.848 87 292.03 87H281.291ZM286.931 82.4688H292.03C292.873 82.4688 293.531 82.2699 294.004 81.8722C294.487 81.465 294.729 80.911 294.729 80.2102C294.729 79.4337 294.487 78.8229 294.004 78.3778C293.531 77.9328 292.873 77.7102 292.03 77.7102H286.931V82.4688ZM286.931 74.1591H290.723C291.329 74.1591 291.845 74.0739 292.271 73.9034C292.707 73.7235 293.038 73.4678 293.266 73.1364C293.503 72.8049 293.621 72.4119 293.621 71.9574C293.621 71.285 293.351 70.7595 292.811 70.3807C292.271 70.0019 291.533 69.8125 290.595 69.8125H286.931V74.1591ZM309.319 79.017L317.175 65.1818H323.14V87H317.373V73.1222L309.547 87H303.538V65.1818H309.319V79.017ZM325.771 87L333.399 75.6506L325.813 65.1818H332.717L338.385 73.7188H339.322V65.1818H345.373V73.7188H346.282L351.95 65.1818H358.853L351.282 75.6506L358.896 87H351.836L346.225 78.4773H345.373V87H339.322V78.4773H338.47L332.831 87H325.771ZM370.67 87.4261C368.426 87.4261 366.494 86.9716 364.875 86.0625C363.265 85.1439 362.025 83.8466 361.153 82.1705C360.282 80.4848 359.847 78.4915 359.847 76.1903C359.847 73.946 360.282 71.9763 361.153 70.2812C362.025 68.5862 363.251 67.2652 364.832 66.3182C366.423 65.3712 368.289 64.8977 370.429 64.8977C371.868 64.8977 373.208 65.1297 374.449 65.5938C375.699 66.0483 376.788 66.7348 377.716 67.6534C378.653 68.572 379.383 69.7273 379.903 71.1193C380.424 72.5019 380.685 74.1212 380.685 75.9773V77.6392H362.261V73.8892H374.989C374.989 73.018 374.799 72.2462 374.42 71.5739C374.042 70.9015 373.516 70.3759 372.844 69.9972C372.181 69.6089 371.409 69.4148 370.528 69.4148C369.61 69.4148 368.795 69.6278 368.085 70.054C367.384 70.4706 366.835 71.0341 366.438 71.7443C366.04 72.4451 365.836 73.2263 365.827 74.0881V77.6534C365.827 78.733 366.026 79.6657 366.423 80.4517C366.83 81.2377 367.403 81.8438 368.142 82.2699C368.881 82.696 369.757 82.9091 370.77 82.9091C371.442 82.9091 372.058 82.8144 372.616 82.625C373.175 82.4356 373.653 82.1515 374.051 81.7727C374.449 81.3939 374.752 80.9299 374.96 80.3807L380.557 80.75C380.273 82.0947 379.69 83.2689 378.81 84.2727C377.938 85.267 376.812 86.0436 375.429 86.6023C374.056 87.1515 372.47 87.4261 370.67 87.4261ZM399.018 73.6761V78.4347H387.626V73.6761H399.018ZM389.615 65.1818V87H383.834V65.1818H389.615ZM402.811 65.1818V87H397.072V65.1818H402.811ZM412.487 79.017L420.342 65.1818H426.308V87H420.541V73.1222L412.714 87H406.705V65.1818H412.487V79.017ZM442.418 73.804V78.6051H430.586V73.804H442.418ZM435.259 65.1818V87H429.222V65.1818H435.259ZM448.952 87.4261C446.793 87.4261 444.928 86.9432 443.356 85.9773C441.784 85.0114 440.572 83.6761 439.719 81.9716C438.877 80.267 438.455 78.3116 438.455 76.1051C438.455 73.8987 438.877 71.9527 439.719 70.267C440.572 68.5814 441.784 67.2652 443.356 66.3182C444.928 65.3712 446.793 64.8977 448.952 64.8977C451.121 64.8977 452.986 65.3712 454.549 66.3182C456.121 67.2652 457.328 68.5814 458.171 70.267C459.023 71.9527 459.449 73.8987 459.449 76.1051C459.449 78.3116 459.023 80.267 458.171 81.9716C457.328 83.6761 456.121 85.0114 454.549 85.9773C452.986 86.9432 451.121 87.4261 448.952 87.4261ZM448.952 82.5398C450.079 82.5398 450.988 82.2652 451.68 81.7159C452.371 81.1572 452.877 80.3949 453.199 79.429C453.521 78.4536 453.682 77.3456 453.682 76.1051C453.682 74.8646 453.521 73.7661 453.199 72.8097C452.877 71.8437 452.371 71.0862 451.68 70.5369C450.988 69.9877 450.079 69.7131 448.952 69.7131C447.835 69.7131 446.926 69.9877 446.225 70.5369C445.524 71.0767 445.008 71.8248 444.677 72.7812C444.355 73.7377 444.194 74.8456 444.194 76.1051C444.194 77.3551 444.355 78.4631 444.677 79.429C445.008 80.3949 445.524 81.1572 446.225 81.7159C446.926 82.2652 447.835 82.5398 448.952 82.5398ZM471.219 95.1818V65.1818H477.185V68.8466H477.455C477.72 68.2595 478.104 67.6629 478.606 67.0568C479.117 66.4413 479.78 65.9299 480.594 65.5227C481.418 65.1061 482.441 64.8977 483.663 64.8977C485.254 64.8977 486.721 65.3144 488.066 66.1477C489.411 66.9716 490.486 68.2169 491.29 69.8835C492.095 71.5407 492.498 73.6193 492.498 76.1193C492.498 78.553 492.105 80.608 491.319 82.2841C490.542 83.9508 489.482 85.215 488.137 86.0767C486.802 86.929 485.306 87.3551 483.648 87.3551C482.474 87.3551 481.475 87.161 480.651 86.7727C479.837 86.3845 479.169 85.8968 478.648 85.3097C478.128 84.7131 477.73 84.1117 477.455 83.5057H477.271V95.1818H471.219ZM477.143 76.0909C477.143 77.3883 477.323 78.5199 477.683 79.4858C478.042 80.4517 478.563 81.2045 479.245 81.7443C479.927 82.2746 480.755 82.5398 481.731 82.5398C482.716 82.5398 483.549 82.2699 484.231 81.7301C484.913 81.1809 485.429 80.4233 485.779 79.4574C486.139 78.482 486.319 77.3598 486.319 76.0909C486.319 74.8314 486.144 73.7235 485.793 72.767C485.443 71.8106 484.927 71.0625 484.245 70.5227C483.563 69.983 482.725 69.7131 481.731 69.7131C480.746 69.7131 479.913 69.9735 479.231 70.4943C478.558 71.0152 478.042 71.7538 477.683 72.7102C477.323 73.6667 477.143 74.7936 477.143 76.0909ZM501.513 79.017L509.368 65.1818H515.334V87H509.567V73.1222L501.74 87H495.732V65.1818H501.513V79.017ZM518.107 87L518.078 82.1989H518.803C519.314 82.1989 519.754 82.0758 520.124 81.8295C520.503 81.5739 520.815 81.1619 521.061 80.5938C521.307 80.0256 521.502 79.2727 521.644 78.3352C521.786 77.3883 521.88 76.2235 521.928 74.8409L522.283 65.1818H538.874V87H533.107V69.9403H527.723L527.382 76.6023C527.297 78.4299 527.075 80.0019 526.715 81.3182C526.364 82.6345 525.877 83.714 525.252 84.5568C524.627 85.3902 523.874 86.0057 522.993 86.4034C522.112 86.8011 521.09 87 519.925 87H518.107ZM552.623 87.4261C550.388 87.4261 548.466 86.9527 546.856 86.0057C545.255 85.0492 544.024 83.7235 543.162 82.0284C542.31 80.3333 541.884 78.3826 541.884 76.1761C541.884 73.9413 542.315 71.9811 543.177 70.2955C544.048 68.6004 545.284 67.2794 546.884 66.3324C548.484 65.3759 550.388 64.8977 552.594 64.8977C554.498 64.8977 556.164 65.2434 557.594 65.9347C559.024 66.6259 560.156 67.5966 560.989 68.8466C561.823 70.0966 562.282 71.5644 562.367 73.25H556.657C556.496 72.161 556.07 71.285 555.378 70.6222C554.697 69.9498 553.802 69.6136 552.694 69.6136C551.756 69.6136 550.937 69.8693 550.236 70.3807C549.545 70.8826 549.005 71.6165 548.617 72.5824C548.229 73.5483 548.035 74.7178 548.035 76.0909C548.035 77.483 548.224 78.6667 548.603 79.642C548.991 80.6174 549.536 81.3608 550.236 81.8722C550.937 82.3835 551.756 82.6392 552.694 82.6392C553.385 82.6392 554.005 82.4972 554.555 82.2131C555.113 81.929 555.573 81.517 555.932 80.9773C556.302 80.428 556.543 79.7699 556.657 79.0028H562.367C562.272 80.6695 561.818 82.1373 561.003 83.4062C560.198 84.6657 559.086 85.6506 557.665 86.3608C556.245 87.071 554.564 87.4261 552.623 87.4261ZM575.299 87.4261C573.093 87.4261 571.185 86.9574 569.575 86.0199C567.974 85.0729 566.739 83.7566 565.867 82.071C564.996 80.3759 564.561 78.411 564.561 76.1761C564.561 73.9223 564.996 71.9527 565.867 70.267C566.739 68.572 567.974 67.2557 569.575 66.3182C571.185 65.3712 573.093 64.8977 575.299 64.8977C577.506 64.8977 579.409 65.3712 581.01 66.3182C582.619 67.2557 583.86 68.572 584.731 70.267C585.602 71.9527 586.038 73.9223 586.038 76.1761C586.038 78.411 585.602 80.3759 584.731 82.071C583.86 83.7566 582.619 85.0729 581.01 86.0199C579.409 86.9574 577.506 87.4261 575.299 87.4261ZM575.328 82.7386C576.331 82.7386 577.17 82.4545 577.842 81.8864C578.514 81.3087 579.021 80.5227 579.362 79.5284C579.712 78.5341 579.887 77.4025 579.887 76.1335C579.887 74.8646 579.712 73.733 579.362 72.7386C579.021 71.7443 578.514 70.9583 577.842 70.3807C577.17 69.803 576.331 69.5142 575.328 69.5142C574.314 69.5142 573.462 69.803 572.771 70.3807C572.089 70.9583 571.573 71.7443 571.223 72.7386C570.882 73.733 570.711 74.8646 570.711 76.1335C570.711 77.4025 570.882 78.5341 571.223 79.5284C571.573 80.5227 572.089 81.3087 572.771 81.8864C573.462 82.4545 574.314 82.7386 575.328 82.7386ZM589.173 87V65.1818H598.477C601.166 65.1818 603.292 65.6932 604.854 66.7159C606.417 67.7386 607.198 69.1922 607.198 71.0767C607.198 72.2604 606.758 73.2453 605.877 74.0312C604.996 74.8172 603.775 75.3475 602.212 75.6222C603.519 75.7169 604.632 76.0152 605.55 76.517C606.478 77.0095 607.184 77.6487 607.667 78.4347C608.159 79.2206 608.406 80.0919 608.406 81.0483C608.406 82.2888 608.074 83.3542 607.411 84.2443C606.758 85.1345 605.797 85.8163 604.528 86.2898C603.268 86.7633 601.729 87 599.911 87H589.173ZM594.812 82.4688H599.911C600.754 82.4688 601.412 82.2699 601.886 81.8722C602.369 81.465 602.61 80.911 602.61 80.2102C602.61 79.4337 602.369 78.8229 601.886 78.3778C601.412 77.9328 600.754 77.7102 599.911 77.7102H594.812V82.4688ZM594.812 74.1591H598.604C599.21 74.1591 599.727 74.0739 600.153 73.9034C600.588 73.7235 600.92 73.4678 601.147 73.1364C601.384 72.8049 601.502 72.4119 601.502 71.9574C601.502 71.285 601.232 70.7595 600.692 70.3807C600.153 70.0019 599.414 69.8125 598.477 69.8125H594.812V74.1591Z" fill="#111111"/>
<path d="M140.962 133V118.455H143.156V124.776H150.408V118.455H152.609V133H150.408V126.658H143.156V133H140.962ZM158.41 133.241C157.718 133.241 157.093 133.114 156.535 132.858C155.976 132.598 155.533 132.221 155.207 131.729C154.885 131.236 154.724 130.633 154.724 129.918C154.724 129.302 154.842 128.795 155.079 128.398C155.315 128 155.635 127.685 156.038 127.453C156.44 127.221 156.89 127.046 157.387 126.928C157.884 126.809 158.391 126.719 158.907 126.658C159.56 126.582 160.091 126.52 160.498 126.473C160.905 126.421 161.201 126.338 161.386 126.224C161.57 126.111 161.663 125.926 161.663 125.67V125.621C161.663 125 161.487 124.52 161.137 124.179C160.791 123.838 160.275 123.668 159.589 123.668C158.874 123.668 158.31 123.826 157.898 124.143C157.491 124.456 157.209 124.804 157.053 125.188L155.057 124.733C155.294 124.07 155.64 123.535 156.094 123.128C156.554 122.716 157.082 122.418 157.678 122.233C158.275 122.044 158.902 121.949 159.56 121.949C159.996 121.949 160.458 122.001 160.945 122.105C161.438 122.205 161.897 122.389 162.323 122.659C162.754 122.929 163.107 123.315 163.381 123.817C163.656 124.314 163.793 124.96 163.793 125.756V133H161.719V131.509H161.634C161.497 131.783 161.291 132.053 161.016 132.318C160.742 132.583 160.389 132.804 159.958 132.979C159.527 133.154 159.011 133.241 158.41 133.241ZM158.871 131.537C159.458 131.537 159.96 131.421 160.377 131.189C160.798 130.957 161.118 130.654 161.336 130.28C161.558 129.901 161.67 129.496 161.67 129.065V127.659C161.594 127.735 161.447 127.806 161.229 127.872C161.016 127.934 160.772 127.988 160.498 128.036C160.223 128.078 159.956 128.118 159.695 128.156C159.435 128.189 159.217 128.218 159.042 128.241C158.63 128.294 158.253 128.381 157.913 128.504C157.576 128.627 157.306 128.805 157.103 129.037C156.904 129.264 156.805 129.567 156.805 129.946C156.805 130.472 156.999 130.869 157.387 131.139C157.775 131.404 158.27 131.537 158.871 131.537ZM174.979 122.091V133H172.905V122.091H174.979ZM174.077 127.155V128.987C173.75 129.12 173.404 129.238 173.04 129.342C172.675 129.442 172.292 129.52 171.889 129.577C171.487 129.634 171.068 129.662 170.632 129.662C169.283 129.662 168.21 129.333 167.415 128.675C166.619 128.012 166.222 126.999 166.222 125.635V122.07H168.288V125.635C168.288 126.151 168.383 126.57 168.573 126.892C168.762 127.214 169.032 127.451 169.382 127.602C169.733 127.754 170.149 127.83 170.632 127.83C171.271 127.83 171.861 127.77 172.401 127.652C172.945 127.529 173.504 127.363 174.077 127.155ZM184.797 126.629V128.469H178.888V126.629H184.797ZM179.485 122.091V133H177.404V122.091H179.485ZM186.282 122.091V133H184.208V122.091H186.282ZM190.803 130.024L195.612 122.091H197.899V133H195.818V125.06L191.031 133H188.722V122.091H190.803V130.024ZM199.001 123.923V122.091H208.205V123.923H204.647V133H202.573V123.923H199.001ZM214.245 133.22C213.17 133.22 212.245 132.991 211.468 132.531C210.697 132.067 210.1 131.416 209.679 130.578C209.262 129.735 209.054 128.748 209.054 127.616C209.054 126.499 209.262 125.514 209.679 124.662C210.1 123.81 210.687 123.144 211.44 122.666C212.197 122.188 213.083 121.949 214.096 121.949C214.712 121.949 215.308 122.051 215.886 122.254C216.464 122.458 216.982 122.777 217.441 123.213C217.901 123.649 218.263 124.214 218.528 124.911C218.793 125.602 218.926 126.442 218.926 127.432V128.185H210.254V126.594H216.845C216.845 126.035 216.731 125.54 216.504 125.109C216.277 124.674 215.957 124.33 215.545 124.08C215.138 123.829 214.66 123.703 214.11 123.703C213.514 123.703 212.993 123.85 212.548 124.143C212.107 124.432 211.767 124.811 211.525 125.28C211.288 125.744 211.17 126.248 211.17 126.793V128.036C211.17 128.765 211.298 129.385 211.554 129.896C211.814 130.408 212.176 130.798 212.64 131.068C213.104 131.333 213.646 131.466 214.267 131.466C214.669 131.466 215.036 131.409 215.367 131.295C215.699 131.177 215.985 131.002 216.227 130.77C216.468 130.538 216.653 130.251 216.781 129.911L218.791 130.273C218.63 130.865 218.341 131.383 217.924 131.828C217.512 132.268 216.994 132.612 216.369 132.858C215.749 133.099 215.041 133.22 214.245 133.22ZM232.749 122.091V123.923H227.87V133H225.775V122.091H232.749ZM238.787 133.22C237.713 133.22 236.787 132.991 236.01 132.531C235.239 132.067 234.642 131.416 234.221 130.578C233.804 129.735 233.596 128.748 233.596 127.616C233.596 126.499 233.804 125.514 234.221 124.662C234.642 123.81 235.229 123.144 235.982 122.666C236.74 122.188 237.625 121.949 238.638 121.949C239.254 121.949 239.85 122.051 240.428 122.254C241.006 122.458 241.524 122.777 241.983 123.213C242.443 123.649 242.805 124.214 243.07 124.911C243.335 125.602 243.468 126.442 243.468 127.432V128.185H234.796V126.594H241.387C241.387 126.035 241.273 125.54 241.046 125.109C240.819 124.674 240.499 124.33 240.087 124.08C239.68 123.829 239.202 123.703 238.653 123.703C238.056 123.703 237.535 123.85 237.09 124.143C236.65 124.432 236.309 124.811 236.067 125.28C235.831 125.744 235.712 126.248 235.712 126.793V128.036C235.712 128.765 235.84 129.385 236.096 129.896C236.356 130.408 236.718 130.798 237.182 131.068C237.646 131.333 238.189 131.466 238.809 131.466C239.211 131.466 239.578 131.409 239.91 131.295C240.241 131.177 240.528 131.002 240.769 130.77C241.01 130.538 241.195 130.251 241.323 129.911L243.333 130.273C243.172 130.865 242.883 131.383 242.466 131.828C242.055 132.268 241.536 132.612 240.911 132.858C240.291 133.099 239.583 133.22 238.787 133.22ZM252.818 126.629V128.469H246.908V126.629H252.818ZM247.505 122.091V133H245.424V122.091H247.505ZM254.302 122.091V133H252.228V122.091H254.302ZM261.445 133.22C260.37 133.22 259.444 132.991 258.668 132.531C257.896 132.067 257.299 131.416 256.878 130.578C256.461 129.735 256.253 128.748 256.253 127.616C256.253 126.499 256.461 125.514 256.878 124.662C257.299 123.81 257.886 123.144 258.639 122.666C259.397 122.188 260.282 121.949 261.295 121.949C261.911 121.949 262.507 122.051 263.085 122.254C263.663 122.458 264.181 122.777 264.641 123.213C265.1 123.649 265.462 124.214 265.727 124.911C265.992 125.602 266.125 126.442 266.125 127.432V128.185H257.453V126.594H264.044C264.044 126.035 263.93 125.54 263.703 125.109C263.476 124.674 263.156 124.33 262.744 124.08C262.337 123.829 261.859 123.703 261.31 123.703C260.713 123.703 260.192 123.85 259.747 124.143C259.307 124.432 258.966 124.811 258.724 125.28C258.488 125.744 258.369 126.248 258.369 126.793V128.036C258.369 128.765 258.497 129.385 258.753 129.896C259.013 130.408 259.375 130.798 259.839 131.068C260.303 131.333 260.846 131.466 261.466 131.466C261.868 131.466 262.235 131.409 262.567 131.295C262.898 131.177 263.185 131.002 263.426 130.77C263.668 130.538 263.852 130.251 263.98 129.911L265.99 130.273C265.829 130.865 265.54 131.383 265.123 131.828C264.712 132.268 264.193 132.612 263.568 132.858C262.948 133.099 262.24 133.22 261.445 133.22ZM268.081 137.091V122.091H270.155V123.859H270.332C270.456 123.632 270.633 123.369 270.865 123.071C271.097 122.773 271.419 122.512 271.831 122.29C272.243 122.062 272.788 121.949 273.465 121.949C274.345 121.949 275.131 122.171 275.823 122.616C276.514 123.062 277.056 123.703 277.449 124.541C277.847 125.379 278.046 126.388 278.046 127.567C278.046 128.746 277.849 129.757 277.456 130.599C277.063 131.437 276.523 132.084 275.837 132.538C275.15 132.988 274.367 133.213 273.486 133.213C272.823 133.213 272.281 133.102 271.859 132.879C271.443 132.657 271.116 132.396 270.879 132.098C270.643 131.8 270.46 131.535 270.332 131.303H270.205V137.091H268.081ZM270.162 127.545C270.162 128.312 270.273 128.985 270.496 129.562C270.718 130.14 271.04 130.592 271.462 130.919C271.883 131.241 272.399 131.402 273.01 131.402C273.645 131.402 274.175 131.234 274.601 130.898C275.027 130.557 275.349 130.095 275.567 129.513C275.789 128.93 275.901 128.275 275.901 127.545C275.901 126.826 275.792 126.179 275.574 125.607C275.361 125.034 275.039 124.581 274.608 124.25C274.182 123.919 273.649 123.753 273.01 123.753C272.395 123.753 271.874 123.911 271.448 124.229C271.026 124.546 270.707 124.989 270.489 125.557C270.271 126.125 270.162 126.788 270.162 127.545ZM282.106 130.024L286.914 122.091H289.201V133H287.12V125.06L282.333 133H280.025V122.091H282.106V130.024ZM291.656 137.091V122.091H293.73V123.859H293.907C294.031 123.632 294.208 123.369 294.44 123.071C294.672 122.773 294.994 122.512 295.406 122.29C295.818 122.062 296.363 121.949 297.04 121.949C297.92 121.949 298.706 122.171 299.398 122.616C300.089 123.062 300.631 123.703 301.024 124.541C301.422 125.379 301.621 126.388 301.621 127.567C301.621 128.746 301.424 129.757 301.031 130.599C300.638 131.437 300.098 132.084 299.412 132.538C298.725 132.988 297.942 133.213 297.061 133.213C296.398 133.213 295.856 133.102 295.434 132.879C295.018 132.657 294.691 132.396 294.454 132.098C294.218 131.8 294.035 131.535 293.907 131.303H293.78V137.091H291.656ZM293.737 127.545C293.737 128.312 293.848 128.985 294.071 129.562C294.293 130.14 294.615 130.592 295.037 130.919C295.458 131.241 295.974 131.402 296.585 131.402C297.22 131.402 297.75 131.234 298.176 130.898C298.602 130.557 298.924 130.095 299.142 129.513C299.364 128.93 299.476 128.275 299.476 127.545C299.476 126.826 299.367 126.179 299.149 125.607C298.936 125.034 298.614 124.581 298.183 124.25C297.757 123.919 297.224 123.753 296.585 123.753C295.97 123.753 295.449 123.911 295.023 124.229C294.601 124.546 294.282 124.989 294.064 125.557C293.846 126.125 293.737 126.788 293.737 127.545ZM308.195 133.22C307.172 133.22 306.28 132.986 305.517 132.517C304.755 132.048 304.163 131.393 303.742 130.55C303.32 129.707 303.11 128.722 303.11 127.595C303.11 126.464 303.32 125.474 303.742 124.626C304.163 123.779 304.755 123.121 305.517 122.652C306.28 122.183 307.172 121.949 308.195 121.949C309.218 121.949 310.11 122.183 310.873 122.652C311.635 123.121 312.227 123.779 312.648 124.626C313.07 125.474 313.28 126.464 313.28 127.595C313.28 128.722 313.07 129.707 312.648 130.55C312.227 131.393 311.635 132.048 310.873 132.517C310.11 132.986 309.218 133.22 308.195 133.22ZM308.202 131.438C308.865 131.438 309.414 131.262 309.85 130.912C310.285 130.562 310.607 130.095 310.816 129.513C311.029 128.93 311.135 128.289 311.135 127.588C311.135 126.892 311.029 126.253 310.816 125.67C310.607 125.083 310.285 124.612 309.85 124.257C309.414 123.902 308.865 123.724 308.202 123.724C307.534 123.724 306.981 123.902 306.54 124.257C306.105 124.612 305.78 125.083 305.567 125.67C305.359 126.253 305.255 126.892 305.255 127.588C305.255 128.289 305.359 128.93 305.567 129.513C305.78 130.095 306.105 130.562 306.54 130.912C306.981 131.262 307.534 131.438 308.202 131.438ZM315.251 133V122.091H319.775C321.006 122.091 321.981 122.354 322.701 122.879C323.421 123.4 323.78 124.108 323.78 125.003C323.78 125.642 323.577 126.149 323.17 126.523C322.762 126.897 322.223 127.148 321.55 127.276C322.038 127.332 322.485 127.479 322.893 127.716C323.3 127.948 323.627 128.26 323.873 128.653C324.124 129.046 324.249 129.515 324.249 130.06C324.249 130.637 324.1 131.149 323.802 131.594C323.503 132.034 323.07 132.38 322.502 132.631C321.939 132.877 321.259 133 320.464 133H315.251ZM317.246 131.224H320.464C320.989 131.224 321.401 131.099 321.699 130.848C321.998 130.597 322.147 130.256 322.147 129.825C322.147 129.319 321.998 128.921 321.699 128.632C321.401 128.339 320.989 128.192 320.464 128.192H317.246V131.224ZM317.246 126.636H319.796C320.194 126.636 320.535 126.58 320.819 126.466C321.108 126.352 321.328 126.191 321.479 125.983C321.636 125.77 321.714 125.519 321.714 125.23C321.714 124.809 321.541 124.48 321.195 124.243C320.85 124.006 320.376 123.888 319.775 123.888H317.246V126.636ZM329.353 133.241C328.662 133.241 328.037 133.114 327.478 132.858C326.92 132.598 326.477 132.221 326.15 131.729C325.828 131.236 325.667 130.633 325.667 129.918C325.667 129.302 325.786 128.795 326.022 128.398C326.259 128 326.579 127.685 326.981 127.453C327.384 127.221 327.834 127.046 328.331 126.928C328.828 126.809 329.335 126.719 329.851 126.658C330.504 126.582 331.034 126.52 331.442 126.473C331.849 126.421 332.145 126.338 332.329 126.224C332.514 126.111 332.606 125.926 332.606 125.67V125.621C332.606 125 332.431 124.52 332.081 124.179C331.735 123.838 331.219 123.668 330.532 123.668C329.817 123.668 329.254 123.826 328.842 124.143C328.435 124.456 328.153 124.804 327.997 125.188L326.001 124.733C326.238 124.07 326.584 123.535 327.038 123.128C327.497 122.716 328.025 122.418 328.622 122.233C329.219 122.044 329.846 121.949 330.504 121.949C330.94 121.949 331.401 122.001 331.889 122.105C332.381 122.205 332.841 122.389 333.267 122.659C333.698 122.929 334.05 123.315 334.325 123.817C334.6 124.314 334.737 124.96 334.737 125.756V133H332.663V131.509H332.578C332.441 131.783 332.235 132.053 331.96 132.318C331.685 132.583 331.333 132.804 330.902 132.979C330.471 133.154 329.955 133.241 329.353 133.241ZM329.815 131.537C330.402 131.537 330.904 131.421 331.321 131.189C331.742 130.957 332.062 130.654 332.28 130.28C332.502 129.901 332.613 129.496 332.613 129.065V127.659C332.538 127.735 332.391 127.806 332.173 127.872C331.96 127.934 331.716 127.988 331.442 128.036C331.167 128.078 330.899 128.118 330.639 128.156C330.379 128.189 330.161 128.218 329.986 128.241C329.574 128.294 329.197 128.381 328.856 128.504C328.52 128.627 328.25 128.805 328.047 129.037C327.848 129.264 327.748 129.567 327.748 129.946C327.748 130.472 327.942 130.869 328.331 131.139C328.719 131.404 329.214 131.537 329.815 131.537ZM335.812 123.923V122.091H345.017V123.923H341.459V133H339.385V123.923H335.812ZM348.461 125.841H351.629C352.964 125.841 353.991 126.172 354.711 126.835C355.431 127.498 355.791 128.353 355.791 129.399C355.791 130.081 355.63 130.694 355.308 131.239C354.986 131.783 354.515 132.214 353.894 132.531C353.274 132.844 352.519 133 351.629 133H346.863V122.091H348.944V131.168H351.629C352.24 131.168 352.741 131.009 353.134 130.692C353.527 130.37 353.724 129.96 353.724 129.463C353.724 128.937 353.527 128.509 353.134 128.178C352.741 127.841 352.24 127.673 351.629 127.673H348.461V125.841ZM367.26 133.22C366.204 133.22 365.295 132.981 364.533 132.503C363.775 132.02 363.193 131.355 362.785 130.507C362.378 129.66 362.175 128.689 362.175 127.595C362.175 126.487 362.383 125.509 362.8 124.662C363.216 123.81 363.803 123.144 364.561 122.666C365.319 122.188 366.211 121.949 367.239 121.949C368.067 121.949 368.806 122.103 369.454 122.411C370.103 122.714 370.626 123.14 371.024 123.689C371.427 124.238 371.666 124.88 371.741 125.614H369.675C369.561 125.102 369.301 124.662 368.893 124.293C368.491 123.923 367.951 123.739 367.274 123.739C366.682 123.739 366.164 123.895 365.719 124.207C365.278 124.515 364.935 124.955 364.689 125.528C364.443 126.097 364.32 126.769 364.32 127.545C364.32 128.341 364.44 129.027 364.682 129.605C364.923 130.183 365.264 130.63 365.704 130.947C366.15 131.265 366.673 131.423 367.274 131.423C367.677 131.423 368.041 131.35 368.368 131.203C368.699 131.052 368.976 130.836 369.199 130.557C369.426 130.277 369.585 129.941 369.675 129.548H371.741C371.666 130.254 371.436 130.884 371.052 131.438C370.669 131.991 370.155 132.427 369.511 132.744C368.872 133.062 368.122 133.22 367.26 133.22ZM382.511 122.091V131.26H384.109V136.516H382.014V133H373.612V122.091H375.693V131.168H380.438V122.091H382.511ZM390.648 133.22C389.574 133.22 388.648 132.991 387.871 132.531C387.1 132.067 386.503 131.416 386.082 130.578C385.665 129.735 385.457 128.748 385.457 127.616C385.457 126.499 385.665 125.514 386.082 124.662C386.503 123.81 387.09 123.144 387.843 122.666C388.601 122.188 389.486 121.949 390.499 121.949C391.115 121.949 391.711 122.051 392.289 122.254C392.867 122.458 393.385 122.777 393.844 123.213C394.304 123.649 394.666 124.214 394.931 124.911C395.196 125.602 395.329 126.442 395.329 127.432V128.185H386.657V126.594H393.248C393.248 126.035 393.134 125.54 392.907 125.109C392.68 124.674 392.36 124.33 391.948 124.08C391.541 123.829 391.063 123.703 390.513 123.703C389.917 123.703 389.396 123.85 388.951 124.143C388.511 124.432 388.17 124.811 387.928 125.28C387.692 125.744 387.573 126.248 387.573 126.793V128.036C387.573 128.765 387.701 129.385 387.957 129.896C388.217 130.408 388.579 130.798 389.043 131.068C389.507 131.333 390.049 131.466 390.67 131.466C391.072 131.466 391.439 131.409 391.771 131.295C392.102 131.177 392.388 131.002 392.63 130.77C392.871 130.538 393.056 130.251 393.184 129.911L395.194 130.273C395.033 130.865 394.744 131.383 394.327 131.828C393.915 132.268 393.397 132.612 392.772 132.858C392.152 133.099 391.444 133.22 390.648 133.22ZM404.678 126.629V128.469H398.769V126.629H404.678ZM399.366 122.091V133H397.285V122.091H399.366ZM406.163 122.091V133H404.089V122.091H406.163ZM411.778 133.241C411.087 133.241 410.462 133.114 409.903 132.858C409.345 132.598 408.902 132.221 408.575 131.729C408.253 131.236 408.092 130.633 408.092 129.918C408.092 129.302 408.211 128.795 408.447 128.398C408.684 128 409.004 127.685 409.406 127.453C409.809 127.221 410.259 127.046 410.756 126.928C411.253 126.809 411.76 126.719 412.276 126.658C412.929 126.582 413.459 126.52 413.867 126.473C414.274 126.421 414.57 126.338 414.754 126.224C414.939 126.111 415.031 125.926 415.031 125.67V125.621C415.031 125 414.856 124.52 414.506 124.179C414.16 123.838 413.644 123.668 412.957 123.668C412.242 123.668 411.679 123.826 411.267 124.143C410.86 124.456 410.578 124.804 410.422 125.188L408.426 124.733C408.663 124.07 409.009 123.535 409.463 123.128C409.922 122.716 410.45 122.418 411.047 122.233C411.644 122.044 412.271 121.949 412.929 121.949C413.365 121.949 413.826 122.001 414.314 122.105C414.806 122.205 415.266 122.389 415.692 122.659C416.123 122.929 416.475 123.315 416.75 123.817C417.025 124.314 417.162 124.96 417.162 125.756V133H415.088V131.509H415.003C414.866 131.783 414.66 132.053 414.385 132.318C414.11 132.583 413.758 132.804 413.327 132.979C412.896 133.154 412.38 133.241 411.778 133.241ZM412.24 131.537C412.827 131.537 413.329 131.421 413.746 131.189C414.167 130.957 414.487 130.654 414.705 130.28C414.927 129.901 415.038 129.496 415.038 129.065V127.659C414.963 127.735 414.816 127.806 414.598 127.872C414.385 127.934 414.141 127.988 413.867 128.036C413.592 128.078 413.324 128.118 413.064 128.156C412.804 128.189 412.586 128.218 412.411 128.241C411.999 128.294 411.622 128.381 411.281 128.504C410.945 128.627 410.675 128.805 410.472 129.037C410.273 129.264 410.173 129.567 410.173 129.946C410.173 130.472 410.367 130.869 410.756 131.139C411.144 131.404 411.639 131.537 412.24 131.537ZM419.59 137.091V122.091H421.664V123.859H421.842C421.965 123.632 422.143 123.369 422.375 123.071C422.607 122.773 422.929 122.512 423.34 122.29C423.752 122.062 424.297 121.949 424.974 121.949C425.855 121.949 426.641 122.171 427.332 122.616C428.023 123.062 428.565 123.703 428.958 124.541C429.356 125.379 429.555 126.388 429.555 127.567C429.555 128.746 429.358 129.757 428.965 130.599C428.572 131.437 428.033 132.084 427.346 132.538C426.66 132.988 425.876 133.213 424.995 133.213C424.332 133.213 423.79 133.102 423.369 132.879C422.952 132.657 422.625 132.396 422.389 132.098C422.152 131.8 421.97 131.535 421.842 131.303H421.714V137.091H419.59ZM421.671 127.545C421.671 128.312 421.783 128.985 422.005 129.562C422.228 130.14 422.55 130.592 422.971 130.919C423.393 131.241 423.909 131.402 424.519 131.402C425.154 131.402 425.684 131.234 426.11 130.898C426.536 130.557 426.858 130.095 427.076 129.513C427.299 128.93 427.41 128.275 427.41 127.545C427.41 126.826 427.301 126.179 427.083 125.607C426.87 125.034 426.548 124.581 426.117 124.25C425.691 123.919 425.159 123.753 424.519 123.753C423.904 123.753 423.383 123.911 422.957 124.229C422.536 124.546 422.216 124.989 421.998 125.557C421.78 126.125 421.671 126.788 421.671 127.545ZM433.615 130.024L438.423 122.091H440.71V133H438.629V125.06L433.842 133H431.534V122.091H433.615V130.024ZM445.246 130.024L450.055 122.091H452.342V133H450.261V125.06L445.474 133H443.165V122.091H445.246V130.024ZM459.69 133V122.091H464.214C465.445 122.091 466.42 122.354 467.14 122.879C467.86 123.4 468.22 124.108 468.22 125.003C468.22 125.642 468.016 126.149 467.609 126.523C467.202 126.897 466.662 127.148 465.989 127.276C466.477 127.332 466.925 127.479 467.332 127.716C467.739 127.948 468.066 128.26 468.312 128.653C468.563 129.046 468.688 129.515 468.688 130.06C468.688 130.637 468.539 131.149 468.241 131.594C467.943 132.034 467.509 132.38 466.941 132.631C466.378 132.877 465.698 133 464.903 133H459.69ZM461.685 131.224H464.903C465.428 131.224 465.84 131.099 466.139 130.848C466.437 130.597 466.586 130.256 466.586 129.825C466.586 129.319 466.437 128.921 466.139 128.632C465.84 128.339 465.428 128.192 464.903 128.192H461.685V131.224ZM461.685 126.636H464.235C464.633 126.636 464.974 126.58 465.258 126.466C465.547 126.352 465.767 126.191 465.918 125.983C466.075 125.77 466.153 125.519 466.153 125.23C466.153 124.809 465.98 124.48 465.634 124.243C465.289 124.006 464.815 123.888 464.214 123.888H461.685V126.636ZM476.74 130.372L480.263 122.091H482.095L477.528 133H475.952L471.477 122.091H473.288L476.74 130.372ZM472.699 122.091V133H470.618V122.091H472.699ZM480.838 133V122.091H482.905V133H480.838ZM490.037 133.22C488.962 133.22 488.036 132.991 487.26 132.531C486.488 132.067 485.891 131.416 485.47 130.578C485.053 129.735 484.845 128.748 484.845 127.616C484.845 126.499 485.053 125.514 485.47 124.662C485.891 123.81 486.478 123.144 487.231 122.666C487.989 122.188 488.874 121.949 489.888 121.949C490.503 121.949 491.1 122.051 491.677 122.254C492.255 122.458 492.773 122.777 493.233 123.213C493.692 123.649 494.054 124.214 494.319 124.911C494.585 125.602 494.717 126.442 494.717 127.432V128.185H486.045V126.594H492.636C492.636 126.035 492.522 125.54 492.295 125.109C492.068 124.674 491.748 124.33 491.336 124.08C490.929 123.829 490.451 123.703 489.902 123.703C489.305 123.703 488.784 123.85 488.339 124.143C487.899 124.432 487.558 124.811 487.317 125.28C487.08 125.744 486.961 126.248 486.961 126.793V128.036C486.961 128.765 487.089 129.385 487.345 129.896C487.605 130.408 487.968 130.798 488.432 131.068C488.896 131.333 489.438 131.466 490.058 131.466C490.46 131.466 490.827 131.409 491.159 131.295C491.49 131.177 491.777 131.002 492.018 130.77C492.26 130.538 492.444 130.251 492.572 129.911L494.582 130.273C494.421 130.865 494.132 131.383 493.716 131.828C493.304 132.268 492.785 132.612 492.16 132.858C491.54 133.099 490.832 133.22 490.037 133.22ZM501.268 133.22C500.213 133.22 499.303 132.981 498.541 132.503C497.784 132.02 497.201 131.355 496.794 130.507C496.387 129.66 496.183 128.689 496.183 127.595C496.183 126.487 496.392 125.509 496.808 124.662C497.225 123.81 497.812 123.144 498.57 122.666C499.327 122.188 500.22 121.949 501.247 121.949C502.076 121.949 502.814 122.103 503.463 122.411C504.112 122.714 504.635 123.14 505.033 123.689C505.435 124.238 505.674 124.88 505.75 125.614H503.683C503.57 125.102 503.309 124.662 502.902 124.293C502.499 123.923 501.96 123.739 501.283 123.739C500.691 123.739 500.172 123.895 499.727 124.207C499.287 124.515 498.944 124.955 498.697 125.528C498.451 126.097 498.328 126.769 498.328 127.545C498.328 128.341 498.449 129.027 498.69 129.605C498.932 130.183 499.273 130.63 499.713 130.947C500.158 131.265 500.681 131.423 501.283 131.423C501.685 131.423 502.05 131.35 502.376 131.203C502.708 131.052 502.985 130.836 503.207 130.557C503.435 130.277 503.593 129.941 503.683 129.548H505.75C505.674 130.254 505.445 130.884 505.061 131.438C504.678 131.991 504.164 132.427 503.52 132.744C502.881 133.062 502.13 133.22 501.268 133.22ZM506.795 123.923V122.091H516V123.923H512.442V133H510.368V123.923H506.795ZM522.04 133.22C520.965 133.22 520.039 132.991 519.263 132.531C518.491 132.067 517.894 131.416 517.473 130.578C517.056 129.735 516.848 128.748 516.848 127.616C516.848 126.499 517.056 125.514 517.473 124.662C517.894 123.81 518.482 123.144 519.234 122.666C519.992 122.188 520.877 121.949 521.891 121.949C522.506 121.949 523.103 122.051 523.68 122.254C524.258 122.458 524.777 122.777 525.236 123.213C525.695 123.649 526.057 124.214 526.322 124.911C526.588 125.602 526.72 126.442 526.72 127.432V128.185H518.048V126.594H524.639C524.639 126.035 524.526 125.54 524.298 125.109C524.071 124.674 523.751 124.33 523.34 124.08C522.932 123.829 522.454 123.703 521.905 123.703C521.308 123.703 520.787 123.85 520.342 124.143C519.902 124.432 519.561 124.811 519.32 125.28C519.083 125.744 518.965 126.248 518.965 126.793V128.036C518.965 128.765 519.092 129.385 519.348 129.896C519.608 130.408 519.971 130.798 520.435 131.068C520.899 131.333 521.441 131.466 522.061 131.466C522.464 131.466 522.831 131.409 523.162 131.295C523.493 131.177 523.78 131.002 524.021 130.77C524.263 130.538 524.447 130.251 524.575 129.911L526.585 130.273C526.424 130.865 526.135 131.383 525.719 131.828C525.307 132.268 524.788 132.612 524.163 132.858C523.543 133.099 522.835 133.22 522.04 133.22ZM538.165 133.22C537.109 133.22 536.2 132.981 535.437 132.503C534.68 132.02 534.097 131.355 533.69 130.507C533.283 129.66 533.079 128.689 533.079 127.595C533.079 126.487 533.288 125.509 533.704 124.662C534.121 123.81 534.708 123.144 535.466 122.666C536.223 122.188 537.116 121.949 538.143 121.949C538.972 121.949 539.71 122.103 540.359 122.411C541.008 122.714 541.531 123.14 541.929 123.689C542.331 124.238 542.57 124.88 542.646 125.614H540.579C540.466 125.102 540.205 124.662 539.798 124.293C539.396 123.923 538.856 123.739 538.179 123.739C537.587 123.739 537.068 123.895 536.623 124.207C536.183 124.515 535.84 124.955 535.594 125.528C535.347 126.097 535.224 126.769 535.224 127.545C535.224 128.341 535.345 129.027 535.586 129.605C535.828 130.183 536.169 130.63 536.609 130.947C537.054 131.265 537.577 131.423 538.179 131.423C538.581 131.423 538.946 131.35 539.272 131.203C539.604 131.052 539.881 130.836 540.103 130.557C540.331 130.277 540.489 129.941 540.579 129.548H542.646C542.57 130.254 542.341 130.884 541.957 131.438C541.574 131.991 541.06 132.427 540.416 132.744C539.777 133.062 539.026 133.22 538.165 133.22ZM556.803 126.629V128.469H550.894V126.629H556.803ZM551.491 122.091V133H549.41V122.091H551.491ZM558.288 122.091V133H556.214V122.091H558.288ZM563.903 133.241C563.212 133.241 562.587 133.114 562.028 132.858C561.47 132.598 561.027 132.221 560.7 131.729C560.378 131.236 560.217 130.633 560.217 129.918C560.217 129.302 560.336 128.795 560.572 128.398C560.809 128 561.129 127.685 561.531 127.453C561.934 127.221 562.384 127.046 562.881 126.928C563.378 126.809 563.885 126.719 564.401 126.658C565.054 126.582 565.584 126.52 565.992 126.473C566.399 126.421 566.695 126.338 566.879 126.224C567.064 126.111 567.156 125.926 567.156 125.67V125.621C567.156 125 566.981 124.52 566.631 124.179C566.285 123.838 565.769 123.668 565.082 123.668C564.367 123.668 563.804 123.826 563.392 124.143C562.985 124.456 562.703 124.804 562.547 125.188L560.551 124.733C560.788 124.07 561.134 123.535 561.588 123.128C562.047 122.716 562.575 122.418 563.172 122.233C563.769 122.044 564.396 121.949 565.054 121.949C565.49 121.949 565.951 122.001 566.439 122.105C566.931 122.205 567.391 122.389 567.817 122.659C568.248 122.929 568.6 123.315 568.875 123.817C569.15 124.314 569.287 124.96 569.287 125.756V133H567.213V131.509H567.128C566.991 131.783 566.785 132.053 566.51 132.318C566.235 132.583 565.883 132.804 565.452 132.979C565.021 133.154 564.505 133.241 563.903 133.241ZM564.365 131.537C564.952 131.537 565.454 131.421 565.871 131.189C566.292 130.957 566.612 130.654 566.83 130.28C567.052 129.901 567.163 129.496 567.163 129.065V127.659C567.088 127.735 566.941 127.806 566.723 127.872C566.51 127.934 566.266 127.988 565.992 128.036C565.717 128.078 565.449 128.118 565.189 128.156C564.929 128.189 564.711 128.218 564.536 128.241C564.124 128.294 563.747 128.381 563.406 128.504C563.07 128.627 562.8 128.805 562.597 129.037C562.398 129.264 562.298 129.567 562.298 129.946C562.298 130.472 562.492 130.869 562.881 131.139C563.269 131.404 563.764 131.537 564.365 131.537ZM577.838 130.372L581.36 122.091H583.193L578.626 133H577.049L572.575 122.091H574.386L577.838 130.372ZM573.796 122.091V133H571.715V122.091H573.796ZM581.936 133V122.091H584.002V133H581.936ZM588.514 130.024L593.322 122.091H595.609V133H593.528V125.06L588.741 133H586.433V122.091H588.514V130.024ZM159.758 158.024L164.566 150.091H166.853V161H164.772V153.06L159.985 161H157.677V150.091H159.758V158.024ZM174.201 161V150.091H183.1V161H181.019V151.923H176.268V161H174.201ZM190.134 161.22C189.112 161.22 188.219 160.986 187.457 160.517C186.695 160.048 186.103 159.393 185.681 158.55C185.26 157.707 185.049 156.722 185.049 155.595C185.049 154.464 185.26 153.474 185.681 152.626C186.103 151.779 186.695 151.121 187.457 150.652C188.219 150.183 189.112 149.949 190.134 149.949C191.157 149.949 192.05 150.183 192.812 150.652C193.574 151.121 194.166 151.779 194.588 152.626C195.009 153.474 195.22 154.464 195.22 155.595C195.22 156.722 195.009 157.707 194.588 158.55C194.166 159.393 193.574 160.048 192.812 160.517C192.05 160.986 191.157 161.22 190.134 161.22ZM190.142 159.438C190.804 159.438 191.354 159.262 191.789 158.912C192.225 158.562 192.547 158.095 192.755 157.513C192.968 156.93 193.075 156.289 193.075 155.588C193.075 154.892 192.968 154.253 192.755 153.67C192.547 153.083 192.225 152.612 191.789 152.257C191.354 151.902 190.804 151.724 190.142 151.724C189.474 151.724 188.92 151.902 188.48 152.257C188.044 152.612 187.72 153.083 187.507 153.67C187.298 154.253 187.194 154.892 187.194 155.588C187.194 156.289 187.298 156.93 187.507 157.513C187.72 158.095 188.044 158.562 188.48 158.912C188.92 159.262 189.474 159.438 190.142 159.438ZM196.331 161L196.324 159.161H196.714C197.017 159.161 197.271 159.097 197.474 158.969C197.682 158.836 197.853 158.614 197.986 158.301C198.118 157.989 198.22 157.558 198.291 157.009C198.362 156.455 198.414 155.759 198.447 154.92L198.639 150.091H206.253V161H204.172V151.923H200.606L200.436 155.631C200.393 156.53 200.301 157.316 200.159 157.989C200.022 158.661 199.82 159.222 199.555 159.672C199.29 160.117 198.949 160.451 198.532 160.673C198.116 160.891 197.609 161 197.013 161H196.331ZM209.636 165.091C209.319 165.091 209.03 165.065 208.77 165.013C208.509 164.965 208.315 164.913 208.187 164.857L208.699 163.116C209.087 163.221 209.433 163.266 209.736 163.251C210.039 163.237 210.306 163.124 210.538 162.911C210.775 162.697 210.983 162.349 211.163 161.866L211.426 161.142L207.435 150.091H209.707L212.47 158.557H212.584L215.347 150.091H217.626L213.131 162.456C212.922 163.024 212.657 163.505 212.335 163.898C212.013 164.295 211.63 164.594 211.185 164.793C210.74 164.991 210.223 165.091 209.636 165.091ZM227.667 150.091V161H225.593V150.091H227.667ZM226.765 155.155V156.987C226.438 157.12 226.092 157.238 225.728 157.342C225.363 157.442 224.98 157.52 224.577 157.577C224.175 157.634 223.756 157.662 223.32 157.662C221.971 157.662 220.898 157.333 220.103 156.675C219.307 156.012 218.91 154.999 218.91 153.635V150.07H220.976V153.635C220.976 154.151 221.071 154.57 221.26 154.892C221.45 155.214 221.72 155.451 222.07 155.602C222.42 155.754 222.837 155.83 223.32 155.83C223.959 155.83 224.549 155.77 225.089 155.652C225.633 155.529 226.192 155.363 226.765 155.155ZM232.173 158.024L236.981 150.091H239.268V161H237.187V153.06L232.4 161H230.092V150.091H232.173V158.024ZM240.37 151.923V150.091H249.574V151.923H246.016V161H243.942V151.923H240.37ZM255.614 161.22C254.54 161.22 253.614 160.991 252.837 160.531C252.066 160.067 251.469 159.416 251.048 158.578C250.631 157.735 250.423 156.748 250.423 155.616C250.423 154.499 250.631 153.514 251.048 152.662C251.469 151.81 252.056 151.144 252.809 150.666C253.567 150.188 254.452 149.949 255.465 149.949C256.081 149.949 256.677 150.051 257.255 150.254C257.833 150.458 258.351 150.777 258.81 151.213C259.27 151.649 259.632 152.214 259.897 152.911C260.162 153.602 260.295 154.442 260.295 155.432V156.185H251.623V154.594H258.214C258.214 154.035 258.1 153.54 257.873 153.109C257.646 152.674 257.326 152.33 256.914 152.08C256.507 151.829 256.029 151.703 255.479 151.703C254.883 151.703 254.362 151.85 253.917 152.143C253.477 152.432 253.136 152.811 252.894 153.28C252.658 153.744 252.539 154.248 252.539 154.793V156.036C252.539 156.765 252.667 157.385 252.923 157.896C253.183 158.408 253.545 158.798 254.009 159.068C254.473 159.333 255.015 159.466 255.636 159.466C256.038 159.466 256.405 159.409 256.737 159.295C257.068 159.177 257.354 159.002 257.596 158.77C257.837 158.538 258.022 158.251 258.15 157.911L260.16 158.273C259.999 158.865 259.71 159.383 259.293 159.828C258.881 160.268 258.363 160.612 257.738 160.858C257.118 161.099 256.41 161.22 255.614 161.22ZM267.144 161V150.091H271.668C272.899 150.091 273.875 150.354 274.594 150.879C275.314 151.4 275.674 152.108 275.674 153.003C275.674 153.642 275.47 154.149 275.063 154.523C274.656 154.897 274.116 155.148 273.444 155.276C273.931 155.332 274.379 155.479 274.786 155.716C275.193 155.948 275.52 156.26 275.766 156.653C276.017 157.046 276.143 157.515 276.143 158.06C276.143 158.637 275.993 159.149 275.695 159.594C275.397 160.034 274.964 160.38 274.395 160.631C273.832 160.877 273.152 161 272.357 161H267.144ZM269.14 159.224H272.357C272.883 159.224 273.295 159.099 273.593 158.848C273.891 158.597 274.04 158.256 274.04 157.825C274.04 157.319 273.891 156.921 273.593 156.632C273.295 156.339 272.883 156.192 272.357 156.192H269.14V159.224ZM269.14 154.636H271.689C272.087 154.636 272.428 154.58 272.712 154.466C273.001 154.352 273.221 154.191 273.373 153.983C273.529 153.77 273.607 153.519 273.607 153.23C273.607 152.809 273.434 152.48 273.089 152.243C272.743 152.006 272.269 151.888 271.668 151.888H269.14V154.636ZM282.965 161V150.091H291.864V161H289.783V151.923H285.032V161H282.965ZM298.899 161.22C297.876 161.22 296.983 160.986 296.221 160.517C295.459 160.048 294.867 159.393 294.445 158.55C294.024 157.707 293.813 156.722 293.813 155.595C293.813 154.464 294.024 153.474 294.445 152.626C294.867 151.779 295.459 151.121 296.221 150.652C296.983 150.183 297.876 149.949 298.899 149.949C299.921 149.949 300.814 150.183 301.576 150.652C302.338 151.121 302.93 151.779 303.352 152.626C303.773 153.474 303.984 154.464 303.984 155.595C303.984 156.722 303.773 157.707 303.352 158.55C302.93 159.393 302.338 160.048 301.576 160.517C300.814 160.986 299.921 161.22 298.899 161.22ZM298.906 159.438C299.568 159.438 300.118 159.262 300.553 158.912C300.989 158.562 301.311 158.095 301.519 157.513C301.732 156.93 301.839 156.289 301.839 155.588C301.839 154.892 301.732 154.253 301.519 153.67C301.311 153.083 300.989 152.612 300.553 152.257C300.118 151.902 299.568 151.724 298.906 151.724C298.238 151.724 297.684 151.902 297.244 152.257C296.808 152.612 296.484 153.083 296.271 153.67C296.062 154.253 295.958 154.892 295.958 155.588C295.958 156.289 296.062 156.93 296.271 157.513C296.484 158.095 296.808 158.562 297.244 158.912C297.684 159.262 298.238 159.438 298.906 159.438ZM304.889 164.146V159.161H305.777C306.004 158.952 306.196 158.704 306.352 158.415C306.513 158.126 306.648 157.783 306.757 157.385C306.87 156.987 306.965 156.523 307.041 155.993C307.117 155.458 307.183 154.847 307.24 154.161L307.581 150.091H314.995V159.161H316.671V164.146H314.598V161H306.991V164.146H304.889ZM308.049 159.161H312.921V151.909H309.484L309.257 154.161C309.148 155.306 309.01 156.301 308.845 157.143C308.679 157.982 308.414 158.654 308.049 159.161ZM321.522 161.241C320.831 161.241 320.206 161.114 319.647 160.858C319.088 160.598 318.645 160.221 318.319 159.729C317.997 159.236 317.836 158.633 317.836 157.918C317.836 157.302 317.954 156.795 318.191 156.398C318.428 156 318.747 155.685 319.15 155.453C319.552 155.221 320.002 155.046 320.499 154.928C320.996 154.809 321.503 154.719 322.019 154.658C322.672 154.582 323.203 154.52 323.61 154.473C324.017 154.421 324.313 154.338 324.498 154.224C324.682 154.111 324.775 153.926 324.775 153.67V153.621C324.775 153 324.599 152.52 324.249 152.179C323.903 151.838 323.387 151.668 322.701 151.668C321.986 151.668 321.422 151.826 321.01 152.143C320.603 152.456 320.322 152.804 320.165 153.188L318.17 152.733C318.406 152.07 318.752 151.535 319.206 151.128C319.666 150.716 320.194 150.418 320.79 150.233C321.387 150.044 322.014 149.949 322.672 149.949C323.108 149.949 323.57 150.001 324.057 150.105C324.55 150.205 325.009 150.389 325.435 150.659C325.866 150.929 326.219 151.315 326.493 151.817C326.768 152.314 326.905 152.96 326.905 153.756V161H324.831V159.509H324.746C324.609 159.783 324.403 160.053 324.128 160.318C323.854 160.583 323.501 160.804 323.07 160.979C322.639 161.154 322.123 161.241 321.522 161.241ZM321.983 159.537C322.571 159.537 323.072 159.421 323.489 159.189C323.911 158.957 324.23 158.654 324.448 158.28C324.67 157.901 324.782 157.496 324.782 157.065V155.659C324.706 155.735 324.559 155.806 324.341 155.872C324.128 155.934 323.885 155.988 323.61 156.036C323.335 156.078 323.068 156.118 322.807 156.156C322.547 156.189 322.329 156.218 322.154 156.241C321.742 156.294 321.366 156.381 321.025 156.504C320.688 156.627 320.419 156.805 320.215 157.037C320.016 157.264 319.917 157.567 319.917 157.946C319.917 158.472 320.111 158.869 320.499 159.139C320.887 159.404 321.382 159.537 321.983 159.537ZM329.334 165.091V150.091H331.408V151.859H331.585C331.708 151.632 331.886 151.369 332.118 151.071C332.35 150.773 332.672 150.512 333.084 150.29C333.496 150.062 334.04 149.949 334.717 149.949C335.598 149.949 336.384 150.171 337.075 150.616C337.767 151.062 338.309 151.703 338.702 152.541C339.099 153.379 339.298 154.388 339.298 155.567C339.298 156.746 339.102 157.757 338.709 158.599C338.316 159.437 337.776 160.084 337.089 160.538C336.403 160.988 335.619 161.213 334.739 161.213C334.076 161.213 333.534 161.102 333.112 160.879C332.696 160.657 332.369 160.396 332.132 160.098C331.895 159.8 331.713 159.535 331.585 159.303H331.457V165.091H329.334ZM331.415 155.545C331.415 156.312 331.526 156.985 331.749 157.562C331.971 158.14 332.293 158.592 332.714 158.919C333.136 159.241 333.652 159.402 334.263 159.402C334.897 159.402 335.428 159.234 335.854 158.898C336.28 158.557 336.602 158.095 336.82 157.513C337.042 156.93 337.153 156.275 337.153 155.545C337.153 154.826 337.045 154.179 336.827 153.607C336.614 153.034 336.292 152.581 335.861 152.25C335.435 151.919 334.902 151.753 334.263 151.753C333.647 151.753 333.126 151.911 332.7 152.229C332.279 152.546 331.959 152.989 331.741 153.557C331.524 154.125 331.415 154.788 331.415 155.545ZM345.873 161.22C344.85 161.22 343.957 160.986 343.195 160.517C342.433 160.048 341.841 159.393 341.42 158.55C340.998 157.707 340.788 156.722 340.788 155.595C340.788 154.464 340.998 153.474 341.42 152.626C341.841 151.779 342.433 151.121 343.195 150.652C343.957 150.183 344.85 149.949 345.873 149.949C346.895 149.949 347.788 150.183 348.55 150.652C349.313 151.121 349.904 151.779 350.326 152.626C350.747 153.474 350.958 154.464 350.958 155.595C350.958 156.722 350.747 157.707 350.326 158.55C349.904 159.393 349.313 160.048 348.55 160.517C347.788 160.986 346.895 161.22 345.873 161.22ZM345.88 159.438C346.543 159.438 347.092 159.262 347.528 158.912C347.963 158.562 348.285 158.095 348.493 157.513C348.707 156.93 348.813 156.289 348.813 155.588C348.813 154.892 348.707 154.253 348.493 153.67C348.285 153.083 347.963 152.612 347.528 152.257C347.092 151.902 346.543 151.724 345.88 151.724C345.212 151.724 344.658 151.902 344.218 152.257C343.782 152.612 343.458 153.083 343.245 153.67C343.037 154.253 342.932 154.892 342.932 155.588C342.932 156.289 343.037 156.93 343.245 157.513C343.458 158.095 343.782 158.562 344.218 158.912C344.658 159.262 345.212 159.438 345.88 159.438ZM352.928 161V150.091H355.052V154.665H356.075L359.675 150.091H362.303L358.077 155.396L362.353 161H359.718L356.43 156.639H355.052V161H352.928ZM375.47 150.091V151.923H370.591V161H368.496V150.091H375.47ZM379.981 161.241C379.29 161.241 378.665 161.114 378.106 160.858C377.547 160.598 377.105 160.221 376.778 159.729C376.456 159.236 376.295 158.633 376.295 157.918C376.295 157.302 376.413 156.795 376.65 156.398C376.887 156 377.207 155.685 377.609 155.453C378.011 155.221 378.461 155.046 378.958 154.928C379.456 154.809 379.962 154.719 380.478 154.658C381.132 154.582 381.662 154.52 382.069 154.473C382.476 154.421 382.772 154.338 382.957 154.224C383.142 154.111 383.234 153.926 383.234 153.67V153.621C383.234 153 383.059 152.52 382.708 152.179C382.363 151.838 381.847 151.668 381.16 151.668C380.445 151.668 379.882 151.826 379.47 152.143C379.063 152.456 378.781 152.804 378.625 153.188L376.629 152.733C376.866 152.07 377.211 151.535 377.666 151.128C378.125 150.716 378.653 150.418 379.25 150.233C379.846 150.044 380.474 149.949 381.132 149.949C381.567 149.949 382.029 150.001 382.517 150.105C383.009 150.205 383.468 150.389 383.895 150.659C384.325 150.929 384.678 151.315 384.953 151.817C385.227 152.314 385.365 152.96 385.365 153.756V161H383.291V159.509H383.206C383.068 159.783 382.862 160.053 382.588 160.318C382.313 160.583 381.96 160.804 381.529 160.979C381.099 161.154 380.583 161.241 379.981 161.241ZM380.443 159.537C381.03 159.537 381.532 159.421 381.949 159.189C382.37 158.957 382.69 158.654 382.907 158.28C383.13 157.901 383.241 157.496 383.241 157.065V155.659C383.165 155.735 383.019 155.806 382.801 155.872C382.588 155.934 382.344 155.988 382.069 156.036C381.795 156.078 381.527 156.118 381.267 156.156C381.006 156.189 380.788 156.218 380.613 156.241C380.201 156.294 379.825 156.381 379.484 156.504C379.148 156.627 378.878 156.805 378.674 157.037C378.475 157.264 378.376 157.567 378.376 157.946C378.376 158.472 378.57 158.869 378.958 159.139C379.347 159.404 379.842 159.537 380.443 159.537ZM389.874 158.024L394.682 150.091H396.969V161H394.888V153.06L390.101 161H387.793V150.091H389.874V158.024ZM393.773 146.398H395.52C395.52 147.198 395.236 147.849 394.668 148.351C394.105 148.848 393.342 149.097 392.381 149.097C391.425 149.097 390.665 148.848 390.101 148.351C389.538 147.849 389.256 147.198 389.256 146.398H390.996C390.996 146.753 391.1 147.068 391.309 147.342C391.517 147.612 391.875 147.747 392.381 147.747C392.878 147.747 393.234 147.612 393.447 147.342C393.664 147.072 393.773 146.758 393.773 146.398ZM398.359 164.146V159.161H399.247C399.474 158.952 399.666 158.704 399.822 158.415C399.983 158.126 400.118 157.783 400.227 157.385C400.341 156.987 400.435 156.523 400.511 155.993C400.587 155.458 400.653 154.847 400.71 154.161L401.051 150.091H408.466V159.161H410.142V164.146H408.068V161H400.461V164.146H398.359ZM401.52 159.161H406.392V151.909H402.954L402.727 154.161C402.618 155.306 402.481 156.301 402.315 157.143C402.149 157.982 401.884 158.654 401.52 159.161ZM416.71 161V150.091H425.61V161H423.529V151.923H418.777V161H416.71ZM432.644 161.22C431.621 161.22 430.729 160.986 429.966 160.517C429.204 160.048 428.612 159.393 428.191 158.55C427.769 157.707 427.559 156.722 427.559 155.595C427.559 154.464 427.769 153.474 428.191 152.626C428.612 151.779 429.204 151.121 429.966 150.652C430.729 150.183 431.621 149.949 432.644 149.949C433.667 149.949 434.559 150.183 435.321 150.652C436.084 151.121 436.676 151.779 437.097 152.626C437.518 153.474 437.729 154.464 437.729 155.595C437.729 156.722 437.518 157.707 437.097 158.55C436.676 159.393 436.084 160.048 435.321 160.517C434.559 160.986 433.667 161.22 432.644 161.22ZM432.651 159.438C433.314 159.438 433.863 159.262 434.299 158.912C434.734 158.562 435.056 158.095 435.265 157.513C435.478 156.93 435.584 156.289 435.584 155.588C435.584 154.892 435.478 154.253 435.265 153.67C435.056 153.083 434.734 152.612 434.299 152.257C433.863 151.902 433.314 151.724 432.651 151.724C431.983 151.724 431.429 151.902 430.989 152.257C430.553 152.612 430.229 153.083 430.016 153.67C429.808 154.253 429.703 154.892 429.703 155.588C429.703 156.289 429.808 156.93 430.016 157.513C430.229 158.095 430.553 158.562 430.989 158.912C431.429 159.262 431.983 159.438 432.651 159.438ZM444.592 161V150.091H453.492V161H451.411V151.923H446.659V161H444.592ZM455.931 165.091V150.091H458.005V151.859H458.182C458.305 151.632 458.483 151.369 458.715 151.071C458.947 150.773 459.269 150.512 459.681 150.29C460.093 150.062 460.637 149.949 461.314 149.949C462.195 149.949 462.981 150.171 463.672 150.616C464.363 151.062 464.906 151.703 465.299 152.541C465.696 153.379 465.895 154.388 465.895 155.567C465.895 156.746 465.699 157.757 465.306 158.599C464.913 159.437 464.373 160.084 463.686 160.538C463 160.988 462.216 161.213 461.335 161.213C460.673 161.213 460.13 161.102 459.709 160.879C459.292 160.657 458.966 160.396 458.729 160.098C458.492 159.8 458.31 159.535 458.182 159.303H458.054V165.091H455.931ZM458.012 155.545C458.012 156.312 458.123 156.985 458.345 157.562C458.568 158.14 458.89 158.592 459.311 158.919C459.733 159.241 460.249 159.402 460.86 159.402C461.494 159.402 462.024 159.234 462.451 158.898C462.877 158.557 463.199 158.095 463.416 157.513C463.639 156.93 463.75 156.275 463.75 155.545C463.75 154.826 463.641 154.179 463.424 153.607C463.21 153.034 462.889 152.581 462.458 152.25C462.032 151.919 461.499 151.753 460.86 151.753C460.244 151.753 459.723 151.911 459.297 152.229C458.876 152.546 458.556 152.989 458.338 153.557C458.121 154.125 458.012 154.788 458.012 155.545ZM472.47 161.22C471.447 161.22 470.554 160.986 469.792 160.517C469.03 160.048 468.438 159.393 468.017 158.55C467.595 157.707 467.384 156.722 467.384 155.595C467.384 154.464 467.595 153.474 468.017 152.626C468.438 151.779 469.03 151.121 469.792 150.652C470.554 150.183 471.447 149.949 472.47 149.949C473.492 149.949 474.385 150.183 475.147 150.652C475.909 151.121 476.501 151.779 476.923 152.626C477.344 153.474 477.555 154.464 477.555 155.595C477.555 156.722 477.344 157.707 476.923 158.55C476.501 159.393 475.909 160.048 475.147 160.517C474.385 160.986 473.492 161.22 472.47 161.22ZM472.477 159.438C473.14 159.438 473.689 159.262 474.124 158.912C474.56 158.562 474.882 158.095 475.09 157.513C475.303 156.93 475.41 156.289 475.41 155.588C475.41 154.892 475.303 154.253 475.09 153.67C474.882 153.083 474.56 152.612 474.124 152.257C473.689 151.902 473.14 151.724 472.477 151.724C471.809 151.724 471.255 151.902 470.815 152.257C470.379 152.612 470.055 153.083 469.842 153.67C469.633 154.253 469.529 154.892 469.529 155.588C469.529 156.289 469.633 156.93 469.842 157.513C470.055 158.095 470.379 158.562 470.815 158.912C471.255 159.262 471.809 159.438 472.477 159.438ZM478.46 164.146V159.161H479.348C479.575 158.952 479.767 158.704 479.923 158.415C480.084 158.126 480.219 157.783 480.328 157.385C480.441 156.987 480.536 156.523 480.612 155.993C480.688 155.458 480.754 154.847 480.811 154.161L481.152 150.091H488.566V159.161H490.243V164.146H488.169V161H480.562V164.146H478.46ZM481.62 159.161H486.493V151.909H483.055L482.828 154.161C482.719 155.306 482.582 156.301 482.416 157.143C482.25 157.982 481.985 158.654 481.62 159.161ZM491.918 161V150.091H496.442C497.673 150.091 498.649 150.354 499.368 150.879C500.088 151.4 500.448 152.108 500.448 153.003C500.448 153.642 500.244 154.149 499.837 154.523C499.43 154.897 498.89 155.148 498.218 155.276C498.706 155.332 499.153 155.479 499.56 155.716C499.967 155.948 500.294 156.26 500.54 156.653C500.791 157.046 500.917 157.515 500.917 158.06C500.917 158.637 500.768 159.149 500.469 159.594C500.171 160.034 499.738 160.38 499.17 160.631C498.606 160.877 497.927 161 497.131 161H491.918ZM493.914 159.224H497.131C497.657 159.224 498.069 159.099 498.367 158.848C498.665 158.597 498.814 158.256 498.814 157.825C498.814 157.319 498.665 156.921 498.367 156.632C498.069 156.339 497.657 156.192 497.131 156.192H493.914V159.224ZM493.914 154.636H496.464C496.861 154.636 497.202 154.58 497.486 154.466C497.775 154.352 497.995 154.191 498.147 153.983C498.303 153.77 498.381 153.519 498.381 153.23C498.381 152.809 498.208 152.48 497.863 152.243C497.517 152.006 497.044 151.888 496.442 151.888H493.914V154.636ZM504.927 158.024L509.736 150.091H512.022V161H509.941V153.06L505.155 161H502.846V150.091H504.927V158.024ZM513.782 161L518.007 155.418L513.831 150.091H516.303L519.676 154.622H520.436V150.091H522.56V154.622H523.299L526.672 150.091H529.144L524.989 155.418L529.193 161H526.672L523.27 156.455H522.56V161H520.436V156.455H519.726L516.303 161H513.782ZM535.225 161.22C534.15 161.22 533.224 160.991 532.448 160.531C531.676 160.067 531.079 159.416 530.658 158.578C530.241 157.735 530.033 156.748 530.033 155.616C530.033 154.499 530.241 153.514 530.658 152.662C531.079 151.81 531.666 151.144 532.419 150.666C533.177 150.188 534.062 149.949 535.075 149.949C535.691 149.949 536.288 150.051 536.865 150.254C537.443 150.458 537.961 150.777 538.421 151.213C538.88 151.649 539.242 152.214 539.507 152.911C539.772 153.602 539.905 154.442 539.905 155.432V156.185H531.233V154.594H537.824C537.824 154.035 537.71 153.54 537.483 153.109C537.256 152.674 536.936 152.33 536.524 152.08C536.117 151.829 535.639 151.703 535.09 151.703C534.493 151.703 533.972 151.85 533.527 152.143C533.087 152.432 532.746 152.811 532.504 153.28C532.268 153.744 532.149 154.248 532.149 154.793V156.036C532.149 156.765 532.277 157.385 532.533 157.896C532.793 158.408 533.155 158.798 533.619 159.068C534.083 159.333 534.626 159.466 535.246 159.466C535.648 159.466 536.015 159.409 536.347 159.295C536.678 159.177 536.965 159.002 537.206 158.77C537.448 158.538 537.632 158.251 537.76 157.911L539.77 158.273C539.609 158.865 539.32 159.383 538.904 159.828C538.492 160.268 537.973 160.612 537.348 160.858C536.728 161.099 536.02 161.22 535.225 161.22ZM549.255 154.629V156.469H543.346V154.629H549.255ZM543.942 150.091V161H541.861V150.091H543.942ZM550.739 150.091V161H548.665V150.091H550.739ZM555.261 158.024L560.069 150.091H562.356V161H560.275V153.06L555.488 161H553.18V150.091H555.261V158.024ZM570.301 154.707V156.554H564.484V154.707H570.301ZM566.21 150.091V161H564.087V150.091H566.21ZM573.625 161.22C572.612 161.22 571.726 160.983 570.969 160.51C570.211 160.036 569.624 159.378 569.207 158.536C568.791 157.688 568.582 156.705 568.582 155.588C568.582 154.461 568.791 153.476 569.207 152.634C569.624 151.786 570.211 151.128 570.969 150.659C571.726 150.186 572.612 149.949 573.625 149.949C574.643 149.949 575.528 150.186 576.281 150.659C577.039 151.128 577.626 151.786 578.043 152.634C578.464 153.476 578.675 154.461 578.675 155.588C578.675 156.705 578.464 157.688 578.043 158.536C577.626 159.378 577.039 160.036 576.281 160.51C575.528 160.983 574.643 161.22 573.625 161.22ZM573.625 159.402C574.312 159.402 574.873 159.229 575.308 158.884C575.749 158.533 576.073 158.069 576.281 157.491C576.49 156.914 576.594 156.279 576.594 155.588C576.594 154.892 576.49 154.255 576.281 153.678C576.073 153.095 575.749 152.629 575.308 152.278C574.873 151.928 574.312 151.753 573.625 151.753C572.943 151.753 572.382 151.928 571.942 152.278C571.502 152.629 571.177 153.095 570.969 153.678C570.761 154.255 570.656 154.892 570.656 155.588C570.656 156.279 570.761 156.914 570.969 157.491C571.177 158.069 571.502 158.533 571.942 158.884C572.382 159.229 572.943 159.402 573.625 159.402Z" fill="#111111"/>
<g filter="url(#filter0_d_1_97)">
<rect x="241" y="200" width="254" height="56" rx="28" fill="#5C24FF"/>
<path d="M266.011 234V222.364H270.67C271.527 222.364 272.241 222.491 272.812 222.744C273.384 222.998 273.814 223.35 274.102 223.801C274.39 224.248 274.534 224.763 274.534 225.347C274.534 225.801 274.443 226.201 274.261 226.545C274.08 226.886 273.83 227.167 273.511 227.386C273.197 227.602 272.837 227.756 272.432 227.847V227.96C272.875 227.979 273.29 228.104 273.676 228.335C274.066 228.566 274.383 228.89 274.625 229.307C274.867 229.72 274.989 230.212 274.989 230.784C274.989 231.402 274.835 231.953 274.528 232.438C274.225 232.919 273.777 233.299 273.182 233.58C272.587 233.86 271.854 234 270.983 234H266.011ZM268.472 231.989H270.477C271.163 231.989 271.663 231.858 271.977 231.597C272.292 231.331 272.449 230.979 272.449 230.54C272.449 230.218 272.371 229.934 272.216 229.688C272.061 229.441 271.839 229.248 271.551 229.108C271.267 228.968 270.928 228.898 270.534 228.898H268.472V231.989ZM268.472 227.233H270.295C270.633 227.233 270.932 227.174 271.193 227.057C271.458 226.936 271.667 226.765 271.818 226.545C271.973 226.326 272.051 226.062 272.051 225.756C272.051 225.335 271.902 224.996 271.602 224.739C271.307 224.481 270.886 224.352 270.341 224.352H268.472V227.233ZM280.167 234.17C279.285 234.17 278.521 233.983 277.877 233.608C277.237 233.229 276.743 232.703 276.394 232.028C276.046 231.35 275.872 230.564 275.872 229.67C275.872 228.769 276.046 227.981 276.394 227.307C276.743 226.629 277.237 226.102 277.877 225.727C278.521 225.348 279.285 225.159 280.167 225.159C281.05 225.159 281.811 225.348 282.451 225.727C283.095 226.102 283.591 226.629 283.94 227.307C284.288 227.981 284.463 228.769 284.463 229.67C284.463 230.564 284.288 231.35 283.94 232.028C283.591 232.703 283.095 233.229 282.451 233.608C281.811 233.983 281.05 234.17 280.167 234.17ZM280.179 232.295C280.58 232.295 280.915 232.182 281.184 231.955C281.453 231.723 281.656 231.409 281.792 231.011C281.932 230.614 282.002 230.161 282.002 229.653C282.002 229.146 281.932 228.693 281.792 228.295C281.656 227.898 281.453 227.583 281.184 227.352C280.915 227.121 280.58 227.006 280.179 227.006C279.773 227.006 279.432 227.121 279.156 227.352C278.883 227.583 278.677 227.898 278.537 228.295C278.4 228.693 278.332 229.146 278.332 229.653C278.332 230.161 278.4 230.614 278.537 231.011C278.677 231.409 278.883 231.723 279.156 231.955C279.432 232.182 279.773 232.295 280.179 232.295ZM288.029 230.807L291.171 225.273H293.557V234H291.251V228.449L288.12 234H285.717V225.273H288.029V230.807ZM290.756 222.227H292.444C292.44 222.917 292.184 223.472 291.677 223.892C291.173 224.312 290.491 224.523 289.631 224.523C288.768 224.523 288.084 224.312 287.58 223.892C287.076 223.472 286.824 222.917 286.824 222.227H288.501C288.497 222.489 288.58 222.723 288.751 222.932C288.925 223.14 289.218 223.244 289.631 223.244C290.033 223.244 290.321 223.142 290.495 222.938C290.669 222.733 290.756 222.496 290.756 222.227ZM294.301 227.176V225.273H302.21V227.176H299.398V234H297.091V227.176H294.301ZM305.67 230.807L308.812 225.273H311.199V234H308.892V228.449L305.761 234H303.358V225.273H305.67V230.807ZM318.515 230.807L321.657 225.273H324.043V234H321.736V228.449L318.606 234H316.202V225.273H318.515V230.807ZM329.047 234V225.273H336.677V234H334.365V227.176H331.331V234H329.047ZM342.232 234.17C341.35 234.17 340.586 233.983 339.942 233.608C339.302 233.229 338.808 232.703 338.459 232.028C338.111 231.35 337.937 230.564 337.937 229.67C337.937 228.769 338.111 227.981 338.459 227.307C338.808 226.629 339.302 226.102 339.942 225.727C340.586 225.348 341.35 225.159 342.232 225.159C343.115 225.159 343.876 225.348 344.516 225.727C345.16 226.102 345.656 226.629 346.005 227.307C346.353 227.981 346.528 228.769 346.528 229.67C346.528 230.564 346.353 231.35 346.005 232.028C345.656 232.703 345.16 233.229 344.516 233.608C343.876 233.983 343.115 234.17 342.232 234.17ZM342.244 232.295C342.645 232.295 342.98 232.182 343.249 231.955C343.518 231.723 343.721 231.409 343.857 231.011C343.997 230.614 344.067 230.161 344.067 229.653C344.067 229.146 343.997 228.693 343.857 228.295C343.721 227.898 343.518 227.583 343.249 227.352C342.98 227.121 342.645 227.006 342.244 227.006C341.838 227.006 341.497 227.121 341.221 227.352C340.948 227.583 340.742 227.898 340.602 228.295C340.465 228.693 340.397 229.146 340.397 229.653C340.397 230.161 340.465 230.614 340.602 231.011C340.742 231.409 340.948 231.723 341.221 231.955C341.497 232.182 341.838 232.295 342.244 232.295ZM347.27 234L347.259 232.08H347.549C347.753 232.08 347.929 232.03 348.077 231.932C348.229 231.83 348.354 231.665 348.452 231.438C348.55 231.21 348.628 230.909 348.685 230.534C348.742 230.155 348.78 229.689 348.799 229.136L348.941 225.273H355.577V234H353.27V227.176H351.117L350.98 229.841C350.946 230.572 350.857 231.201 350.713 231.727C350.573 232.254 350.378 232.686 350.128 233.023C349.878 233.356 349.577 233.602 349.225 233.761C348.872 233.92 348.463 234 347.997 234H347.27ZM358.315 237.273C358.008 237.273 357.721 237.248 357.452 237.199C357.186 237.153 356.967 237.095 356.793 237.023L357.338 235.216C357.622 235.303 357.878 235.35 358.105 235.358C358.336 235.366 358.535 235.313 358.702 235.199C358.872 235.085 359.01 234.892 359.116 234.619L359.258 234.25L356.128 225.273H358.673L360.48 231.682H360.571L362.395 225.273H364.957L361.565 234.943C361.402 235.413 361.181 235.822 360.9 236.17C360.624 236.523 360.274 236.794 359.849 236.983C359.425 237.176 358.914 237.273 358.315 237.273ZM373.215 225.273V234H370.92V225.273H373.215ZM372.096 229.102V231.011C371.91 231.095 371.679 231.174 371.403 231.25C371.126 231.322 370.837 231.381 370.534 231.426C370.231 231.472 369.946 231.494 369.681 231.494C368.428 231.494 367.441 231.237 366.721 230.722C366.001 230.203 365.642 229.375 365.642 228.239V225.261H367.926V228.239C367.926 228.576 367.982 228.843 368.096 229.04C368.214 229.237 368.399 229.379 368.653 229.466C368.91 229.549 369.253 229.591 369.681 229.591C370.079 229.591 370.469 229.549 370.852 229.466C371.234 229.383 371.649 229.261 372.096 229.102ZM377.087 230.807L380.229 225.273H382.616V234H380.309V228.449L377.178 234H374.775V225.273H377.087V230.807ZM383.359 227.176V225.273H391.269V227.176H388.456V234H386.149V227.176H383.359ZM393.933 227.955H396.541C397.696 227.955 398.598 228.231 399.245 228.784C399.893 229.333 400.217 230.068 400.217 230.989C400.217 231.587 400.071 232.114 399.78 232.568C399.488 233.019 399.067 233.371 398.518 233.625C397.969 233.875 397.31 234 396.541 234H392.416V225.273H394.728V232.097H396.541C396.946 232.097 397.28 231.994 397.541 231.79C397.802 231.585 397.935 231.324 397.939 231.006C397.935 230.669 397.802 230.394 397.541 230.182C397.28 229.966 396.946 229.858 396.541 229.858H393.933V227.955ZM404.885 234V225.273H412.516V234H410.203V227.176H407.169V234H404.885ZM418.071 234.17C417.188 234.17 416.425 233.983 415.781 233.608C415.141 233.229 414.647 232.703 414.298 232.028C413.95 231.35 413.776 230.564 413.776 229.67C413.776 228.769 413.95 227.981 414.298 227.307C414.647 226.629 415.141 226.102 415.781 225.727C416.425 225.348 417.188 225.159 418.071 225.159C418.954 225.159 419.715 225.348 420.355 225.727C420.999 226.102 421.495 226.629 421.844 227.307C422.192 227.981 422.366 228.769 422.366 229.67C422.366 230.564 422.192 231.35 421.844 232.028C421.495 232.703 420.999 233.229 420.355 233.608C419.715 233.983 418.954 234.17 418.071 234.17ZM418.082 232.295C418.484 232.295 418.819 232.182 419.088 231.955C419.357 231.723 419.56 231.409 419.696 231.011C419.836 230.614 419.906 230.161 419.906 229.653C419.906 229.146 419.836 228.693 419.696 228.295C419.56 227.898 419.357 227.583 419.088 227.352C418.819 227.121 418.484 227.006 418.082 227.006C417.677 227.006 417.336 227.121 417.06 227.352C416.787 227.583 416.58 227.898 416.44 228.295C416.304 228.693 416.236 229.146 416.236 229.653C416.236 230.161 416.304 230.614 416.44 231.011C416.58 231.409 416.787 231.723 417.06 231.955C417.336 232.182 417.677 232.295 418.082 232.295ZM422.938 236.557V232.08H423.609C423.802 231.958 423.957 231.765 424.075 231.5C424.196 231.235 424.295 230.922 424.37 230.562C424.45 230.203 424.51 229.814 424.552 229.398C424.598 228.977 424.637 228.553 424.671 228.125L424.899 225.273H431.592V232.08H432.944V236.557H430.637V234H425.302V236.557H422.938ZM426.018 232.08H429.308V227.136H426.956L426.865 228.125C426.8 229.057 426.707 229.848 426.586 230.5C426.465 231.148 426.276 231.674 426.018 232.08ZM436.523 234.165C435.966 234.165 435.47 234.068 435.035 233.875C434.599 233.678 434.254 233.388 434.001 233.006C433.751 232.619 433.626 232.138 433.626 231.562C433.626 231.078 433.715 230.67 433.893 230.341C434.071 230.011 434.313 229.746 434.62 229.545C434.927 229.345 435.275 229.193 435.665 229.091C436.059 228.989 436.472 228.917 436.904 228.875C437.412 228.822 437.821 228.773 438.131 228.727C438.442 228.678 438.667 228.606 438.807 228.511C438.948 228.417 439.018 228.277 439.018 228.091V228.057C439.018 227.697 438.904 227.419 438.677 227.222C438.453 227.025 438.135 226.926 437.722 226.926C437.287 226.926 436.94 227.023 436.682 227.216C436.425 227.405 436.254 227.644 436.171 227.932L433.932 227.75C434.046 227.22 434.27 226.761 434.603 226.375C434.936 225.985 435.366 225.686 435.893 225.477C436.423 225.265 437.037 225.159 437.734 225.159C438.218 225.159 438.682 225.216 439.126 225.33C439.573 225.443 439.968 225.619 440.313 225.858C440.662 226.097 440.936 226.403 441.137 226.778C441.338 227.15 441.438 227.595 441.438 228.114V234H439.143V232.79H439.074C438.934 233.062 438.747 233.303 438.512 233.511C438.277 233.716 437.995 233.877 437.665 233.994C437.336 234.108 436.955 234.165 436.523 234.165ZM437.216 232.494C437.573 232.494 437.887 232.424 438.16 232.284C438.432 232.14 438.646 231.947 438.802 231.705C438.957 231.462 439.035 231.187 439.035 230.881V229.955C438.959 230.004 438.855 230.049 438.722 230.091C438.593 230.129 438.448 230.165 438.285 230.199C438.122 230.229 437.959 230.258 437.796 230.284C437.633 230.307 437.485 230.328 437.353 230.347C437.069 230.388 436.821 230.455 436.609 230.545C436.396 230.636 436.232 230.759 436.114 230.915C435.997 231.066 435.938 231.256 435.938 231.483C435.938 231.812 436.057 232.064 436.296 232.239C436.538 232.409 436.845 232.494 437.216 232.494ZM442.996 237.273V225.273H445.382V226.739H445.49C445.596 226.504 445.75 226.265 445.95 226.023C446.155 225.777 446.42 225.572 446.746 225.409C447.075 225.242 447.485 225.159 447.973 225.159C448.61 225.159 449.197 225.326 449.735 225.659C450.272 225.989 450.702 226.487 451.024 227.153C451.346 227.816 451.507 228.648 451.507 229.648C451.507 230.621 451.35 231.443 451.036 232.114C450.725 232.78 450.301 233.286 449.763 233.631C449.229 233.972 448.63 234.142 447.967 234.142C447.498 234.142 447.098 234.064 446.769 233.909C446.443 233.754 446.176 233.559 445.967 233.324C445.759 233.085 445.6 232.845 445.49 232.602H445.416V237.273H442.996ZM445.365 229.636C445.365 230.155 445.437 230.608 445.581 230.994C445.725 231.381 445.933 231.682 446.206 231.898C446.479 232.11 446.81 232.216 447.2 232.216C447.594 232.216 447.928 232.108 448.2 231.892C448.473 231.672 448.68 231.369 448.82 230.983C448.964 230.593 449.036 230.144 449.036 229.636C449.036 229.133 448.966 228.689 448.825 228.307C448.685 227.924 448.479 227.625 448.206 227.409C447.933 227.193 447.598 227.085 447.2 227.085C446.807 227.085 446.473 227.189 446.2 227.398C445.932 227.606 445.725 227.902 445.581 228.284C445.437 228.667 445.365 229.117 445.365 229.636ZM456.744 234.17C455.862 234.17 455.098 233.983 454.454 233.608C453.814 233.229 453.32 232.703 452.971 232.028C452.623 231.35 452.449 230.564 452.449 229.67C452.449 228.769 452.623 227.981 452.971 227.307C453.32 226.629 453.814 226.102 454.454 225.727C455.098 225.348 455.862 225.159 456.744 225.159C457.627 225.159 458.388 225.348 459.028 225.727C459.672 226.102 460.168 226.629 460.517 227.307C460.865 227.981 461.04 228.769 461.04 229.67C461.04 230.564 460.865 231.35 460.517 232.028C460.168 232.703 459.672 233.229 459.028 233.608C458.388 233.983 457.627 234.17 456.744 234.17ZM456.755 232.295C457.157 232.295 457.492 232.182 457.761 231.955C458.03 231.723 458.233 231.409 458.369 231.011C458.509 230.614 458.579 230.161 458.579 229.653C458.579 229.146 458.509 228.693 458.369 228.295C458.233 227.898 458.03 227.583 457.761 227.352C457.492 227.121 457.157 227.006 456.755 227.006C456.35 227.006 456.009 227.121 455.733 227.352C455.46 227.583 455.254 227.898 455.113 228.295C454.977 228.693 454.909 229.146 454.909 229.653C454.909 230.161 454.977 230.614 455.113 231.011C455.254 231.409 455.46 231.723 455.733 231.955C456.009 232.182 456.35 232.295 456.755 232.295ZM462.293 234V225.273H464.714V228.659H465.396L467.771 225.273H470.612L467.526 229.602L470.646 234H467.771L465.617 230.903H464.714V234H462.293Z" fill="white"/>
</g>
<defs>
<filter id="filter0_d_1_97" x="219" y="182" width="298" height="100" filterUnits="userSpaceOnUse" color-interpolation-filters="sRGB">
<feFlood flood-opacity="0" result="BackgroundImageFix"/>
<feColorMatrix in="SourceAlpha" type="matrix" values="0 0 0 0 0 0 0 0 0 0 0 0 0 0 0 0 0 0 127 0" result="hardAlpha"/>
<feOffset dy="4"/>
<feGaussianBlur stdDeviation="11"/>
<feComposite in2="hardAlpha" operator="out"/>
<feColorMatrix type="matrix" values="0 0 0 0 0.360784 0 0 0 0 0.141176 0 0 0 0 1 0 0 0 0.32 0"/>
<feBlend mode="normal" in2="BackgroundImageFix" result="effect1_dropShadow_1_97"/>
<feBlend mode="normal" in="SourceGraphic" in2="effect1_dropShadow_1_97" result="shape"/>
</filter>
</defs>
</svg>
