<svg width="736" height="314" viewBox="0 0 736 314" fill="none" xmlns="http://www.w3.org/2000/svg">
<path d="M244.528 25.5312H235.817C235.658 24.4044 235.333 23.4034 234.843 22.5284C234.352 21.6401 233.723 20.8845 232.954 20.2614C232.185 19.6383 231.297 19.161 230.289 18.8295C229.295 18.4981 228.214 18.3324 227.047 18.3324C224.939 18.3324 223.103 18.8561 221.539 19.9034C219.975 20.9375 218.761 22.4489 217.9 24.4375C217.038 26.4129 216.607 28.8125 216.607 31.6364C216.607 34.5398 217.038 36.9792 217.9 38.9545C218.775 40.9299 219.994 42.4214 221.559 43.429C223.123 44.4366 224.933 44.9403 226.988 44.9403C228.141 44.9403 229.208 44.7879 230.189 44.483C231.184 44.178 232.065 43.7339 232.834 43.1506C233.603 42.554 234.24 41.8314 234.743 40.983C235.261 40.1345 235.618 39.1667 235.817 38.0795L244.528 38.1193C244.302 39.9886 243.739 41.7917 242.837 43.5284C241.949 45.2519 240.749 46.7964 239.238 48.1619C237.74 49.5142 235.95 50.5881 233.868 51.3835C231.8 52.1657 229.46 52.5568 226.849 52.5568C223.216 52.5568 219.968 51.7348 217.104 50.0909C214.254 48.447 212 46.0672 210.343 42.9517C208.699 39.8362 207.877 36.0644 207.877 31.6364C207.877 27.1951 208.712 23.4167 210.383 20.3011C212.053 17.1856 214.32 14.8125 217.184 13.1818C220.047 11.5379 223.269 10.7159 226.849 10.7159C229.208 10.7159 231.396 11.0473 233.411 11.7102C235.439 12.3731 237.236 13.3409 238.8 14.6136C240.365 15.8731 241.637 17.4176 242.618 19.2472C243.613 21.0767 244.249 23.1714 244.528 25.5312ZM263.224 52.5966C260.135 52.5966 257.464 51.9403 255.21 50.6278C252.97 49.3021 251.239 47.4593 250.02 45.0994C248.8 42.7263 248.19 39.9754 248.19 36.8466C248.19 33.6913 248.8 30.9337 250.02 28.5739C251.239 26.2008 252.97 24.358 255.21 23.0455C257.464 21.7197 260.135 21.0568 263.224 21.0568C266.313 21.0568 268.978 21.7197 271.219 23.0455C273.472 24.358 275.209 26.2008 276.429 28.5739C277.649 30.9337 278.258 33.6913 278.258 36.8466C278.258 39.9754 277.649 42.7263 276.429 45.0994C275.209 47.4593 273.472 49.3021 271.219 50.6278C268.978 51.9403 266.313 52.5966 263.224 52.5966ZM263.264 46.0341C264.669 46.0341 265.843 45.6364 266.784 44.8409C267.725 44.0322 268.435 42.9318 268.912 41.5398C269.402 40.1477 269.648 38.5634 269.648 36.7869C269.648 35.0104 269.402 33.4261 268.912 32.0341C268.435 30.642 267.725 29.5417 266.784 28.733C265.843 27.9242 264.669 27.5199 263.264 27.5199C261.846 27.5199 260.652 27.9242 259.685 28.733C258.73 29.5417 258.007 30.642 257.517 32.0341C257.04 33.4261 256.801 35.0104 256.801 36.7869C256.801 38.5634 257.04 40.1477 257.517 41.5398C258.007 42.9318 258.73 44.0322 259.685 44.8409C260.652 45.6364 261.846 46.0341 263.264 46.0341ZM281.076 43.3494H289.289C289.329 44.357 289.78 45.1525 290.641 45.7358C291.503 46.3191 292.617 46.6108 293.982 46.6108C295.361 46.6108 296.521 46.2926 297.462 45.6562C298.404 45.0066 298.874 44.0786 298.874 42.8722C298.874 42.1297 298.689 41.4867 298.317 40.9432C297.946 40.3864 297.429 39.9489 296.766 39.6307C296.103 39.3125 295.334 39.1534 294.459 39.1534H290.065V33.6051H294.459C295.772 33.6051 296.78 33.3002 297.482 32.6903C298.198 32.0805 298.556 31.3182 298.556 30.4034C298.556 29.3693 298.185 28.5407 297.442 27.9176C296.713 27.2812 295.726 26.9631 294.479 26.9631C293.22 26.9631 292.173 27.2481 291.337 27.8182C290.515 28.375 290.091 29.1042 290.065 30.0057H281.891C281.918 28.1761 282.468 26.5919 283.542 25.2528C284.629 23.9138 286.087 22.8797 287.917 22.1506C289.76 21.4214 291.821 21.0568 294.101 21.0568C296.594 21.0568 298.742 21.4081 300.545 22.1108C302.361 22.8002 303.753 23.7879 304.721 25.0739C305.702 26.3598 306.192 27.8911 306.192 29.6676C306.192 31.285 305.662 32.6373 304.601 33.7244C303.541 34.8116 302.056 35.5871 300.147 36.0511V36.3693C301.406 36.4489 302.547 36.7869 303.567 37.3835C304.588 37.9801 305.404 38.8021 306.013 39.8494C306.623 40.8835 306.928 42.1098 306.928 43.5284C306.928 45.4242 306.371 47.0483 305.258 48.4006C304.157 49.7528 302.633 50.7936 300.684 51.5227C298.748 52.2386 296.528 52.5966 294.022 52.5966C291.583 52.5966 289.395 52.2453 287.459 51.5426C285.537 50.8267 284.006 49.7794 282.866 48.4006C281.739 47.0218 281.142 45.3381 281.076 43.3494ZM308.617 60.9489V45.2784H310.964C311.64 44.8542 312.183 44.178 312.594 43.25C313.019 42.322 313.363 41.2282 313.628 39.9688C313.907 38.7093 314.119 37.3504 314.265 35.892C314.424 34.4205 314.563 32.9356 314.682 31.4375L315.478 21.4545H338.904V45.2784H343.637V60.9489H335.563V52H316.89V60.9489H308.617ZM319.396 45.2784H330.91V27.9773H322.677L322.359 31.4375C322.133 34.6989 321.808 37.4697 321.384 39.75C320.96 42.017 320.297 43.8598 319.396 45.2784ZM356.164 52.5767C354.215 52.5767 352.478 52.2386 350.954 51.5625C349.429 50.8731 348.223 49.8589 347.334 48.5199C346.459 47.1676 346.022 45.4839 346.022 43.4688C346.022 41.7718 346.334 40.3466 346.957 39.1932C347.58 38.0398 348.428 37.1117 349.502 36.4091C350.576 35.7064 351.796 35.1761 353.161 34.8182C354.54 34.4602 355.985 34.2083 357.496 34.0625C359.273 33.8769 360.705 33.7045 361.792 33.5455C362.879 33.3731 363.668 33.1212 364.158 32.7898C364.649 32.4583 364.894 31.9678 364.894 31.3182V31.1989C364.894 29.9394 364.496 28.965 363.701 28.2756C362.919 27.5862 361.805 27.2415 360.36 27.2415C358.835 27.2415 357.622 27.5795 356.721 28.2557C355.819 28.9186 355.223 29.7538 354.931 30.7614L347.096 30.125C347.494 28.2689 348.276 26.6648 349.442 25.3125C350.609 23.947 352.114 22.8996 353.957 22.1705C355.813 21.428 357.96 21.0568 360.4 21.0568C362.097 21.0568 363.721 21.2557 365.272 21.6534C366.836 22.0511 368.222 22.6676 369.428 23.5028C370.648 24.3381 371.609 25.4119 372.312 26.7244C373.014 28.0237 373.366 29.5814 373.366 31.3977V52H365.332V47.7642H365.093C364.602 48.7188 363.946 49.5606 363.124 50.2898C362.302 51.0057 361.315 51.5691 360.161 51.9801C359.008 52.3778 357.675 52.5767 356.164 52.5767ZM358.59 46.7301C359.836 46.7301 360.937 46.4848 361.891 45.9943C362.846 45.4905 363.595 44.8144 364.138 43.9659C364.682 43.1174 364.954 42.1562 364.954 41.0824V37.8409C364.689 38.0133 364.324 38.1723 363.86 38.3182C363.409 38.4508 362.899 38.5767 362.329 38.696C361.759 38.8021 361.189 38.9015 360.619 38.9943C360.048 39.0739 359.531 39.1468 359.067 39.2131C358.073 39.3589 357.205 39.5909 356.462 39.9091C355.72 40.2273 355.143 40.6581 354.732 41.2017C354.321 41.732 354.116 42.3949 354.116 43.1903C354.116 44.3438 354.533 45.2254 355.369 45.8352C356.217 46.4318 357.291 46.7301 358.59 46.7301ZM378.818 52V21.4545H391.844C395.609 21.4545 398.585 22.1705 400.773 23.6023C402.96 25.0341 404.054 27.0691 404.054 29.7074C404.054 31.3646 403.438 32.7434 402.205 33.8438C400.972 34.9441 399.261 35.6866 397.074 36.071C398.903 36.2036 400.461 36.6212 401.747 37.3239C403.046 38.0133 404.034 38.9081 404.71 40.0085C405.4 41.1089 405.744 42.3286 405.744 43.6676C405.744 45.4044 405.28 46.8958 404.352 48.142C403.438 49.3883 402.092 50.3428 400.315 51.0057C398.552 51.6686 396.398 52 393.852 52H378.818ZM386.713 45.6562H393.852C395.032 45.6562 395.954 45.3778 396.616 44.821C397.293 44.2509 397.631 43.4754 397.631 42.4943C397.631 41.4072 397.293 40.5521 396.616 39.929C395.954 39.3059 395.032 38.9943 393.852 38.9943H386.713V45.6562ZM386.713 34.0227H392.023C392.871 34.0227 393.594 33.9034 394.19 33.6648C394.8 33.4129 395.264 33.0549 395.582 32.5909C395.914 32.1269 396.08 31.5767 396.08 30.9403C396.08 29.9991 395.702 29.2633 394.946 28.733C394.19 28.2027 393.156 27.9375 391.844 27.9375H386.713V34.0227ZM418.674 52.5767C416.725 52.5767 414.988 52.2386 413.464 51.5625C411.939 50.8731 410.733 49.8589 409.844 48.5199C408.969 47.1676 408.532 45.4839 408.532 43.4688C408.532 41.7718 408.844 40.3466 409.467 39.1932C410.09 38.0398 410.938 37.1117 412.012 36.4091C413.086 35.7064 414.306 35.1761 415.671 34.8182C417.05 34.4602 418.495 34.2083 420.006 34.0625C421.783 33.8769 423.215 33.7045 424.302 33.5455C425.389 33.3731 426.178 33.1212 426.668 32.7898C427.159 32.4583 427.404 31.9678 427.404 31.3182V31.1989C427.404 29.9394 427.006 28.965 426.211 28.2756C425.429 27.5862 424.315 27.2415 422.87 27.2415C421.345 27.2415 420.132 27.5795 419.231 28.2557C418.329 28.9186 417.733 29.7538 417.441 30.7614L409.606 30.125C410.004 28.2689 410.786 26.6648 411.952 25.3125C413.119 23.947 414.624 22.8996 416.467 22.1705C418.323 21.428 420.47 21.0568 422.91 21.0568C424.607 21.0568 426.231 21.2557 427.782 21.6534C429.346 22.0511 430.732 22.6676 431.938 23.5028C433.158 24.3381 434.119 25.4119 434.822 26.7244C435.524 28.0237 435.876 29.5814 435.876 31.3977V52H427.842V47.7642H427.603C427.112 48.7188 426.456 49.5606 425.634 50.2898C424.812 51.0057 423.825 51.5691 422.671 51.9801C421.518 52.3778 420.185 52.5767 418.674 52.5767ZM421.1 46.7301C422.346 46.7301 423.447 46.4848 424.401 45.9943C425.356 45.4905 426.105 44.8144 426.648 43.9659C427.192 43.1174 427.464 42.1562 427.464 41.0824V37.8409C427.199 38.0133 426.834 38.1723 426.37 38.3182C425.919 38.4508 425.409 38.5767 424.839 38.696C424.269 38.8021 423.699 38.9015 423.129 38.9943C422.559 39.0739 422.041 39.1468 421.577 39.2131C420.583 39.3589 419.715 39.5909 418.972 39.9091C418.23 40.2273 417.653 40.6581 417.242 41.2017C416.831 41.732 416.626 42.3949 416.626 43.1903C416.626 44.3438 417.043 45.2254 417.879 45.8352C418.727 46.4318 419.801 46.7301 421.1 46.7301ZM449.422 40.8239L460.419 21.4545H468.771V52H460.698V32.571L449.74 52H441.328V21.4545H449.422V40.8239ZM458.967 10.7955H464.874C464.86 13.2083 463.966 15.1506 462.189 16.6222C460.426 18.0937 458.039 18.8295 455.03 18.8295C452.007 18.8295 449.614 18.0937 447.851 16.6222C446.088 15.1506 445.206 13.2083 445.206 10.7955H451.073C451.059 11.7102 451.351 12.5322 451.948 13.2614C452.557 13.9905 453.585 14.3551 455.03 14.3551C456.435 14.3551 457.443 13.9972 458.053 13.2812C458.662 12.5653 458.967 11.7367 458.967 10.7955ZM471.375 28.1165V21.4545H499.057V28.1165H489.213V52H481.139V28.1165H471.375ZM515.899 52.5966C512.757 52.5966 510.053 51.9602 507.786 50.6875C505.532 49.4015 503.795 47.5852 502.575 45.2386C501.356 42.8788 500.746 40.0881 500.746 36.8665C500.746 33.7244 501.356 30.9669 502.575 28.5938C503.795 26.2206 505.512 24.3712 507.726 23.0455C509.953 21.7197 512.565 21.0568 515.561 21.0568C517.576 21.0568 519.452 21.3816 521.189 22.0312C522.939 22.6676 524.464 23.6288 525.763 24.9148C527.075 26.2008 528.096 27.8182 528.825 29.767C529.555 31.7027 529.919 33.9697 529.919 36.5682V38.8949H504.127V33.6449H521.945C521.945 32.4252 521.68 31.3447 521.149 30.4034C520.619 29.4621 519.883 28.7263 518.942 28.196C518.014 27.6525 516.933 27.3807 515.7 27.3807C514.414 27.3807 513.274 27.679 512.28 28.2756C511.299 28.8589 510.53 29.6477 509.973 30.642C509.416 31.6231 509.131 32.7169 509.118 33.9233V38.9148C509.118 40.4261 509.396 41.732 509.953 42.8324C510.523 43.9328 511.325 44.7812 512.36 45.3778C513.394 45.9744 514.62 46.2727 516.038 46.2727C516.98 46.2727 517.842 46.1402 518.624 45.875C519.406 45.6098 520.075 45.2121 520.632 44.6818C521.189 44.1515 521.613 43.5019 521.905 42.733L529.74 43.25C529.342 45.1326 528.527 46.7765 527.294 48.1818C526.074 49.5739 524.497 50.661 522.561 51.4432C520.639 52.2121 518.418 52.5966 515.899 52.5966ZM140.975 116V85.4545H154C157.765 85.4545 160.742 86.1705 162.929 87.6023C165.117 89.0341 166.21 91.0691 166.21 93.7074C166.21 95.3646 165.594 96.7434 164.361 97.8438C163.128 98.9441 161.418 99.6866 159.23 100.071C161.06 100.204 162.618 100.621 163.904 101.324C165.203 102.013 166.19 102.908 166.867 104.009C167.556 105.109 167.901 106.329 167.901 107.668C167.901 109.404 167.437 110.896 166.509 112.142C165.594 113.388 164.248 114.343 162.472 115.006C160.708 115.669 158.554 116 156.009 116H140.975ZM148.869 109.656H156.009C157.189 109.656 158.11 109.378 158.773 108.821C159.449 108.251 159.787 107.475 159.787 106.494C159.787 105.407 159.449 104.552 158.773 103.929C158.11 103.306 157.189 102.994 156.009 102.994H148.869V109.656ZM148.869 98.0227H154.179C155.028 98.0227 155.75 97.9034 156.347 97.6648C156.957 97.4129 157.421 97.0549 157.739 96.5909C158.07 96.1269 158.236 95.5767 158.236 94.9403C158.236 93.9991 157.858 93.2633 157.102 92.733C156.347 92.2027 155.313 91.9375 154 91.9375H148.869V98.0227ZM180.214 104.824L191.211 85.4545H199.563V116H191.49V96.571L180.532 116H172.12V85.4545H180.214V104.824ZM205.235 127.455V85.4545H213.587V90.5852H213.965C214.336 89.7633 214.873 88.928 215.576 88.0795C216.291 87.2178 217.219 86.5019 218.36 85.9318C219.513 85.3485 220.945 85.0568 222.655 85.0568C224.882 85.0568 226.937 85.6402 228.82 86.8068C230.702 87.9602 232.207 89.7036 233.334 92.0369C234.461 94.357 235.024 97.267 235.024 100.767C235.024 104.174 234.474 107.051 233.374 109.398C232.287 111.731 230.802 113.501 228.919 114.707C227.05 115.901 224.955 116.497 222.635 116.497C220.991 116.497 219.593 116.225 218.439 115.682C217.299 115.138 216.364 114.455 215.635 113.634C214.906 112.798 214.349 111.956 213.965 111.108H213.706V127.455H205.235ZM213.527 100.727C213.527 102.544 213.779 104.128 214.283 105.48C214.787 106.832 215.516 107.886 216.47 108.642C217.425 109.384 218.585 109.756 219.951 109.756C221.329 109.756 222.496 109.378 223.451 108.622C224.405 107.853 225.128 106.793 225.618 105.44C226.122 104.075 226.374 102.504 226.374 100.727C226.374 98.964 226.129 97.4129 225.638 96.0739C225.147 94.7348 224.425 93.6875 223.47 92.9318C222.516 92.1761 221.343 91.7983 219.951 91.7983C218.572 91.7983 217.405 92.1629 216.451 92.892C215.509 93.6212 214.787 94.6553 214.283 95.9943C213.779 97.3333 213.527 98.911 213.527 100.727ZM248.262 116.577C246.313 116.577 244.577 116.239 243.052 115.562C241.527 114.873 240.321 113.859 239.433 112.52C238.558 111.168 238.12 109.484 238.12 107.469C238.12 105.772 238.432 104.347 239.055 103.193C239.678 102.04 240.527 101.112 241.6 100.409C242.674 99.7064 243.894 99.1761 245.259 98.8182C246.638 98.4602 248.083 98.2083 249.595 98.0625C251.371 97.8769 252.803 97.7045 253.89 97.5455C254.977 97.3731 255.766 97.1212 256.257 96.7898C256.747 96.4583 256.992 95.9678 256.992 95.3182V95.1989C256.992 93.9394 256.595 92.965 255.799 92.2756C255.017 91.5862 253.903 91.2415 252.458 91.2415C250.934 91.2415 249.721 91.5795 248.819 92.2557C247.918 92.9186 247.321 93.7538 247.029 94.7614L239.194 94.125C239.592 92.2689 240.374 90.6648 241.541 89.3125C242.707 87.947 244.212 86.8996 246.055 86.1705C247.911 85.428 250.059 85.0568 252.498 85.0568C254.195 85.0568 255.819 85.2557 257.37 85.6534C258.935 86.0511 260.32 86.6676 261.527 87.5028C262.746 88.3381 263.707 89.4119 264.41 90.7244C265.113 92.0237 265.464 93.5814 265.464 95.3977V116H257.43V111.764H257.191C256.701 112.719 256.045 113.561 255.223 114.29C254.401 115.006 253.413 115.569 252.259 115.98C251.106 116.378 249.774 116.577 248.262 116.577ZM250.688 110.73C251.935 110.73 253.035 110.485 253.99 109.994C254.944 109.491 255.693 108.814 256.237 107.966C256.78 107.117 257.052 106.156 257.052 105.082V101.841C256.787 102.013 256.422 102.172 255.958 102.318C255.508 102.451 254.997 102.577 254.427 102.696C253.857 102.802 253.287 102.902 252.717 102.994C252.147 103.074 251.63 103.147 251.166 103.213C250.171 103.359 249.303 103.591 248.561 103.909C247.818 104.227 247.241 104.658 246.83 105.202C246.42 105.732 246.214 106.395 246.214 107.19C246.214 108.344 246.632 109.225 247.467 109.835C248.315 110.432 249.389 110.73 250.688 110.73ZM269.127 116L269.087 109.278H270.101C270.817 109.278 271.433 109.106 271.951 108.761C272.481 108.403 272.918 107.827 273.263 107.031C273.608 106.236 273.88 105.182 274.078 103.869C274.277 102.544 274.41 100.913 274.476 98.9773L274.973 85.4545H298.201V116H290.127V92.1165H282.59L282.112 101.443C281.993 104.002 281.682 106.203 281.178 108.045C280.687 109.888 280.005 111.4 279.13 112.58C278.255 113.746 277.201 114.608 275.968 115.165C274.735 115.722 273.303 116 271.672 116H269.127ZM308.958 94.8409H318.086C322.129 94.8409 325.284 95.8087 327.551 97.7443C329.818 99.6667 330.952 102.239 330.952 105.46C330.952 107.555 330.442 109.398 329.421 110.989C328.4 112.566 326.928 113.799 325.006 114.688C323.084 115.562 320.777 116 318.086 116H303.648V85.4545H311.742V109.338H318.086C319.504 109.338 320.671 108.98 321.586 108.264C322.5 107.548 322.964 106.634 322.978 105.52C322.964 104.34 322.5 103.379 321.586 102.636C320.671 101.881 319.504 101.503 318.086 101.503H308.958V94.8409ZM356.708 97.3466V104.009H340.76V97.3466H356.708ZM343.544 85.4545V116H335.45V85.4545H343.544ZM362.018 85.4545V116H353.984V85.4545H362.018ZM372.78 94.8409H381.908C385.952 94.8409 389.107 95.8087 391.374 97.7443C393.641 99.6667 394.775 102.239 394.775 105.46C394.775 107.555 394.264 109.398 393.243 110.989C392.222 112.566 390.751 113.799 388.828 114.688C386.906 115.562 384.599 116 381.908 116H367.471V85.4545H375.564V109.338H381.908C383.327 109.338 384.493 108.98 385.408 108.264C386.323 107.548 386.787 106.634 386.8 105.52C386.787 104.34 386.323 103.379 385.408 102.636C384.493 101.881 383.327 101.503 381.908 101.503H372.78V94.8409ZM398.056 116V85.4545H406.527V116H398.056ZM426.099 116.597C422.957 116.597 420.253 115.96 417.985 114.688C415.732 113.402 413.995 111.585 412.775 109.239C411.556 106.879 410.946 104.088 410.946 100.866C410.946 97.7244 411.556 94.9669 412.775 92.5938C413.995 90.2206 415.712 88.3712 417.926 87.0455C420.153 85.7197 422.765 85.0568 425.761 85.0568C427.776 85.0568 429.652 85.3816 431.389 86.0312C433.139 86.6676 434.664 87.6288 435.963 88.9148C437.275 90.2008 438.296 91.8182 439.025 93.767C439.754 95.7027 440.119 97.9697 440.119 100.568V102.895H414.326V97.6449H432.145C432.145 96.4252 431.879 95.3447 431.349 94.4034C430.819 93.4621 430.083 92.7263 429.142 92.196C428.214 91.6525 427.133 91.3807 425.9 91.3807C424.614 91.3807 423.474 91.679 422.48 92.2756C421.499 92.8589 420.73 93.6477 420.173 94.642C419.616 95.6231 419.331 96.7169 419.318 97.9233V102.915C419.318 104.426 419.596 105.732 420.153 106.832C420.723 107.933 421.525 108.781 422.559 109.378C423.593 109.974 424.82 110.273 426.238 110.273C427.18 110.273 428.041 110.14 428.824 109.875C429.606 109.61 430.275 109.212 430.832 108.682C431.389 108.152 431.813 107.502 432.105 106.733L439.94 107.25C439.542 109.133 438.727 110.777 437.494 112.182C436.274 113.574 434.697 114.661 432.761 115.443C430.839 116.212 428.618 116.597 426.099 116.597Z" fill="#111111"/>
<path d="M456.527 116V75.2727H472.596C475.671 75.2727 478.296 75.8229 480.471 76.9233C482.658 78.0104 484.322 79.5549 485.462 81.5568C486.615 83.5455 487.192 85.8854 487.192 88.5767C487.192 91.2812 486.609 93.608 485.442 95.5568C484.276 97.4924 482.585 98.9773 480.371 100.011C478.17 101.045 475.506 101.562 472.377 101.562H461.618V94.642H470.985C472.629 94.642 473.994 94.4167 475.081 93.9659C476.169 93.5152 476.977 92.839 477.508 91.9375C478.051 91.036 478.323 89.9157 478.323 88.5767C478.323 87.2244 478.051 86.0843 477.508 85.1562C476.977 84.2282 476.162 83.5256 475.062 83.0483C473.974 82.5578 472.602 82.3125 470.945 82.3125H465.138V116H456.527ZM478.522 97.4659L488.644 116H479.138L469.235 97.4659H478.522ZM505.427 116.597C502.285 116.597 499.58 115.96 497.313 114.688C495.059 113.402 493.322 111.585 492.103 109.239C490.883 106.879 490.273 104.088 490.273 100.866C490.273 97.7244 490.883 94.9669 492.103 92.5938C493.322 90.2206 495.039 88.3712 497.253 87.0455C499.481 85.7197 502.092 85.0568 505.089 85.0568C507.104 85.0568 508.98 85.3816 510.716 86.0312C512.466 86.6676 513.991 87.6288 515.29 88.9148C516.603 90.2008 517.624 91.8182 518.353 93.767C519.082 95.7027 519.446 97.9697 519.446 100.568V102.895H493.654V97.6449H511.472C511.472 96.4252 511.207 95.3447 510.677 94.4034C510.146 93.4621 509.41 92.7263 508.469 92.196C507.541 91.6525 506.461 91.3807 505.228 91.3807C503.942 91.3807 502.802 91.679 501.807 92.2756C500.826 92.8589 500.057 93.6477 499.5 94.642C498.944 95.6231 498.659 96.7169 498.645 97.9233V102.915C498.645 104.426 498.924 105.732 499.481 106.832C500.051 107.933 500.853 108.781 501.887 109.378C502.921 109.974 504.147 110.273 505.566 110.273C506.507 110.273 507.369 110.14 508.151 109.875C508.933 109.61 509.603 109.212 510.16 108.682C510.716 108.152 511.141 107.502 511.432 106.733L519.268 107.25C518.87 109.133 518.054 110.777 516.821 112.182C515.602 113.574 514.024 114.661 512.089 115.443C510.166 116.212 507.946 116.597 505.427 116.597ZM537.775 116.597C534.633 116.597 531.929 115.96 529.662 114.688C527.408 113.402 525.671 111.585 524.452 109.239C523.232 106.879 522.622 104.088 522.622 100.866C522.622 97.7244 523.232 94.9669 524.452 92.5938C525.671 90.2206 527.388 88.3712 529.602 87.0455C531.829 85.7197 534.441 85.0568 537.437 85.0568C539.452 85.0568 541.328 85.3816 543.065 86.0312C544.815 86.6676 546.34 87.6288 547.639 88.9148C548.952 90.2008 549.972 91.8182 550.702 93.767C551.431 95.7027 551.795 97.9697 551.795 100.568V102.895H526.003V97.6449H543.821C543.821 96.4252 543.556 95.3447 543.025 94.4034C542.495 93.4621 541.759 92.7263 540.818 92.196C539.89 91.6525 538.809 91.3807 537.577 91.3807C536.291 91.3807 535.15 91.679 534.156 92.2756C533.175 92.8589 532.406 93.6477 531.849 94.642C531.292 95.6231 531.007 96.7169 530.994 97.9233V102.915C530.994 104.426 531.273 105.732 531.829 106.832C532.399 107.933 533.202 108.781 534.236 109.378C535.27 109.974 536.496 110.273 537.915 110.273C538.856 110.273 539.718 110.14 540.5 109.875C541.282 109.61 541.952 109.212 542.508 108.682C543.065 108.152 543.489 107.502 543.781 106.733L551.616 107.25C551.219 109.133 550.403 110.777 549.17 112.182C547.951 113.574 546.373 114.661 544.437 115.443C542.515 116.212 540.294 116.597 537.775 116.597ZM564.675 75.2727V116H556.204V75.2727H564.675ZM595.756 94.1648L588.001 94.642C587.868 93.9792 587.583 93.3826 587.145 92.8523C586.708 92.3087 586.131 91.8778 585.415 91.5597C584.713 91.2282 583.871 91.0625 582.89 91.0625C581.577 91.0625 580.47 91.3409 579.569 91.8977C578.667 92.4413 578.216 93.1705 578.216 94.0852C578.216 94.8144 578.508 95.4309 579.091 95.9347C579.675 96.4384 580.676 96.8428 582.094 97.1477L587.623 98.2614C590.592 98.8712 592.806 99.8523 594.265 101.205C595.723 102.557 596.452 104.333 596.452 106.534C596.452 108.536 595.862 110.293 594.682 111.804C593.516 113.315 591.912 114.495 589.87 115.344C587.841 116.179 585.502 116.597 582.85 116.597C578.806 116.597 575.585 115.755 573.185 114.071C570.799 112.374 569.4 110.067 568.989 107.151L577.322 106.713C577.574 107.946 578.183 108.887 579.151 109.537C580.119 110.173 581.359 110.491 582.87 110.491C584.355 110.491 585.548 110.206 586.449 109.636C587.364 109.053 587.828 108.304 587.841 107.389C587.828 106.62 587.503 105.991 586.867 105.5C586.231 104.996 585.25 104.612 583.924 104.347L578.634 103.293C575.651 102.696 573.431 101.662 571.972 100.19C570.527 98.7187 569.805 96.8428 569.805 94.5625C569.805 92.6004 570.335 90.91 571.395 89.4915C572.469 88.0729 573.974 86.9792 575.91 86.2102C577.859 85.4413 580.139 85.0568 582.751 85.0568C586.609 85.0568 589.645 85.8722 591.859 87.5028C594.086 89.1335 595.385 91.3542 595.756 94.1648Z" fill="#5C24FF"/>
<path d="M110.178 150.455V165H107.99V152.33H101.144V165H98.9561V150.455H110.178ZM117.558 165.22C116.536 165.22 115.643 164.986 114.881 164.517C114.118 164.048 113.527 163.393 113.105 162.55C112.684 161.707 112.473 160.722 112.473 159.595C112.473 158.464 112.684 157.474 113.105 156.626C113.527 155.779 114.118 155.121 114.881 154.652C115.643 154.183 116.536 153.949 117.558 153.949C118.581 153.949 119.474 154.183 120.236 154.652C120.998 155.121 121.59 155.779 122.011 156.626C122.433 157.474 122.644 158.464 122.644 159.595C122.644 160.722 122.433 161.707 122.011 162.55C121.59 163.393 120.998 164.048 120.236 164.517C119.474 164.986 118.581 165.22 117.558 165.22ZM117.565 163.438C118.228 163.438 118.777 163.262 119.213 162.912C119.649 162.562 119.971 162.095 120.179 161.513C120.392 160.93 120.499 160.289 120.499 159.588C120.499 158.892 120.392 158.253 120.179 157.67C119.971 157.083 119.649 156.612 119.213 156.257C118.777 155.902 118.228 155.724 117.565 155.724C116.898 155.724 116.344 155.902 115.903 156.257C115.468 156.612 115.144 157.083 114.93 157.67C114.722 158.253 114.618 158.892 114.618 159.588C114.618 160.289 114.722 160.93 114.93 161.513C115.144 162.095 115.468 162.562 115.903 162.912C116.344 163.262 116.898 163.438 117.565 163.438ZM129.507 165V154.091H138.406V165H136.325V155.923H131.574V165H129.507ZM145.44 165.22C144.418 165.22 143.525 164.986 142.763 164.517C142 164.048 141.409 163.393 140.987 162.55C140.566 161.707 140.355 160.722 140.355 159.595C140.355 158.464 140.566 157.474 140.987 156.626C141.409 155.779 142 155.121 142.763 154.652C143.525 154.183 144.418 153.949 145.44 153.949C146.463 153.949 147.356 154.183 148.118 154.652C148.88 155.121 149.472 155.779 149.893 156.626C150.315 157.474 150.526 158.464 150.526 159.595C150.526 160.722 150.315 161.707 149.893 162.55C149.472 163.393 148.88 164.048 148.118 164.517C147.356 164.986 146.463 165.22 145.44 165.22ZM145.447 163.438C146.11 163.438 146.66 163.262 147.095 162.912C147.531 162.562 147.853 162.095 148.061 161.513C148.274 160.93 148.381 160.289 148.381 159.588C148.381 158.892 148.274 158.253 148.061 157.67C147.853 157.083 147.531 156.612 147.095 156.257C146.66 155.902 146.11 155.724 145.447 155.724C144.78 155.724 144.226 155.902 143.785 156.257C143.35 156.612 143.026 157.083 142.812 157.67C142.604 158.253 142.5 158.892 142.5 159.588C142.5 160.289 142.604 160.93 142.812 161.513C143.026 162.095 143.35 162.562 143.785 162.912C144.226 163.262 144.78 163.438 145.447 163.438ZM157.091 165.22C156.035 165.22 155.126 164.981 154.364 164.503C153.606 164.02 153.024 163.355 152.617 162.507C152.209 161.66 152.006 160.689 152.006 159.595C152.006 158.487 152.214 157.509 152.631 156.662C153.048 155.81 153.635 155.144 154.392 154.666C155.15 154.188 156.042 153.949 157.07 153.949C157.898 153.949 158.637 154.103 159.286 154.411C159.934 154.714 160.458 155.14 160.855 155.689C161.258 156.238 161.497 156.88 161.573 157.614H159.506C159.392 157.102 159.132 156.662 158.725 156.293C158.322 155.923 157.782 155.739 157.105 155.739C156.513 155.739 155.995 155.895 155.55 156.207C155.11 156.515 154.766 156.955 154.52 157.528C154.274 158.097 154.151 158.769 154.151 159.545C154.151 160.341 154.271 161.027 154.513 161.605C154.754 162.183 155.095 162.63 155.536 162.947C155.981 163.265 156.504 163.423 157.105 163.423C157.508 163.423 157.872 163.35 158.199 163.203C158.53 163.052 158.807 162.836 159.03 162.557C159.257 162.277 159.416 161.941 159.506 161.548H161.573C161.497 162.254 161.267 162.884 160.884 163.438C160.5 163.991 159.986 164.427 159.343 164.744C158.703 165.062 157.953 165.22 157.091 165.22ZM162.584 165L162.577 163.161H162.968C163.271 163.161 163.524 163.097 163.728 162.969C163.936 162.836 164.106 162.614 164.239 162.301C164.372 161.989 164.473 161.558 164.544 161.009C164.615 160.455 164.668 159.759 164.701 158.92L164.892 154.091H172.506V165H170.425V155.923H166.86L166.689 159.631C166.647 160.53 166.554 161.316 166.412 161.989C166.275 162.661 166.074 163.222 165.809 163.672C165.543 164.117 165.203 164.451 164.786 164.673C164.369 164.891 163.863 165 163.266 165H162.584ZM179.64 165.22C178.565 165.22 177.639 164.991 176.863 164.531C176.091 164.067 175.494 163.416 175.073 162.578C174.656 161.735 174.448 160.748 174.448 159.616C174.448 158.499 174.656 157.514 175.073 156.662C175.494 155.81 176.082 155.144 176.834 154.666C177.592 154.188 178.477 153.949 179.491 153.949C180.106 153.949 180.703 154.051 181.28 154.254C181.858 154.458 182.377 154.777 182.836 155.213C183.295 155.649 183.657 156.214 183.922 156.911C184.188 157.602 184.32 158.442 184.32 159.432V160.185H175.648V158.594H182.239C182.239 158.035 182.126 157.54 181.898 157.109C181.671 156.674 181.351 156.33 180.94 156.08C180.532 155.829 180.054 155.703 179.505 155.703C178.908 155.703 178.387 155.85 177.942 156.143C177.502 156.432 177.161 156.811 176.92 157.28C176.683 157.744 176.565 158.248 176.565 158.793V160.036C176.565 160.765 176.692 161.385 176.948 161.896C177.208 162.408 177.571 162.798 178.035 163.068C178.499 163.333 179.041 163.466 179.661 163.466C180.064 163.466 180.431 163.409 180.762 163.295C181.093 163.177 181.38 163.002 181.621 162.77C181.863 162.538 182.047 162.251 182.175 161.911L184.185 162.273C184.024 162.865 183.735 163.383 183.319 163.828C182.907 164.268 182.388 164.612 181.763 164.858C181.143 165.099 180.435 165.22 179.64 165.22ZM185.211 168.146V163.161H186.099C186.326 162.952 186.518 162.704 186.674 162.415C186.835 162.126 186.97 161.783 187.079 161.385C187.193 160.987 187.287 160.523 187.363 159.993C187.439 159.458 187.505 158.847 187.562 158.161L187.903 154.091H195.318V163.161H196.994V168.146H194.92V165H187.313V168.146H185.211ZM188.372 163.161H193.244V155.909H189.806L189.579 158.161C189.47 159.306 189.333 160.301 189.167 161.143C189.001 161.982 188.736 162.654 188.372 163.161ZM206.063 158.629V160.469H200.154V158.629H206.063ZM200.75 154.091V165H198.669V154.091H200.75ZM207.547 154.091V165H205.473V154.091H207.547ZM212.069 162.024L216.877 154.091H219.164V165H217.083V157.06L212.296 165H209.988V154.091H212.069V162.024ZM227.742 162.372L231.264 154.091H233.097L228.53 165H226.953L222.479 154.091H224.29L227.742 162.372ZM223.7 154.091V165H221.619V154.091H223.7ZM231.84 165V154.091H233.906V165H231.84ZM244.404 165.241C243.713 165.241 243.088 165.114 242.529 164.858C241.971 164.598 241.528 164.221 241.201 163.729C240.879 163.236 240.718 162.633 240.718 161.918C240.718 161.302 240.837 160.795 241.073 160.398C241.31 160 241.63 159.685 242.032 159.453C242.435 159.221 242.884 159.046 243.382 158.928C243.879 158.809 244.385 158.719 244.901 158.658C245.555 158.582 246.085 158.52 246.492 158.473C246.899 158.421 247.195 158.338 247.38 158.224C247.565 158.111 247.657 157.926 247.657 157.67V157.621C247.657 157 247.482 156.52 247.132 156.179C246.786 155.838 246.27 155.668 245.583 155.668C244.868 155.668 244.305 155.826 243.893 156.143C243.486 156.456 243.204 156.804 243.048 157.188L241.052 156.733C241.289 156.07 241.634 155.535 242.089 155.128C242.548 154.716 243.076 154.418 243.673 154.233C244.269 154.044 244.897 153.949 245.555 153.949C245.99 153.949 246.452 154.001 246.94 154.105C247.432 154.205 247.891 154.389 248.318 154.659C248.748 154.929 249.101 155.315 249.376 155.817C249.65 156.314 249.788 156.96 249.788 157.756V165H247.714V163.509H247.629C247.491 163.783 247.285 164.053 247.011 164.318C246.736 164.583 246.383 164.804 245.953 164.979C245.522 165.154 245.006 165.241 244.404 165.241ZM244.866 163.537C245.453 163.537 245.955 163.421 246.372 163.189C246.793 162.957 247.113 162.654 247.33 162.28C247.553 161.901 247.664 161.496 247.664 161.065V159.659C247.588 159.735 247.442 159.806 247.224 159.872C247.011 159.934 246.767 159.988 246.492 160.036C246.218 160.078 245.95 160.118 245.69 160.156C245.429 160.189 245.212 160.218 245.036 160.241C244.624 160.294 244.248 160.381 243.907 160.504C243.571 160.627 243.301 160.805 243.097 161.037C242.899 161.264 242.799 161.567 242.799 161.946C242.799 162.472 242.993 162.869 243.382 163.139C243.77 163.404 244.265 163.537 244.866 163.537ZM252.216 165V154.091H254.34V158.665H255.363L258.963 154.091H261.591L257.365 159.396L261.641 165H259.006L255.718 160.639H254.34V165H252.216ZM262.28 155.923V154.091H271.484V155.923H267.926V165H265.852V155.923H262.28ZM274.673 169.091C274.355 169.091 274.067 169.065 273.806 169.013C273.546 168.965 273.352 168.913 273.224 168.857L273.735 167.116C274.123 167.221 274.469 167.266 274.772 167.251C275.075 167.237 275.343 167.124 275.575 166.911C275.811 166.697 276.02 166.349 276.2 165.866L276.462 165.142L272.471 154.091H274.744L277.506 162.557H277.62L280.383 154.091H282.663L278.167 166.456C277.959 167.024 277.693 167.505 277.371 167.898C277.05 168.295 276.666 168.594 276.221 168.793C275.776 168.991 275.26 169.091 274.673 169.091ZM287.121 165.241C286.429 165.241 285.804 165.114 285.246 164.858C284.687 164.598 284.244 164.221 283.918 163.729C283.596 163.236 283.435 162.633 283.435 161.918C283.435 161.302 283.553 160.795 283.79 160.398C284.026 160 284.346 159.685 284.748 159.453C285.151 159.221 285.601 159.046 286.098 158.928C286.595 158.809 287.102 158.719 287.618 158.658C288.271 158.582 288.802 158.52 289.209 158.473C289.616 158.421 289.912 158.338 290.096 158.224C290.281 158.111 290.373 157.926 290.373 157.67V157.621C290.373 157 290.198 156.52 289.848 156.179C289.502 155.838 288.986 155.668 288.3 155.668C287.585 155.668 287.021 155.826 286.609 156.143C286.202 156.456 285.92 156.804 285.764 157.188L283.768 156.733C284.005 156.07 284.351 155.535 284.805 155.128C285.265 154.716 285.793 154.418 286.389 154.233C286.986 154.044 287.613 153.949 288.271 153.949C288.707 153.949 289.168 154.001 289.656 154.105C290.149 154.205 290.608 154.389 291.034 154.659C291.465 154.929 291.818 155.315 292.092 155.817C292.367 156.314 292.504 156.96 292.504 157.756V165H290.43V163.509H290.345C290.208 163.783 290.002 164.053 289.727 164.318C289.453 164.583 289.1 164.804 288.669 164.979C288.238 165.154 287.722 165.241 287.121 165.241ZM287.582 163.537C288.169 163.537 288.671 163.421 289.088 163.189C289.509 162.957 289.829 162.654 290.047 162.28C290.269 161.901 290.381 161.496 290.381 161.065V159.659C290.305 159.735 290.158 159.806 289.94 159.872C289.727 159.934 289.483 159.988 289.209 160.036C288.934 160.078 288.667 160.118 288.406 160.156C288.146 160.189 287.928 160.218 287.753 160.241C287.341 160.294 286.964 160.381 286.623 160.504C286.287 160.627 286.017 160.805 285.814 161.037C285.615 161.264 285.516 161.567 285.516 161.946C285.516 162.472 285.71 162.869 286.098 163.139C286.486 163.404 286.981 163.537 287.582 163.537ZM294.073 165L294.066 163.161H294.457C294.76 163.161 295.013 163.097 295.217 162.969C295.425 162.836 295.596 162.614 295.728 162.301C295.861 161.989 295.962 161.558 296.033 161.009C296.105 160.455 296.157 159.759 296.19 158.92L296.382 154.091H303.995V165H301.914V155.923H298.349L298.178 159.631C298.136 160.53 298.043 161.316 297.901 161.989C297.764 162.661 297.563 163.222 297.298 163.672C297.033 164.117 296.692 164.451 296.275 164.673C295.858 164.891 295.352 165 294.755 165H294.073ZM308.025 157.841H311.193C312.528 157.841 313.555 158.172 314.275 158.835C314.995 159.498 315.355 160.353 315.355 161.399C315.355 162.081 315.194 162.694 314.872 163.239C314.55 163.783 314.079 164.214 313.458 164.531C312.838 164.844 312.083 165 311.193 165H306.427V154.091H308.508V163.168H311.193C311.804 163.168 312.305 163.009 312.698 162.692C313.091 162.37 313.288 161.96 313.288 161.463C313.288 160.937 313.091 160.509 312.698 160.178C312.305 159.841 311.804 159.673 311.193 159.673H308.025V157.841ZM324.729 158.629V160.469H318.82V158.629H324.729ZM319.417 154.091V165H317.336V154.091H319.417ZM326.214 154.091V165H324.14V154.091H326.214ZM330.253 157.841H333.42C334.755 157.841 335.783 158.172 336.503 158.835C337.222 159.498 337.582 160.353 337.582 161.399C337.582 162.081 337.421 162.694 337.099 163.239C336.777 163.783 336.306 164.214 335.686 164.531C335.066 164.844 334.31 165 333.42 165H328.655V154.091H330.735V163.168H333.42C334.031 163.168 334.533 163.009 334.926 162.692C335.319 162.37 335.515 161.96 335.515 161.463C335.515 160.937 335.319 160.509 334.926 160.178C334.533 159.841 334.031 159.673 333.42 159.673H330.253V157.841ZM339.13 165V154.091H341.254V165H339.13ZM349.826 162.372L353.349 154.091H355.181L350.614 165H349.038L344.563 154.091H346.374L349.826 162.372ZM345.785 154.091V165H343.704V154.091H345.785ZM353.924 165V154.091H355.991V165H353.924ZM362.703 155.923V154.091H371.908V155.923H368.349V165H366.276V155.923H362.703ZM373.754 169.091V154.091H375.828V155.859H376.005C376.128 155.632 376.306 155.369 376.538 155.071C376.77 154.773 377.092 154.512 377.504 154.29C377.916 154.062 378.46 153.949 379.137 153.949C380.018 153.949 380.804 154.171 381.495 154.616C382.186 155.062 382.729 155.703 383.122 156.541C383.519 157.379 383.718 158.388 383.718 159.567C383.718 160.746 383.522 161.757 383.129 162.599C382.736 163.437 382.196 164.084 381.509 164.538C380.823 164.988 380.039 165.213 379.159 165.213C378.496 165.213 377.954 165.102 377.532 164.879C377.115 164.657 376.789 164.396 376.552 164.098C376.315 163.8 376.133 163.535 376.005 163.303H375.877V169.091H373.754ZM375.835 159.545C375.835 160.312 375.946 160.985 376.169 161.562C376.391 162.14 376.713 162.592 377.134 162.919C377.556 163.241 378.072 163.402 378.683 163.402C379.317 163.402 379.847 163.234 380.274 162.898C380.7 162.557 381.022 162.095 381.24 161.513C381.462 160.93 381.573 160.275 381.573 159.545C381.573 158.826 381.464 158.179 381.247 157.607C381.034 157.034 380.712 156.581 380.281 156.25C379.855 155.919 379.322 155.753 378.683 155.753C378.067 155.753 377.546 155.911 377.12 156.229C376.699 156.546 376.379 156.989 376.161 157.557C375.944 158.125 375.835 158.788 375.835 159.545ZM390.399 165.22C389.324 165.22 388.399 164.991 387.622 164.531C386.85 164.067 386.254 163.416 385.832 162.578C385.416 161.735 385.207 160.748 385.207 159.616C385.207 158.499 385.416 157.514 385.832 156.662C386.254 155.81 386.841 155.144 387.594 154.666C388.351 154.188 389.237 153.949 390.25 153.949C390.866 153.949 391.462 154.051 392.04 154.254C392.617 154.458 393.136 154.777 393.595 155.213C394.054 155.649 394.417 156.214 394.682 156.911C394.947 157.602 395.08 158.442 395.08 159.432V160.185H386.408V158.594H392.999C392.999 158.035 392.885 157.54 392.658 157.109C392.43 156.674 392.111 156.33 391.699 156.08C391.292 155.829 390.813 155.703 390.264 155.703C389.668 155.703 389.147 155.85 388.702 156.143C388.261 156.432 387.92 156.811 387.679 157.28C387.442 157.744 387.324 158.248 387.324 158.793V160.036C387.324 160.765 387.452 161.385 387.707 161.896C387.968 162.408 388.33 162.798 388.794 163.068C389.258 163.333 389.8 163.466 390.42 163.466C390.823 163.466 391.19 163.409 391.521 163.295C391.853 163.177 392.139 163.002 392.381 162.77C392.622 162.538 392.807 162.251 392.935 161.911L394.945 162.273C394.784 162.865 394.495 163.383 394.078 163.828C393.666 164.268 393.148 164.612 392.523 164.858C391.903 165.099 391.195 165.22 390.399 165.22ZM404.429 158.629V160.469H398.52V158.629H404.429ZM399.117 154.091V165H397.036V154.091H399.117ZM405.914 154.091V165H403.84V154.091H405.914ZM407.289 168.146V163.161H408.177C408.404 162.952 408.596 162.704 408.752 162.415C408.913 162.126 409.048 161.783 409.157 161.385C409.271 160.987 409.365 160.523 409.441 159.993C409.517 159.458 409.583 158.847 409.64 158.161L409.981 154.091H417.396V163.161H419.072V168.146H416.998V165H409.391V168.146H407.289ZM410.45 163.161H415.322V155.909H411.884L411.657 158.161C411.548 159.306 411.411 160.301 411.245 161.143C411.079 161.982 410.814 162.654 410.45 163.161ZM423.922 165.241C423.231 165.241 422.606 165.114 422.047 164.858C421.488 164.598 421.046 164.221 420.719 163.729C420.397 163.236 420.236 162.633 420.236 161.918C420.236 161.302 420.354 160.795 420.591 160.398C420.828 160 421.148 159.685 421.55 159.453C421.952 159.221 422.402 159.046 422.899 158.928C423.397 158.809 423.903 158.719 424.419 158.658C425.073 158.582 425.603 158.52 426.01 158.473C426.417 158.421 426.713 158.338 426.898 158.224C427.083 158.111 427.175 157.926 427.175 157.67V157.621C427.175 157 427 156.52 426.649 156.179C426.304 155.838 425.788 155.668 425.101 155.668C424.386 155.668 423.823 155.826 423.411 156.143C423.004 156.456 422.722 156.804 422.566 157.188L420.57 156.733C420.807 156.07 421.152 155.535 421.607 155.128C422.066 154.716 422.594 154.418 423.191 154.233C423.787 154.044 424.415 153.949 425.073 153.949C425.508 153.949 425.97 154.001 426.458 154.105C426.95 154.205 427.409 154.389 427.836 154.659C428.266 154.929 428.619 155.315 428.894 155.817C429.168 156.314 429.306 156.96 429.306 157.756V165H427.232V163.509H427.147C427.009 163.783 426.803 164.053 426.529 164.318C426.254 164.583 425.901 164.804 425.47 164.979C425.04 165.154 424.524 165.241 423.922 165.241ZM424.384 163.537C424.971 163.537 425.473 163.421 425.89 163.189C426.311 162.957 426.631 162.654 426.848 162.28C427.071 161.901 427.182 161.496 427.182 161.065V159.659C427.106 159.735 426.96 159.806 426.742 159.872C426.529 159.934 426.285 159.988 426.01 160.036C425.736 160.078 425.468 160.118 425.208 160.156C424.947 160.189 424.729 160.218 424.554 160.241C424.142 160.294 423.766 160.381 423.425 160.504C423.089 160.627 422.819 160.805 422.615 161.037C422.417 161.264 422.317 161.567 422.317 161.946C422.317 162.472 422.511 162.869 422.899 163.139C423.288 163.404 423.783 163.537 424.384 163.537ZM437.856 162.372L441.379 154.091H443.211L438.645 165H437.068L432.594 154.091H434.405L437.856 162.372ZM433.815 154.091V165H431.734V154.091H433.815ZM441.954 165V154.091H444.021V165H441.954ZM450.698 162.116H452.871C452.9 162.562 453.101 162.905 453.475 163.146C453.854 163.388 454.344 163.509 454.945 163.509C455.556 163.509 456.077 163.378 456.508 163.118C456.939 162.853 457.154 162.443 457.154 161.889C457.154 161.558 457.071 161.269 456.905 161.023C456.744 160.772 456.515 160.578 456.217 160.44C455.923 160.303 455.575 160.234 455.172 160.234H453.397V158.565H455.172C455.774 158.565 456.224 158.428 456.522 158.153C456.82 157.879 456.969 157.536 456.969 157.124C456.969 156.679 456.808 156.321 456.486 156.051C456.169 155.777 455.726 155.639 455.158 155.639C454.581 155.639 454.1 155.769 453.717 156.03C453.333 156.286 453.132 156.617 453.113 157.024H450.968C450.982 156.413 451.167 155.878 451.522 155.419C451.882 154.955 452.365 154.595 452.971 154.339C453.582 154.079 454.275 153.949 455.052 153.949C455.861 153.949 456.562 154.079 457.154 154.339C457.746 154.6 458.203 154.96 458.525 155.419C458.851 155.878 459.015 156.406 459.015 157.003C459.015 157.604 458.835 158.097 458.475 158.48C458.12 158.859 457.656 159.131 457.083 159.297V159.411C457.504 159.439 457.878 159.567 458.205 159.794C458.532 160.021 458.788 160.322 458.972 160.696C459.157 161.07 459.249 161.494 459.249 161.967C459.249 162.635 459.065 163.213 458.695 163.7C458.331 164.188 457.824 164.564 457.175 164.83C456.531 165.09 455.795 165.22 454.967 165.22C454.162 165.22 453.44 165.095 452.8 164.844C452.166 164.588 451.662 164.228 451.288 163.764C450.918 163.3 450.722 162.751 450.698 162.116ZM464.217 165.241C463.525 165.241 462.9 165.114 462.342 164.858C461.783 164.598 461.34 164.221 461.014 163.729C460.692 163.236 460.531 162.633 460.531 161.918C460.531 161.302 460.649 160.795 460.886 160.398C461.122 160 461.442 159.685 461.845 159.453C462.247 159.221 462.697 159.046 463.194 158.928C463.691 158.809 464.198 158.719 464.714 158.658C465.367 158.582 465.898 158.52 466.305 158.473C466.712 158.421 467.008 158.338 467.193 158.224C467.377 158.111 467.47 157.926 467.47 157.67V157.621C467.47 157 467.294 156.52 466.944 156.179C466.598 155.838 466.082 155.668 465.396 155.668C464.681 155.668 464.117 155.826 463.705 156.143C463.298 156.456 463.016 156.804 462.86 157.188L460.864 156.733C461.101 156.07 461.447 155.535 461.901 155.128C462.361 154.716 462.889 154.418 463.485 154.233C464.082 154.044 464.709 153.949 465.367 153.949C465.803 153.949 466.265 154.001 466.752 154.105C467.245 154.205 467.704 154.389 468.13 154.659C468.561 154.929 468.914 155.315 469.188 155.817C469.463 156.314 469.6 156.96 469.6 157.756V165H467.526V163.509H467.441C467.304 163.783 467.098 164.053 466.823 164.318C466.549 164.583 466.196 164.804 465.765 164.979C465.334 165.154 464.818 165.241 464.217 165.241ZM464.678 163.537C465.265 163.537 465.767 163.421 466.184 163.189C466.605 162.957 466.925 162.654 467.143 162.28C467.365 161.901 467.477 161.496 467.477 161.065V159.659C467.401 159.735 467.254 159.806 467.036 159.872C466.823 159.934 466.579 159.988 466.305 160.036C466.03 160.078 465.763 160.118 465.502 160.156C465.242 160.189 465.024 160.218 464.849 160.241C464.437 160.294 464.06 160.381 463.72 160.504C463.383 160.627 463.113 160.805 462.91 161.037C462.711 161.264 462.612 161.567 462.612 161.946C462.612 162.472 462.806 162.869 463.194 163.139C463.582 163.404 464.077 163.537 464.678 163.537ZM484.315 158.629V160.469H478.406V158.629H484.315ZM479.003 154.091V165H476.922V154.091H479.003ZM485.8 154.091V165H483.726V154.091H485.8ZM492.942 165.22C491.867 165.22 490.942 164.991 490.165 164.531C489.393 164.067 488.797 163.416 488.375 162.578C487.959 161.735 487.75 160.748 487.75 159.616C487.75 158.499 487.959 157.514 488.375 156.662C488.797 155.81 489.384 155.144 490.137 154.666C490.894 154.188 491.78 153.949 492.793 153.949C493.409 153.949 494.005 154.051 494.583 154.254C495.16 154.458 495.679 154.777 496.138 155.213C496.597 155.649 496.96 156.214 497.225 156.911C497.49 157.602 497.623 158.442 497.623 159.432V160.185H488.951V158.594H495.542C495.542 158.035 495.428 157.54 495.201 157.109C494.973 156.674 494.654 156.33 494.242 156.08C493.835 155.829 493.356 155.703 492.807 155.703C492.211 155.703 491.69 155.85 491.245 156.143C490.804 156.432 490.463 156.811 490.222 157.28C489.985 157.744 489.867 158.248 489.867 158.793V160.036C489.867 160.765 489.995 161.385 490.25 161.896C490.511 162.408 490.873 162.798 491.337 163.068C491.801 163.333 492.343 163.466 492.963 163.466C493.366 163.466 493.733 163.409 494.064 163.295C494.396 163.177 494.682 163.002 494.924 162.77C495.165 162.538 495.35 162.251 495.478 161.911L497.488 162.273C497.327 162.865 497.038 163.383 496.621 163.828C496.209 164.268 495.691 164.612 495.066 164.858C494.445 165.099 493.738 165.22 492.942 165.22ZM504.174 165.22C503.118 165.22 502.209 164.981 501.447 164.503C500.689 164.02 500.107 163.355 499.699 162.507C499.292 161.66 499.089 160.689 499.089 159.595C499.089 158.487 499.297 157.509 499.714 156.662C500.13 155.81 500.717 155.144 501.475 154.666C502.233 154.188 503.125 153.949 504.153 153.949C504.981 153.949 505.72 154.103 506.369 154.411C507.017 154.714 507.54 155.14 507.938 155.689C508.341 156.238 508.58 156.88 508.655 157.614H506.589C506.475 157.102 506.215 156.662 505.807 156.293C505.405 155.923 504.865 155.739 504.188 155.739C503.596 155.739 503.078 155.895 502.633 156.207C502.192 156.515 501.849 156.955 501.603 157.528C501.357 158.097 501.234 158.769 501.234 159.545C501.234 160.341 501.354 161.027 501.596 161.605C501.837 162.183 502.178 162.63 502.619 162.947C503.064 163.265 503.587 163.423 504.188 163.423C504.591 163.423 504.955 163.35 505.282 163.203C505.613 163.052 505.89 162.836 506.113 162.557C506.34 162.277 506.499 161.941 506.589 161.548H508.655C508.58 162.254 508.35 162.884 507.967 163.438C507.583 163.991 507.069 164.427 506.425 164.744C505.786 165.062 505.036 165.22 504.174 165.22ZM510.526 165V154.091H512.65V158.665H513.673L517.274 154.091H519.901L515.676 159.396L519.951 165H517.316L514.028 160.639H512.65V165H510.526ZM525.347 165.22C524.324 165.22 523.431 164.986 522.669 164.517C521.907 164.048 521.315 163.393 520.893 162.55C520.472 161.707 520.261 160.722 520.261 159.595C520.261 158.464 520.472 157.474 520.893 156.626C521.315 155.779 521.907 155.121 522.669 154.652C523.431 154.183 524.324 153.949 525.347 153.949C526.369 153.949 527.262 154.183 528.024 154.652C528.786 155.121 529.378 155.779 529.8 156.626C530.221 157.474 530.432 158.464 530.432 159.595C530.432 160.722 530.221 161.707 529.8 162.55C529.378 163.393 528.786 164.048 528.024 164.517C527.262 164.986 526.369 165.22 525.347 165.22ZM525.354 163.438C526.017 163.438 526.566 163.262 527.001 162.912C527.437 162.562 527.759 162.095 527.967 161.513C528.18 160.93 528.287 160.289 528.287 159.588C528.287 158.892 528.18 158.253 527.967 157.67C527.759 157.083 527.437 156.612 527.001 156.257C526.566 155.902 526.017 155.724 525.354 155.724C524.686 155.724 524.132 155.902 523.692 156.257C523.256 156.612 522.932 157.083 522.719 157.67C522.51 158.253 522.406 158.892 522.406 159.588C522.406 160.289 522.51 160.93 522.719 161.513C522.932 162.095 523.256 162.562 523.692 162.912C524.132 163.262 524.686 163.438 525.354 163.438ZM531.543 165L531.536 163.161H531.926C532.229 163.161 532.483 163.097 532.686 162.969C532.895 162.836 533.065 162.614 533.198 162.301C533.33 161.989 533.432 161.558 533.503 161.009C533.574 160.455 533.626 159.759 533.659 158.92L533.851 154.091H541.465V165H539.384V155.923H535.818L535.648 159.631C535.605 160.53 535.513 161.316 535.371 161.989C535.234 162.661 535.032 163.222 534.767 163.672C534.502 164.117 534.161 164.451 533.744 164.673C533.328 164.891 532.821 165 532.225 165H531.543ZM545.495 157.841H548.662C549.998 157.841 551.025 158.172 551.745 158.835C552.464 159.498 552.824 160.353 552.824 161.399C552.824 162.081 552.663 162.694 552.341 163.239C552.019 163.783 551.548 164.214 550.928 164.531C550.308 164.844 549.552 165 548.662 165H543.897V154.091H545.978V163.168H548.662C549.273 163.168 549.775 163.009 550.168 162.692C550.561 162.37 550.757 161.96 550.757 161.463C550.757 160.937 550.561 160.509 550.168 160.178C549.775 159.841 549.273 159.673 548.662 159.673H545.495V157.841ZM554.805 165V154.091H556.929V158.665H557.952L561.552 154.091H564.18L559.954 159.396L564.23 165H561.595L558.307 160.639H556.929V165H554.805ZM569.625 165.22C568.603 165.22 567.71 164.986 566.948 164.517C566.186 164.048 565.594 163.393 565.172 162.55C564.751 161.707 564.54 160.722 564.54 159.595C564.54 158.464 564.751 157.474 565.172 156.626C565.594 155.779 566.186 155.121 566.948 154.652C567.71 154.183 568.603 153.949 569.625 153.949C570.648 153.949 571.541 154.183 572.303 154.652C573.065 155.121 573.657 155.779 574.079 156.626C574.5 157.474 574.711 158.464 574.711 159.595C574.711 160.722 574.5 161.707 574.079 162.55C573.657 163.393 573.065 164.048 572.303 164.517C571.541 164.986 570.648 165.22 569.625 165.22ZM569.633 163.438C570.295 163.438 570.845 163.262 571.28 162.912C571.716 162.562 572.038 162.095 572.246 161.513C572.459 160.93 572.566 160.289 572.566 159.588C572.566 158.892 572.459 158.253 572.246 157.67C572.038 157.083 571.716 156.612 571.28 156.257C570.845 155.902 570.295 155.724 569.633 155.724C568.965 155.724 568.411 155.902 567.971 156.257C567.535 156.612 567.211 157.083 566.998 157.67C566.789 158.253 566.685 158.892 566.685 159.588C566.685 160.289 566.789 160.93 566.998 161.513C567.211 162.095 567.535 162.562 567.971 162.912C568.411 163.262 568.965 163.438 569.633 163.438ZM587.696 162.372L591.219 154.091H593.051L588.485 165H586.908L582.433 154.091H584.244L587.696 162.372ZM583.655 154.091V165H581.574V154.091H583.655ZM591.794 165V154.091H593.861V165H591.794ZM598.372 162.024L603.18 154.091H605.467V165H603.386V157.06L598.599 165H596.291V154.091H598.372V162.024ZM615.316 158.629V160.469H609.407V158.629H615.316ZM610.003 154.091V165H607.922V154.091H610.003ZM616.8 154.091V165H614.726V154.091H616.8ZM620.193 169.091C619.876 169.091 619.587 169.065 619.326 169.013C619.066 168.965 618.872 168.913 618.744 168.857L619.255 167.116C619.644 167.221 619.989 167.266 620.292 167.251C620.595 167.237 620.863 167.124 621.095 166.911C621.332 166.697 621.54 166.349 621.72 165.866L621.983 165.142L617.991 154.091H620.264L623.027 162.557H623.14L625.903 154.091H628.183L623.687 166.456C623.479 167.024 623.214 167.505 622.892 167.898C622.57 168.295 622.186 168.594 621.741 168.793C621.296 168.991 620.78 169.091 620.193 169.091ZM629.168 155.923V154.091H638.373V155.923H634.814V165H632.74V155.923H629.168ZM148.083 190.024L152.891 182.091H155.178V193H153.097V185.06L148.31 193H146.002V182.091H148.083V190.024ZM169.919 186.629V188.469H164.01V186.629H169.919ZM164.607 182.091V193H162.526V182.091H164.607ZM171.404 182.091V193H169.33V182.091H171.404ZM177.019 193.241C176.328 193.241 175.703 193.114 175.144 192.858C174.586 192.598 174.143 192.221 173.816 191.729C173.494 191.236 173.333 190.633 173.333 189.918C173.333 189.302 173.452 188.795 173.688 188.398C173.925 188 174.245 187.685 174.647 187.453C175.05 187.221 175.5 187.046 175.997 186.928C176.494 186.809 177.001 186.719 177.517 186.658C178.17 186.582 178.7 186.52 179.108 186.473C179.515 186.421 179.811 186.338 179.995 186.224C180.18 186.111 180.272 185.926 180.272 185.67V185.621C180.272 185 180.097 184.52 179.747 184.179C179.401 183.838 178.885 183.668 178.198 183.668C177.483 183.668 176.92 183.826 176.508 184.143C176.101 184.456 175.819 184.804 175.663 185.188L173.667 184.733C173.904 184.07 174.25 183.535 174.704 183.128C175.163 182.716 175.691 182.418 176.288 182.233C176.885 182.044 177.512 181.949 178.17 181.949C178.606 181.949 179.067 182.001 179.555 182.105C180.047 182.205 180.507 182.389 180.933 182.659C181.364 182.929 181.716 183.315 181.991 183.817C182.266 184.314 182.403 184.96 182.403 185.756V193H180.329V191.509H180.244C180.107 191.783 179.901 192.053 179.626 192.318C179.351 192.583 178.999 192.804 178.568 192.979C178.137 193.154 177.621 193.241 177.019 193.241ZM177.481 191.537C178.068 191.537 178.57 191.421 178.987 191.189C179.408 190.957 179.728 190.654 179.946 190.28C180.168 189.901 180.279 189.496 180.279 189.065V187.659C180.204 187.735 180.057 187.806 179.839 187.872C179.626 187.934 179.382 187.988 179.108 188.036C178.833 188.078 178.565 188.118 178.305 188.156C178.045 188.189 177.827 188.218 177.652 188.241C177.24 188.294 176.863 188.381 176.522 188.504C176.186 188.627 175.916 188.805 175.713 189.037C175.514 189.264 175.414 189.567 175.414 189.946C175.414 190.472 175.608 190.869 175.997 191.139C176.385 191.404 176.88 191.537 177.481 191.537ZM193.248 178.028L194.128 179.371C193.802 179.669 193.43 179.882 193.013 180.01C192.601 180.133 192.125 180.211 191.586 180.244C191.046 180.273 190.428 180.299 189.732 180.322C188.946 180.346 188.3 180.517 187.793 180.834C187.286 181.146 186.896 181.61 186.621 182.226C186.351 182.837 186.176 183.604 186.096 184.527H186.231C186.586 183.85 187.078 183.343 187.708 183.007C188.342 182.671 189.055 182.503 189.846 182.503C190.726 182.503 191.51 182.704 192.197 183.107C192.883 183.509 193.423 184.098 193.816 184.875C194.214 185.647 194.412 186.591 194.412 187.709C194.412 188.84 194.204 189.818 193.787 190.642C193.375 191.466 192.793 192.103 192.04 192.553C191.292 192.998 190.409 193.22 189.391 193.22C188.373 193.22 187.485 192.991 186.728 192.531C185.975 192.067 185.39 191.381 184.974 190.472C184.562 189.562 184.356 188.44 184.356 187.105V186.026C184.356 183.53 184.801 181.653 185.691 180.393C186.581 179.134 187.911 178.488 189.682 178.455C190.255 178.44 190.767 178.438 191.216 178.447C191.666 178.452 192.059 178.431 192.395 178.384C192.736 178.331 193.02 178.213 193.248 178.028ZM189.398 191.438C189.99 191.438 190.499 191.288 190.925 190.99C191.356 190.687 191.688 190.259 191.92 189.705C192.152 189.151 192.268 188.497 192.268 187.744C192.268 187.006 192.152 186.378 191.92 185.862C191.688 185.346 191.356 184.953 190.925 184.683C190.494 184.409 189.978 184.271 189.377 184.271C188.932 184.271 188.534 184.349 188.184 184.506C187.833 184.657 187.533 184.882 187.282 185.18C187.036 185.479 186.844 185.843 186.706 186.274C186.574 186.7 186.503 187.19 186.493 187.744C186.493 188.871 186.751 189.768 187.268 190.436C187.788 191.104 188.499 191.438 189.398 191.438ZM198.466 190.024L203.274 182.091H205.561V193H203.48V185.06L198.693 193H196.385V182.091H198.466V190.024ZM208.016 197.091V182.091H210.09V183.859H210.267C210.39 183.632 210.568 183.369 210.8 183.071C211.032 182.773 211.354 182.512 211.766 182.29C212.178 182.062 212.722 181.949 213.399 181.949C214.28 181.949 215.066 182.171 215.757 182.616C216.449 183.062 216.991 183.703 217.384 184.541C217.781 185.379 217.98 186.388 217.98 187.567C217.98 188.746 217.784 189.757 217.391 190.599C216.998 191.437 216.458 192.084 215.772 192.538C215.085 192.988 214.301 193.213 213.421 193.213C212.758 193.213 212.216 193.102 211.794 192.879C211.378 192.657 211.051 192.396 210.814 192.098C210.577 191.8 210.395 191.535 210.267 191.303H210.139V197.091H208.016ZM210.097 187.545C210.097 188.312 210.208 188.985 210.431 189.562C210.653 190.14 210.975 190.592 211.397 190.919C211.818 191.241 212.334 191.402 212.945 191.402C213.579 191.402 214.11 191.234 214.536 190.898C214.962 190.557 215.284 190.095 215.502 189.513C215.724 188.93 215.835 188.275 215.835 187.545C215.835 186.826 215.727 186.179 215.509 185.607C215.296 185.034 214.974 184.581 214.543 184.25C214.117 183.919 213.584 183.753 212.945 183.753C212.329 183.753 211.808 183.911 211.382 184.229C210.961 184.546 210.641 184.989 210.424 185.557C210.206 186.125 210.097 186.788 210.097 187.545ZM223.134 193.241C222.443 193.241 221.818 193.114 221.259 192.858C220.701 192.598 220.258 192.221 219.931 191.729C219.609 191.236 219.448 190.633 219.448 189.918C219.448 189.302 219.567 188.795 219.803 188.398C220.04 188 220.36 187.685 220.762 187.453C221.165 187.221 221.614 187.046 222.112 186.928C222.609 186.809 223.115 186.719 223.631 186.658C224.285 186.582 224.815 186.52 225.222 186.473C225.63 186.421 225.925 186.338 226.11 186.224C226.295 186.111 226.387 185.926 226.387 185.67V185.621C226.387 185 226.212 184.52 225.862 184.179C225.516 183.838 225 183.668 224.313 183.668C223.598 183.668 223.035 183.826 222.623 184.143C222.216 184.456 221.934 184.804 221.778 185.188L219.782 184.733C220.019 184.07 220.364 183.535 220.819 183.128C221.278 182.716 221.806 182.418 222.403 182.233C222.999 182.044 223.627 181.949 224.285 181.949C224.72 181.949 225.182 182.001 225.67 182.105C226.162 182.205 226.622 182.389 227.048 182.659C227.479 182.929 227.831 183.315 228.106 183.817C228.381 184.314 228.518 184.96 228.518 185.756V193H226.444V191.509H226.359C226.221 191.783 226.015 192.053 225.741 192.318C225.466 192.583 225.113 192.804 224.683 192.979C224.252 193.154 223.736 193.241 223.134 193.241ZM223.596 191.537C224.183 191.537 224.685 191.421 225.102 191.189C225.523 190.957 225.843 190.654 226.06 190.28C226.283 189.901 226.394 189.496 226.394 189.065V187.659C226.318 187.735 226.172 187.806 225.954 187.872C225.741 187.934 225.497 187.988 225.222 188.036C224.948 188.078 224.68 188.118 224.42 188.156C224.159 188.189 223.942 188.218 223.766 188.241C223.354 188.294 222.978 188.381 222.637 188.504C222.301 188.627 222.031 188.805 221.827 189.037C221.629 189.264 221.529 189.567 221.529 189.946C221.529 190.472 221.723 190.869 222.112 191.139C222.5 191.404 222.995 191.537 223.596 191.537ZM233.027 190.024L237.836 182.091H240.122V193H238.041V185.06L233.255 193H230.946V182.091H233.027V190.024ZM236.926 178.398H238.674C238.674 179.198 238.389 179.849 237.821 180.351C237.258 180.848 236.496 181.097 235.534 181.097C234.578 181.097 233.818 180.848 233.255 180.351C232.691 179.849 232.409 179.198 232.409 178.398H234.149C234.149 178.753 234.254 179.068 234.462 179.342C234.67 179.612 235.028 179.747 235.534 179.747C236.032 179.747 236.387 179.612 236.6 179.342C236.818 179.072 236.926 178.758 236.926 178.398ZM241.225 183.923V182.091H250.429V183.923H246.871V193H244.797V183.923H241.225ZM256.469 193.22C255.394 193.22 254.469 192.991 253.692 192.531C252.92 192.067 252.324 191.416 251.902 190.578C251.486 189.735 251.277 188.748 251.277 187.616C251.277 186.499 251.486 185.514 251.902 184.662C252.324 183.81 252.911 183.144 253.664 182.666C254.421 182.188 255.307 181.949 256.32 181.949C256.935 181.949 257.532 182.051 258.11 182.254C258.687 182.458 259.206 182.777 259.665 183.213C260.124 183.649 260.487 184.214 260.752 184.911C261.017 185.602 261.15 186.442 261.15 187.432V188.185H252.478V186.594H259.069C259.069 186.035 258.955 185.54 258.728 185.109C258.5 184.674 258.181 184.33 257.769 184.08C257.362 183.829 256.883 183.703 256.334 183.703C255.738 183.703 255.217 183.85 254.772 184.143C254.331 184.432 253.99 184.811 253.749 185.28C253.512 185.744 253.394 186.248 253.394 186.793V188.036C253.394 188.765 253.522 189.385 253.777 189.896C254.038 190.408 254.4 190.798 254.864 191.068C255.328 191.333 255.87 191.466 256.49 191.466C256.893 191.466 257.26 191.409 257.591 191.295C257.923 191.177 258.209 191.002 258.451 190.77C258.692 190.538 258.877 190.251 259.005 189.911L261.015 190.273C260.854 190.865 260.565 191.383 260.148 191.828C259.736 192.268 259.218 192.612 258.593 192.858C257.972 193.099 257.265 193.22 256.469 193.22ZM502.782 193V182.091H507.306C508.537 182.091 509.513 182.354 510.233 182.879C510.952 183.4 511.312 184.108 511.312 185.003C511.312 185.642 511.108 186.149 510.701 186.523C510.294 186.897 509.754 187.148 509.082 187.276C509.57 187.332 510.017 187.479 510.424 187.716C510.831 187.948 511.158 188.26 511.404 188.653C511.655 189.046 511.781 189.515 511.781 190.06C511.781 190.637 511.632 191.149 511.333 191.594C511.035 192.034 510.602 192.38 510.034 192.631C509.47 192.877 508.791 193 507.995 193H502.782ZM504.778 191.224H507.995C508.521 191.224 508.933 191.099 509.231 190.848C509.529 190.597 509.679 190.256 509.679 189.825C509.679 189.319 509.529 188.921 509.231 188.632C508.933 188.339 508.521 188.192 507.995 188.192H504.778V191.224ZM504.778 186.636H507.328C507.725 186.636 508.066 186.58 508.35 186.466C508.639 186.352 508.859 186.191 509.011 185.983C509.167 185.77 509.245 185.519 509.245 185.23C509.245 184.809 509.072 184.48 508.727 184.243C508.381 184.006 507.908 183.888 507.306 183.888H504.778V186.636ZM525.997 186.629V188.469H520.088V186.629H525.997ZM520.684 182.091V193H518.603V182.091H520.684ZM527.481 182.091V193H525.407V182.091H527.481ZM534.624 193.22C533.549 193.22 532.623 192.991 531.847 192.531C531.075 192.067 530.478 191.416 530.057 190.578C529.64 189.735 529.432 188.748 529.432 187.616C529.432 186.499 529.64 185.514 530.057 184.662C530.478 183.81 531.066 183.144 531.818 182.666C532.576 182.188 533.461 181.949 534.475 181.949C535.09 181.949 535.687 182.051 536.264 182.254C536.842 182.458 537.361 182.777 537.82 183.213C538.279 183.649 538.641 184.214 538.906 184.911C539.172 185.602 539.304 186.442 539.304 187.432V188.185H530.632V186.594H537.223C537.223 186.035 537.11 185.54 536.882 185.109C536.655 184.674 536.335 184.33 535.924 184.08C535.516 183.829 535.038 183.703 534.489 183.703C533.892 183.703 533.371 183.85 532.926 184.143C532.486 184.432 532.145 184.811 531.904 185.28C531.667 185.744 531.549 186.248 531.549 186.793V188.036C531.549 188.765 531.676 189.385 531.932 189.896C532.192 190.408 532.555 190.798 533.019 191.068C533.483 191.333 534.025 191.466 534.645 191.466C535.048 191.466 535.415 191.409 535.746 191.295C536.077 191.177 536.364 191.002 536.605 190.77C536.847 190.538 537.031 190.251 537.159 189.911L539.169 190.273C539.008 190.865 538.719 191.383 538.303 191.828C537.891 192.268 537.372 192.612 536.747 192.858C536.127 193.099 535.419 193.22 534.624 193.22ZM540.195 196.146V191.161H541.083C541.31 190.952 541.502 190.704 541.658 190.415C541.819 190.126 541.954 189.783 542.063 189.385C542.177 188.987 542.271 188.523 542.347 187.993C542.423 187.458 542.489 186.847 542.546 186.161L542.887 182.091H550.302V191.161H551.978V196.146H549.904V193H542.297V196.146H540.195ZM543.356 191.161H548.228V183.909H544.79L544.563 186.161C544.454 187.306 544.317 188.301 544.151 189.143C543.985 189.982 543.72 190.654 543.356 191.161ZM558.355 193.22C557.28 193.22 556.355 192.991 555.578 192.531C554.806 192.067 554.21 191.416 553.788 190.578C553.372 189.735 553.163 188.748 553.163 187.616C553.163 186.499 553.372 185.514 553.788 184.662C554.21 183.81 554.797 183.144 555.55 182.666C556.307 182.188 557.193 181.949 558.206 181.949C558.821 181.949 559.418 182.051 559.996 182.254C560.573 182.458 561.092 182.777 561.551 183.213C562.01 183.649 562.373 184.214 562.638 184.911C562.903 185.602 563.035 186.442 563.035 187.432V188.185H554.364V186.594H560.954C560.954 186.035 560.841 185.54 560.614 185.109C560.386 184.674 560.067 184.33 559.655 184.08C559.248 183.829 558.769 183.703 558.22 183.703C557.623 183.703 557.103 183.85 556.658 184.143C556.217 184.432 555.876 184.811 555.635 185.28C555.398 185.744 555.28 186.248 555.28 186.793V188.036C555.28 188.765 555.408 189.385 555.663 189.896C555.924 190.408 556.286 190.798 556.75 191.068C557.214 191.333 557.756 191.466 558.376 191.466C558.779 191.466 559.146 191.409 559.477 191.295C559.809 191.177 560.095 191.002 560.337 190.77C560.578 190.538 560.763 190.251 560.891 189.911L562.9 190.273C562.74 190.865 562.451 191.383 562.034 191.828C561.622 192.268 561.104 192.612 560.479 192.858C559.858 193.099 559.15 193.22 558.355 193.22ZM564.132 193L564.125 191.161H564.516C564.819 191.161 565.072 191.097 565.276 190.969C565.484 190.836 565.654 190.614 565.787 190.301C565.92 189.989 566.021 189.558 566.092 189.009C566.163 188.455 566.216 187.759 566.249 186.92L566.44 182.091H574.054V193H571.973V183.923H568.408L568.237 187.631C568.195 188.53 568.102 189.316 567.96 189.989C567.823 190.661 567.622 191.222 567.357 191.672C567.092 192.117 566.751 192.451 566.334 192.673C565.917 192.891 565.411 193 564.814 193H564.132ZM581.976 186.707V188.554H576.159V186.707H581.976ZM577.885 182.091V193H575.762V182.091H577.885ZM585.3 193.22C584.287 193.22 583.401 192.983 582.644 192.51C581.886 192.036 581.299 191.378 580.882 190.536C580.466 189.688 580.257 188.705 580.257 187.588C580.257 186.461 580.466 185.476 580.882 184.634C581.299 183.786 581.886 183.128 582.644 182.659C583.401 182.186 584.287 181.949 585.3 181.949C586.318 181.949 587.203 182.186 587.956 182.659C588.714 183.128 589.301 183.786 589.718 184.634C590.139 185.476 590.35 186.461 590.35 187.588C590.35 188.705 590.139 189.688 589.718 190.536C589.301 191.378 588.714 192.036 587.956 192.51C587.203 192.983 586.318 193.22 585.3 193.22ZM585.3 191.402C585.987 191.402 586.548 191.229 586.983 190.884C587.424 190.533 587.748 190.069 587.956 189.491C588.165 188.914 588.269 188.279 588.269 187.588C588.269 186.892 588.165 186.255 587.956 185.678C587.748 185.095 587.424 184.629 586.983 184.278C586.548 183.928 585.987 183.753 585.3 183.753C584.618 183.753 584.057 183.928 583.617 184.278C583.176 184.629 582.852 185.095 582.644 185.678C582.435 186.255 582.331 186.892 582.331 187.588C582.331 188.279 582.435 188.914 582.644 189.491C582.852 190.069 583.176 190.533 583.617 190.884C584.057 191.229 584.618 191.402 585.3 191.402Z" fill="#111111"/>
<path d="M267.75 193V190.784L272.928 185.99C273.368 185.564 273.737 185.18 274.036 184.839C274.339 184.499 274.568 184.165 274.725 183.838C274.881 183.507 274.959 183.149 274.959 182.766C274.959 182.339 274.862 181.973 274.668 181.665C274.474 181.352 274.208 181.113 273.872 180.947C273.536 180.777 273.155 180.692 272.729 180.692C272.284 180.692 271.895 180.782 271.564 180.962C271.233 181.142 270.977 181.4 270.797 181.736C270.617 182.072 270.527 182.472 270.527 182.936H267.608C267.608 181.984 267.823 181.158 268.254 180.457C268.685 179.757 269.289 179.214 270.065 178.831C270.842 178.447 271.737 178.256 272.75 178.256C273.792 178.256 274.698 178.44 275.47 178.81C276.247 179.174 276.85 179.681 277.281 180.33C277.712 180.978 277.928 181.722 277.928 182.56C277.928 183.109 277.819 183.651 277.601 184.186C277.388 184.721 277.007 185.315 276.457 185.969C275.908 186.617 275.134 187.396 274.135 188.305L272.011 190.386V190.486H278.119V193H267.75ZM285.651 193.32C284.429 193.315 283.378 193.014 282.497 192.418C281.621 191.821 280.947 190.957 280.473 189.825C280.005 188.694 279.773 187.332 279.777 185.741C279.777 184.155 280.012 182.804 280.48 181.686C280.954 180.569 281.629 179.719 282.505 179.136C283.385 178.549 284.434 178.256 285.651 178.256C286.868 178.256 287.914 178.549 288.79 179.136C289.671 179.723 290.348 180.576 290.821 181.693C291.295 182.806 291.529 184.155 291.524 185.741C291.524 187.337 291.288 188.701 290.814 189.832C290.345 190.964 289.673 191.828 288.797 192.425C287.921 193.021 286.872 193.32 285.651 193.32ZM285.651 190.77C286.484 190.77 287.149 190.351 287.647 189.513C288.144 188.675 288.39 187.418 288.385 185.741C288.385 184.638 288.272 183.72 288.044 182.986C287.822 182.252 287.505 181.7 287.093 181.331C286.685 180.962 286.205 180.777 285.651 180.777C284.822 180.777 284.159 181.191 283.662 182.02C283.165 182.848 282.914 184.089 282.909 185.741C282.909 186.859 283.021 187.792 283.243 188.54C283.47 189.283 283.79 189.842 284.202 190.216C284.614 190.585 285.097 190.77 285.651 190.77ZM299.02 193.32C297.799 193.315 296.748 193.014 295.867 192.418C294.991 191.821 294.316 190.957 293.843 189.825C293.374 188.694 293.142 187.332 293.147 185.741C293.147 184.155 293.381 182.804 293.85 181.686C294.323 180.569 294.998 179.719 295.874 179.136C296.755 178.549 297.804 178.256 299.02 178.256C300.237 178.256 301.284 178.549 302.16 179.136C303.04 179.723 303.717 180.576 304.191 181.693C304.664 182.806 304.899 184.155 304.894 185.741C304.894 187.337 304.657 188.701 304.184 189.832C303.715 190.964 303.043 191.828 302.167 192.425C301.291 193.021 300.242 193.32 299.02 193.32ZM299.02 190.77C299.854 190.77 300.519 190.351 301.016 189.513C301.513 188.675 301.759 187.418 301.755 185.741C301.755 184.638 301.641 183.72 301.414 182.986C301.191 182.252 300.874 181.7 300.462 181.331C300.055 180.962 299.574 180.777 299.02 180.777C298.192 180.777 297.529 181.191 297.032 182.02C296.535 182.848 296.284 184.089 296.279 185.741C296.279 186.859 296.39 187.792 296.613 188.54C296.84 189.283 297.16 189.842 297.572 190.216C297.983 190.585 298.466 190.77 299.02 190.77ZM313.512 184.527V186.928H306.879V184.527H313.512ZM321.99 178.455V193H318.915V181.374H318.829L315.498 183.462V180.734L319.099 178.455H321.99ZM330.75 193.32C329.528 193.315 328.477 193.014 327.597 192.418C326.721 191.821 326.046 190.957 325.573 189.825C325.104 188.694 324.872 187.332 324.876 185.741C324.876 184.155 325.111 182.804 325.58 181.686C326.053 180.569 326.728 179.719 327.604 179.136C328.484 178.549 329.533 178.256 330.75 178.256C331.967 178.256 333.013 178.549 333.889 179.136C334.77 179.723 335.447 180.576 335.921 181.693C336.394 182.806 336.628 184.155 336.624 185.741C336.624 187.337 336.387 188.701 335.913 189.832C335.445 190.964 334.772 191.828 333.896 192.425C333.02 193.021 331.972 193.32 330.75 193.32ZM330.75 190.77C331.583 190.77 332.249 190.351 332.746 189.513C333.243 188.675 333.489 187.418 333.484 185.741C333.484 184.638 333.371 183.72 333.144 182.986C332.921 182.252 332.604 181.7 332.192 181.331C331.785 180.962 331.304 180.777 330.75 180.777C329.921 180.777 329.259 181.191 328.761 182.02C328.264 182.848 328.013 184.089 328.009 185.741C328.009 186.859 328.12 187.792 328.342 188.54C328.57 189.283 328.889 189.842 329.301 190.216C329.713 190.585 330.196 190.77 330.75 190.77ZM344.12 193.32C342.898 193.315 341.847 193.014 340.966 192.418C340.09 191.821 339.416 190.957 338.942 189.825C338.473 188.694 338.241 187.332 338.246 185.741C338.246 184.155 338.48 182.804 338.949 181.686C339.423 180.569 340.097 179.719 340.973 179.136C341.854 178.549 342.903 178.256 344.12 178.256C345.336 178.256 346.383 178.549 347.259 179.136C348.139 179.723 348.817 180.576 349.29 181.693C349.764 182.806 349.998 184.155 349.993 185.741C349.993 187.337 349.756 188.701 349.283 189.832C348.814 190.964 348.142 191.828 347.266 192.425C346.39 193.021 345.341 193.32 344.12 193.32ZM344.12 190.77C344.953 190.77 345.618 190.351 346.115 189.513C346.613 188.675 346.859 187.418 346.854 185.741C346.854 184.638 346.74 183.72 346.513 182.986C346.291 182.252 345.973 181.7 345.561 181.331C345.154 180.962 344.674 180.777 344.12 180.777C343.291 180.777 342.628 181.191 342.131 182.02C341.634 182.848 341.383 184.089 341.378 185.741C341.378 186.859 341.489 187.792 341.712 188.54C341.939 189.283 342.259 189.842 342.671 190.216C343.083 190.585 343.566 190.77 344.12 190.77ZM357.489 193.32C356.268 193.315 355.216 193.014 354.336 192.418C353.46 191.821 352.785 190.957 352.312 189.825C351.843 188.694 351.611 187.332 351.616 185.741C351.616 184.155 351.85 182.804 352.319 181.686C352.792 180.569 353.467 179.719 354.343 179.136C355.224 178.549 356.272 178.256 357.489 178.256C358.706 178.256 359.752 178.549 360.628 179.136C361.509 179.723 362.186 180.576 362.66 181.693C363.133 182.806 363.367 184.155 363.363 185.741C363.363 187.337 363.126 188.701 362.652 189.832C362.184 190.964 361.511 191.828 360.635 192.425C359.759 193.021 358.711 193.32 357.489 193.32ZM357.489 190.77C358.322 190.77 358.988 190.351 359.485 189.513C359.982 188.675 360.228 187.418 360.224 185.741C360.224 184.638 360.11 183.72 359.883 182.986C359.66 182.252 359.343 181.7 358.931 181.331C358.524 180.962 358.043 180.777 357.489 180.777C356.661 180.777 355.998 181.191 355.5 182.02C355.003 182.848 354.752 184.089 354.748 185.741C354.748 186.859 354.859 187.792 355.081 188.54C355.309 189.283 355.628 189.842 356.04 190.216C356.452 190.585 356.935 190.77 357.489 190.77ZM369.413 193V182.091H378.951V193H376.061V184.47H372.268V193H369.413ZM385.895 193.213C384.792 193.213 383.838 192.979 383.033 192.51C382.233 192.036 381.615 191.378 381.179 190.536C380.743 189.688 380.526 188.705 380.526 187.588C380.526 186.461 380.743 185.476 381.179 184.634C381.615 183.786 382.233 183.128 383.033 182.659C383.838 182.186 384.792 181.949 385.895 181.949C386.998 181.949 387.95 182.186 388.75 182.659C389.555 183.128 390.175 183.786 390.611 184.634C391.046 185.476 391.264 186.461 391.264 187.588C391.264 188.705 391.046 189.688 390.611 190.536C390.175 191.378 389.555 192.036 388.75 192.51C387.95 192.979 386.998 193.213 385.895 193.213ZM385.909 190.869C386.411 190.869 386.83 190.727 387.166 190.443C387.502 190.154 387.756 189.761 387.926 189.264C388.101 188.767 388.189 188.201 388.189 187.567C388.189 186.932 388.101 186.366 387.926 185.869C387.756 185.372 387.502 184.979 387.166 184.69C386.83 184.402 386.411 184.257 385.909 184.257C385.403 184.257 384.976 184.402 384.631 184.69C384.29 184.979 384.032 185.372 383.857 185.869C383.686 186.366 383.601 186.932 383.601 187.567C383.601 188.201 383.686 188.767 383.857 189.264C384.032 189.761 384.29 190.154 384.631 190.443C384.976 190.727 385.403 190.869 385.909 190.869ZM391.979 196.196V190.599H392.817C393.059 190.448 393.253 190.206 393.4 189.875C393.551 189.544 393.674 189.153 393.769 188.703C393.869 188.253 393.944 187.768 393.996 187.247C394.053 186.722 394.103 186.191 394.146 185.656L394.43 182.091H402.796V190.599H404.486V196.196H401.603V193H394.934V196.196H391.979ZM395.829 190.599H399.941V184.42H397.001L396.887 185.656C396.806 186.821 396.69 187.811 396.539 188.625C396.387 189.435 396.151 190.093 395.829 190.599ZM405.85 193V182.091H415.388V193H412.497V184.47H408.705V193H405.85ZM420.293 189.009L424.221 182.091H427.204V193H424.32V186.061L420.407 193H417.403V182.091H420.293V189.009ZM434.158 193.213C433.041 193.213 432.08 192.976 431.275 192.503C430.475 192.025 429.859 191.362 429.428 190.514C429.002 189.667 428.789 188.691 428.789 187.588C428.789 186.471 429.004 185.491 429.435 184.648C429.871 183.8 430.489 183.14 431.289 182.666C432.089 182.188 433.041 181.949 434.144 181.949C435.096 181.949 435.929 182.122 436.644 182.467C437.359 182.813 437.925 183.298 438.341 183.923C438.758 184.548 438.988 185.282 439.03 186.125H436.175C436.095 185.58 435.882 185.143 435.536 184.811C435.195 184.475 434.748 184.307 434.194 184.307C433.725 184.307 433.315 184.435 432.965 184.69C432.619 184.941 432.35 185.308 432.155 185.791C431.961 186.274 431.864 186.859 431.864 187.545C431.864 188.241 431.959 188.833 432.148 189.321C432.342 189.809 432.615 190.18 432.965 190.436C433.315 190.692 433.725 190.82 434.194 190.82C434.539 190.82 434.85 190.749 435.124 190.607C435.404 190.464 435.633 190.259 435.813 189.989C435.998 189.714 436.118 189.385 436.175 189.001H439.03C438.983 189.835 438.756 190.569 438.349 191.203C437.946 191.833 437.39 192.325 436.68 192.68C435.969 193.036 435.129 193.213 434.158 193.213ZM450.035 182.091V193H447.166V182.091H450.035ZM448.636 186.878V189.264C448.404 189.368 448.115 189.468 447.769 189.562C447.424 189.652 447.061 189.726 446.683 189.783C446.304 189.839 445.949 189.868 445.617 189.868C444.05 189.868 442.817 189.546 441.917 188.902C441.017 188.253 440.568 187.219 440.568 185.798V182.077H443.423V185.798C443.423 186.22 443.494 186.554 443.636 186.8C443.783 187.046 444.015 187.223 444.332 187.332C444.654 187.437 445.082 187.489 445.617 187.489C446.114 187.489 446.602 187.437 447.08 187.332C447.559 187.228 448.077 187.077 448.636 186.878ZM454.875 189.009L458.802 182.091H461.785V193H458.902V186.061L454.988 193H451.984V182.091H454.875V189.009ZM463.811 193V182.091H466.836V186.324H467.688L470.657 182.091H474.208L470.352 187.503L474.251 193H470.657L467.965 189.129H466.836V193H463.811ZM479.609 193.213C478.506 193.213 477.552 192.979 476.747 192.51C475.947 192.036 475.329 191.378 474.893 190.536C474.458 189.688 474.24 188.705 474.24 187.588C474.24 186.461 474.458 185.476 474.893 184.634C475.329 183.786 475.947 183.128 476.747 182.659C477.552 182.186 478.506 181.949 479.609 181.949C480.712 181.949 481.664 182.186 482.464 182.659C483.269 183.128 483.889 183.786 484.325 184.634C484.761 185.476 484.978 186.461 484.978 187.588C484.978 188.705 484.761 189.688 484.325 190.536C483.889 191.378 483.269 192.036 482.464 192.51C481.664 192.979 480.712 193.213 479.609 193.213ZM479.623 190.869C480.125 190.869 480.544 190.727 480.88 190.443C481.217 190.154 481.47 189.761 481.64 189.264C481.815 188.767 481.903 188.201 481.903 187.567C481.903 186.932 481.815 186.366 481.64 185.869C481.47 185.372 481.217 184.979 480.88 184.69C480.544 184.402 480.125 184.257 479.623 184.257C479.117 184.257 478.69 184.402 478.345 184.69C478.004 184.979 477.746 185.372 477.571 185.869C477.4 186.366 477.315 186.932 477.315 187.567C477.315 188.201 477.4 188.767 477.571 189.264C477.746 189.761 478.004 190.154 478.345 190.443C478.69 190.727 479.117 190.869 479.623 190.869ZM486.546 193V182.091H491.198C492.542 182.091 493.605 182.347 494.387 182.858C495.168 183.369 495.558 184.096 495.558 185.038C495.558 185.63 495.338 186.123 494.898 186.516C494.458 186.909 493.847 187.174 493.066 187.311C493.719 187.358 494.275 187.508 494.735 187.759C495.199 188.005 495.551 188.324 495.793 188.717C496.039 189.11 496.162 189.546 496.162 190.024C496.162 190.644 495.996 191.177 495.665 191.622C495.338 192.067 494.858 192.408 494.223 192.645C493.593 192.882 492.824 193 491.915 193H486.546ZM489.365 190.734H491.915C492.336 190.734 492.665 190.635 492.902 190.436C493.144 190.232 493.264 189.955 493.264 189.605C493.264 189.217 493.144 188.911 492.902 188.689C492.665 188.466 492.336 188.355 491.915 188.355H489.365V190.734ZM489.365 186.58H491.262C491.565 186.58 491.823 186.537 492.036 186.452C492.254 186.362 492.419 186.234 492.533 186.068C492.651 185.902 492.71 185.706 492.71 185.479C492.71 185.143 492.576 184.88 492.306 184.69C492.036 184.501 491.666 184.406 491.198 184.406H489.365V186.58Z" fill="#5C24FF"/>
<path d="M611.059 59.7918C611.563 57.7697 614.437 57.7697 614.941 59.7918L617.096 68.4464C617.275 69.1643 617.836 69.7249 618.554 69.9037L627.208 72.0593C629.23 72.563 629.23 75.437 627.208 75.9407L618.554 78.0963C617.836 78.2751 617.275 78.8357 617.096 79.5536L614.941 88.2082C614.437 90.2303 611.563 90.2303 611.059 88.2082L608.904 79.5536C608.725 78.8357 608.164 78.2751 607.446 78.0963L598.792 75.9407C596.77 75.437 596.77 72.563 598.792 72.0593L607.446 69.9037C608.164 69.7249 608.725 69.1643 608.904 68.4464L611.059 59.7918Z" fill="#5C24FF"/>
<path d="M631.03 82.8959C631.281 81.8848 632.719 81.8848 632.97 82.8959L634.048 87.2232C634.138 87.5822 634.418 87.8624 634.777 87.9519L639.104 89.0296C640.115 89.2815 640.115 90.7185 639.104 90.9704L634.777 92.0481C634.418 92.1376 634.138 92.4178 634.048 92.7768L632.97 97.1041C632.719 98.1152 631.281 98.1152 631.03 97.1041L629.952 92.7768C629.862 92.4178 629.582 92.1376 629.223 92.0481L624.896 90.9704C623.885 90.7185 623.885 89.2815 624.896 89.0296L629.223 87.9519C629.582 87.8624 629.862 87.5822 629.952 87.2232L631.03 82.8959Z" fill="#B79EFF"/>
<g filter="url(#filter0_d_1_86)">
<rect x="292.5" y="232" width="151" height="56" rx="28" fill="#5C24FF"/>
<path d="M327.778 258.438H325.29C325.244 258.116 325.152 257.83 325.011 257.58C324.871 257.326 324.691 257.11 324.472 256.932C324.252 256.754 323.998 256.617 323.71 256.523C323.426 256.428 323.117 256.381 322.784 256.381C322.182 256.381 321.657 256.53 321.21 256.83C320.763 257.125 320.417 257.557 320.17 258.125C319.924 258.689 319.801 259.375 319.801 260.182C319.801 261.011 319.924 261.708 320.17 262.273C320.42 262.837 320.769 263.263 321.216 263.551C321.663 263.839 322.18 263.983 322.767 263.983C323.097 263.983 323.402 263.939 323.682 263.852C323.966 263.765 324.218 263.638 324.438 263.472C324.657 263.301 324.839 263.095 324.983 262.852C325.131 262.61 325.233 262.333 325.29 262.023L327.778 262.034C327.714 262.568 327.553 263.083 327.295 263.58C327.042 264.072 326.699 264.513 326.267 264.903C325.839 265.29 325.328 265.597 324.733 265.824C324.142 266.047 323.473 266.159 322.727 266.159C321.689 266.159 320.761 265.924 319.943 265.455C319.129 264.985 318.485 264.305 318.011 263.415C317.542 262.525 317.307 261.447 317.307 260.182C317.307 258.913 317.545 257.833 318.023 256.943C318.5 256.053 319.148 255.375 319.966 254.909C320.784 254.439 321.705 254.205 322.727 254.205C323.402 254.205 324.027 254.299 324.602 254.489C325.182 254.678 325.695 254.955 326.142 255.318C326.589 255.678 326.953 256.119 327.233 256.642C327.517 257.165 327.699 257.763 327.778 258.438ZM333.12 266.17C332.238 266.17 331.475 265.983 330.831 265.608C330.19 265.229 329.696 264.703 329.348 264.028C328.999 263.35 328.825 262.564 328.825 261.67C328.825 260.769 328.999 259.981 329.348 259.307C329.696 258.629 330.19 258.102 330.831 257.727C331.475 257.348 332.238 257.159 333.12 257.159C334.003 257.159 334.764 257.348 335.404 257.727C336.048 258.102 336.545 258.629 336.893 259.307C337.242 259.981 337.416 260.769 337.416 261.67C337.416 262.564 337.242 263.35 336.893 264.028C336.545 264.703 336.048 265.229 335.404 265.608C334.764 265.983 334.003 266.17 333.12 266.17ZM333.132 264.295C333.533 264.295 333.868 264.182 334.137 263.955C334.406 263.723 334.609 263.409 334.745 263.011C334.885 262.614 334.956 262.161 334.956 261.653C334.956 261.146 334.885 260.693 334.745 260.295C334.609 259.898 334.406 259.583 334.137 259.352C333.868 259.121 333.533 259.006 333.132 259.006C332.726 259.006 332.385 259.121 332.109 259.352C331.836 259.583 331.63 259.898 331.49 260.295C331.353 260.693 331.285 261.146 331.285 261.653C331.285 262.161 331.353 262.614 331.49 263.011C331.63 263.409 331.836 263.723 332.109 263.955C332.385 264.182 332.726 264.295 333.132 264.295ZM338.221 263.528H340.567C340.579 263.816 340.708 264.044 340.954 264.21C341.2 264.377 341.518 264.46 341.908 264.46C342.302 264.46 342.634 264.369 342.903 264.188C343.172 264.002 343.306 263.737 343.306 263.392C343.306 263.18 343.253 262.996 343.147 262.841C343.041 262.682 342.893 262.557 342.704 262.466C342.514 262.375 342.295 262.33 342.045 262.33H340.789V260.744H342.045C342.42 260.744 342.708 260.657 342.908 260.483C343.113 260.309 343.215 260.091 343.215 259.83C343.215 259.534 343.109 259.297 342.897 259.119C342.689 258.937 342.406 258.847 342.05 258.847C341.69 258.847 341.391 258.928 341.153 259.091C340.918 259.25 340.797 259.458 340.789 259.716H338.454C338.461 259.193 338.619 258.741 338.925 258.358C339.236 257.975 339.653 257.68 340.175 257.472C340.702 257.263 341.291 257.159 341.942 257.159C342.655 257.159 343.268 257.259 343.783 257.46C344.302 257.657 344.7 257.939 344.976 258.307C345.257 258.674 345.397 259.112 345.397 259.619C345.397 260.081 345.245 260.468 344.942 260.778C344.639 261.089 344.215 261.311 343.67 261.443V261.534C344.03 261.557 344.355 261.653 344.647 261.824C344.939 261.994 345.172 262.229 345.346 262.528C345.52 262.824 345.607 263.174 345.607 263.58C345.607 264.121 345.448 264.585 345.13 264.972C344.815 265.358 344.38 265.655 343.823 265.864C343.27 266.068 342.636 266.17 341.92 266.17C341.223 266.17 340.598 266.07 340.045 265.869C339.495 265.665 339.058 265.366 338.732 264.972C338.41 264.578 338.24 264.097 338.221 263.528ZM346.09 268.557V264.08H346.76C346.953 263.958 347.109 263.765 347.226 263.5C347.347 263.235 347.446 262.922 347.522 262.562C347.601 262.203 347.662 261.814 347.703 261.398C347.749 260.977 347.789 260.553 347.823 260.125L348.05 257.273H354.743V264.08H356.095V268.557H353.789V266H348.453V268.557H346.09ZM349.169 264.08H352.459V259.136H350.107L350.016 260.125C349.951 261.057 349.859 261.848 349.737 262.5C349.616 263.148 349.427 263.674 349.169 264.08ZM359.675 266.165C359.118 266.165 358.622 266.068 358.186 265.875C357.75 265.678 357.406 265.388 357.152 265.006C356.902 264.619 356.777 264.138 356.777 263.562C356.777 263.078 356.866 262.67 357.044 262.341C357.222 262.011 357.464 261.746 357.771 261.545C358.078 261.345 358.426 261.193 358.817 261.091C359.211 260.989 359.623 260.917 360.055 260.875C360.563 260.822 360.972 260.773 361.283 260.727C361.593 260.678 361.818 260.606 361.959 260.511C362.099 260.417 362.169 260.277 362.169 260.091V260.057C362.169 259.697 362.055 259.419 361.828 259.222C361.604 259.025 361.286 258.926 360.873 258.926C360.438 258.926 360.091 259.023 359.834 259.216C359.576 259.405 359.406 259.644 359.322 259.932L357.084 259.75C357.197 259.22 357.421 258.761 357.754 258.375C358.087 257.985 358.517 257.686 359.044 257.477C359.574 257.265 360.188 257.159 360.885 257.159C361.37 257.159 361.834 257.216 362.277 257.33C362.724 257.443 363.12 257.619 363.464 257.858C363.813 258.097 364.087 258.403 364.288 258.778C364.489 259.15 364.589 259.595 364.589 260.114V266H362.294V264.79H362.226C362.086 265.062 361.898 265.303 361.663 265.511C361.428 265.716 361.146 265.877 360.817 265.994C360.487 266.108 360.106 266.165 359.675 266.165ZM360.368 264.494C360.724 264.494 361.038 264.424 361.311 264.284C361.584 264.14 361.798 263.947 361.953 263.705C362.108 263.462 362.186 263.187 362.186 262.881V261.955C362.11 262.004 362.006 262.049 361.873 262.091C361.745 262.129 361.599 262.165 361.436 262.199C361.273 262.229 361.11 262.258 360.947 262.284C360.784 262.307 360.637 262.328 360.504 262.347C360.22 262.388 359.972 262.455 359.76 262.545C359.548 262.636 359.383 262.759 359.265 262.915C359.148 263.066 359.089 263.256 359.089 263.483C359.089 263.812 359.209 264.064 359.447 264.239C359.69 264.409 359.997 264.494 360.368 264.494ZM365.271 259.176V257.273H373.18V259.176H370.367V266H368.061V259.176H365.271ZM375.844 259.955H378.452C379.607 259.955 380.509 260.231 381.157 260.784C381.804 261.333 382.128 262.068 382.128 262.989C382.128 263.587 381.982 264.114 381.691 264.568C381.399 265.019 380.979 265.371 380.429 265.625C379.88 265.875 379.221 266 378.452 266H374.327V257.273H376.64V264.097H378.452C378.857 264.097 379.191 263.994 379.452 263.79C379.714 263.585 379.846 263.324 379.85 263.006C379.846 262.669 379.714 262.394 379.452 262.182C379.191 261.966 378.857 261.858 378.452 261.858H375.844V259.955ZM386.842 266V254.364H391.433C392.312 254.364 393.062 254.521 393.683 254.835C394.308 255.146 394.783 255.587 395.109 256.159C395.439 256.727 395.603 257.396 395.603 258.165C395.603 258.937 395.437 259.602 395.103 260.159C394.77 260.712 394.287 261.136 393.654 261.432C393.026 261.727 392.264 261.875 391.37 261.875H388.297V259.898H390.973C391.442 259.898 391.833 259.833 392.143 259.705C392.454 259.576 392.685 259.383 392.836 259.125C392.992 258.867 393.069 258.547 393.069 258.165C393.069 257.778 392.992 257.453 392.836 257.188C392.685 256.922 392.452 256.722 392.137 256.585C391.827 256.445 391.435 256.375 390.961 256.375H389.302V266H386.842ZM393.126 260.705L396.018 266H393.302L390.473 260.705H393.126ZM400.813 266.17C399.915 266.17 399.143 265.989 398.495 265.625C397.851 265.258 397.355 264.739 397.006 264.068C396.658 263.394 396.484 262.597 396.484 261.676C396.484 260.778 396.658 259.991 397.006 259.312C397.355 258.634 397.845 258.106 398.478 257.727C399.114 257.348 399.861 257.159 400.717 257.159C401.292 257.159 401.828 257.252 402.325 257.438C402.825 257.619 403.26 257.894 403.631 258.261C404.006 258.629 404.298 259.091 404.506 259.648C404.715 260.201 404.819 260.848 404.819 261.591V262.256H397.45V260.756H402.54C402.54 260.407 402.465 260.098 402.313 259.83C402.162 259.561 401.951 259.35 401.683 259.199C401.417 259.044 401.109 258.966 400.756 258.966C400.389 258.966 400.063 259.051 399.779 259.222C399.499 259.388 399.279 259.614 399.12 259.898C398.961 260.178 398.879 260.491 398.876 260.835V262.261C398.876 262.693 398.955 263.066 399.114 263.381C399.277 263.695 399.506 263.938 399.802 264.108C400.097 264.278 400.448 264.364 400.853 264.364C401.122 264.364 401.368 264.326 401.592 264.25C401.815 264.174 402.006 264.061 402.165 263.909C402.325 263.758 402.446 263.572 402.529 263.352L404.768 263.5C404.654 264.038 404.421 264.508 404.069 264.909C403.72 265.307 403.27 265.617 402.717 265.841C402.167 266.061 401.533 266.17 400.813 266.17ZM410.056 266.17C409.158 266.17 408.385 265.989 407.738 265.625C407.094 265.258 406.597 264.739 406.249 264.068C405.9 263.394 405.726 262.597 405.726 261.676C405.726 260.778 405.9 259.991 406.249 259.312C406.597 258.634 407.088 258.106 407.72 257.727C408.357 257.348 409.103 257.159 409.959 257.159C410.535 257.159 411.071 257.252 411.567 257.438C412.067 257.619 412.503 257.894 412.874 258.261C413.249 258.629 413.541 259.091 413.749 259.648C413.957 260.201 414.061 260.848 414.061 261.591V262.256H406.692V260.756H411.783C411.783 260.407 411.707 260.098 411.556 259.83C411.404 259.561 411.194 259.35 410.925 259.199C410.66 259.044 410.351 258.966 409.999 258.966C409.631 258.966 409.306 259.051 409.022 259.222C408.741 259.388 408.522 259.614 408.363 259.898C408.203 260.178 408.122 260.491 408.118 260.835V262.261C408.118 262.693 408.198 263.066 408.357 263.381C408.52 263.695 408.749 263.938 409.044 264.108C409.34 264.278 409.69 264.364 410.095 264.364C410.364 264.364 410.611 264.326 410.834 264.25C411.058 264.174 411.249 264.061 411.408 263.909C411.567 263.758 411.688 263.572 411.772 263.352L414.01 263.5C413.897 264.038 413.664 264.508 413.311 264.909C412.963 265.307 412.512 265.617 411.959 265.841C411.41 266.061 410.775 266.17 410.056 266.17ZM417.741 254.364V266H415.321V254.364H417.741Z" fill="white"/>
</g>
<defs>
<filter id="filter0_d_1_86" x="270.5" y="214" width="195" height="100" filterUnits="userSpaceOnUse" color-interpolation-filters="sRGB">
<feFlood flood-opacity="0" result="BackgroundImageFix"/>
<feColorMatrix in="SourceAlpha" type="matrix" values="0 0 0 0 0 0 0 0 0 0 0 0 0 0 0 0 0 0 127 0" result="hardAlpha"/>
<feOffset dy="4"/>
<feGaussianBlur stdDeviation="11"/>
<feComposite in2="hardAlpha" operator="out"/>
<feColorMatrix type="matrix" values="0 0 0 0 0.360784 0 0 0 0 0.141176 0 0 0 0 1 0 0 0 0.32 0"/>
<feBlend mode="normal" in2="BackgroundImageFix" result="effect1_dropShadow_1_86"/>
<feBlend mode="normal" in="SourceGraphic" in2="effect1_dropShadow_1_86" result="shape"/>
</filter>
</defs>
</svg>
