<svg width="312" height="194" viewBox="0 0 312 194" fill="none" xmlns="http://www.w3.org/2000/svg">
<path d="M13.7834 25H9.82884L15.8544 7.54545H20.6101L26.6271 25H22.6726L18.3004 11.5341H18.1641L13.7834 25ZM13.5362 18.1392H22.8771V21.0199H13.5362V18.1392ZM37.7706 17.0057V19.8608H30.9354V17.0057H37.7706ZM32.1286 11.9091V25H28.6598V11.9091H32.1286ZM40.0462 11.9091V25H36.603V11.9091H40.0462ZM46.5959 25.2472C45.7607 25.2472 45.0163 25.1023 44.3629 24.8125C43.7095 24.517 43.1925 24.0824 42.8118 23.5085C42.4368 22.929 42.2493 22.2074 42.2493 21.3438C42.2493 20.6165 42.3828 20.0057 42.6499 19.5114C42.9169 19.017 43.2805 18.6193 43.7408 18.3182C44.201 18.017 44.7237 17.7898 45.3089 17.6364C45.8999 17.483 46.5192 17.375 47.1669 17.3125C47.9283 17.233 48.5419 17.1591 49.0078 17.0909C49.4737 17.017 49.8118 16.9091 50.022 16.767C50.2322 16.625 50.3374 16.4148 50.3374 16.1364V16.0852C50.3374 15.5455 50.1669 15.1278 49.826 14.8324C49.4908 14.5369 49.0135 14.3892 48.3942 14.3892C47.7408 14.3892 47.2209 14.5341 46.8345 14.8239C46.4482 15.108 46.1925 15.4659 46.0675 15.8977L42.7095 15.625C42.88 14.8295 43.2152 14.142 43.7152 13.5625C44.2152 12.9773 44.8601 12.5284 45.6499 12.2159C46.4453 11.8977 47.3658 11.7386 48.4112 11.7386C49.1385 11.7386 49.8345 11.8239 50.4993 11.9943C51.1697 12.1648 51.7635 12.429 52.2805 12.7869C52.8033 13.1449 53.2152 13.6051 53.5163 14.1676C53.8175 14.7244 53.968 15.392 53.968 16.1705V25H50.5249V23.1847H50.4226C50.2124 23.5938 49.9311 23.9545 49.5788 24.267C49.2266 24.5739 48.8033 24.8153 48.3089 24.9915C47.8146 25.1619 47.2436 25.2472 46.5959 25.2472ZM47.6357 22.7415C48.1697 22.7415 48.6413 22.6364 49.0504 22.4261C49.4595 22.2102 49.7805 21.9205 50.0135 21.5568C50.2464 21.1932 50.3629 20.7812 50.3629 20.321V18.9318C50.2493 19.0057 50.093 19.0739 49.8942 19.1364C49.701 19.1932 49.4822 19.2472 49.2379 19.2983C48.9936 19.3437 48.7493 19.3864 48.505 19.4261C48.2607 19.4602 48.0391 19.4915 47.8402 19.5199C47.4141 19.5824 47.0419 19.6818 46.7237 19.8182C46.4055 19.9545 46.1584 20.1392 45.9822 20.3722C45.8061 20.5994 45.718 20.8835 45.718 21.2244C45.718 21.7188 45.897 22.0966 46.255 22.358C46.6186 22.6136 47.0788 22.7415 47.6357 22.7415ZM56.0178 25L56.0007 22.1193H56.4354C56.7422 22.1193 57.0064 22.0455 57.228 21.8977C57.4553 21.7443 57.6428 21.4972 57.7905 21.1562C57.9382 20.8153 58.0547 20.3636 58.1399 19.8011C58.2251 19.233 58.282 18.5341 58.3104 17.7045L58.5234 11.9091H68.478V25H65.0178V14.7642H61.7876L61.5831 18.7614C61.532 19.858 61.3984 20.8011 61.1825 21.5909C60.9723 22.3807 60.6797 23.0284 60.3047 23.5341C59.9297 24.0341 59.478 24.4034 58.9496 24.642C58.4212 24.8807 57.8075 25 57.1087 25H56.0178ZM74.7614 20.2102L79.4744 11.9091H83.054V25H79.5938V16.6733L74.8977 25H71.2926V11.9091H74.7614V20.2102ZM85.2912 21.2926H88.8111C88.8281 21.7244 89.0213 22.0653 89.3906 22.3153C89.7599 22.5653 90.2372 22.6903 90.8224 22.6903C91.4134 22.6903 91.9105 22.554 92.3139 22.2812C92.7173 22.0028 92.919 21.6051 92.919 21.0881C92.919 20.7699 92.8395 20.4943 92.6804 20.2614C92.5213 20.0227 92.2997 19.8352 92.0156 19.6989C91.7315 19.5625 91.402 19.4943 91.027 19.4943H89.1435V17.1165H91.027C91.5895 17.1165 92.0213 16.9858 92.3224 16.7244C92.6293 16.4631 92.7827 16.1364 92.7827 15.7443C92.7827 15.3011 92.6236 14.946 92.3054 14.679C91.9929 14.4062 91.5696 14.2699 91.0355 14.2699C90.4957 14.2699 90.0469 14.392 89.6889 14.6364C89.3366 14.875 89.1548 15.1875 89.1435 15.5739H85.6406C85.652 14.7898 85.8878 14.1108 86.348 13.5369C86.8139 12.9631 87.4389 12.5199 88.223 12.2074C89.0128 11.8949 89.8963 11.7386 90.8736 11.7386C91.9418 11.7386 92.8622 11.8892 93.6349 12.1903C94.4134 12.4858 95.0099 12.9091 95.4247 13.4602C95.8452 14.0114 96.0554 14.6676 96.0554 15.429C96.0554 16.1222 95.8281 16.7017 95.3736 17.1676C94.919 17.6335 94.2827 17.9659 93.4645 18.1648V18.3011C94.0043 18.3352 94.4929 18.4801 94.9304 18.7358C95.3679 18.9915 95.7173 19.3437 95.9787 19.7926C96.2401 20.2358 96.3707 20.7614 96.3707 21.3693C96.3707 22.1818 96.1321 22.8778 95.6548 23.4574C95.1832 24.0369 94.5298 24.483 93.6946 24.7955C92.8651 25.1023 91.9134 25.2557 90.8395 25.2557C89.794 25.2557 88.8565 25.1051 88.027 24.804C87.2031 24.4972 86.5469 24.0483 86.0582 23.4574C85.5753 22.8665 85.3196 22.1449 85.2912 21.2926ZM104.152 25V11.9091H109.734C111.348 11.9091 112.624 12.2159 113.561 12.8295C114.499 13.4432 114.967 14.3153 114.967 15.446C114.967 16.1562 114.703 16.7472 114.175 17.2188C113.646 17.6903 112.913 18.0085 111.976 18.1733C112.76 18.2301 113.428 18.4091 113.979 18.7102C114.536 19.0057 114.959 19.3892 115.249 19.8608C115.544 20.3324 115.692 20.8551 115.692 21.429C115.692 22.1733 115.493 22.8125 115.095 23.3466C114.703 23.8807 114.126 24.2898 113.365 24.5739C112.609 24.858 111.686 25 110.595 25H104.152ZM107.536 22.2812H110.595C111.101 22.2812 111.496 22.1619 111.78 21.9233C112.07 21.679 112.214 21.3466 112.214 20.9261C112.214 20.4602 112.07 20.0937 111.78 19.8267C111.496 19.5597 111.101 19.4261 110.595 19.4261H107.536V22.2812ZM107.536 17.2955H109.811C110.175 17.2955 110.484 17.2443 110.74 17.142C111.001 17.0341 111.2 16.8807 111.337 16.6818C111.479 16.483 111.55 16.2472 111.55 15.9744C111.55 15.571 111.388 15.2557 111.064 15.0284C110.74 14.8011 110.297 14.6875 109.734 14.6875H107.536V17.2955ZM121.713 25.2472C120.878 25.2472 120.134 25.1023 119.48 24.8125C118.827 24.517 118.31 24.0824 117.929 23.5085C117.554 22.929 117.366 22.2074 117.366 21.3438C117.366 20.6165 117.5 20.0057 117.767 19.5114C118.034 19.017 118.398 18.6193 118.858 18.3182C119.318 18.017 119.841 17.7898 120.426 17.6364C121.017 17.483 121.636 17.375 122.284 17.3125C123.045 17.233 123.659 17.1591 124.125 17.0909C124.591 17.017 124.929 16.9091 125.139 16.767C125.349 16.625 125.455 16.4148 125.455 16.1364V16.0852C125.455 15.5455 125.284 15.1278 124.943 14.8324C124.608 14.5369 124.131 14.3892 123.511 14.3892C122.858 14.3892 122.338 14.5341 121.952 14.8239C121.565 15.108 121.31 15.4659 121.185 15.8977L117.827 15.625C117.997 14.8295 118.332 14.142 118.832 13.5625C119.332 12.9773 119.977 12.5284 120.767 12.2159C121.563 11.8977 122.483 11.7386 123.528 11.7386C124.256 11.7386 124.952 11.8239 125.616 11.9943C126.287 12.1648 126.881 12.429 127.398 12.7869C127.92 13.1449 128.332 13.6051 128.634 14.1676C128.935 14.7244 129.085 15.392 129.085 16.1705V25H125.642V23.1847H125.54C125.33 23.5938 125.048 23.9545 124.696 24.267C124.344 24.5739 123.92 24.8153 123.426 24.9915C122.932 25.1619 122.361 25.2472 121.713 25.2472ZM122.753 22.7415C123.287 22.7415 123.759 22.6364 124.168 22.4261C124.577 22.2102 124.898 21.9205 125.131 21.5568C125.364 21.1932 125.48 20.7812 125.48 20.321V18.9318C125.366 19.0057 125.21 19.0739 125.011 19.1364C124.818 19.1932 124.599 19.2472 124.355 19.2983C124.111 19.3437 123.866 19.3864 123.622 19.4261C123.378 19.4602 123.156 19.4915 122.957 19.5199C122.531 19.5824 122.159 19.6818 121.841 19.8182C121.523 19.9545 121.276 20.1392 121.099 20.3722C120.923 20.5994 120.835 20.8835 120.835 21.2244C120.835 21.7188 121.014 22.0966 121.372 22.358C121.736 22.6136 122.196 22.7415 122.753 22.7415ZM131.902 11.9091H135.371V22.1193H139.061V11.9091H142.53V22.1193H146.22V11.9091H149.689V25H131.902V11.9091ZM158.469 25.2557C157.123 25.2557 155.964 24.983 154.992 24.4375C154.026 23.8864 153.282 23.108 152.759 22.1023C152.237 21.0909 151.975 19.8949 151.975 18.5142C151.975 17.1676 152.237 15.9858 152.759 14.9688C153.282 13.9517 154.018 13.1591 154.967 12.5909C155.921 12.0227 157.04 11.7386 158.325 11.7386C159.188 11.7386 159.992 11.8778 160.737 12.1562C161.487 12.429 162.14 12.8409 162.697 13.392C163.259 13.9432 163.697 14.6364 164.009 15.4716C164.322 16.3011 164.478 17.2727 164.478 18.3864V19.3835H153.424V17.1335H161.06C161.06 16.6108 160.947 16.1477 160.719 15.7443C160.492 15.3409 160.177 15.0256 159.773 14.7983C159.376 14.5653 158.913 14.4489 158.384 14.4489C157.833 14.4489 157.344 14.5767 156.918 14.8324C156.498 15.0824 156.168 15.4205 155.93 15.8466C155.691 16.267 155.569 16.7358 155.563 17.2528V19.392C155.563 20.0398 155.683 20.5994 155.921 21.071C156.165 21.5426 156.509 21.9062 156.952 22.1619C157.396 22.4176 157.921 22.5455 158.529 22.5455C158.933 22.5455 159.302 22.4886 159.637 22.375C159.972 22.2614 160.259 22.0909 160.498 21.8636C160.737 21.6364 160.918 21.358 161.043 21.0284L164.401 21.25C164.231 22.0568 163.881 22.7614 163.353 23.3636C162.83 23.9602 162.154 24.4261 161.325 24.7614C160.501 25.0909 159.549 25.2557 158.469 25.2557ZM175.813 11.9091V14.7642H170.376V25H166.847V11.9091H175.813ZM183.473 25.2557C182.149 25.2557 181.004 24.9744 180.038 24.4119C179.078 23.8437 178.337 23.054 177.814 22.0426C177.291 21.0256 177.03 19.8466 177.03 18.5057C177.03 17.1534 177.291 15.9716 177.814 14.9602C178.337 13.9432 179.078 13.1534 180.038 12.5909C181.004 12.0227 182.149 11.7386 183.473 11.7386C184.797 11.7386 185.939 12.0227 186.899 12.5909C187.865 13.1534 188.609 13.9432 189.132 14.9602C189.655 15.9716 189.916 17.1534 189.916 18.5057C189.916 19.8466 189.655 21.0256 189.132 22.0426C188.609 23.054 187.865 23.8437 186.899 24.4119C185.939 24.9744 184.797 25.2557 183.473 25.2557ZM183.49 22.4432C184.092 22.4432 184.595 22.2727 184.999 21.9318C185.402 21.5852 185.706 21.1136 185.911 20.517C186.121 19.9205 186.226 19.2415 186.226 18.4801C186.226 17.7188 186.121 17.0398 185.911 16.4432C185.706 15.8466 185.402 15.375 184.999 15.0284C184.595 14.6818 184.092 14.5085 183.49 14.5085C182.882 14.5085 182.371 14.6818 181.956 15.0284C181.547 15.375 181.237 15.8466 181.027 16.4432C180.822 17.0398 180.72 17.7188 180.72 18.4801C180.72 19.2415 180.822 19.9205 181.027 20.517C181.237 21.1136 181.547 21.5852 181.956 21.9318C182.371 22.2727 182.882 22.4432 183.49 22.4432ZM197.832 25V11.9091H209.278V25H205.809V14.7642H201.258V25H197.832ZM212.175 29.9091V11.9091H215.755V14.108H215.917C216.076 13.7557 216.306 13.3977 216.607 13.0341C216.914 12.6648 217.312 12.358 217.8 12.1136C218.295 11.8636 218.908 11.7386 219.641 11.7386C220.596 11.7386 221.477 11.9886 222.283 12.4886C223.09 12.983 223.735 13.7301 224.218 14.7301C224.701 15.7244 224.942 16.9716 224.942 18.4716C224.942 19.9318 224.707 21.1648 224.235 22.1705C223.769 23.1705 223.133 23.929 222.326 24.446C221.525 24.9574 220.627 25.2131 219.633 25.2131C218.928 25.2131 218.329 25.0966 217.835 24.8636C217.346 24.6307 216.945 24.3381 216.633 23.9858C216.32 23.6278 216.082 23.267 215.917 22.9034H215.806V29.9091H212.175ZM215.729 18.4545C215.729 19.233 215.837 19.9119 216.053 20.4915C216.269 21.071 216.582 21.5227 216.991 21.8466C217.4 22.1648 217.897 22.3239 218.482 22.3239C219.073 22.3239 219.573 22.1619 219.982 21.8381C220.391 21.5085 220.701 21.054 220.911 20.4744C221.127 19.8892 221.235 19.2159 221.235 18.4545C221.235 17.6989 221.13 17.0341 220.92 16.4602C220.71 15.8864 220.4 15.4375 219.991 15.1136C219.582 14.7898 219.079 14.6278 218.482 14.6278C217.891 14.6278 217.391 14.7841 216.982 15.0966C216.579 15.4091 216.269 15.8523 216.053 16.4261C215.837 17 215.729 17.6761 215.729 18.4545ZM233.278 25.2557C231.954 25.2557 230.809 24.9744 229.843 24.4119C228.883 23.8437 228.141 23.054 227.619 22.0426C227.096 21.0256 226.835 19.8466 226.835 18.5057C226.835 17.1534 227.096 15.9716 227.619 14.9602C228.141 13.9432 228.883 13.1534 229.843 12.5909C230.809 12.0227 231.954 11.7386 233.278 11.7386C234.602 11.7386 235.744 12.0227 236.704 12.5909C237.67 13.1534 238.414 13.9432 238.937 14.9602C239.46 15.9716 239.721 17.1534 239.721 18.5057C239.721 19.8466 239.46 21.0256 238.937 22.0426C238.414 23.054 237.67 23.8437 236.704 24.4119C235.744 24.9744 234.602 25.2557 233.278 25.2557ZM233.295 22.4432C233.897 22.4432 234.4 22.2727 234.803 21.9318C235.207 21.5852 235.511 21.1136 235.715 20.517C235.925 19.9205 236.031 19.2415 236.031 18.4801C236.031 17.7188 235.925 17.0398 235.715 16.4432C235.511 15.8466 235.207 15.375 234.803 15.0284C234.4 14.6818 233.897 14.5085 233.295 14.5085C232.687 14.5085 232.175 14.6818 231.761 15.0284C231.352 15.375 231.042 15.8466 230.832 16.4432C230.627 17.0398 230.525 17.7188 230.525 18.4801C230.525 19.2415 230.627 19.9205 230.832 20.517C231.042 21.1136 231.352 21.5852 231.761 21.9318C232.175 22.2727 232.687 22.4432 233.295 22.4432ZM248.346 29.4489V7.54545H251.968V29.4489H248.346ZM248.346 25.2557C247.34 25.2557 246.423 25.0938 245.593 24.7699C244.763 24.4403 244.048 23.9773 243.445 23.3807C242.843 22.7784 242.377 22.0653 242.048 21.2415C241.718 20.4119 241.553 19.5 241.553 18.5057C241.553 17.5 241.718 16.5852 242.048 15.7614C242.377 14.9318 242.843 14.2187 243.445 13.6222C244.048 13.0199 244.763 12.5568 245.593 12.233C246.423 11.9034 247.34 11.7386 248.346 11.7386H249.019V25.2557H248.346ZM248.346 22.4261H248.746V14.5682H248.346C247.857 14.5682 247.423 14.6705 247.042 14.875C246.661 15.0795 246.34 15.3608 246.079 15.7188C245.817 16.071 245.619 16.4858 245.482 16.9631C245.352 17.4403 245.286 17.9545 245.286 18.5057C245.286 19.233 245.406 19.8949 245.644 20.4915C245.883 21.0824 246.232 21.554 246.692 21.9062C247.153 22.2528 247.704 22.4261 248.346 22.4261ZM251.968 25.2557H251.295V11.7386H251.968C252.974 11.7386 253.891 11.9034 254.721 12.233C255.55 12.5568 256.266 13.0199 256.869 13.6222C257.471 14.2187 257.937 14.9318 258.266 15.7614C258.596 16.5852 258.761 17.5 258.761 18.5057C258.761 19.5 258.596 20.4119 258.266 21.2415C257.937 22.0653 257.471 22.7784 256.869 23.3807C256.266 23.9773 255.55 24.4403 254.721 24.7699C253.891 25.0938 252.974 25.2557 251.968 25.2557ZM251.968 22.4261C252.457 22.4261 252.891 22.3267 253.272 22.1278C253.653 21.9233 253.974 21.642 254.235 21.2841C254.496 20.9261 254.695 20.5114 254.832 20.0398C254.968 19.5625 255.036 19.0511 255.036 18.5057C255.036 17.7727 254.914 17.1108 254.67 16.5199C254.431 15.9233 254.085 15.4489 253.63 15.0966C253.175 14.7443 252.621 14.5682 251.968 14.5682H251.567V22.4261H251.968ZM264.605 20.2102L269.318 11.9091H272.898V25H269.438V16.6733L264.741 25H261.136V11.9091H264.605V20.2102ZM275.041 25L275.024 22.1193H275.459C275.766 22.1193 276.03 22.0455 276.251 21.8977C276.479 21.7443 276.666 21.4972 276.814 21.1562C276.962 20.8153 277.078 20.3636 277.163 19.8011C277.249 19.233 277.305 18.5341 277.334 17.7045L277.547 11.9091H287.501V25H284.041V14.7642H280.811L280.607 18.7614C280.555 19.858 280.422 20.8011 280.206 21.5909C279.996 22.3807 279.703 23.0284 279.328 23.5341C278.953 24.0341 278.501 24.4034 277.973 24.642C277.445 24.8807 276.831 25 276.132 25H275.041ZM297.987 25V14.7557H295.532C294.867 14.7557 294.362 14.9091 294.015 15.2159C293.668 15.5227 293.498 15.8864 293.504 16.3068C293.498 16.733 293.663 17.0937 293.998 17.3892C294.339 17.679 294.839 17.8239 295.498 17.8239H299.197V20.2784H295.498C294.379 20.2784 293.41 20.108 292.592 19.767C291.773 19.4261 291.143 18.9517 290.7 18.3438C290.256 17.7301 290.038 17.017 290.043 16.2045C290.038 15.3523 290.256 14.6051 290.7 13.9631C291.143 13.3153 291.776 12.8125 292.6 12.4545C293.43 12.0909 294.407 11.9091 295.532 11.9091H301.37V25H297.987ZM289.668 25L293.308 18.1818H296.776L293.146 25H289.668Z" fill="#111111"/>
<path d="M20.311 58H18.4474L22.6349 46.3636H24.6633L28.8508 58H26.9872L23.6974 48.4773H23.6065L20.311 58ZM20.6235 53.4432H26.669V54.9205H20.6235V53.4432ZM35.9896 52.9034V54.375H31.2624V52.9034H35.9896ZM31.7396 49.2727V58H30.0749V49.2727H31.7396ZM37.1771 49.2727V58H35.518V49.2727H37.1771ZM41.6696 58.1932C41.1166 58.1932 40.6166 58.0909 40.1696 57.8864C39.7227 57.678 39.3685 57.3769 39.1071 56.983C38.8496 56.589 38.7208 56.1061 38.7208 55.5341C38.7208 55.0417 38.8155 54.6364 39.0049 54.3182C39.1942 54 39.4499 53.7481 39.7719 53.5625C40.0939 53.3769 40.4537 53.2367 40.8514 53.142C41.2492 53.0473 41.6545 52.9754 42.0674 52.9261C42.5901 52.8655 43.0143 52.8163 43.3401 52.7784C43.6658 52.7367 43.9026 52.6705 44.0503 52.5795C44.198 52.4886 44.2719 52.3409 44.2719 52.1364V52.0966C44.2719 51.6004 44.1317 51.2159 43.8514 50.9432C43.5749 50.6705 43.1621 50.5341 42.6128 50.5341C42.0408 50.5341 41.5901 50.661 41.2605 50.9148C40.9348 51.1648 40.7094 51.4432 40.5844 51.75L38.9878 51.3864C39.1772 50.8561 39.4537 50.428 39.8174 50.1023C40.1848 49.7727 40.6071 49.5341 41.0844 49.3864C41.5617 49.2348 42.0636 49.1591 42.5901 49.1591C42.9386 49.1591 43.3079 49.2008 43.698 49.2841C44.092 49.3636 44.4594 49.5114 44.8003 49.7273C45.145 49.9432 45.4272 50.2519 45.6469 50.6534C45.8666 51.0511 45.9764 51.5682 45.9764 52.2045V58H44.3174V56.8068H44.2492C44.1393 57.0265 43.9746 57.2424 43.7549 57.4545C43.5352 57.6667 43.253 57.8428 42.9083 57.983C42.5636 58.1231 42.1507 58.1932 41.6696 58.1932ZM42.0389 56.8295C42.5086 56.8295 42.9102 56.7367 43.2435 56.5511C43.5806 56.3655 43.8363 56.1231 44.0105 55.8239C44.1886 55.5208 44.2776 55.197 44.2776 54.8523V53.7273C44.217 53.7879 44.0996 53.8447 43.9253 53.8977C43.7549 53.947 43.5598 53.9905 43.3401 54.0284C43.1204 54.0625 42.9064 54.0947 42.698 54.125C42.4897 54.1515 42.3155 54.1742 42.1753 54.1932C41.8458 54.2348 41.5446 54.3049 41.2719 54.4034C41.003 54.5019 40.7871 54.6439 40.6242 54.8295C40.4651 55.0114 40.3855 55.2538 40.3855 55.5568C40.3855 55.9773 40.5408 56.2955 40.8514 56.5114C41.1621 56.7235 41.5579 56.8295 42.0389 56.8295ZM47.2317 58L47.226 56.5284H47.5385C47.781 56.5284 47.9836 56.4773 48.1465 56.375C48.3132 56.2689 48.4495 56.0909 48.5556 55.8409C48.6617 55.5909 48.7431 55.2462 48.7999 54.8068C48.8567 54.3636 48.8984 53.8068 48.9249 53.1364L49.0783 49.2727H55.1692V58H53.5045V50.7386H50.6522L50.5158 53.7045C50.4817 54.4242 50.4079 55.053 50.2942 55.5909C50.1844 56.1288 50.0234 56.5777 49.8113 56.9375C49.5992 57.2936 49.3264 57.5606 48.9931 57.7386C48.6598 57.9129 48.2545 58 47.7772 58H47.2317ZM58.7796 55.6193L62.6262 49.2727H64.4558V58H62.791V51.6477L58.9614 58H57.1149V49.2727H58.7796V55.6193ZM65.9028 55.6932H67.6414C67.6642 56.0492 67.8252 56.3239 68.1244 56.517C68.4274 56.7102 68.8195 56.8068 69.3005 56.8068C69.7892 56.8068 70.2058 56.7027 70.5505 56.4943C70.8952 56.2822 71.0676 55.9545 71.0676 55.5114C71.0676 55.2462 71.0013 55.0152 70.8687 54.8182C70.7399 54.6174 70.5562 54.4621 70.3176 54.3523C70.0827 54.2424 69.8043 54.1875 69.4824 54.1875H68.0619V52.8523H69.4824C69.9634 52.8523 70.3233 52.7424 70.5619 52.5227C70.8005 52.303 70.9199 52.0284 70.9199 51.6989C70.9199 51.3428 70.7911 51.0568 70.5335 50.8409C70.2797 50.6212 69.9255 50.5114 69.471 50.5114C69.0089 50.5114 68.6244 50.6155 68.3176 50.8239C68.0108 51.0284 67.8498 51.2936 67.8346 51.6193H66.1187C66.1301 51.1307 66.2778 50.7027 66.5619 50.3352C66.8498 49.964 67.2361 49.6761 67.721 49.4716C68.2096 49.2633 68.7646 49.1591 69.3858 49.1591C70.0335 49.1591 70.5941 49.2633 71.0676 49.4716C71.5411 49.6799 71.9066 49.9678 72.1642 50.3352C72.4255 50.7027 72.5562 51.125 72.5562 51.6023C72.5562 52.0833 72.4123 52.4773 72.1244 52.7841C71.8403 53.0871 71.4691 53.3049 71.0108 53.4375V53.5284C71.3479 53.5511 71.6471 53.6534 71.9085 53.8352C72.1699 54.017 72.3744 54.2576 72.5221 54.5568C72.6699 54.8561 72.7437 55.1951 72.7437 55.5739C72.7437 56.108 72.596 56.5701 72.3005 56.9602C72.0089 57.3504 71.6036 57.6515 71.0846 57.8636C70.5695 58.072 69.9805 58.1761 69.3176 58.1761C68.6736 58.1761 68.096 58.0758 67.5846 57.875C67.0771 57.6705 66.6736 57.3826 66.3744 57.0114C66.0789 56.6402 65.9217 56.2008 65.9028 55.6932ZM75.8428 55.6193L79.6893 49.2727H81.5189V58H79.8541V51.6477L76.0246 58H74.178V49.2727H75.8428V55.6193ZM83.483 61.2727V49.2727H85.1421V50.6875H85.2841C85.3826 50.5057 85.5246 50.2955 85.7103 50.0568C85.8959 49.8182 86.1534 49.6098 86.483 49.4318C86.8125 49.25 87.2481 49.1591 87.7898 49.1591C88.4943 49.1591 89.1231 49.3371 89.6762 49.6932C90.2292 50.0492 90.6629 50.5625 90.9773 51.233C91.2955 51.9034 91.4546 52.7102 91.4546 53.6534C91.4546 54.5966 91.2974 55.4053 90.983 56.0795C90.6686 56.75 90.2368 57.267 89.6875 57.6307C89.1383 57.9905 88.5114 58.1705 87.8068 58.1705C87.2765 58.1705 86.8428 58.0814 86.5057 57.9034C86.1724 57.7254 85.911 57.517 85.7216 57.2784C85.5322 57.0398 85.3864 56.8277 85.2841 56.642H85.1818V61.2727H83.483ZM85.1478 53.6364C85.1478 54.25 85.2368 54.7879 85.4148 55.25C85.5928 55.7121 85.8504 56.0739 86.1875 56.3352C86.5246 56.5928 86.9375 56.7216 87.4262 56.7216C87.9337 56.7216 88.358 56.5871 88.6989 56.3182C89.0398 56.0455 89.2974 55.6761 89.4716 55.2102C89.6496 54.7443 89.7387 54.2197 89.7387 53.6364C89.7387 53.0606 89.6515 52.5436 89.4773 52.0852C89.3068 51.6269 89.0493 51.2652 88.7046 51C88.3637 50.7348 87.9375 50.6023 87.4262 50.6023C86.9337 50.6023 86.5171 50.7292 86.1762 50.983C85.839 51.2367 85.5834 51.5909 85.4091 52.0455C85.2349 52.5 85.1478 53.0303 85.1478 53.6364ZM93.815 61.2727C93.5612 61.2727 93.3301 61.2519 93.1218 61.2102C92.9135 61.1723 92.7582 61.1307 92.6559 61.0852L93.065 59.6932C93.3756 59.7765 93.6521 59.8125 93.8945 59.8011C94.1369 59.7898 94.351 59.6989 94.5366 59.5284C94.726 59.358 94.8926 59.0795 95.0366 58.6932L95.2468 58.1136L92.0536 49.2727H93.8718L96.082 56.0455H96.1729L98.3832 49.2727H100.207L96.6104 59.1648C96.4438 59.6193 96.2316 60.0038 95.9741 60.3182C95.7165 60.6364 95.4097 60.875 95.0536 61.0341C94.6975 61.1932 94.2847 61.2727 93.815 61.2727ZM104.948 58.1761C104.088 58.1761 103.348 57.9924 102.727 57.625C102.109 57.2538 101.632 56.733 101.295 56.0625C100.961 55.3883 100.795 54.5985 100.795 53.6932C100.795 52.7992 100.961 52.0114 101.295 51.3295C101.632 50.6477 102.102 50.1155 102.704 49.733C103.31 49.3504 104.018 49.1591 104.829 49.1591C105.321 49.1591 105.798 49.2405 106.261 49.4034C106.723 49.5663 107.137 49.822 107.505 50.1705C107.872 50.5189 108.162 50.9716 108.374 51.5284C108.586 52.0814 108.692 52.7538 108.692 53.5455V54.1477H101.755V52.875H107.028C107.028 52.428 106.937 52.0322 106.755 51.6875C106.573 51.339 106.317 51.0644 105.988 50.8636C105.662 50.6629 105.28 50.5625 104.84 50.5625C104.363 50.5625 103.946 50.6799 103.59 50.9148C103.238 51.1458 102.965 51.4489 102.772 51.8239C102.583 52.1951 102.488 52.5985 102.488 53.0341V54.0284C102.488 54.6117 102.59 55.108 102.795 55.517C103.003 55.9261 103.293 56.2386 103.664 56.4545C104.035 56.6667 104.469 56.7727 104.965 56.7727C105.287 56.7727 105.581 56.7273 105.846 56.6364C106.111 56.5417 106.34 56.4015 106.533 56.2159C106.727 56.0303 106.874 55.8011 106.977 55.5284L108.584 55.8182C108.456 56.2917 108.225 56.7064 107.891 57.0625C107.562 57.4148 107.147 57.6894 106.647 57.8864C106.151 58.0795 105.584 58.1761 104.948 58.1761ZM115.155 55.8977L117.973 49.2727H119.439L115.786 58H114.524L110.945 49.2727H112.394L115.155 55.8977ZM111.922 49.2727V58H110.257V49.2727H111.922ZM118.433 58V49.2727H120.087V58H118.433ZM125.945 58V49.2727H129.565C130.55 49.2727 131.33 49.483 131.906 49.9034C132.481 50.3201 132.769 50.8864 132.769 51.6023C132.769 52.1136 132.606 52.5189 132.281 52.8182C131.955 53.1174 131.523 53.3182 130.985 53.4205C131.375 53.4659 131.733 53.5833 132.059 53.7727C132.385 53.9583 132.646 54.2083 132.843 54.5227C133.044 54.8371 133.144 55.2121 133.144 55.6477C133.144 56.1098 133.025 56.5189 132.786 56.875C132.548 57.2273 132.201 57.5038 131.747 57.7045C131.296 57.9015 130.752 58 130.116 58H125.945ZM127.542 56.5795H130.116C130.536 56.5795 130.866 56.4792 131.105 56.2784C131.343 56.0777 131.463 55.8049 131.463 55.4602C131.463 55.0549 131.343 54.7367 131.105 54.5057C130.866 54.2708 130.536 54.1534 130.116 54.1534H127.542V56.5795ZM127.542 52.9091H129.582C129.9 52.9091 130.173 52.8636 130.4 52.7727C130.631 52.6818 130.807 52.553 130.928 52.3864C131.053 52.2159 131.116 52.0152 131.116 51.7841C131.116 51.447 130.978 51.1837 130.701 50.9943C130.425 50.8049 130.046 50.7102 129.565 50.7102H127.542V52.9091ZM137.228 58.1932C136.675 58.1932 136.175 58.0909 135.728 57.8864C135.281 57.678 134.927 57.3769 134.665 56.983C134.408 56.589 134.279 56.1061 134.279 55.5341C134.279 55.0417 134.374 54.6364 134.563 54.3182C134.752 54 135.008 53.7481 135.33 53.5625C135.652 53.3769 136.012 53.2367 136.41 53.142C136.807 53.0473 137.213 52.9754 137.625 52.9261C138.148 52.8655 138.572 52.8163 138.898 52.7784C139.224 52.7367 139.461 52.6705 139.608 52.5795C139.756 52.4886 139.83 52.3409 139.83 52.1364V52.0966C139.83 51.6004 139.69 51.2159 139.41 50.9432C139.133 50.6705 138.72 50.5341 138.171 50.5341C137.599 50.5341 137.148 50.661 136.819 50.9148C136.493 51.1648 136.268 51.4432 136.143 51.75L134.546 51.3864C134.735 50.8561 135.012 50.428 135.375 50.1023C135.743 49.7727 136.165 49.5341 136.643 49.3864C137.12 49.2348 137.622 49.1591 138.148 49.1591C138.497 49.1591 138.866 49.2008 139.256 49.2841C139.65 49.3636 140.018 49.5114 140.358 49.7273C140.703 49.9432 140.985 50.2519 141.205 50.6534C141.425 51.0511 141.535 51.5682 141.535 52.2045V58H139.875V56.8068H139.807C139.697 57.0265 139.533 57.2424 139.313 57.4545C139.093 57.6667 138.811 57.8428 138.466 57.983C138.122 58.1231 137.709 58.1932 137.228 58.1932ZM137.597 56.8295C138.067 56.8295 138.468 56.7367 138.802 56.5511C139.139 56.3655 139.394 56.1231 139.569 55.8239C139.747 55.5208 139.836 55.197 139.836 54.8523V53.7273C139.775 53.7879 139.658 53.8447 139.483 53.8977C139.313 53.947 139.118 53.9905 138.898 54.0284C138.679 54.0625 138.464 54.0947 138.256 54.125C138.048 54.1515 137.874 54.1742 137.733 54.1932C137.404 54.2348 137.103 54.3049 136.83 54.4034C136.561 54.5019 136.345 54.6439 136.182 54.8295C136.023 55.0114 135.944 55.2538 135.944 55.5568C135.944 55.9773 136.099 56.2955 136.41 56.5114C136.72 56.7235 137.116 56.8295 137.597 56.8295ZM143.477 49.2727H145.142V56.5284H148.159V49.2727H149.824V56.5284H152.841V49.2727H154.506V58H143.477V49.2727ZM160.369 58V49.2727H167.488V58H165.823V50.7386H162.022V58H160.369ZM169.439 61.2727V49.2727H171.098V50.6875H171.24C171.339 50.5057 171.481 50.2955 171.666 50.0568C171.852 49.8182 172.11 49.6098 172.439 49.4318C172.769 49.25 173.204 49.1591 173.746 49.1591C174.451 49.1591 175.079 49.3371 175.632 49.6932C176.185 50.0492 176.619 50.5625 176.934 51.233C177.252 51.9034 177.411 52.7102 177.411 53.6534C177.411 54.5966 177.254 55.4053 176.939 56.0795C176.625 56.75 176.193 57.267 175.644 57.6307C175.095 57.9905 174.468 58.1705 173.763 58.1705C173.233 58.1705 172.799 58.0814 172.462 57.9034C172.129 57.7254 171.867 57.517 171.678 57.2784C171.488 57.0398 171.343 56.8277 171.24 56.642H171.138V61.2727H169.439ZM171.104 53.6364C171.104 54.25 171.193 54.7879 171.371 55.25C171.549 55.7121 171.807 56.0739 172.144 56.3352C172.481 56.5928 172.894 56.7216 173.382 56.7216C173.89 56.7216 174.314 56.5871 174.655 56.3182C174.996 56.0455 175.254 55.6761 175.428 55.2102C175.606 54.7443 175.695 54.2197 175.695 53.6364C175.695 53.0606 175.608 52.5436 175.434 52.0852C175.263 51.6269 175.006 51.2652 174.661 51C174.32 50.7348 173.894 50.6023 173.382 50.6023C172.89 50.6023 172.473 50.7292 172.132 50.983C171.795 51.2367 171.54 51.5909 171.365 52.0455C171.191 52.5 171.104 53.0303 171.104 53.6364ZM182.67 58.1761C181.852 58.1761 181.138 57.9886 180.528 57.6136C179.918 57.2386 179.445 56.714 179.108 56.0398C178.771 55.3655 178.602 54.5777 178.602 53.6761C178.602 52.7708 178.771 51.9792 179.108 51.3011C179.445 50.6231 179.918 50.0966 180.528 49.7216C181.138 49.3466 181.852 49.1591 182.67 49.1591C183.489 49.1591 184.203 49.3466 184.812 49.7216C185.422 50.0966 185.896 50.6231 186.233 51.3011C186.57 51.9792 186.739 52.7708 186.739 53.6761C186.739 54.5777 186.57 55.3655 186.233 56.0398C185.896 56.714 185.422 57.2386 184.812 57.6136C184.203 57.9886 183.489 58.1761 182.67 58.1761ZM182.676 56.75C183.206 56.75 183.646 56.6098 183.994 56.3295C184.343 56.0492 184.6 55.6761 184.767 55.2102C184.937 54.7443 185.023 54.2311 185.023 53.6705C185.023 53.1136 184.937 52.6023 184.767 52.1364C184.6 51.6667 184.343 51.2898 183.994 51.0057C183.646 50.7216 183.206 50.5795 182.676 50.5795C182.142 50.5795 181.699 50.7216 181.347 51.0057C180.998 51.2898 180.739 51.6667 180.568 52.1364C180.401 52.6023 180.318 53.1136 180.318 53.6705C180.318 54.2311 180.401 54.7443 180.568 55.2102C180.739 55.6761 180.998 56.0492 181.347 56.3295C181.699 56.6098 182.142 56.75 182.676 56.75ZM192.071 60.9716V46.3636H193.769V60.9716H192.071ZM192.071 58.1761C191.453 58.1761 190.891 58.0701 190.383 57.858C189.875 57.642 189.438 57.3352 189.071 56.9375C188.703 56.5398 188.419 56.0644 188.218 55.5114C188.021 54.9583 187.923 54.3466 187.923 53.6761C187.923 52.9981 188.021 52.3826 188.218 51.8295C188.419 51.2765 188.703 50.8011 189.071 50.4034C189.438 50.0057 189.875 49.6989 190.383 49.483C190.891 49.267 191.453 49.1591 192.071 49.1591H192.491V58.1761H192.071ZM192.071 56.7443H192.309V50.5909H192.071C191.661 50.5909 191.305 50.6742 191.002 50.8409C190.699 51.0038 190.447 51.2292 190.247 51.517C190.046 51.8011 189.894 52.1288 189.792 52.5C189.694 52.8712 189.644 53.2633 189.644 53.6761C189.644 54.2292 189.733 54.7386 189.911 55.2045C190.089 55.6667 190.358 56.0398 190.718 56.3239C191.078 56.6042 191.529 56.7443 192.071 56.7443ZM193.769 58.1761H193.343V49.1591H193.769C194.387 49.1591 194.949 49.267 195.457 49.483C195.964 49.6989 196.4 50.0057 196.764 50.4034C197.131 50.8011 197.413 51.2765 197.61 51.8295C197.811 52.3826 197.911 52.9981 197.911 53.6761C197.911 54.3466 197.811 54.9583 197.61 55.5114C197.413 56.0644 197.131 56.5398 196.764 56.9375C196.4 57.3352 195.964 57.642 195.457 57.858C194.949 58.0701 194.387 58.1761 193.769 58.1761ZM193.769 56.7443C194.178 56.7443 194.535 56.6648 194.838 56.5057C195.141 56.3428 195.393 56.1193 195.593 55.8352C195.794 55.5473 195.944 55.2197 196.042 54.8523C196.141 54.4811 196.19 54.089 196.19 53.6761C196.19 53.1269 196.101 52.6193 195.923 52.1534C195.749 51.6837 195.482 51.3068 195.122 51.0227C194.762 50.7348 194.311 50.5909 193.769 50.5909H193.525V56.7443H193.769ZM201.144 55.6193L204.991 49.2727H206.82V58H205.155V51.6477L201.326 58H199.479V49.2727H201.144V55.6193ZM208.097 58L208.091 56.5284H208.404C208.646 56.5284 208.849 56.4773 209.011 56.375C209.178 56.2689 209.315 56.0909 209.421 55.8409C209.527 55.5909 209.608 55.2462 209.665 54.8068C209.722 54.3636 209.763 53.8068 209.79 53.1364L209.943 49.2727H216.034V58H214.369V50.7386H211.517L211.381 53.7045C211.347 54.4242 211.273 55.053 211.159 55.5909C211.049 56.1288 210.888 56.5777 210.676 56.9375C210.464 57.2936 210.191 57.5606 209.858 57.7386C209.525 57.9129 209.119 58 208.642 58H208.097ZM219.258 52.2727H221.792C222.861 52.2727 223.683 52.5379 224.258 53.0682C224.834 53.5985 225.122 54.2822 225.122 55.1193C225.122 55.6648 224.993 56.1553 224.736 56.5909C224.478 57.0265 224.101 57.3712 223.605 57.625C223.109 57.875 222.504 58 221.792 58H217.98V49.2727H219.645V56.5341H221.792C222.281 56.5341 222.683 56.4072 222.997 56.1534C223.311 55.8958 223.468 55.5682 223.468 55.1705C223.468 54.75 223.311 54.4072 222.997 54.142C222.683 53.8731 222.281 53.7386 221.792 53.7386H219.258V52.2727ZM245.479 52.3466V53.8182H229.479V52.3466H245.479ZM249.727 50.7386V49.2727H257.09V50.7386H254.244V58H252.585V50.7386H249.727ZM261.922 58.1761C261.063 58.1761 260.322 57.9924 259.701 57.625C259.083 57.2538 258.606 56.733 258.269 56.0625C257.936 55.3883 257.769 54.5985 257.769 53.6932C257.769 52.7992 257.936 52.0114 258.269 51.3295C258.606 50.6477 259.076 50.1155 259.678 49.733C260.284 49.3504 260.993 49.1591 261.803 49.1591C262.296 49.1591 262.773 49.2405 263.235 49.4034C263.697 49.5663 264.112 49.822 264.479 50.1705C264.847 50.5189 265.136 50.9716 265.349 51.5284C265.561 52.0814 265.667 52.7538 265.667 53.5455V54.1477H258.729V52.875H264.002C264.002 52.428 263.911 52.0322 263.729 51.6875C263.547 51.339 263.292 51.0644 262.962 50.8636C262.636 50.6629 262.254 50.5625 261.814 50.5625C261.337 50.5625 260.921 50.6799 260.564 50.9148C260.212 51.1458 259.939 51.4489 259.746 51.8239C259.557 52.1951 259.462 52.5985 259.462 53.0341V54.0284C259.462 54.6117 259.564 55.108 259.769 55.517C259.977 55.9261 260.267 56.2386 260.638 56.4545C261.01 56.6667 261.443 56.7727 261.939 56.7727C262.261 56.7727 262.555 56.7273 262.82 56.6364C263.085 56.5417 263.314 56.4015 263.508 56.2159C263.701 56.0303 263.849 55.8011 263.951 55.5284L265.559 55.8182C265.43 56.2917 265.199 56.7064 264.866 57.0625C264.536 57.4148 264.121 57.6894 263.621 57.8864C263.125 58.0795 262.559 58.1761 261.922 58.1761ZM267.232 58V49.2727H268.931V52.9318H269.749L272.629 49.2727H274.732L271.351 53.517L274.771 58H272.664L270.033 54.5114H268.931V58H267.232ZM279.088 58.1761C278.243 58.1761 277.516 57.9848 276.906 57.6023C276.3 57.2159 275.834 56.6837 275.508 56.0057C275.183 55.3277 275.02 54.5511 275.02 53.6761C275.02 52.7898 275.186 52.0076 275.52 51.3295C275.853 50.6477 276.323 50.1155 276.929 49.733C277.535 49.3504 278.249 49.1591 279.071 49.1591C279.734 49.1591 280.325 49.2822 280.844 49.5284C281.362 49.7708 281.781 50.1117 282.099 50.5511C282.421 50.9905 282.612 51.5038 282.673 52.0909H281.02C280.929 51.6818 280.72 51.3295 280.395 51.0341C280.073 50.7386 279.641 50.5909 279.099 50.5909C278.626 50.5909 278.211 50.7159 277.855 50.9659C277.503 51.2121 277.228 51.5644 277.031 52.0227C276.834 52.4773 276.736 53.0152 276.736 53.6364C276.736 54.2727 276.832 54.822 277.025 55.2841C277.219 55.7462 277.491 56.1042 277.844 56.358C278.2 56.6117 278.618 56.7386 279.099 56.7386C279.421 56.7386 279.713 56.6799 279.974 56.5625C280.239 56.4413 280.461 56.2689 280.639 56.0455C280.821 55.822 280.948 55.553 281.02 55.2386H282.673C282.612 55.803 282.429 56.3068 282.122 56.75C281.815 57.1932 281.404 57.5417 280.889 57.7955C280.378 58.0492 279.777 58.1761 279.088 58.1761ZM283.509 50.7386V49.2727H290.873V50.7386H288.026V58H286.367V50.7386H283.509ZM293.201 56.4091L293.115 57.0284C293.059 57.483 292.962 57.9564 292.826 58.4489C292.693 58.9451 292.555 59.4053 292.411 59.8295C292.271 60.2538 292.155 60.5909 292.064 60.8409H290.86C290.909 60.6061 290.977 60.2879 291.064 59.8864C291.151 59.4886 291.237 59.0436 291.32 58.5511C291.403 58.0587 291.466 57.5568 291.508 57.0455L291.564 56.4091H293.201ZM78.3074 82V73.2727H81.9267C82.9115 73.2727 83.6918 73.483 84.2676 73.9034C84.8433 74.3201 85.1312 74.8864 85.1312 75.6023C85.1312 76.1136 84.9683 76.5189 84.6426 76.8182C84.3168 77.1174 83.885 77.3182 83.3471 77.4205C83.7373 77.4659 84.0952 77.5833 84.421 77.7727C84.7468 77.9583 85.0081 78.2083 85.2051 78.5227C85.4058 78.8371 85.5062 79.2121 85.5062 79.6477C85.5062 80.1098 85.3869 80.5189 85.1483 80.875C84.9096 81.2273 84.563 81.5038 84.1085 81.7045C83.6577 81.9015 83.1142 82 82.4778 82H78.3074ZM79.904 80.5795H82.4778C82.8983 80.5795 83.2278 80.4792 83.4665 80.2784C83.7051 80.0777 83.8244 79.8049 83.8244 79.4602C83.8244 79.0549 83.7051 78.7367 83.4665 78.5057C83.2278 78.2708 82.8983 78.1534 82.4778 78.1534H79.904V80.5795ZM79.904 76.9091H81.9437C82.2619 76.9091 82.5346 76.8636 82.7619 76.7727C82.993 76.6818 83.1691 76.553 83.2903 76.3864C83.4153 76.2159 83.4778 76.0152 83.4778 75.7841C83.4778 75.447 83.3396 75.1837 83.063 74.9943C82.7865 74.8049 82.4077 74.7102 81.9267 74.7102H79.904V76.9091ZM88.7146 79.6193L92.5612 73.2727H94.3908V82H92.726V75.6477L88.8965 82H87.0499V73.2727H88.7146V79.6193ZM95.5026 84.517V80.5284H96.2128C96.3946 80.3617 96.548 80.1629 96.673 79.9318C96.8018 79.7008 96.9098 79.4261 96.9969 79.108C97.0878 78.7898 97.1636 78.4186 97.2242 77.9943C97.2848 77.5663 97.3378 77.0777 97.3833 76.5284L97.656 73.2727H103.588V80.5284H104.929V84.517H103.27V82H97.1844V84.517H95.5026ZM98.031 80.5284H101.929V74.7273H99.1787L98.9969 76.5284C98.9098 77.4451 98.7999 78.2405 98.6674 78.9148C98.5348 79.5852 98.3227 80.1231 98.031 80.5284ZM110.031 82.1761C109.171 82.1761 108.43 81.9924 107.809 81.625C107.192 81.2538 106.714 80.733 106.377 80.0625C106.044 79.3883 105.877 78.5985 105.877 77.6932C105.877 76.7992 106.044 76.0114 106.377 75.3295C106.714 74.6477 107.184 74.1155 107.786 73.733C108.392 73.3504 109.101 73.1591 109.911 73.1591C110.404 73.1591 110.881 73.2405 111.343 73.4034C111.805 73.5663 112.22 73.822 112.587 74.1705C112.955 74.5189 113.245 74.9716 113.457 75.5284C113.669 76.0814 113.775 76.7538 113.775 77.5455V78.1477H106.837V76.875H112.11C112.11 76.428 112.019 76.0322 111.837 75.6875C111.656 75.339 111.4 75.0644 111.07 74.8636C110.745 74.6629 110.362 74.5625 109.923 74.5625C109.445 74.5625 109.029 74.6799 108.673 74.9148C108.32 75.1458 108.048 75.4489 107.854 75.8239C107.665 76.1951 107.57 76.5985 107.57 77.0341V78.0284C107.57 78.6117 107.673 79.108 107.877 79.517C108.086 79.9261 108.375 80.2386 108.747 80.4545C109.118 80.6667 109.551 80.7727 110.048 80.7727C110.37 80.7727 110.663 80.7273 110.928 80.6364C111.193 80.5417 111.423 80.4015 111.616 80.2159C111.809 80.0303 111.957 79.8011 112.059 79.5284L113.667 79.8182C113.538 80.2917 113.307 80.7064 112.974 81.0625C112.644 81.4148 112.229 81.6894 111.729 81.8864C111.233 82.0795 110.667 82.1761 110.031 82.1761ZM119.016 82.1761C118.198 82.1761 117.484 81.9886 116.874 81.6136C116.264 81.2386 115.791 80.714 115.453 80.0398C115.116 79.3655 114.948 78.5777 114.948 77.6761C114.948 76.7708 115.116 75.9792 115.453 75.3011C115.791 74.6231 116.264 74.0966 116.874 73.7216C117.484 73.3466 118.198 73.1591 119.016 73.1591C119.834 73.1591 120.548 73.3466 121.158 73.7216C121.768 74.0966 122.241 74.6231 122.578 75.3011C122.916 75.9792 123.084 76.7708 123.084 77.6761C123.084 78.5777 122.916 79.3655 122.578 80.0398C122.241 80.714 121.768 81.2386 121.158 81.6136C120.548 81.9886 119.834 82.1761 119.016 82.1761ZM119.022 80.75C119.552 80.75 119.991 80.6098 120.34 80.3295C120.688 80.0492 120.946 79.6761 121.113 79.2102C121.283 78.7443 121.368 78.2311 121.368 77.6705C121.368 77.1136 121.283 76.6023 121.113 76.1364C120.946 75.6667 120.688 75.2898 120.34 75.0057C119.991 74.7216 119.552 74.5795 119.022 74.5795C118.488 74.5795 118.044 74.7216 117.692 75.0057C117.344 75.2898 117.084 75.6667 116.914 76.1364C116.747 76.6023 116.664 77.1136 116.664 77.6705C116.664 78.2311 116.747 78.7443 116.914 79.2102C117.084 79.6761 117.344 80.0492 117.692 80.3295C118.044 80.6098 118.488 80.75 119.022 80.75ZM126.871 80.4091L126.785 81.0284C126.729 81.483 126.632 81.9564 126.496 82.4489C126.363 82.9451 126.225 83.4053 126.081 83.8295C125.941 84.2538 125.825 84.5909 125.734 84.8409H124.53C124.579 84.6061 124.647 84.2879 124.734 83.8864C124.821 83.4886 124.907 83.0436 124.99 82.5511C125.073 82.0587 125.136 81.5568 125.178 81.0455L125.234 80.4091H126.871ZM134.342 79.6193L138.188 73.2727H140.018V82H138.353V75.6477L134.523 82H132.677V73.2727H134.342V79.6193ZM141.465 79.6932H143.203C143.226 80.0492 143.387 80.3239 143.686 80.517C143.989 80.7102 144.381 80.8068 144.862 80.8068C145.351 80.8068 145.768 80.7027 146.112 80.4943C146.457 80.2822 146.629 79.9545 146.629 79.5114C146.629 79.2462 146.563 79.0152 146.431 78.8182C146.302 78.6174 146.118 78.4621 145.879 78.3523C145.645 78.2424 145.366 78.1875 145.044 78.1875H143.624V76.8523H145.044C145.525 76.8523 145.885 76.7424 146.124 76.5227C146.362 76.303 146.482 76.0284 146.482 75.6989C146.482 75.3428 146.353 75.0568 146.095 74.8409C145.842 74.6212 145.487 74.5114 145.033 74.5114C144.571 74.5114 144.186 74.6155 143.879 74.8239C143.573 75.0284 143.412 75.2936 143.397 75.6193H141.681C141.692 75.1307 141.84 74.7027 142.124 74.3352C142.412 73.964 142.798 73.6761 143.283 73.4716C143.772 73.2633 144.326 73.1591 144.948 73.1591C145.595 73.1591 146.156 73.2633 146.629 73.4716C147.103 73.6799 147.468 73.9678 147.726 74.3352C147.987 74.7027 148.118 75.125 148.118 75.6023C148.118 76.0833 147.974 76.4773 147.686 76.7841C147.402 77.0871 147.031 77.3049 146.573 77.4375V77.5284C146.91 77.5511 147.209 77.6534 147.47 77.8352C147.732 78.017 147.936 78.2576 148.084 78.5568C148.232 78.8561 148.306 79.1951 148.306 79.5739C148.306 80.108 148.158 80.5701 147.862 80.9602C147.571 81.3504 147.165 81.6515 146.647 81.8636C146.131 82.072 145.542 82.1761 144.879 82.1761C144.236 82.1761 143.658 82.0758 143.147 81.875C142.639 81.6705 142.236 81.3826 141.936 81.0114C141.641 80.6402 141.484 80.2008 141.465 79.6932ZM153.416 82.1761C152.598 82.1761 151.884 81.9886 151.274 81.6136C150.664 81.2386 150.191 80.714 149.853 80.0398C149.516 79.3655 149.348 78.5777 149.348 77.6761C149.348 76.7708 149.516 75.9792 149.853 75.3011C150.191 74.6231 150.664 74.0966 151.274 73.7216C151.884 73.3466 152.598 73.1591 153.416 73.1591C154.234 73.1591 154.948 73.3466 155.558 73.7216C156.168 74.0966 156.641 74.6231 156.978 75.3011C157.316 75.9792 157.484 76.7708 157.484 77.6761C157.484 78.5777 157.316 79.3655 156.978 80.0398C156.641 80.714 156.168 81.2386 155.558 81.6136C154.948 81.9886 154.234 82.1761 153.416 82.1761ZM153.422 80.75C153.952 80.75 154.391 80.6098 154.74 80.3295C155.088 80.0492 155.346 79.6761 155.513 79.2102C155.683 78.7443 155.768 78.2311 155.768 77.6705C155.768 77.1136 155.683 76.6023 155.513 76.1364C155.346 75.6667 155.088 75.2898 154.74 75.0057C154.391 74.7216 153.952 74.5795 153.422 74.5795C152.888 74.5795 152.444 74.7216 152.092 75.0057C151.744 75.2898 151.484 75.6667 151.314 76.1364C151.147 76.6023 151.064 77.1136 151.064 77.6705C151.064 78.2311 151.147 78.7443 151.314 79.2102C151.484 79.6761 151.744 80.0492 152.092 80.3295C152.444 80.6098 152.888 80.75 153.422 80.75ZM165.793 70.0227L166.498 71.0966C166.237 71.3352 165.939 71.5057 165.606 71.608C165.276 71.7064 164.896 71.7689 164.464 71.7955C164.032 71.8182 163.538 71.839 162.981 71.858C162.352 71.8769 161.835 72.0133 161.43 72.267C161.025 72.517 160.712 72.8883 160.492 73.3807C160.276 73.8693 160.136 74.483 160.072 75.2216H160.18C160.464 74.6799 160.858 74.2746 161.362 74.0057C161.869 73.7367 162.439 73.6023 163.072 73.6023C163.776 73.6023 164.403 73.7633 164.953 74.0852C165.502 74.4072 165.934 74.8788 166.248 75.5C166.566 76.1174 166.725 76.8731 166.725 77.767C166.725 78.6723 166.559 79.4545 166.225 80.1136C165.896 80.7727 165.43 81.2822 164.828 81.642C164.229 81.9981 163.523 82.1761 162.708 82.1761C161.894 82.1761 161.184 81.9924 160.578 81.625C159.975 81.2538 159.507 80.7045 159.174 79.9773C158.845 79.25 158.68 78.3523 158.68 77.2841V76.4205C158.68 74.4242 159.036 72.9223 159.748 71.9148C160.46 70.9072 161.525 70.3902 162.941 70.3636C163.4 70.3523 163.809 70.3504 164.168 70.358C164.528 70.3617 164.843 70.3447 165.112 70.3068C165.384 70.2652 165.612 70.1705 165.793 70.0227ZM162.714 80.75C163.187 80.75 163.595 80.6307 163.935 80.392C164.28 80.1496 164.545 79.8068 164.731 79.3636C164.917 78.9205 165.009 78.3977 165.009 77.7955C165.009 77.2045 164.917 76.7027 164.731 76.2898C164.545 75.8769 164.28 75.5625 163.935 75.3466C163.591 75.1269 163.178 75.017 162.697 75.017C162.341 75.017 162.023 75.0795 161.742 75.2045C161.462 75.3258 161.221 75.5057 161.021 75.7443C160.824 75.983 160.67 76.2746 160.56 76.6193C160.454 76.9602 160.398 77.3523 160.39 77.7955C160.39 78.697 160.596 79.4148 161.009 79.9489C161.426 80.483 161.994 80.75 162.714 80.75ZM168.303 85.2727V73.2727H169.962V74.6875H170.104C170.203 74.5057 170.345 74.2955 170.53 74.0568C170.716 73.8182 170.973 73.6098 171.303 73.4318C171.633 73.25 172.068 73.1591 172.61 73.1591C173.314 73.1591 173.943 73.3371 174.496 73.6932C175.049 74.0492 175.483 74.5625 175.797 75.233C176.115 75.9034 176.275 76.7102 176.275 77.6534C176.275 78.5966 176.117 79.4053 175.803 80.0795C175.489 80.75 175.057 81.267 174.508 81.6307C173.958 81.9905 173.331 82.1705 172.627 82.1705C172.097 82.1705 171.663 82.0814 171.326 81.9034C170.992 81.7254 170.731 81.517 170.542 81.2784C170.352 81.0398 170.206 80.8277 170.104 80.642H170.002V85.2727H168.303ZM169.968 77.6364C169.968 78.25 170.057 78.7879 170.235 79.25C170.413 79.7121 170.67 80.0739 171.008 80.3352C171.345 80.5928 171.758 80.7216 172.246 80.7216C172.754 80.7216 173.178 80.5871 173.519 80.3182C173.86 80.0455 174.117 79.6761 174.292 79.2102C174.47 78.7443 174.559 78.2197 174.559 77.6364C174.559 77.0606 174.472 76.5436 174.297 76.0852C174.127 75.6269 173.869 75.2652 173.525 75C173.184 74.7348 172.758 74.6023 172.246 74.6023C171.754 74.6023 171.337 74.7292 170.996 74.983C170.659 75.2367 170.403 75.5909 170.229 76.0455C170.055 76.5 169.968 77.0303 169.968 77.6364ZM180.398 82.1932C179.845 82.1932 179.345 82.0909 178.898 81.8864C178.451 81.678 178.097 81.3769 177.835 80.983C177.578 80.589 177.449 80.1061 177.449 79.5341C177.449 79.0417 177.544 78.6364 177.733 78.3182C177.922 78 178.178 77.7481 178.5 77.5625C178.822 77.3769 179.182 77.2367 179.58 77.142C179.977 77.0473 180.383 76.9754 180.795 76.9261C181.318 76.8655 181.742 76.8163 182.068 76.7784C182.394 76.7367 182.631 76.6705 182.778 76.5795C182.926 76.4886 183 76.3409 183 76.1364V76.0966C183 75.6004 182.86 75.2159 182.58 74.9432C182.303 74.6705 181.89 74.5341 181.341 74.5341C180.769 74.5341 180.318 74.661 179.989 74.9148C179.663 75.1648 179.438 75.4432 179.313 75.75L177.716 75.3864C177.905 74.8561 178.182 74.428 178.545 74.1023C178.913 73.7727 179.335 73.5341 179.813 73.3864C180.29 73.2348 180.792 73.1591 181.318 73.1591C181.667 73.1591 182.036 73.2008 182.426 73.2841C182.82 73.3636 183.188 73.5114 183.528 73.7273C183.873 73.9432 184.155 74.2519 184.375 74.6534C184.595 75.0511 184.705 75.5682 184.705 76.2045V82H183.045V80.8068H182.977C182.867 81.0265 182.703 81.2424 182.483 81.4545C182.263 81.6667 181.981 81.8428 181.636 81.983C181.292 82.1231 180.879 82.1932 180.398 82.1932ZM180.767 80.8295C181.237 80.8295 181.638 80.7367 181.972 80.5511C182.309 80.3655 182.564 80.1231 182.739 79.8239C182.917 79.5208 183.006 79.197 183.006 78.8523V77.7273C182.945 77.7879 182.828 77.8447 182.653 77.8977C182.483 77.947 182.288 77.9905 182.068 78.0284C181.849 78.0625 181.635 78.0947 181.426 78.125C181.218 78.1515 181.044 78.1742 180.903 78.1932C180.574 78.2348 180.273 78.3049 180 78.4034C179.731 78.5019 179.515 78.6439 179.352 78.8295C179.193 79.0114 179.114 79.2538 179.114 79.5568C179.114 79.9773 179.269 80.2955 179.58 80.5114C179.89 80.7235 180.286 80.8295 180.767 80.8295ZM186.091 82L189.471 77.5341L186.13 73.2727H188.108L190.806 76.8977H191.414V73.2727H193.113V76.8977H193.704L196.403 73.2727H198.38L195.056 77.5341L198.42 82H196.403L193.681 78.3636H193.113V82H191.414V78.3636H190.846L188.108 82H186.091ZM203.245 82.1761C202.385 82.1761 201.645 81.9924 201.023 81.625C200.406 81.2538 199.929 80.733 199.592 80.0625C199.258 79.3883 199.092 78.5985 199.092 77.6932C199.092 76.7992 199.258 76.0114 199.592 75.3295C199.929 74.6477 200.398 74.1155 201.001 73.733C201.607 73.3504 202.315 73.1591 203.126 73.1591C203.618 73.1591 204.095 73.2405 204.557 73.4034C205.02 73.5663 205.434 73.822 205.802 74.1705C206.169 74.5189 206.459 74.9716 206.671 75.5284C206.883 76.0814 206.989 76.7538 206.989 77.5455V78.1477H200.052V76.875H205.325C205.325 76.428 205.234 76.0322 205.052 75.6875C204.87 75.339 204.614 75.0644 204.285 74.8636C203.959 74.6629 203.576 74.5625 203.137 74.5625C202.66 74.5625 202.243 74.6799 201.887 74.9148C201.535 75.1458 201.262 75.4489 201.069 75.8239C200.879 76.1951 200.785 76.5985 200.785 77.0341V78.0284C200.785 78.6117 200.887 79.108 201.092 79.517C201.3 79.9261 201.59 80.2386 201.961 80.4545C202.332 80.6667 202.766 80.7727 203.262 80.7727C203.584 80.7727 203.878 80.7273 204.143 80.6364C204.408 80.5417 204.637 80.4015 204.83 80.2159C205.023 80.0303 205.171 79.8011 205.273 79.5284L206.881 79.8182C206.753 80.2917 206.521 80.7064 206.188 81.0625C205.859 81.4148 205.444 81.6894 204.944 81.8864C204.448 82.0795 203.881 82.1761 203.245 82.1761ZM214.469 76.9034V78.375H209.742V76.9034H214.469ZM210.219 73.2727V82H208.554V73.2727H210.219ZM215.657 73.2727V82H213.997V73.2727H215.657ZM219.274 79.6193L223.121 73.2727H224.95V82H223.285V75.6477L219.456 82H217.609V73.2727H219.274V79.6193ZM232.119 82V74.7216H230.028C229.532 74.7216 229.145 74.8371 228.869 75.0682C228.592 75.2992 228.454 75.6023 228.454 75.9773C228.454 76.3485 228.581 76.6477 228.835 76.875C229.092 77.0985 229.452 77.2102 229.914 77.2102H232.613V78.5852H229.914C229.27 78.5852 228.713 78.4792 228.244 78.267C227.778 78.0511 227.418 77.7462 227.164 77.3523C226.914 76.9583 226.789 76.4924 226.789 75.9545C226.789 75.4053 226.918 74.9318 227.176 74.5341C227.437 74.1326 227.81 73.822 228.295 73.6023C228.784 73.3826 229.361 73.2727 230.028 73.2727H233.715V82H232.119ZM226.392 82L228.852 77.5909H230.59L228.13 82H226.392Z" fill="black"/>
<g filter="url(#filter0_d_1_318)">
<rect x="39" y="112" width="234" height="56" rx="28" fill="#5C24FF"/>
<path d="M64.0114 146V134.364H66.4716V139.165H71.4659V134.364H73.9205V146H71.4659V141.193H66.4716V146H64.0114ZM78.072 146.165C77.5152 146.165 77.019 146.068 76.5834 145.875C76.1478 145.678 75.8031 145.388 75.5493 145.006C75.2993 144.619 75.1743 144.138 75.1743 143.562C75.1743 143.078 75.2633 142.67 75.4414 142.341C75.6194 142.011 75.8618 141.746 76.1686 141.545C76.4755 141.345 76.8239 141.193 77.2141 141.091C77.608 140.989 78.0209 140.917 78.4527 140.875C78.9603 140.822 79.3694 140.773 79.68 140.727C79.9906 140.678 80.216 140.606 80.3561 140.511C80.4963 140.417 80.5664 140.277 80.5664 140.091V140.057C80.5664 139.697 80.4527 139.419 80.2255 139.222C80.002 139.025 79.6838 138.926 79.2709 138.926C78.8353 138.926 78.4887 139.023 78.2311 139.216C77.9736 139.405 77.8031 139.644 77.7198 139.932L75.4811 139.75C75.5948 139.22 75.8183 138.761 76.1516 138.375C76.4849 137.985 76.9148 137.686 77.4414 137.477C77.9717 137.265 78.5853 137.159 79.2823 137.159C79.7671 137.159 80.2311 137.216 80.6743 137.33C81.1213 137.443 81.5171 137.619 81.8618 137.858C82.2103 138.097 82.4849 138.403 82.6857 138.778C82.8864 139.15 82.9868 139.595 82.9868 140.114V146H80.6914V144.79H80.6232C80.483 145.062 80.2955 145.303 80.0607 145.511C79.8258 145.716 79.5436 145.877 79.2141 145.994C78.8845 146.108 78.5039 146.165 78.072 146.165ZM78.7652 144.494C79.1213 144.494 79.4357 144.424 79.7084 144.284C79.9811 144.14 80.1952 143.947 80.3505 143.705C80.5058 143.462 80.5834 143.187 80.5834 142.881V141.955C80.5077 142.004 80.4035 142.049 80.2709 142.091C80.1421 142.129 79.9963 142.165 79.8334 142.199C79.6705 142.229 79.5077 142.258 79.3448 142.284C79.1819 142.307 79.0342 142.328 78.9016 142.347C78.6175 142.388 78.3694 142.455 78.1573 142.545C77.9452 142.636 77.7804 142.759 77.663 142.915C77.5455 143.066 77.4868 143.256 77.4868 143.483C77.4868 143.812 77.6061 144.064 77.8448 144.239C78.0872 144.409 78.394 144.494 78.7652 144.494ZM92.1185 137.273V146H89.8231V137.273H92.1185ZM90.9992 141.102V143.011C90.8136 143.095 90.5825 143.174 90.306 143.25C90.0295 143.322 89.7397 143.381 89.4367 143.426C89.1337 143.472 88.8496 143.494 88.5844 143.494C87.3306 143.494 86.3439 143.237 85.6242 142.722C84.9045 142.203 84.5447 141.375 84.5447 140.239V137.261H86.8288V140.239C86.8288 140.576 86.8856 140.843 86.9992 141.04C87.1166 141.237 87.3022 141.379 87.556 141.466C87.8136 141.549 88.1564 141.591 88.5844 141.591C88.9822 141.591 89.3723 141.549 89.7549 141.466C90.1375 141.383 90.5522 141.261 90.9992 141.102ZM96.1664 146.165C95.6096 146.165 95.1134 146.068 94.6778 145.875C94.2422 145.678 93.8975 145.388 93.6437 145.006C93.3937 144.619 93.2687 144.138 93.2687 143.562C93.2687 143.078 93.3577 142.67 93.5357 142.341C93.7138 142.011 93.9562 141.746 94.263 141.545C94.5698 141.345 94.9183 141.193 95.3085 141.091C95.7024 140.989 96.1153 140.917 96.5471 140.875C97.0547 140.822 97.4638 140.773 97.7744 140.727C98.085 140.678 98.3104 140.606 98.4505 140.511C98.5907 140.417 98.6607 140.277 98.6607 140.091V140.057C98.6607 139.697 98.5471 139.419 98.3198 139.222C98.0963 139.025 97.7782 138.926 97.3653 138.926C96.9297 138.926 96.5831 139.023 96.3255 139.216C96.0679 139.405 95.8975 139.644 95.8141 139.932L93.5755 139.75C93.6891 139.22 93.9126 138.761 94.246 138.375C94.5793 137.985 95.0092 137.686 95.5357 137.477C96.066 137.265 96.6797 137.159 97.3766 137.159C97.8615 137.159 98.3255 137.216 98.7687 137.33C99.2157 137.443 99.6115 137.619 99.9562 137.858C100.305 138.097 100.579 138.403 100.78 138.778C100.981 139.15 101.081 139.595 101.081 140.114V146H98.7857V144.79H98.7176C98.5774 145.062 98.3899 145.303 98.1551 145.511C97.9202 145.716 97.638 145.877 97.3085 145.994C96.9789 146.108 96.5982 146.165 96.1664 146.165ZM96.8596 144.494C97.2157 144.494 97.5301 144.424 97.8028 144.284C98.0755 144.14 98.2895 143.947 98.4448 143.705C98.6001 143.462 98.6778 143.187 98.6778 142.881V141.955C98.602 142.004 98.4979 142.049 98.3653 142.091C98.2365 142.129 98.0907 142.165 97.9278 142.199C97.7649 142.229 97.602 142.258 97.4391 142.284C97.2763 142.307 97.1285 142.328 96.996 142.347C96.7119 142.388 96.4638 142.455 96.2516 142.545C96.0395 142.636 95.8748 142.759 95.7573 142.915C95.6399 143.066 95.5812 143.256 95.5812 143.483C95.5812 143.812 95.7005 144.064 95.9391 144.239C96.1816 144.409 96.4884 144.494 96.8596 144.494ZM101.763 139.176V137.273H109.672V139.176H106.859V146H104.552V139.176H101.763ZM112.336 139.955H114.944C116.099 139.955 117.001 140.231 117.649 140.784C118.296 141.333 118.62 142.068 118.62 142.989C118.62 143.587 118.474 144.114 118.183 144.568C117.891 145.019 117.471 145.371 116.921 145.625C116.372 145.875 115.713 146 114.944 146H110.819V137.273H113.132V144.097H114.944C115.349 144.097 115.683 143.994 115.944 143.79C116.205 143.585 116.338 143.324 116.342 143.006C116.338 142.669 116.205 142.394 115.944 142.182C115.683 141.966 115.349 141.858 114.944 141.858H112.336V139.955ZM125.777 146.165C125.22 146.165 124.724 146.068 124.288 145.875C123.853 145.678 123.508 145.388 123.254 145.006C123.004 144.619 122.879 144.138 122.879 143.562C122.879 143.078 122.968 142.67 123.146 142.341C123.324 142.011 123.567 141.746 123.874 141.545C124.18 141.345 124.529 141.193 124.919 141.091C125.313 140.989 125.726 140.917 126.158 140.875C126.665 140.822 127.074 140.773 127.385 140.727C127.696 140.678 127.921 140.606 128.061 140.511C128.201 140.417 128.271 140.277 128.271 140.091V140.057C128.271 139.697 128.158 139.419 127.93 139.222C127.707 139.025 127.389 138.926 126.976 138.926C126.54 138.926 126.194 139.023 125.936 139.216C125.679 139.405 125.508 139.644 125.425 139.932L123.186 139.75C123.3 139.22 123.523 138.761 123.857 138.375C124.19 137.985 124.62 137.686 125.146 137.477C125.677 137.265 126.29 137.159 126.987 137.159C127.472 137.159 127.936 137.216 128.379 137.33C128.826 137.443 129.222 137.619 129.567 137.858C129.915 138.097 130.19 138.403 130.391 138.778C130.591 139.15 130.692 139.595 130.692 140.114V146H128.396V144.79H128.328C128.188 145.062 128.001 145.303 127.766 145.511C127.531 145.716 127.249 145.877 126.919 145.994C126.59 146.108 126.209 146.165 125.777 146.165ZM126.47 144.494C126.826 144.494 127.141 144.424 127.413 144.284C127.686 144.14 127.9 143.947 128.055 143.705C128.211 143.462 128.288 143.187 128.288 142.881V141.955C128.213 142.004 128.108 142.049 127.976 142.091C127.847 142.129 127.701 142.165 127.538 142.199C127.376 142.229 127.213 142.258 127.05 142.284C126.887 142.307 126.739 142.328 126.607 142.347C126.322 142.388 126.074 142.455 125.862 142.545C125.65 142.636 125.485 142.759 125.368 142.915C125.251 143.066 125.192 143.256 125.192 143.483C125.192 143.812 125.311 144.064 125.55 144.239C125.792 144.409 126.099 144.494 126.47 144.494ZM138.324 140.67V142.574H133.767V140.67H138.324ZM134.562 137.273V146H132.25V137.273H134.562ZM139.841 137.273V146H137.545V137.273H139.841ZM143.887 146.165C143.33 146.165 142.834 146.068 142.398 145.875C141.963 145.678 141.618 145.388 141.364 145.006C141.114 144.619 140.989 144.138 140.989 143.562C140.989 143.078 141.078 142.67 141.256 142.341C141.434 142.011 141.677 141.746 141.984 141.545C142.29 141.345 142.639 141.193 143.029 141.091C143.423 140.989 143.836 140.917 144.268 140.875C144.775 140.822 145.184 140.773 145.495 140.727C145.806 140.678 146.031 140.606 146.171 140.511C146.311 140.417 146.381 140.277 146.381 140.091V140.057C146.381 139.697 146.268 139.419 146.04 139.222C145.817 139.025 145.499 138.926 145.086 138.926C144.65 138.926 144.304 139.023 144.046 139.216C143.789 139.405 143.618 139.644 143.535 139.932L141.296 139.75C141.41 139.22 141.633 138.761 141.967 138.375C142.3 137.985 142.73 137.686 143.256 137.477C143.787 137.265 144.4 137.159 145.097 137.159C145.582 137.159 146.046 137.216 146.489 137.33C146.936 137.443 147.332 137.619 147.677 137.858C148.025 138.097 148.3 138.403 148.501 138.778C148.701 139.15 148.802 139.595 148.802 140.114V146H146.506V144.79H146.438C146.298 145.062 146.111 145.303 145.876 145.511C145.641 145.716 145.359 145.877 145.029 145.994C144.7 146.108 144.319 146.165 143.887 146.165ZM144.58 144.494C144.936 144.494 145.251 144.424 145.523 144.284C145.796 144.14 146.01 143.947 146.165 143.705C146.321 143.462 146.398 143.187 146.398 142.881V141.955C146.323 142.004 146.218 142.049 146.086 142.091C145.957 142.129 145.811 142.165 145.648 142.199C145.486 142.229 145.323 142.258 145.16 142.284C144.997 142.307 144.849 142.328 144.717 142.347C144.433 142.388 144.184 142.455 143.972 142.545C143.76 142.636 143.595 142.759 143.478 142.915C143.361 143.066 143.302 143.256 143.302 143.483C143.302 143.812 143.421 144.064 143.66 144.239C143.902 144.409 144.209 144.494 144.58 144.494ZM149.848 146L149.837 144.08H150.127C150.331 144.08 150.507 144.03 150.655 143.932C150.807 143.83 150.932 143.665 151.03 143.438C151.129 143.21 151.206 142.909 151.263 142.534C151.32 142.155 151.358 141.689 151.377 141.136L151.519 137.273H158.155V146H155.848V139.176H153.695L153.559 141.841C153.524 142.572 153.435 143.201 153.291 143.727C153.151 144.254 152.956 144.686 152.706 145.023C152.456 145.356 152.155 145.602 151.803 145.761C151.451 145.92 151.041 146 150.576 146H149.848ZM162.024 142.807L165.166 137.273H167.552V146H165.246V140.449L162.115 146H159.712V137.273H162.024V142.807ZM168.724 143.528H171.071C171.082 143.816 171.211 144.044 171.457 144.21C171.703 144.377 172.021 144.46 172.411 144.46C172.805 144.46 173.137 144.369 173.406 144.188C173.675 144.002 173.809 143.737 173.809 143.392C173.809 143.18 173.756 142.996 173.65 142.841C173.544 142.682 173.396 142.557 173.207 142.466C173.017 142.375 172.798 142.33 172.548 142.33H171.292V140.744H172.548C172.923 140.744 173.211 140.657 173.411 140.483C173.616 140.309 173.718 140.091 173.718 139.83C173.718 139.534 173.612 139.297 173.4 139.119C173.192 138.937 172.91 138.847 172.553 138.847C172.194 138.847 171.894 138.928 171.656 139.091C171.421 139.25 171.3 139.458 171.292 139.716H168.957C168.964 139.193 169.122 138.741 169.428 138.358C169.739 137.975 170.156 137.68 170.678 137.472C171.205 137.263 171.794 137.159 172.446 137.159C173.158 137.159 173.771 137.259 174.286 137.46C174.805 137.657 175.203 137.939 175.48 138.307C175.76 138.674 175.9 139.112 175.9 139.619C175.9 140.081 175.749 140.468 175.446 140.778C175.142 141.089 174.718 141.311 174.173 141.443V141.534C174.533 141.557 174.858 141.653 175.15 141.824C175.442 141.994 175.675 142.229 175.849 142.528C176.023 142.824 176.11 143.174 176.11 143.58C176.11 144.121 175.951 144.585 175.633 144.972C175.319 145.358 174.883 145.655 174.326 145.864C173.773 146.068 173.139 146.17 172.423 146.17C171.726 146.17 171.101 146.07 170.548 145.869C169.999 145.665 169.561 145.366 169.235 144.972C168.913 144.578 168.743 144.097 168.724 143.528ZM180.658 146V137.273H188.288V146H185.976V139.176H182.942V146H180.658ZM189.9 149.273V137.273H192.287V138.739H192.395C192.501 138.504 192.654 138.265 192.855 138.023C193.059 137.777 193.325 137.572 193.65 137.409C193.98 137.242 194.389 137.159 194.878 137.159C195.514 137.159 196.101 137.326 196.639 137.659C197.177 137.989 197.607 138.487 197.929 139.153C198.251 139.816 198.412 140.648 198.412 141.648C198.412 142.621 198.254 143.443 197.94 144.114C197.629 144.78 197.205 145.286 196.667 145.631C196.133 145.972 195.535 146.142 194.872 146.142C194.402 146.142 194.003 146.064 193.673 145.909C193.347 145.754 193.08 145.559 192.872 145.324C192.664 145.085 192.504 144.845 192.395 144.602H192.321V149.273H189.9ZM192.27 141.636C192.27 142.155 192.342 142.608 192.486 142.994C192.629 143.381 192.838 143.682 193.111 143.898C193.383 144.11 193.715 144.216 194.105 144.216C194.499 144.216 194.832 144.108 195.105 143.892C195.378 143.672 195.584 143.369 195.724 142.983C195.868 142.593 195.94 142.144 195.94 141.636C195.94 141.133 195.87 140.689 195.73 140.307C195.59 139.924 195.383 139.625 195.111 139.409C194.838 139.193 194.503 139.085 194.105 139.085C193.711 139.085 193.378 139.189 193.105 139.398C192.836 139.606 192.629 139.902 192.486 140.284C192.342 140.667 192.27 141.117 192.27 141.636ZM203.648 146.17C202.766 146.17 202.003 145.983 201.359 145.608C200.719 145.229 200.224 144.703 199.876 144.028C199.527 143.35 199.353 142.564 199.353 141.67C199.353 140.769 199.527 139.981 199.876 139.307C200.224 138.629 200.719 138.102 201.359 137.727C202.003 137.348 202.766 137.159 203.648 137.159C204.531 137.159 205.292 137.348 205.933 137.727C206.577 138.102 207.073 138.629 207.421 139.307C207.77 139.981 207.944 140.769 207.944 141.67C207.944 142.564 207.77 143.35 207.421 144.028C207.073 144.703 206.577 145.229 205.933 145.608C205.292 145.983 204.531 146.17 203.648 146.17ZM203.66 144.295C204.061 144.295 204.397 144.182 204.666 143.955C204.934 143.723 205.137 143.409 205.273 143.011C205.414 142.614 205.484 142.161 205.484 141.653C205.484 141.146 205.414 140.693 205.273 140.295C205.137 139.898 204.934 139.583 204.666 139.352C204.397 139.121 204.061 139.006 203.66 139.006C203.255 139.006 202.914 139.121 202.637 139.352C202.364 139.583 202.158 139.898 202.018 140.295C201.881 140.693 201.813 141.146 201.813 141.653C201.813 142.161 201.881 142.614 202.018 143.011C202.158 143.409 202.364 143.723 202.637 143.955C202.914 144.182 203.255 144.295 203.66 144.295ZM213.374 148.966V134.364H215.789V148.966H213.374ZM213.374 146.17C212.703 146.17 212.092 146.062 211.539 145.847C210.986 145.627 210.508 145.318 210.107 144.92C209.705 144.519 209.395 144.044 209.175 143.494C208.955 142.941 208.846 142.333 208.846 141.67C208.846 141 208.955 140.39 209.175 139.841C209.395 139.288 209.705 138.812 210.107 138.415C210.508 138.013 210.986 137.705 211.539 137.489C212.092 137.269 212.703 137.159 213.374 137.159H213.823V146.17H213.374ZM213.374 144.284H213.641V139.045H213.374C213.048 139.045 212.758 139.114 212.505 139.25C212.251 139.386 212.037 139.574 211.863 139.812C211.688 140.047 211.556 140.324 211.465 140.642C211.378 140.96 211.334 141.303 211.334 141.67C211.334 142.155 211.414 142.597 211.573 142.994C211.732 143.388 211.965 143.703 212.272 143.938C212.578 144.169 212.946 144.284 213.374 144.284ZM215.789 146.17H215.34V137.159H215.789C216.459 137.159 217.071 137.269 217.624 137.489C218.177 137.705 218.654 138.013 219.056 138.415C219.457 138.812 219.768 139.288 219.988 139.841C220.207 140.39 220.317 141 220.317 141.67C220.317 142.333 220.207 142.941 219.988 143.494C219.768 144.044 219.457 144.519 219.056 144.92C218.654 145.318 218.177 145.627 217.624 145.847C217.071 146.062 216.459 146.17 215.789 146.17ZM215.789 144.284C216.114 144.284 216.404 144.218 216.658 144.085C216.912 143.949 217.126 143.761 217.3 143.523C217.474 143.284 217.607 143.008 217.698 142.693C217.789 142.375 217.834 142.034 217.834 141.67C217.834 141.182 217.753 140.741 217.59 140.347C217.431 139.949 217.2 139.633 216.897 139.398C216.594 139.163 216.224 139.045 215.789 139.045H215.522V144.284H215.789ZM223.893 142.807L227.035 137.273H229.422V146H227.115V140.449L223.984 146H221.581V137.273H223.893V142.807ZM230.531 146L230.519 144.08H230.809C231.014 144.08 231.19 144.03 231.338 143.932C231.489 143.83 231.614 143.665 231.713 143.438C231.811 143.21 231.889 142.909 231.946 142.534C232.002 142.155 232.04 141.689 232.059 141.136L232.201 137.273H238.838V146H236.531V139.176H234.377L234.241 141.841C234.207 142.572 234.118 143.201 233.974 143.727C233.834 144.254 233.639 144.686 233.389 145.023C233.139 145.356 232.838 145.602 232.485 145.761C232.133 145.92 231.724 146 231.258 146H230.531ZM245.508 146V139.17H243.871C243.428 139.17 243.091 139.273 242.86 139.477C242.629 139.682 242.515 139.924 242.519 140.205C242.515 140.489 242.625 140.729 242.849 140.926C243.076 141.119 243.409 141.216 243.849 141.216H246.314V142.852H243.849C243.102 142.852 242.457 142.739 241.911 142.511C241.366 142.284 240.945 141.968 240.65 141.562C240.354 141.153 240.208 140.678 240.212 140.136C240.208 139.568 240.354 139.07 240.65 138.642C240.945 138.21 241.368 137.875 241.917 137.636C242.47 137.394 243.121 137.273 243.871 137.273H247.763V146H245.508ZM239.962 146L242.388 141.455H244.701L242.28 146H239.962Z" fill="white"/>
</g>
<defs>
<filter id="filter0_d_1_318" x="17" y="94" width="278" height="100" filterUnits="userSpaceOnUse" color-interpolation-filters="sRGB">
<feFlood flood-opacity="0" result="BackgroundImageFix"/>
<feColorMatrix in="SourceAlpha" type="matrix" values="0 0 0 0 0 0 0 0 0 0 0 0 0 0 0 0 0 0 127 0" result="hardAlpha"/>
<feOffset dy="4"/>
<feGaussianBlur stdDeviation="11"/>
<feComposite in2="hardAlpha" operator="out"/>
<feColorMatrix type="matrix" values="0 0 0 0 0.360784 0 0 0 0 0.141176 0 0 0 0 1 0 0 0 0.32 0"/>
<feBlend mode="normal" in2="BackgroundImageFix" result="effect1_dropShadow_1_318"/>
<feBlend mode="normal" in="SourceGraphic" in2="effect1_dropShadow_1_318" result="shape"/>
</filter>
</defs>
</svg>
