<svg width="312" height="194" viewBox="0 0 312 194" fill="none" xmlns="http://www.w3.org/2000/svg">
<path d="M62.9201 25H58.9656L64.9911 7.54545H69.7468L75.7639 25H71.8093L67.4371 11.5341H67.3008L62.9201 25ZM62.6729 18.1392H72.0139V21.0199H62.6729V18.1392ZM86.9073 17.0057V19.8608H80.0721V17.0057H86.9073ZM81.2653 11.9091V25H77.7965V11.9091H81.2653ZM89.1829 11.9091V25H85.7397V11.9091H89.1829ZM95.7326 25.2472C94.8974 25.2472 94.1531 25.1023 93.4996 24.8125C92.8462 24.517 92.3292 24.0824 91.9485 23.5085C91.5735 22.929 91.386 22.2074 91.386 21.3438C91.386 20.6165 91.5195 20.0057 91.7866 19.5114C92.0536 19.017 92.4173 18.6193 92.8775 18.3182C93.3377 18.017 93.8604 17.7898 94.4457 17.6364C95.0366 17.483 95.6559 17.375 96.3036 17.3125C97.065 17.233 97.6786 17.1591 98.1445 17.0909C98.6104 17.017 98.9485 16.9091 99.1587 16.767C99.369 16.625 99.4741 16.4148 99.4741 16.1364V16.0852C99.4741 15.5455 99.3036 15.1278 98.9627 14.8324C98.6275 14.5369 98.1502 14.3892 97.5309 14.3892C96.8775 14.3892 96.3576 14.5341 95.9712 14.8239C95.5849 15.108 95.3292 15.4659 95.2042 15.8977L91.8462 15.625C92.0167 14.8295 92.3519 14.142 92.8519 13.5625C93.3519 12.9773 93.9968 12.5284 94.7866 12.2159C95.582 11.8977 96.5025 11.7386 97.5479 11.7386C98.2752 11.7386 98.9712 11.8239 99.636 11.9943C100.306 12.1648 100.9 12.429 101.417 12.7869C101.94 13.1449 102.352 13.6051 102.653 14.1676C102.954 14.7244 103.105 15.392 103.105 16.1705V25H99.6616V23.1847H99.5593C99.3491 23.5938 99.0678 23.9545 98.7156 24.267C98.3633 24.5739 97.94 24.8153 97.4457 24.9915C96.9513 25.1619 96.3803 25.2472 95.7326 25.2472ZM96.7724 22.7415C97.3065 22.7415 97.7781 22.6364 98.1871 22.4261C98.5962 22.2102 98.9173 21.9205 99.1502 21.5568C99.3832 21.1932 99.4996 20.7812 99.4996 20.321V18.9318C99.386 19.0057 99.2298 19.0739 99.0309 19.1364C98.8377 19.1932 98.619 19.2472 98.3746 19.2983C98.1303 19.3437 97.886 19.3864 97.6417 19.4261C97.3974 19.4602 97.1758 19.4915 96.9769 19.5199C96.5508 19.5824 96.1786 19.6818 95.8604 19.8182C95.5423 19.9545 95.2951 20.1392 95.119 20.3722C94.9428 20.5994 94.8548 20.8835 94.8548 21.2244C94.8548 21.7188 95.0337 22.0966 95.3917 22.358C95.7553 22.6136 96.2156 22.7415 96.7724 22.7415ZM105.154 25L105.137 22.1193H105.572C105.879 22.1193 106.143 22.0455 106.365 21.8977C106.592 21.7443 106.779 21.4972 106.927 21.1562C107.075 20.8153 107.191 20.3636 107.277 19.8011C107.362 19.233 107.419 18.5341 107.447 17.7045L107.66 11.9091H117.615V25H114.154V14.7642H110.924L110.72 18.7614C110.669 19.858 110.535 20.8011 110.319 21.5909C110.109 22.3807 109.816 23.0284 109.441 23.5341C109.066 24.0341 108.615 24.4034 108.086 24.642C107.558 24.8807 106.944 25 106.245 25H105.154ZM123.898 20.2102L128.611 11.9091H132.191V25H128.73V16.6733L124.034 25H120.429V11.9091H123.898V20.2102ZM134.428 21.2926H137.948C137.965 21.7244 138.158 22.0653 138.527 22.3153C138.897 22.5653 139.374 22.6903 139.959 22.6903C140.55 22.6903 141.047 22.554 141.451 22.2812C141.854 22.0028 142.056 21.6051 142.056 21.0881C142.056 20.7699 141.976 20.4943 141.817 20.2614C141.658 20.0227 141.436 19.8352 141.152 19.6989C140.868 19.5625 140.539 19.4943 140.164 19.4943H138.28V17.1165H140.164C140.726 17.1165 141.158 16.9858 141.459 16.7244C141.766 16.4631 141.919 16.1364 141.919 15.7443C141.919 15.3011 141.76 14.946 141.442 14.679C141.13 14.4062 140.706 14.2699 140.172 14.2699C139.632 14.2699 139.184 14.392 138.826 14.6364C138.473 14.875 138.292 15.1875 138.28 15.5739H134.777C134.789 14.7898 135.025 14.1108 135.485 13.5369C135.951 12.9631 136.576 12.5199 137.36 12.2074C138.15 11.8949 139.033 11.7386 140.01 11.7386C141.078 11.7386 141.999 11.8892 142.772 12.1903C143.55 12.4858 144.147 12.9091 144.561 13.4602C144.982 14.0114 145.192 14.6676 145.192 15.429C145.192 16.1222 144.965 16.7017 144.51 17.1676C144.056 17.6335 143.419 17.9659 142.601 18.1648V18.3011C143.141 18.3352 143.63 18.4801 144.067 18.7358C144.505 18.9915 144.854 19.3437 145.115 19.7926C145.377 20.2358 145.507 20.7614 145.507 21.3693C145.507 22.1818 145.269 22.8778 144.792 23.4574C144.32 24.0369 143.667 24.483 142.831 24.7955C142.002 25.1023 141.05 25.2557 139.976 25.2557C138.931 25.2557 137.993 25.1051 137.164 24.804C136.34 24.4972 135.684 24.0483 135.195 23.4574C134.712 22.8665 134.456 22.1449 134.428 21.2926ZM152.607 14.7642V11.9091H164.471V14.7642H160.252V25H156.792V14.7642H152.607ZM166.672 29.9091V11.9091H170.251V14.108H170.413C170.572 13.7557 170.802 13.3977 171.103 13.0341C171.41 12.6648 171.808 12.358 172.297 12.1136C172.791 11.8636 173.404 11.7386 174.137 11.7386C175.092 11.7386 175.973 11.9886 176.779 12.4886C177.586 12.983 178.231 13.7301 178.714 14.7301C179.197 15.7244 179.439 16.9716 179.439 18.4716C179.439 19.9318 179.203 21.1648 178.731 22.1705C178.265 23.1705 177.629 23.929 176.822 24.446C176.021 24.9574 175.123 25.2131 174.129 25.2131C173.424 25.2131 172.825 25.0966 172.331 24.8636C171.842 24.6307 171.441 24.3381 171.129 23.9858C170.816 23.6278 170.578 23.267 170.413 22.9034H170.302V29.9091H166.672ZM170.225 18.4545C170.225 19.233 170.333 19.9119 170.549 20.4915C170.765 21.071 171.078 21.5227 171.487 21.8466C171.896 22.1648 172.393 22.3239 172.978 22.3239C173.569 22.3239 174.069 22.1619 174.478 21.8381C174.887 21.5085 175.197 21.054 175.407 20.4744C175.623 19.8892 175.731 19.2159 175.731 18.4545C175.731 17.6989 175.626 17.0341 175.416 16.4602C175.206 15.8864 174.896 15.4375 174.487 15.1136C174.078 14.7898 173.575 14.6278 172.978 14.6278C172.387 14.6278 171.887 14.7841 171.478 15.0966C171.075 15.4091 170.765 15.8523 170.549 16.4261C170.333 17 170.225 17.6761 170.225 18.4545ZM187.825 25.2557C186.478 25.2557 185.319 24.983 184.348 24.4375C183.382 23.8864 182.637 23.108 182.115 22.1023C181.592 21.0909 181.331 19.8949 181.331 18.5142C181.331 17.1676 181.592 15.9858 182.115 14.9688C182.637 13.9517 183.373 13.1591 184.322 12.5909C185.277 12.0227 186.396 11.7386 187.68 11.7386C188.544 11.7386 189.348 11.8778 190.092 12.1562C190.842 12.429 191.495 12.8409 192.052 13.392C192.615 13.9432 193.052 14.6364 193.365 15.4716C193.677 16.3011 193.833 17.2727 193.833 18.3864V19.3835H182.779V17.1335H190.416C190.416 16.6108 190.302 16.1477 190.075 15.7443C189.848 15.3409 189.532 15.0256 189.129 14.7983C188.731 14.5653 188.268 14.4489 187.74 14.4489C187.189 14.4489 186.7 14.5767 186.274 14.8324C185.853 15.0824 185.524 15.4205 185.285 15.8466C185.047 16.267 184.924 16.7358 184.919 17.2528V19.392C184.919 20.0398 185.038 20.5994 185.277 21.071C185.521 21.5426 185.865 21.9062 186.308 22.1619C186.751 22.4176 187.277 22.5455 187.885 22.5455C188.288 22.5455 188.657 22.4886 188.993 22.375C189.328 22.2614 189.615 22.0909 189.853 21.8636C190.092 21.6364 190.274 21.358 190.399 21.0284L193.757 21.25C193.586 22.0568 193.237 22.7614 192.708 23.3636C192.186 23.9602 191.51 24.4261 190.68 24.7614C189.856 25.0909 188.904 25.2557 187.825 25.2557ZM205.314 17.0057V19.8608H198.478V17.0057H205.314ZM199.672 11.9091V25H196.203V11.9091H199.672ZM207.589 11.9091V25H204.146V11.9091H207.589ZM209.383 28.8352V22.1193H210.389C210.679 21.9375 210.912 21.6477 211.088 21.25C211.27 20.8523 211.417 20.3835 211.531 19.8438C211.65 19.304 211.741 18.7216 211.804 18.0966C211.872 17.4659 211.931 16.8295 211.983 16.1875L212.324 11.9091H222.363V22.1193H224.392V28.8352H220.931V25H212.929V28.8352H209.383ZM214.002 22.1193H218.937V14.7045H215.409L215.272 16.1875C215.176 17.5852 215.037 18.7727 214.855 19.75C214.673 20.7216 214.389 21.5114 214.002 22.1193ZM232.422 25.2557C231.098 25.2557 229.953 24.9744 228.988 24.4119C228.027 23.8437 227.286 23.054 226.763 22.0426C226.24 21.0256 225.979 19.8466 225.979 18.5057C225.979 17.1534 226.24 15.9716 226.763 14.9602C227.286 13.9432 228.027 13.1534 228.988 12.5909C229.953 12.0227 231.098 11.7386 232.422 11.7386C233.746 11.7386 234.888 12.0227 235.848 12.5909C236.814 13.1534 237.559 13.9432 238.081 14.9602C238.604 15.9716 238.865 17.1534 238.865 18.5057C238.865 19.8466 238.604 21.0256 238.081 22.0426C237.559 23.054 236.814 23.8437 235.848 24.4119C234.888 24.9744 233.746 25.2557 232.422 25.2557ZM232.439 22.4432C233.042 22.4432 233.544 22.2727 233.948 21.9318C234.351 21.5852 234.655 21.1136 234.86 20.517C235.07 19.9205 235.175 19.2415 235.175 18.4801C235.175 17.7188 235.07 17.0398 234.86 16.4432C234.655 15.8466 234.351 15.375 233.948 15.0284C233.544 14.6818 233.042 14.5085 232.439 14.5085C231.831 14.5085 231.32 14.6818 230.905 15.0284C230.496 15.375 230.186 15.8466 229.976 16.4432C229.772 17.0398 229.669 17.7188 229.669 18.4801C229.669 19.2415 229.772 19.9205 229.976 20.517C230.186 21.1136 230.496 21.5852 230.905 21.9318C231.32 22.2727 231.831 22.4432 232.439 22.4432ZM241.226 25V11.9091H246.809C248.422 11.9091 249.698 12.2159 250.635 12.8295C251.573 13.4432 252.042 14.3153 252.042 15.446C252.042 16.1562 251.777 16.7472 251.249 17.2188C250.721 17.6903 249.988 18.0085 249.05 18.1733C249.834 18.2301 250.502 18.4091 251.053 18.7102C251.61 19.0057 252.033 19.3892 252.323 19.8608C252.618 20.3324 252.766 20.8551 252.766 21.429C252.766 22.1733 252.567 22.8125 252.169 23.3466C251.777 23.8807 251.201 24.2898 250.439 24.5739C249.684 24.858 248.76 25 247.669 25H241.226ZM244.61 22.2812H247.669C248.175 22.2812 248.57 22.1619 248.854 21.9233C249.144 21.679 249.289 21.3466 249.289 20.9261C249.289 20.4602 249.144 20.0937 248.854 19.8267C248.57 19.5597 248.175 19.4261 247.669 19.4261H244.61V22.2812ZM244.61 17.2955H246.885C247.249 17.2955 247.559 17.2443 247.814 17.142C248.076 17.0341 248.275 16.8807 248.411 16.6818C248.553 16.483 248.624 16.2472 248.624 15.9744C248.624 15.571 248.462 15.2557 248.138 15.0284C247.814 14.8011 247.371 14.6875 246.809 14.6875H244.61V17.2955Z" fill="#111111"/>
<path d="M21.6294 50.1477H19.8567C19.7885 49.7689 19.6616 49.4356 19.476 49.1477C19.2904 48.8598 19.0631 48.6155 18.7942 48.4148C18.5253 48.214 18.2241 48.0625 17.8908 47.9602C17.5612 47.858 17.2109 47.8068 16.8397 47.8068C16.1692 47.8068 15.5688 47.9754 15.0385 48.3125C14.512 48.6496 14.0953 49.1439 13.7885 49.7955C13.4855 50.447 13.334 51.2424 13.334 52.1818C13.334 53.1288 13.4855 53.928 13.7885 54.5795C14.0953 55.2311 14.5139 55.7235 15.0442 56.0568C15.5745 56.3902 16.1711 56.5568 16.834 56.5568C17.2014 56.5568 17.5499 56.5076 17.8794 56.4091C18.2128 56.3068 18.5139 56.1572 18.7828 55.9602C19.0518 55.7633 19.2791 55.5227 19.4647 55.2386C19.6541 54.9508 19.7847 54.6212 19.8567 54.25L21.6294 54.2557C21.5347 54.8277 21.351 55.3542 21.0783 55.8352C20.8094 56.3125 20.4628 56.7254 20.0385 57.0739C19.6181 57.4186 19.137 57.6856 18.5953 57.875C18.0537 58.0644 17.4628 58.1591 16.8226 58.1591C15.815 58.1591 14.9173 57.9205 14.1294 57.4432C13.3416 56.9621 12.7203 56.2746 12.2658 55.3807C11.815 54.4867 11.5897 53.4205 11.5897 52.1818C11.5897 50.9394 11.8169 49.8731 12.2715 48.983C12.726 48.089 13.3472 47.4034 14.1351 46.9261C14.923 46.4451 15.8188 46.2045 16.8226 46.2045C17.44 46.2045 18.0158 46.2936 18.5499 46.4716C19.0878 46.6458 19.5707 46.9034 19.9987 47.2443C20.4268 47.5814 20.7809 47.9943 21.0612 48.483C21.3416 48.9678 21.5309 49.5227 21.6294 50.1477ZM26.9501 58.1761C26.1319 58.1761 25.4179 57.9886 24.808 57.6136C24.1982 57.2386 23.7247 56.714 23.3876 56.0398C23.0504 55.3655 22.8819 54.5777 22.8819 53.6761C22.8819 52.7708 23.0504 51.9792 23.3876 51.3011C23.7247 50.6231 24.1982 50.0966 24.808 49.7216C25.4179 49.3466 26.1319 49.1591 26.9501 49.1591C27.7682 49.1591 28.4823 49.3466 29.0921 49.7216C29.7019 50.0966 30.1754 50.6231 30.5126 51.3011C30.8497 51.9792 31.0182 52.7708 31.0182 53.6761C31.0182 54.5777 30.8497 55.3655 30.5126 56.0398C30.1754 56.714 29.7019 57.2386 29.0921 57.6136C28.4823 57.9886 27.7682 58.1761 26.9501 58.1761ZM26.9557 56.75C27.486 56.75 27.9254 56.6098 28.2739 56.3295C28.6224 56.0492 28.88 55.6761 29.0466 55.2102C29.2171 54.7443 29.3023 54.2311 29.3023 53.6705C29.3023 53.1136 29.2171 52.6023 29.0466 52.1364C28.88 51.6667 28.6224 51.2898 28.2739 51.0057C27.9254 50.7216 27.486 50.5795 26.9557 50.5795C26.4216 50.5795 25.9785 50.7216 25.6262 51.0057C25.2777 51.2898 25.0182 51.6667 24.8478 52.1364C24.6811 52.6023 24.5978 53.1136 24.5978 53.6705C24.5978 54.2311 24.6811 54.7443 24.8478 55.2102C25.0182 55.6761 25.2777 56.0492 25.6262 56.3295C25.9785 56.6098 26.4216 56.75 26.9557 56.75ZM39.3275 46.0227L40.032 47.0966C39.7707 47.3352 39.4733 47.5057 39.14 47.608C38.8105 47.7064 38.4298 47.7689 37.998 47.7955C37.5661 47.8182 37.0718 47.839 36.515 47.858C35.8862 47.8769 35.3692 48.0133 34.9639 48.267C34.5586 48.517 34.2461 48.8883 34.0264 49.3807C33.8105 49.8693 33.6703 50.483 33.6059 51.2216H33.7139C33.998 50.6799 34.3919 50.2746 34.8957 50.0057C35.4033 49.7367 35.9733 49.6023 36.6059 49.6023C37.3105 49.6023 37.9373 49.7633 38.4866 50.0852C39.0358 50.4072 39.4677 50.8788 39.782 51.5C40.1002 52.1174 40.2593 52.8731 40.2593 53.767C40.2593 54.6723 40.0927 55.4545 39.7593 56.1136C39.4298 56.7727 38.9639 57.2822 38.3616 57.642C37.7631 57.9981 37.0567 58.1761 36.2423 58.1761C35.4279 58.1761 34.7177 57.9924 34.1116 57.625C33.5093 57.2538 33.0415 56.7045 32.7082 55.9773C32.3786 55.25 32.2139 54.3523 32.2139 53.2841V52.4205C32.2139 50.4242 32.5699 48.9223 33.282 47.9148C33.9942 46.9072 35.0586 46.3902 36.4752 46.3636C36.9336 46.3523 37.3427 46.3504 37.7025 46.358C38.0623 46.3617 38.3767 46.3447 38.6457 46.3068C38.9184 46.2652 39.1457 46.1705 39.3275 46.0227ZM36.248 56.75C36.7214 56.75 37.1286 56.6307 37.4695 56.392C37.8142 56.1496 38.0794 55.8068 38.265 55.3636C38.4506 54.9205 38.5434 54.3977 38.5434 53.7955C38.5434 53.2045 38.4506 52.7027 38.265 52.2898C38.0794 51.8769 37.8142 51.5625 37.4695 51.3466C37.1248 51.1269 36.712 51.017 36.2309 51.017C35.8748 51.017 35.5567 51.0795 35.2764 51.2045C34.9961 51.3258 34.7555 51.5057 34.5548 51.7443C34.3578 51.983 34.2044 52.2746 34.0945 52.6193C33.9885 52.9602 33.9317 53.3523 33.9241 53.7955C33.9241 54.697 34.1305 55.4148 34.5434 55.9489C34.9601 56.483 35.5283 56.75 36.248 56.75ZM43.5018 55.6193L47.3484 49.2727H49.178V58H47.5132V51.6477L43.6836 58H41.837V49.2727H43.5018V55.6193ZM51.142 61.2727V49.2727H52.8011V50.6875H52.9432C53.0417 50.5057 53.1837 50.2955 53.3693 50.0568C53.5549 49.8182 53.8125 49.6098 54.142 49.4318C54.4716 49.25 54.9072 49.1591 55.4489 49.1591C56.1534 49.1591 56.7822 49.3371 57.3352 49.6932C57.8883 50.0492 58.322 50.5625 58.6364 51.233C58.9545 51.9034 59.1136 52.7102 59.1136 53.6534C59.1136 54.5966 58.9564 55.4053 58.642 56.0795C58.3277 56.75 57.8958 57.267 57.3466 57.6307C56.7973 57.9905 56.1705 58.1705 55.4659 58.1705C54.9356 58.1705 54.5019 58.0814 54.1648 57.9034C53.8314 57.7254 53.5701 57.517 53.3807 57.2784C53.1913 57.0398 53.0455 56.8277 52.9432 56.642H52.8409V61.2727H51.142ZM52.8068 53.6364C52.8068 54.25 52.8958 54.7879 53.0739 55.25C53.2519 55.7121 53.5095 56.0739 53.8466 56.3352C54.1837 56.5928 54.5966 56.7216 55.0852 56.7216C55.5928 56.7216 56.017 56.5871 56.358 56.3182C56.6989 56.0455 56.9564 55.6761 57.1307 55.2102C57.3087 54.7443 57.3977 54.2197 57.3977 53.6364C57.3977 53.0606 57.3106 52.5436 57.1364 52.0852C56.9659 51.6269 56.7083 51.2652 56.3636 51C56.0227 50.7348 55.5966 50.6023 55.0852 50.6023C54.5928 50.6023 54.1761 50.7292 53.8352 50.983C53.4981 51.2367 53.2424 51.5909 53.0682 52.0455C52.8939 52.5 52.8068 53.0303 52.8068 53.6364ZM63.2368 58.1932C62.6838 58.1932 62.1838 58.0909 61.7368 57.8864C61.2898 57.678 60.9357 57.3769 60.6743 56.983C60.4167 56.589 60.288 56.1061 60.288 55.5341C60.288 55.0417 60.3827 54.6364 60.572 54.3182C60.7614 54 61.0171 53.7481 61.3391 53.5625C61.6611 53.3769 62.0209 53.2367 62.4186 53.142C62.8164 53.0473 63.2217 52.9754 63.6345 52.9261C64.1573 52.8655 64.5815 52.8163 64.9073 52.7784C65.233 52.7367 65.4698 52.6705 65.6175 52.5795C65.7652 52.4886 65.8391 52.3409 65.8391 52.1364V52.0966C65.8391 51.6004 65.6989 51.2159 65.4186 50.9432C65.1421 50.6705 64.7292 50.5341 64.18 50.5341C63.608 50.5341 63.1573 50.661 62.8277 50.9148C62.502 51.1648 62.2766 51.4432 62.1516 51.75L60.555 51.3864C60.7444 50.8561 61.0209 50.428 61.3845 50.1023C61.752 49.7727 62.1743 49.5341 62.6516 49.3864C63.1289 49.2348 63.6308 49.1591 64.1573 49.1591C64.5058 49.1591 64.8751 49.2008 65.2652 49.2841C65.6592 49.3636 66.0266 49.5114 66.3675 49.7273C66.7122 49.9432 66.9944 50.2519 67.2141 50.6534C67.4338 51.0511 67.5436 51.5682 67.5436 52.2045V58H65.8845V56.8068H65.8164C65.7065 57.0265 65.5417 57.2424 65.322 57.4545C65.1023 57.6667 64.8202 57.8428 64.4755 57.983C64.1308 58.1231 63.7179 58.1932 63.2368 58.1932ZM63.6061 56.8295C64.0758 56.8295 64.4773 56.7367 64.8107 56.5511C65.1478 56.3655 65.4035 56.1231 65.5777 55.8239C65.7558 55.5208 65.8448 55.197 65.8448 54.8523V53.7273C65.7842 53.7879 65.6667 53.8447 65.4925 53.8977C65.322 53.947 65.127 53.9905 64.9073 54.0284C64.6876 54.0625 64.4736 54.0947 64.2652 54.125C64.0569 54.1515 63.8827 54.1742 63.7425 54.1932C63.413 54.2348 63.1118 54.3049 62.8391 54.4034C62.5702 54.5019 62.3542 54.6439 62.1914 54.8295C62.0323 55.0114 61.9527 55.2538 61.9527 55.5568C61.9527 55.9773 62.108 56.2955 62.4186 56.5114C62.7292 56.7235 63.1251 56.8295 63.6061 56.8295ZM73.2478 58.1761C72.3879 58.1761 71.6474 57.9924 71.0262 57.625C70.4088 57.2538 69.9315 56.733 69.5944 56.0625C69.261 55.3883 69.0944 54.5985 69.0944 53.6932C69.0944 52.7992 69.261 52.0114 69.5944 51.3295C69.9315 50.6477 70.4012 50.1155 71.0035 49.733C71.6095 49.3504 72.3179 49.1591 73.1285 49.1591C73.6209 49.1591 74.0982 49.2405 74.5603 49.4034C75.0224 49.5663 75.4372 49.822 75.8046 50.1705C76.172 50.5189 76.4618 50.9716 76.6739 51.5284C76.886 52.0814 76.9921 52.7538 76.9921 53.5455V54.1477H70.0546V52.875H75.3273C75.3273 52.428 75.2364 52.0322 75.0546 51.6875C74.8728 51.339 74.6171 51.0644 74.2876 50.8636C73.9618 50.6629 73.5792 50.5625 73.1398 50.5625C72.6626 50.5625 72.2459 50.6799 71.8898 50.9148C71.5376 51.1458 71.2648 51.4489 71.0716 51.8239C70.8823 52.1951 70.7876 52.5985 70.7876 53.0341V54.0284C70.7876 54.6117 70.8898 55.108 71.0944 55.517C71.3027 55.9261 71.5925 56.2386 71.9637 56.4545C72.3349 56.6667 72.7686 56.7727 73.2648 56.7727C73.5868 56.7727 73.8804 56.7273 74.1455 56.6364C74.4107 56.5417 74.6398 56.4015 74.833 56.2159C75.0262 56.0303 75.1739 55.8011 75.2762 55.5284L76.8841 55.8182C76.7554 56.2917 76.5243 56.7064 76.191 57.0625C75.8614 57.4148 75.4466 57.6894 74.9466 57.8864C74.4504 58.0795 73.8841 58.1761 73.2478 58.1761ZM83.4548 55.8977L86.273 49.2727H87.7389L84.0855 58H82.8241L79.2445 49.2727H80.6934L83.4548 55.8977ZM80.2218 49.2727V58H78.557V49.2727H80.2218ZM86.7332 58V49.2727H88.3866V58H86.7332ZM94.2452 58V49.2727H97.8645C98.8493 49.2727 99.6296 49.483 100.205 49.9034C100.781 50.3201 101.069 50.8864 101.069 51.6023C101.069 52.1136 100.906 52.5189 100.58 52.8182C100.255 53.1174 99.8228 53.3182 99.2849 53.4205C99.6751 53.4659 100.033 53.5833 100.359 53.7727C100.685 53.9583 100.946 54.2083 101.143 54.5227C101.344 54.8371 101.444 55.2121 101.444 55.6477C101.444 56.1098 101.325 56.5189 101.086 56.875C100.847 57.2273 100.501 57.5038 100.046 57.7045C99.5956 57.9015 99.052 58 98.4156 58H94.2452ZM95.8418 56.5795H98.4156C98.8361 56.5795 99.1656 56.4792 99.4043 56.2784C99.6429 56.0777 99.7622 55.8049 99.7622 55.4602C99.7622 55.0549 99.6429 54.7367 99.4043 54.5057C99.1656 54.2708 98.8361 54.1534 98.4156 54.1534H95.8418V56.5795ZM95.8418 52.9091H97.8815C98.1997 52.9091 98.4724 52.8636 98.6997 52.7727C98.9308 52.6818 99.1069 52.553 99.2281 52.3864C99.3531 52.2159 99.4156 52.0152 99.4156 51.7841C99.4156 51.447 99.2774 51.1837 99.0009 50.9943C98.7243 50.8049 98.3456 50.7102 97.8645 50.7102H95.8418V52.9091ZM106.664 58.1761C105.819 58.1761 105.092 57.9848 104.482 57.6023C103.876 57.2159 103.41 56.6837 103.084 56.0057C102.759 55.3277 102.596 54.5511 102.596 53.6761C102.596 52.7898 102.762 52.0076 103.096 51.3295C103.429 50.6477 103.899 50.1155 104.505 49.733C105.111 49.3504 105.825 49.1591 106.647 49.1591C107.31 49.1591 107.901 49.2822 108.419 49.5284C108.938 49.7708 109.357 50.1117 109.675 50.5511C109.997 50.9905 110.188 51.5038 110.249 52.0909H108.596C108.505 51.6818 108.296 51.3295 107.971 51.0341C107.649 50.7386 107.217 50.5909 106.675 50.5909C106.202 50.5909 105.787 50.7159 105.431 50.9659C105.079 51.2121 104.804 51.5644 104.607 52.0227C104.41 52.4773 104.312 53.0152 104.312 53.6364C104.312 54.2727 104.408 54.822 104.601 55.2841C104.794 55.7462 105.067 56.1042 105.419 56.358C105.776 56.6117 106.194 56.7386 106.675 56.7386C106.997 56.7386 107.289 56.6799 107.55 56.5625C107.815 56.4413 108.037 56.2689 108.215 56.0455C108.397 55.822 108.524 55.553 108.596 55.2386H110.249C110.188 55.803 110.005 56.3068 109.698 56.75C109.391 57.1932 108.98 57.5417 108.465 57.7955C107.954 58.0492 107.353 58.1761 106.664 58.1761ZM115.507 58.1761C114.647 58.1761 113.907 57.9924 113.286 57.625C112.668 57.2538 112.191 56.733 111.854 56.0625C111.52 55.3883 111.354 54.5985 111.354 53.6932C111.354 52.7992 111.52 52.0114 111.854 51.3295C112.191 50.6477 112.661 50.1155 113.263 49.733C113.869 49.3504 114.577 49.1591 115.388 49.1591C115.88 49.1591 116.358 49.2405 116.82 49.4034C117.282 49.5663 117.697 49.822 118.064 50.1705C118.431 50.5189 118.721 50.9716 118.933 51.5284C119.145 52.0814 119.251 52.7538 119.251 53.5455V54.1477H112.314V52.875H117.587C117.587 52.428 117.496 52.0322 117.314 51.6875C117.132 51.339 116.876 51.0644 116.547 50.8636C116.221 50.6629 115.839 50.5625 115.399 50.5625C114.922 50.5625 114.505 50.6799 114.149 50.9148C113.797 51.1458 113.524 51.4489 113.331 51.8239C113.142 52.1951 113.047 52.5985 113.047 53.0341V54.0284C113.047 54.6117 113.149 55.108 113.354 55.517C113.562 55.9261 113.852 56.2386 114.223 56.4545C114.594 56.6667 115.028 56.7727 115.524 56.7727C115.846 56.7727 116.14 56.7273 116.405 56.6364C116.67 56.5417 116.899 56.4015 117.092 56.2159C117.286 56.0303 117.433 55.8011 117.536 55.5284L119.144 55.8182C119.015 56.2917 118.784 56.7064 118.45 57.0625C118.121 57.4148 117.706 57.6894 117.206 57.8864C116.71 58.0795 116.144 58.1761 115.507 58.1761ZM124.731 58V49.2727H131.85V58H130.185V50.7386H126.384V58H124.731ZM137.478 58.1761C136.659 58.1761 135.945 57.9886 135.335 57.6136C134.726 57.2386 134.252 56.714 133.915 56.0398C133.578 55.3655 133.409 54.5777 133.409 53.6761C133.409 52.7708 133.578 51.9792 133.915 51.3011C134.252 50.6231 134.726 50.0966 135.335 49.7216C135.945 49.3466 136.659 49.1591 137.478 49.1591C138.296 49.1591 139.01 49.3466 139.62 49.7216C140.229 50.0966 140.703 50.6231 141.04 51.3011C141.377 51.9792 141.546 52.7708 141.546 53.6761C141.546 54.5777 141.377 55.3655 141.04 56.0398C140.703 56.714 140.229 57.2386 139.62 57.6136C139.01 57.9886 138.296 58.1761 137.478 58.1761ZM137.483 56.75C138.014 56.75 138.453 56.6098 138.801 56.3295C139.15 56.0492 139.407 55.6761 139.574 55.2102C139.745 54.7443 139.83 54.2311 139.83 53.6705C139.83 53.1136 139.745 52.6023 139.574 52.1364C139.407 51.6667 139.15 51.2898 138.801 51.0057C138.453 50.7216 138.014 50.5795 137.483 50.5795C136.949 50.5795 136.506 50.7216 136.154 51.0057C135.805 51.2898 135.546 51.6667 135.375 52.1364C135.209 52.6023 135.125 53.1136 135.125 53.6705C135.125 54.2311 135.209 54.7443 135.375 55.2102C135.546 55.6761 135.805 56.0492 136.154 56.3295C136.506 56.6098 136.949 56.75 137.483 56.75ZM146.798 58.1761C145.953 58.1761 145.226 57.9848 144.616 57.6023C144.01 57.2159 143.544 56.6837 143.219 56.0057C142.893 55.3277 142.73 54.5511 142.73 53.6761C142.73 52.7898 142.897 52.0076 143.23 51.3295C143.563 50.6477 144.033 50.1155 144.639 49.733C145.245 49.3504 145.959 49.1591 146.781 49.1591C147.444 49.1591 148.035 49.2822 148.554 49.5284C149.073 49.7708 149.491 50.1117 149.81 50.5511C150.132 50.9905 150.323 51.5038 150.383 52.0909H148.73C148.639 51.6818 148.431 51.3295 148.105 51.0341C147.783 50.7386 147.351 50.5909 146.81 50.5909C146.336 50.5909 145.921 50.7159 145.565 50.9659C145.213 51.2121 144.938 51.5644 144.741 52.0227C144.544 52.4773 144.446 53.0152 144.446 53.6364C144.446 54.2727 144.542 54.822 144.736 55.2841C144.929 55.7462 145.202 56.1042 145.554 56.358C145.91 56.6117 146.328 56.7386 146.81 56.7386C147.132 56.7386 147.423 56.6799 147.685 56.5625C147.95 56.4413 148.171 56.2689 148.349 56.0455C148.531 55.822 148.658 55.553 148.73 55.2386H150.383C150.323 55.803 150.139 56.3068 149.832 56.75C149.525 57.1932 149.114 57.5417 148.599 57.7955C148.088 58.0492 147.488 58.1761 146.798 58.1761ZM151.193 58L151.187 56.5284H151.499C151.742 56.5284 151.945 56.4773 152.107 56.375C152.274 56.2689 152.41 56.0909 152.517 55.8409C152.623 55.5909 152.704 55.2462 152.761 54.8068C152.818 54.3636 152.859 53.8068 152.886 53.1364L153.039 49.2727H159.13V58H157.465V50.7386H154.613L154.477 53.7045C154.443 54.4242 154.369 55.053 154.255 55.5909C154.145 56.1288 153.984 56.5777 153.772 56.9375C153.56 57.2936 153.287 57.5606 152.954 57.7386C152.621 57.9129 152.215 58 151.738 58H151.193ZM164.837 58.1761C163.977 58.1761 163.237 57.9924 162.616 57.625C161.998 57.2538 161.521 56.733 161.184 56.0625C160.85 55.3883 160.684 54.5985 160.684 53.6932C160.684 52.7992 160.85 52.0114 161.184 51.3295C161.521 50.6477 161.991 50.1155 162.593 49.733C163.199 49.3504 163.907 49.1591 164.718 49.1591C165.21 49.1591 165.688 49.2405 166.15 49.4034C166.612 49.5663 167.027 49.822 167.394 50.1705C167.761 50.5189 168.051 50.9716 168.263 51.5284C168.475 52.0814 168.581 52.7538 168.581 53.5455V54.1477H161.644V52.875H166.917C166.917 52.428 166.826 52.0322 166.644 51.6875C166.462 51.339 166.206 51.0644 165.877 50.8636C165.551 50.6629 165.169 50.5625 164.729 50.5625C164.252 50.5625 163.835 50.6799 163.479 50.9148C163.127 51.1458 162.854 51.4489 162.661 51.8239C162.472 52.1951 162.377 52.5985 162.377 53.0341V54.0284C162.377 54.6117 162.479 55.108 162.684 55.517C162.892 55.9261 163.182 56.2386 163.553 56.4545C163.924 56.6667 164.358 56.7727 164.854 56.7727C165.176 56.7727 165.47 56.7273 165.735 56.6364C166 56.5417 166.229 56.4015 166.422 56.2159C166.616 56.0303 166.763 55.8011 166.866 55.5284L168.474 55.8182C168.345 56.2917 168.114 56.7064 167.78 57.0625C167.451 57.4148 167.036 57.6894 166.536 57.8864C166.04 58.0795 165.474 58.1761 164.837 58.1761ZM169.294 60.517V56.5284H170.004C170.186 56.3617 170.34 56.1629 170.465 55.9318C170.593 55.7008 170.701 55.4261 170.788 55.108C170.879 54.7898 170.955 54.4186 171.016 53.9943C171.076 53.5663 171.129 53.0777 171.175 52.5284L171.448 49.2727H177.379V56.5284H178.72V60.517H177.061V58H170.976V60.517H169.294ZM171.823 56.5284H175.72V50.7273H172.97L172.788 52.5284C172.701 53.4451 172.592 54.2405 172.459 54.9148C172.326 55.5852 172.114 56.1231 171.823 56.5284ZM185.976 52.9034V54.375H181.248V52.9034H185.976ZM181.726 49.2727V58H180.061V49.2727H181.726ZM187.163 49.2727V58H185.504V49.2727H187.163ZM190.781 55.6193L194.627 49.2727H196.457V58H194.792V51.6477L190.962 58H189.116V49.2727H190.781V55.6193ZM202.182 58.1761C201.322 58.1761 200.582 57.9924 199.961 57.625C199.343 57.2538 198.866 56.733 198.529 56.0625C198.195 55.3883 198.029 54.5985 198.029 53.6932C198.029 52.7992 198.195 52.0114 198.529 51.3295C198.866 50.6477 199.336 50.1155 199.938 49.733C200.544 49.3504 201.252 49.1591 202.063 49.1591C202.555 49.1591 203.033 49.2405 203.495 49.4034C203.957 49.5663 204.372 49.822 204.739 50.1705C205.106 50.5189 205.396 50.9716 205.608 51.5284C205.82 52.0814 205.926 52.7538 205.926 53.5455V54.1477H198.989V52.875H204.262C204.262 52.428 204.171 52.0322 203.989 51.6875C203.807 51.339 203.551 51.0644 203.222 50.8636C202.896 50.6629 202.514 50.5625 202.074 50.5625C201.597 50.5625 201.18 50.6799 200.824 50.9148C200.472 51.1458 200.199 51.4489 200.006 51.8239C199.817 52.1951 199.722 52.5985 199.722 53.0341V54.0284C199.722 54.6117 199.824 55.108 200.029 55.517C200.237 55.9261 200.527 56.2386 200.898 56.4545C201.269 56.6667 201.703 56.7727 202.199 56.7727C202.521 56.7727 202.815 56.7273 203.08 56.6364C203.345 56.5417 203.574 56.4015 203.767 56.2159C203.961 56.0303 204.108 55.8011 204.211 55.5284L205.819 55.8182C205.69 56.2917 205.459 56.7064 205.125 57.0625C204.796 57.4148 204.381 57.6894 203.881 57.8864C203.385 58.0795 202.819 58.1761 202.182 58.1761ZM213.946 58.1932C213.393 58.1932 212.893 58.0909 212.446 57.8864C211.999 57.678 211.644 57.3769 211.383 56.983C211.125 56.589 210.997 56.1061 210.997 55.5341C210.997 55.0417 211.091 54.6364 211.281 54.3182C211.47 54 211.726 53.7481 212.048 53.5625C212.37 53.3769 212.73 53.2367 213.127 53.142C213.525 53.0473 213.93 52.9754 214.343 52.9261C214.866 52.8655 215.29 52.8163 215.616 52.7784C215.942 52.7367 216.179 52.6705 216.326 52.5795C216.474 52.4886 216.548 52.3409 216.548 52.1364V52.0966C216.548 51.6004 216.408 51.2159 216.127 50.9432C215.851 50.6705 215.438 50.5341 214.889 50.5341C214.317 50.5341 213.866 50.661 213.536 50.9148C213.211 51.1648 212.985 51.4432 212.86 51.75L211.264 51.3864C211.453 50.8561 211.73 50.428 212.093 50.1023C212.461 49.7727 212.883 49.5341 213.36 49.3864C213.838 49.2348 214.34 49.1591 214.866 49.1591C215.215 49.1591 215.584 49.2008 215.974 49.2841C216.368 49.3636 216.735 49.5114 217.076 49.7273C217.421 49.9432 217.703 50.2519 217.923 50.6534C218.143 51.0511 218.252 51.5682 218.252 52.2045V58H216.593V56.8068H216.525C216.415 57.0265 216.25 57.2424 216.031 57.4545C215.811 57.6667 215.529 57.8428 215.184 57.983C214.84 58.1231 214.427 58.1932 213.946 58.1932ZM214.315 56.8295C214.785 56.8295 215.186 56.7367 215.519 56.5511C215.857 56.3655 216.112 56.1231 216.286 55.8239C216.465 55.5208 216.554 55.197 216.554 54.8523V53.7273C216.493 53.7879 216.375 53.8447 216.201 53.8977C216.031 53.947 215.836 53.9905 215.616 54.0284C215.396 54.0625 215.182 54.0947 214.974 54.125C214.766 54.1515 214.591 54.1742 214.451 54.1932C214.122 54.2348 213.821 54.3049 213.548 54.4034C213.279 54.5019 213.063 54.6439 212.9 54.8295C212.741 55.0114 212.661 55.2538 212.661 55.5568C212.661 55.9773 212.817 56.2955 213.127 56.5114C213.438 56.7235 213.834 56.8295 214.315 56.8295ZM220.195 58V49.2727H221.894V52.9318H222.712L225.593 49.2727H227.695L224.314 53.517L227.735 58H225.627L222.996 54.5114H221.894V58H220.195ZM228.246 50.7386V49.2727H235.61V50.7386H232.763V58H231.104V50.7386H228.246ZM238.16 61.2727C237.906 61.2727 237.675 61.2519 237.467 61.2102C237.259 61.1723 237.103 61.1307 237.001 61.0852L237.41 59.6932C237.721 59.7765 237.997 59.8125 238.24 59.8011C238.482 59.7898 238.696 59.6989 238.882 59.5284C239.071 59.358 239.238 59.0795 239.382 58.6932L239.592 58.1136L236.399 49.2727H238.217L240.427 56.0455H240.518L242.728 49.2727H244.552L240.956 59.1648C240.789 59.6193 240.577 60.0038 240.319 60.3182C240.062 60.6364 239.755 60.875 239.399 61.0341C239.043 61.1932 238.63 61.2727 238.16 61.2727ZM248.119 58.1932C247.566 58.1932 247.066 58.0909 246.619 57.8864C246.172 57.678 245.818 57.3769 245.556 56.983C245.299 56.589 245.17 56.1061 245.17 55.5341C245.17 55.0417 245.265 54.6364 245.454 54.3182C245.643 54 245.899 53.7481 246.221 53.5625C246.543 53.3769 246.903 53.2367 247.301 53.142C247.698 53.0473 248.104 52.9754 248.516 52.9261C249.039 52.8655 249.463 52.8163 249.789 52.7784C250.115 52.7367 250.352 52.6705 250.499 52.5795C250.647 52.4886 250.721 52.3409 250.721 52.1364V52.0966C250.721 51.6004 250.581 51.2159 250.301 50.9432C250.024 50.6705 249.611 50.5341 249.062 50.5341C248.49 50.5341 248.039 50.661 247.71 50.9148C247.384 51.1648 247.158 51.4432 247.033 51.75L245.437 51.3864C245.626 50.8561 245.903 50.428 246.266 50.1023C246.634 49.7727 247.056 49.5341 247.533 49.3864C248.011 49.2348 248.513 49.1591 249.039 49.1591C249.388 49.1591 249.757 49.2008 250.147 49.2841C250.541 49.3636 250.908 49.5114 251.249 49.7273C251.594 49.9432 251.876 50.2519 252.096 50.6534C252.316 51.0511 252.426 51.5682 252.426 52.2045V58H250.766V56.8068H250.698C250.588 57.0265 250.424 57.2424 250.204 57.4545C249.984 57.6667 249.702 57.8428 249.357 57.983C249.013 58.1231 248.6 58.1932 248.119 58.1932ZM248.488 56.8295C248.958 56.8295 249.359 56.7367 249.693 56.5511C250.03 56.3655 250.285 56.1231 250.46 55.8239C250.638 55.5208 250.727 55.197 250.727 54.8523V53.7273C250.666 53.7879 250.549 53.8447 250.374 53.8977C250.204 53.947 250.009 53.9905 249.789 54.0284C249.569 54.0625 249.355 54.0947 249.147 54.125C248.939 54.1515 248.765 54.1742 248.624 54.1932C248.295 54.2348 247.994 54.3049 247.721 54.4034C247.452 54.5019 247.236 54.6439 247.073 54.8295C246.914 55.0114 246.835 55.2538 246.835 55.5568C246.835 55.9773 246.99 56.2955 247.301 56.5114C247.611 56.7235 248.007 56.8295 248.488 56.8295ZM253.681 58L253.675 56.5284H253.988C254.23 56.5284 254.433 56.4773 254.596 56.375C254.762 56.2689 254.899 56.0909 255.005 55.8409C255.111 55.5909 255.192 55.2462 255.249 54.8068C255.306 54.3636 255.347 53.8068 255.374 53.1364L255.527 49.2727H261.618V58H259.954V50.7386H257.101L256.965 53.7045C256.931 54.4242 256.857 55.053 256.743 55.5909C256.633 56.1288 256.472 56.5777 256.26 56.9375C256.048 57.2936 255.775 57.5606 255.442 57.7386C255.109 57.9129 254.704 58 254.226 58H253.681ZM264.842 52.2727H267.376C268.445 52.2727 269.267 52.5379 269.842 53.0682C270.418 53.5985 270.706 54.2822 270.706 55.1193C270.706 55.6648 270.577 56.1553 270.32 56.5909C270.062 57.0265 269.685 57.3712 269.189 57.625C268.693 57.875 268.089 58 267.376 58H263.564V49.2727H265.229V56.5341H267.376C267.865 56.5341 268.267 56.4072 268.581 56.1534C268.895 55.8958 269.053 55.5682 269.053 55.1705C269.053 54.75 268.895 54.4072 268.581 54.142C268.267 53.8731 267.865 53.7386 267.376 53.7386H264.842V52.2727ZM278.206 52.9034V54.375H273.478V52.9034H278.206ZM273.956 49.2727V58H272.291V49.2727H273.956ZM279.393 49.2727V58H277.734V49.2727H279.393ZM282.624 52.2727H285.158C286.226 52.2727 287.048 52.5379 287.624 53.0682C288.2 53.5985 288.488 54.2822 288.488 55.1193C288.488 55.6648 288.359 56.1553 288.101 56.5909C287.844 57.0265 287.467 57.3712 286.971 57.625C286.475 57.875 285.87 58 285.158 58H281.346V49.2727H283.011V56.5341H285.158C285.647 56.5341 286.048 56.4072 286.363 56.1534C286.677 55.8958 286.834 55.5682 286.834 55.1705C286.834 54.75 286.677 54.4072 286.363 54.142C286.048 53.8731 285.647 53.7386 285.158 53.7386H282.624V52.2727ZM289.726 58V49.2727H291.425V58H289.726ZM297.147 58.1761C296.287 58.1761 295.546 57.9924 294.925 57.625C294.308 57.2538 293.83 56.733 293.493 56.0625C293.16 55.3883 292.993 54.5985 292.993 53.6932C292.993 52.7992 293.16 52.0114 293.493 51.3295C293.83 50.6477 294.3 50.1155 294.902 49.733C295.508 49.3504 296.217 49.1591 297.027 49.1591C297.52 49.1591 297.997 49.2405 298.459 49.4034C298.921 49.5663 299.336 49.822 299.703 50.1705C300.071 50.5189 300.361 50.9716 300.573 51.5284C300.785 52.0814 300.891 52.7538 300.891 53.5455V54.1477H293.953V52.875H299.226C299.226 52.428 299.135 52.0322 298.953 51.6875C298.772 51.339 298.516 51.0644 298.186 50.8636C297.861 50.6629 297.478 50.5625 297.039 50.5625C296.561 50.5625 296.145 50.6799 295.789 50.9148C295.436 51.1458 295.164 51.4489 294.97 51.8239C294.781 52.1951 294.686 52.5985 294.686 53.0341V54.0284C294.686 54.6117 294.789 55.108 294.993 55.517C295.201 55.9261 295.491 56.2386 295.862 56.4545C296.234 56.6667 296.667 56.7727 297.164 56.7727C297.486 56.7727 297.779 56.7273 298.044 56.6364C298.309 56.5417 298.539 56.4015 298.732 56.2159C298.925 56.0303 299.073 55.8011 299.175 55.5284L300.783 55.8182C300.654 56.2917 300.423 56.7064 300.09 57.0625C299.76 57.4148 299.345 57.6894 298.845 57.8864C298.349 58.0795 297.783 58.1761 297.147 58.1761ZM11.5859 74.7386V73.2727H18.9495V74.7386H16.1029V82H14.4439V74.7386H11.5859ZM20.4264 85.2727V73.2727H22.0855V74.6875H22.2276C22.326 74.5057 22.4681 74.2955 22.6537 74.0568C22.8393 73.8182 23.0969 73.6098 23.4264 73.4318C23.756 73.25 24.1916 73.1591 24.7332 73.1591C25.4378 73.1591 26.0666 73.3371 26.6196 73.6932C27.1726 74.0492 27.6063 74.5625 27.9207 75.233C28.2389 75.9034 28.398 76.7102 28.398 77.6534C28.398 78.5966 28.2408 79.4053 27.9264 80.0795C27.612 80.75 27.1802 81.267 26.631 81.6307C26.0817 81.9905 25.4548 82.1705 24.7503 82.1705C24.22 82.1705 23.7863 82.0814 23.4491 81.9034C23.1158 81.7254 22.8544 81.517 22.6651 81.2784C22.4757 81.0398 22.3298 80.8277 22.2276 80.642H22.1253V85.2727H20.4264ZM22.0912 77.6364C22.0912 78.25 22.1802 78.7879 22.3582 79.25C22.5363 79.7121 22.7938 80.0739 23.131 80.3352C23.4681 80.5928 23.881 80.7216 24.3696 80.7216C24.8772 80.7216 25.3014 80.5871 25.6423 80.3182C25.9832 80.0455 26.2408 79.6761 26.4151 79.2102C26.5931 78.7443 26.6821 78.2197 26.6821 77.6364C26.6821 77.0606 26.595 76.5436 26.4207 76.0852C26.2503 75.6269 25.9927 75.2652 25.648 75C25.3071 74.7348 24.881 74.6023 24.3696 74.6023C23.8772 74.6023 23.4605 74.7292 23.1196 74.983C22.7825 75.2367 22.5268 75.5909 22.3526 76.0455C22.1783 76.5 22.0912 77.0303 22.0912 77.6364ZM33.7428 82.1761C32.8829 82.1761 32.1424 81.9924 31.5212 81.625C30.9038 81.2538 30.4265 80.733 30.0894 80.0625C29.756 79.3883 29.5894 78.5985 29.5894 77.6932C29.5894 76.7992 29.756 76.0114 30.0894 75.3295C30.4265 74.6477 30.8962 74.1155 31.4985 73.733C32.1045 73.3504 32.8129 73.1591 33.6235 73.1591C34.1159 73.1591 34.5932 73.2405 35.0553 73.4034C35.5174 73.5663 35.9322 73.822 36.2996 74.1705C36.667 74.5189 36.9568 74.9716 37.1689 75.5284C37.381 76.0814 37.4871 76.7538 37.4871 77.5455V78.1477H30.5496V76.875H35.8223C35.8223 76.428 35.7314 76.0322 35.5496 75.6875C35.3678 75.339 35.1121 75.0644 34.7826 74.8636C34.4568 74.6629 34.0742 74.5625 33.6348 74.5625C33.1576 74.5625 32.7409 74.6799 32.3848 74.9148C32.0326 75.1458 31.7598 75.4489 31.5666 75.8239C31.3772 76.1951 31.2826 76.5985 31.2826 77.0341V78.0284C31.2826 78.6117 31.3848 79.108 31.5894 79.517C31.7977 79.9261 32.0875 80.2386 32.4587 80.4545C32.8299 80.6667 33.2636 80.7727 33.7598 80.7727C34.0818 80.7727 34.3754 80.7273 34.6405 80.6364C34.9057 80.5417 35.1348 80.4015 35.328 80.2159C35.5212 80.0303 35.6689 79.8011 35.7712 79.5284L37.3791 79.8182C37.2504 80.2917 37.0193 80.7064 36.686 81.0625C36.3564 81.4148 35.9416 81.6894 35.4416 81.8864C34.9454 82.0795 34.3791 82.1761 33.7428 82.1761ZM44.9668 76.9034V78.375H40.2395V76.9034H44.9668ZM40.7168 73.2727V82H39.052V73.2727H40.7168ZM46.1543 73.2727V82H44.4952V73.2727H46.1543ZM47.2548 84.517V80.5284H47.965C48.1468 80.3617 48.3002 80.1629 48.4252 79.9318C48.554 79.7008 48.662 79.4261 48.7491 79.108C48.84 78.7898 48.9158 78.4186 48.9764 77.9943C49.037 77.5663 49.09 77.0777 49.1355 76.5284L49.4082 73.2727H55.34V80.5284H56.6809V84.517H55.0218V82H48.9366V84.517H47.2548ZM49.7832 80.5284H53.6809V74.7273H50.9309L50.7491 76.5284C50.662 77.4451 50.5521 78.2405 50.4195 78.9148C50.287 79.5852 50.0748 80.1231 49.7832 80.5284ZM59.2998 76.2727H61.8339C62.9021 76.2727 63.7241 76.5379 64.2998 77.0682C64.8756 77.5985 65.1635 78.2822 65.1635 79.1193C65.1635 79.6648 65.0347 80.1553 64.7771 80.5909C64.5195 81.0265 64.1426 81.3712 63.6464 81.625C63.1502 81.875 62.546 82 61.8339 82H58.0214V73.2727H59.6862V80.5341H61.8339C62.3226 80.5341 62.7241 80.4072 63.0385 80.1534C63.3529 79.8958 63.5101 79.5682 63.5101 79.1705C63.5101 78.75 63.3529 78.4072 63.0385 78.142C62.7241 77.8731 62.3226 77.7386 61.8339 77.7386H59.2998V76.2727ZM66.4021 82V73.2727H68.101V82H66.4021ZM72.271 80.4091L72.1858 81.0284C72.129 81.483 72.0324 81.9564 71.896 82.4489C71.7634 82.9451 71.6252 83.4053 71.4812 83.8295C71.3411 84.2538 71.2256 84.5909 71.1347 84.8409H69.9301C69.9794 84.6061 70.0475 84.2879 70.1347 83.8864C70.2218 83.4886 70.307 83.0436 70.3903 82.5511C70.4737 82.0587 70.5362 81.5568 70.5778 81.0455L70.6347 80.4091H72.271ZM78.077 82V73.2727H79.7759V76.9318H80.5941L83.4748 73.2727H85.577L82.1964 77.517L85.6168 82H83.5089L80.8782 78.5114H79.7759V82H78.077ZM89.9332 82.1761C89.115 82.1761 88.401 81.9886 87.7911 81.6136C87.1813 81.2386 86.7078 80.714 86.3707 80.0398C86.0336 79.3655 85.865 78.5777 85.865 77.6761C85.865 76.7708 86.0336 75.9792 86.3707 75.3011C86.7078 74.6231 87.1813 74.0966 87.7911 73.7216C88.401 73.3466 89.115 73.1591 89.9332 73.1591C90.7514 73.1591 91.4654 73.3466 92.0752 73.7216C92.6851 74.0966 93.1586 74.6231 93.4957 75.3011C93.8328 75.9792 94.0014 76.7708 94.0014 77.6761C94.0014 78.5777 93.8328 79.3655 93.4957 80.0398C93.1586 80.714 92.6851 81.2386 92.0752 81.6136C91.4654 81.9886 90.7514 82.1761 89.9332 82.1761ZM89.9389 80.75C90.4692 80.75 90.9086 80.6098 91.257 80.3295C91.6055 80.0492 91.8631 79.6761 92.0298 79.2102C92.2002 78.7443 92.2855 78.2311 92.2855 77.6705C92.2855 77.1136 92.2002 76.6023 92.0298 76.1364C91.8631 75.6667 91.6055 75.2898 91.257 75.0057C90.9086 74.7216 90.4692 74.5795 89.9389 74.5795C89.4048 74.5795 88.9616 74.7216 88.6093 75.0057C88.2608 75.2898 88.0014 75.6667 87.8309 76.1364C87.6642 76.6023 87.5809 77.1136 87.5809 77.6705C87.5809 78.2311 87.6642 78.7443 87.8309 79.2102C88.0014 79.6761 88.2608 80.0492 88.6093 80.3295C88.9616 80.6098 89.4048 80.75 89.9389 80.75ZM94.5265 74.7386V73.2727H101.89V74.7386H99.0436V82H97.3845V74.7386H94.5265ZM106.637 82.1761C105.819 82.1761 105.105 81.9886 104.495 81.6136C103.885 81.2386 103.412 80.714 103.074 80.0398C102.737 79.3655 102.569 78.5777 102.569 77.6761C102.569 76.7708 102.737 75.9792 103.074 75.3011C103.412 74.6231 103.885 74.0966 104.495 73.7216C105.105 73.3466 105.819 73.1591 106.637 73.1591C107.455 73.1591 108.169 73.3466 108.779 73.7216C109.389 74.0966 109.862 74.6231 110.199 75.3011C110.537 75.9792 110.705 76.7708 110.705 77.6761C110.705 78.5777 110.537 79.3655 110.199 80.0398C109.862 80.714 109.389 81.2386 108.779 81.6136C108.169 81.9886 107.455 82.1761 106.637 82.1761ZM106.643 80.75C107.173 80.75 107.612 80.6098 107.961 80.3295C108.309 80.0492 108.567 79.6761 108.734 79.2102C108.904 78.7443 108.989 78.2311 108.989 77.6705C108.989 77.1136 108.904 76.6023 108.734 76.1364C108.567 75.6667 108.309 75.2898 107.961 75.0057C107.612 74.7216 107.173 74.5795 106.643 74.5795C106.109 74.5795 105.665 74.7216 105.313 75.0057C104.965 75.2898 104.705 75.6667 104.535 76.1364C104.368 76.6023 104.285 77.1136 104.285 77.6705C104.285 78.2311 104.368 78.7443 104.535 79.2102C104.705 79.6761 104.965 80.0492 105.313 80.3295C105.665 80.6098 106.109 80.75 106.643 80.75ZM112.281 85.2727V73.2727H113.941V74.6875H114.083C114.181 74.5057 114.323 74.2955 114.509 74.0568C114.694 73.8182 114.952 73.6098 115.281 73.4318C115.611 73.25 116.047 73.1591 116.588 73.1591C117.293 73.1591 117.922 73.3371 118.475 73.6932C119.028 74.0492 119.461 74.5625 119.776 75.233C120.094 75.9034 120.253 76.7102 120.253 77.6534C120.253 78.5966 120.096 79.4053 119.781 80.0795C119.467 80.75 119.035 81.267 118.486 81.6307C117.937 81.9905 117.31 82.1705 116.605 82.1705C116.075 82.1705 115.641 82.0814 115.304 81.9034C114.971 81.7254 114.709 81.517 114.52 81.2784C114.331 81.0398 114.185 80.8277 114.083 80.642H113.98V85.2727H112.281ZM113.946 77.6364C113.946 78.25 114.035 78.7879 114.213 79.25C114.391 79.7121 114.649 80.0739 114.986 80.3352C115.323 80.5928 115.736 80.7216 116.225 80.7216C116.732 80.7216 117.156 80.5871 117.497 80.3182C117.838 80.0455 118.096 79.6761 118.27 79.2102C118.448 78.7443 118.537 78.2197 118.537 77.6364C118.537 77.0606 118.45 76.5436 118.276 76.0852C118.105 75.6269 117.848 75.2652 117.503 75C117.162 74.7348 116.736 74.6023 116.225 74.6023C115.732 74.6023 115.316 74.7292 114.975 74.983C114.637 75.2367 114.382 75.5909 114.208 76.0455C114.033 76.5 113.946 77.0303 113.946 77.6364ZM123.115 76.2727H125.649C126.717 76.2727 127.539 76.5379 128.115 77.0682C128.691 77.5985 128.978 78.2822 128.978 79.1193C128.978 79.6648 128.85 80.1553 128.592 80.5909C128.335 81.0265 127.958 81.3712 127.461 81.625C126.965 81.875 126.361 82 125.649 82H121.836V73.2727H123.501V80.5341H125.649C126.138 80.5341 126.539 80.4072 126.853 80.1534C127.168 79.8958 127.325 79.5682 127.325 79.1705C127.325 78.75 127.168 78.4072 126.853 78.142C126.539 77.8731 126.138 77.7386 125.649 77.7386H123.115V76.2727ZM130.217 82V73.2727H131.916V82H130.217ZM137.637 82.1761C136.777 82.1761 136.037 81.9924 135.416 81.625C134.798 81.2538 134.321 80.733 133.984 80.0625C133.65 79.3883 133.484 78.5985 133.484 77.6932C133.484 76.7992 133.65 76.0114 133.984 75.3295C134.321 74.6477 134.791 74.1155 135.393 73.733C135.999 73.3504 136.707 73.1591 137.518 73.1591C138.01 73.1591 138.488 73.2405 138.95 73.4034C139.412 73.5663 139.827 73.822 140.194 74.1705C140.561 74.5189 140.851 74.9716 141.063 75.5284C141.275 76.0814 141.381 76.7538 141.381 77.5455V78.1477H134.444V76.875H139.717C139.717 76.428 139.626 76.0322 139.444 75.6875C139.262 75.339 139.006 75.0644 138.677 74.8636C138.351 74.6629 137.969 74.5625 137.529 74.5625C137.052 74.5625 136.635 74.6799 136.279 74.9148C135.927 75.1458 135.654 75.4489 135.461 75.8239C135.272 76.1951 135.177 76.5985 135.177 77.0341V78.0284C135.177 78.6117 135.279 79.108 135.484 79.517C135.692 79.9261 135.982 80.2386 136.353 80.4545C136.724 80.6667 137.158 80.7727 137.654 80.7727C137.976 80.7727 138.27 80.7273 138.535 80.6364C138.8 80.5417 139.029 80.4015 139.222 80.2159C139.416 80.0303 139.563 79.8011 139.666 79.5284L141.274 79.8182C141.145 80.2917 140.914 80.7064 140.58 81.0625C140.251 81.4148 139.836 81.6894 139.336 81.8864C138.84 82.0795 138.274 82.1761 137.637 82.1761ZM152.776 76.9034V78.375H148.048V76.9034H152.776ZM148.526 73.2727V82H146.861V73.2727H148.526ZM153.963 73.2727V82H152.304V73.2727H153.963ZM158.456 82.1932C157.903 82.1932 157.403 82.0909 156.956 81.8864C156.509 81.678 156.154 81.3769 155.893 80.983C155.635 80.589 155.507 80.1061 155.507 79.5341C155.507 79.0417 155.601 78.6364 155.791 78.3182C155.98 78 156.236 77.7481 156.558 77.5625C156.88 77.3769 157.24 77.2367 157.637 77.142C158.035 77.0473 158.44 76.9754 158.853 76.9261C159.376 76.8655 159.8 76.8163 160.126 76.7784C160.452 76.7367 160.689 76.6705 160.836 76.5795C160.984 76.4886 161.058 76.3409 161.058 76.1364V76.0966C161.058 75.6004 160.918 75.2159 160.637 74.9432C160.361 74.6705 159.948 74.5341 159.399 74.5341C158.827 74.5341 158.376 74.661 158.046 74.9148C157.721 75.1648 157.495 75.4432 157.37 75.75L155.774 75.3864C155.963 74.8561 156.24 74.428 156.603 74.1023C156.971 73.7727 157.393 73.5341 157.87 73.3864C158.348 73.2348 158.85 73.1591 159.376 73.1591C159.725 73.1591 160.094 73.2008 160.484 73.2841C160.878 73.3636 161.245 73.5114 161.586 73.7273C161.931 73.9432 162.213 74.2519 162.433 74.6534C162.653 75.0511 162.762 75.5682 162.762 76.2045V82H161.103V80.8068H161.035C160.925 81.0265 160.76 81.2424 160.541 81.4545C160.321 81.6667 160.039 81.8428 159.694 81.983C159.35 82.1231 158.937 82.1932 158.456 82.1932ZM158.825 80.8295C159.295 80.8295 159.696 80.7367 160.029 80.5511C160.367 80.3655 160.622 80.1231 160.796 79.8239C160.975 79.5208 161.064 79.197 161.064 78.8523V77.7273C161.003 77.7879 160.885 77.8447 160.711 77.8977C160.541 77.947 160.346 77.9905 160.126 78.0284C159.906 78.0625 159.692 78.0947 159.484 78.125C159.276 78.1515 159.101 78.1742 158.961 78.1932C158.632 78.2348 158.331 78.3049 158.058 78.4034C157.789 78.5019 157.573 78.6439 157.41 78.8295C157.251 79.0114 157.171 79.2538 157.171 79.5568C157.171 79.9773 157.327 80.2955 157.637 80.5114C157.948 80.7235 158.344 80.8295 158.825 80.8295ZM171.438 70.0227L172.143 71.0966C171.881 71.3352 171.584 71.5057 171.251 71.608C170.921 71.7064 170.54 71.7689 170.109 71.7955C169.677 71.8182 169.182 71.839 168.626 71.858C167.997 71.8769 167.48 72.0133 167.074 72.267C166.669 72.517 166.357 72.8883 166.137 73.3807C165.921 73.8693 165.781 74.483 165.717 75.2216H165.824C166.109 74.6799 166.503 74.2746 167.006 74.0057C167.514 73.7367 168.084 73.6023 168.717 73.6023C169.421 73.6023 170.048 73.7633 170.597 74.0852C171.146 74.4072 171.578 74.8788 171.893 75.5C172.211 76.1174 172.37 76.8731 172.37 77.767C172.37 78.6723 172.203 79.4545 171.87 80.1136C171.54 80.7727 171.074 81.2822 170.472 81.642C169.874 81.9981 169.167 82.1761 168.353 82.1761C167.539 82.1761 166.828 81.9924 166.222 81.625C165.62 81.2538 165.152 80.7045 164.819 79.9773C164.489 79.25 164.324 78.3523 164.324 77.2841V76.4205C164.324 74.4242 164.681 72.9223 165.393 71.9148C166.105 70.9072 167.169 70.3902 168.586 70.3636C169.044 70.3523 169.453 70.3504 169.813 70.358C170.173 70.3617 170.487 70.3447 170.756 70.3068C171.029 70.2652 171.256 70.1705 171.438 70.0227ZM168.359 80.75C168.832 80.75 169.239 80.6307 169.58 80.392C169.925 80.1496 170.19 79.8068 170.376 79.3636C170.561 78.9205 170.654 78.3977 170.654 77.7955C170.654 77.2045 170.561 76.7027 170.376 76.2898C170.19 75.8769 169.925 75.5625 169.58 75.3466C169.235 75.1269 168.823 75.017 168.342 75.017C167.985 75.017 167.667 75.0795 167.387 75.2045C167.107 75.3258 166.866 75.5057 166.665 75.7443C166.468 75.983 166.315 76.2746 166.205 76.6193C166.099 76.9602 166.042 77.3523 166.035 77.7955C166.035 78.697 166.241 79.4148 166.654 79.9489C167.071 80.483 167.639 80.75 168.359 80.75ZM173.948 85.2727V73.2727H175.607V74.6875H175.749C175.847 74.5057 175.989 74.2955 176.175 74.0568C176.361 73.8182 176.618 73.6098 176.948 73.4318C177.277 73.25 177.713 73.1591 178.254 73.1591C178.959 73.1591 179.588 73.3371 180.141 73.6932C180.694 74.0492 181.128 74.5625 181.442 75.233C181.76 75.9034 181.919 76.7102 181.919 77.6534C181.919 78.5966 181.762 79.4053 181.448 80.0795C181.133 80.75 180.701 81.267 180.152 81.6307C179.603 81.9905 178.976 82.1705 178.272 82.1705C177.741 82.1705 177.308 82.0814 176.97 81.9034C176.637 81.7254 176.376 81.517 176.186 81.2784C175.997 81.0398 175.851 80.8277 175.749 80.642H175.647V85.2727H173.948ZM175.612 77.6364C175.612 78.25 175.701 78.7879 175.879 79.25C176.058 79.7121 176.315 80.0739 176.652 80.3352C176.989 80.5928 177.402 80.7216 177.891 80.7216C178.398 80.7216 178.823 80.5871 179.164 80.3182C179.504 80.0455 179.762 79.6761 179.936 79.2102C180.114 78.7443 180.203 78.2197 180.203 77.6364C180.203 77.0606 180.116 76.5436 179.942 76.0852C179.772 75.6269 179.514 75.2652 179.169 75C178.828 74.7348 178.402 74.6023 177.891 74.6023C177.398 74.6023 176.982 74.7292 176.641 74.983C176.304 75.2367 176.048 75.5909 175.874 76.0455C175.7 76.5 175.612 77.0303 175.612 77.6364ZM186.042 82.1932C185.489 82.1932 184.989 82.0909 184.542 81.8864C184.095 81.678 183.741 81.3769 183.48 80.983C183.222 80.589 183.094 80.1061 183.094 79.5341C183.094 79.0417 183.188 78.6364 183.378 78.3182C183.567 78 183.823 77.7481 184.145 77.5625C184.467 77.3769 184.827 77.2367 185.224 77.142C185.622 77.0473 186.027 76.9754 186.44 76.9261C186.963 76.8655 187.387 76.8163 187.713 76.7784C188.039 76.7367 188.275 76.6705 188.423 76.5795C188.571 76.4886 188.645 76.3409 188.645 76.1364V76.0966C188.645 75.6004 188.505 75.2159 188.224 74.9432C187.948 74.6705 187.535 74.5341 186.986 74.5341C186.414 74.5341 185.963 74.661 185.633 74.9148C185.308 75.1648 185.082 75.4432 184.957 75.75L183.361 75.3864C183.55 74.8561 183.827 74.428 184.19 74.1023C184.558 73.7727 184.98 73.5341 185.457 73.3864C185.934 73.2348 186.436 73.1591 186.963 73.1591C187.311 73.1591 187.681 73.2008 188.071 73.2841C188.465 73.3636 188.832 73.5114 189.173 73.7273C189.518 73.9432 189.8 74.2519 190.02 74.6534C190.239 75.0511 190.349 75.5682 190.349 76.2045V82H188.69V80.8068H188.622C188.512 81.0265 188.347 81.2424 188.128 81.4545C187.908 81.6667 187.626 81.8428 187.281 81.983C186.936 82.1231 186.524 82.1932 186.042 82.1932ZM186.412 80.8295C186.881 80.8295 187.283 80.7367 187.616 80.5511C187.953 80.3655 188.209 80.1231 188.383 79.8239C188.561 79.5208 188.65 79.197 188.65 78.8523V77.7273C188.59 77.7879 188.472 77.8447 188.298 77.8977C188.128 77.947 187.933 77.9905 187.713 78.0284C187.493 78.0625 187.279 78.0947 187.071 78.125C186.863 78.1515 186.688 78.1742 186.548 78.1932C186.219 78.2348 185.917 78.3049 185.645 78.4034C185.376 78.5019 185.16 78.6439 184.997 78.8295C184.838 79.0114 184.758 79.2538 184.758 79.5568C184.758 79.9773 184.914 80.2955 185.224 80.5114C185.535 80.7235 185.931 80.8295 186.412 80.8295ZM191.605 82L191.599 80.5284H191.911C192.154 80.5284 192.356 80.4773 192.519 80.375C192.686 80.2689 192.822 80.0909 192.928 79.8409C193.034 79.5909 193.116 79.2462 193.173 78.8068C193.23 78.3636 193.271 77.8068 193.298 77.1364L193.451 73.2727H199.542V82H197.877V74.7386H195.025L194.889 77.7045C194.855 78.4242 194.781 79.053 194.667 79.5909C194.557 80.1288 194.396 80.5777 194.184 80.9375C193.972 81.2936 193.699 81.5606 193.366 81.7386C193.033 81.9129 192.627 82 192.15 82H191.605ZM203.152 79.6193L206.999 73.2727H208.829V82H207.164V75.6477L203.334 82H201.488V73.2727H203.152V79.6193ZM214.707 82V73.2727H221.826V82H220.162V74.7386H216.36V82H214.707ZM223.778 85.2727V73.2727H225.437V74.6875H225.579C225.677 74.5057 225.819 74.2955 226.005 74.0568C226.191 73.8182 226.448 73.6098 226.778 73.4318C227.107 73.25 227.543 73.1591 228.084 73.1591C228.789 73.1591 229.418 73.3371 229.971 73.6932C230.524 74.0492 230.958 74.5625 231.272 75.233C231.59 75.9034 231.749 76.7102 231.749 77.6534C231.749 78.5966 231.592 79.4053 231.278 80.0795C230.963 80.75 230.531 81.267 229.982 81.6307C229.433 81.9905 228.806 82.1705 228.102 82.1705C227.571 82.1705 227.138 82.0814 226.8 81.9034C226.467 81.7254 226.206 81.517 226.016 81.2784C225.827 81.0398 225.681 80.8277 225.579 80.642H225.477V85.2727H223.778ZM225.442 77.6364C225.442 78.25 225.531 78.7879 225.709 79.25C225.888 79.7121 226.145 80.0739 226.482 80.3352C226.819 80.5928 227.232 80.7216 227.721 80.7216C228.228 80.7216 228.653 80.5871 228.994 80.3182C229.334 80.0455 229.592 79.6761 229.766 79.2102C229.944 78.7443 230.033 78.2197 230.033 77.6364C230.033 77.0606 229.946 76.5436 229.772 76.0852C229.602 75.6269 229.344 75.2652 228.999 75C228.658 74.7348 228.232 74.6023 227.721 74.6023C227.228 74.6023 226.812 74.7292 226.471 74.983C226.134 75.2367 225.878 75.5909 225.704 76.0455C225.53 76.5 225.442 77.0303 225.442 77.6364ZM237.009 82.1761C236.191 82.1761 235.477 81.9886 234.867 81.6136C234.257 81.2386 233.783 80.714 233.446 80.0398C233.109 79.3655 232.941 78.5777 232.941 77.6761C232.941 76.7708 233.109 75.9792 233.446 75.3011C233.783 74.6231 234.257 74.0966 234.867 73.7216C235.477 73.3466 236.191 73.1591 237.009 73.1591C237.827 73.1591 238.541 73.3466 239.151 73.7216C239.761 74.0966 240.234 74.6231 240.571 75.3011C240.908 75.9792 241.077 76.7708 241.077 77.6761C241.077 78.5777 240.908 79.3655 240.571 80.0398C240.234 80.714 239.761 81.2386 239.151 81.6136C238.541 81.9886 237.827 82.1761 237.009 82.1761ZM237.014 80.75C237.545 80.75 237.984 80.6098 238.333 80.3295C238.681 80.0492 238.939 79.6761 239.105 79.2102C239.276 78.7443 239.361 78.2311 239.361 77.6705C239.361 77.1136 239.276 76.6023 239.105 76.1364C238.939 75.6667 238.681 75.2898 238.333 75.0057C237.984 74.7216 237.545 74.5795 237.014 74.5795C236.48 74.5795 236.037 74.7216 235.685 75.0057C235.336 75.2898 235.077 75.6667 234.907 76.1364C234.74 76.6023 234.657 77.1136 234.657 77.6705C234.657 78.2311 234.74 78.7443 234.907 79.2102C235.077 79.6761 235.336 80.0492 235.685 80.3295C236.037 80.6098 236.48 80.75 237.014 80.75ZM246.329 82.1761C245.485 82.1761 244.757 81.9848 244.148 81.6023C243.542 81.2159 243.076 80.6837 242.75 80.0057C242.424 79.3277 242.261 78.5511 242.261 77.6761C242.261 76.7898 242.428 76.0076 242.761 75.3295C243.095 74.6477 243.564 74.1155 244.17 73.733C244.776 73.3504 245.49 73.1591 246.312 73.1591C246.975 73.1591 247.566 73.2822 248.085 73.5284C248.604 73.7708 249.023 74.1117 249.341 74.5511C249.663 74.9905 249.854 75.5038 249.915 76.0909H248.261C248.17 75.6818 247.962 75.3295 247.636 75.0341C247.314 74.7386 246.882 74.5909 246.341 74.5909C245.867 74.5909 245.453 74.7159 245.096 74.9659C244.744 75.2121 244.47 75.5644 244.273 76.0227C244.076 76.4773 243.977 77.0152 243.977 77.6364C243.977 78.2727 244.074 78.822 244.267 79.2841C244.46 79.7462 244.733 80.1042 245.085 80.358C245.441 80.6117 245.86 80.7386 246.341 80.7386C246.663 80.7386 246.954 80.6799 247.216 80.5625C247.481 80.4413 247.703 80.2689 247.881 80.0455C248.062 79.822 248.189 79.553 248.261 79.2386H249.915C249.854 79.803 249.67 80.3068 249.364 80.75C249.057 81.1932 248.646 81.5417 248.131 81.7955C247.619 82.0492 247.019 82.1761 246.329 82.1761ZM256.309 79.8977L259.127 73.2727H260.593L256.94 82H255.678L252.099 73.2727H253.548L256.309 79.8977ZM253.076 73.2727V82H251.411V73.2727H253.076ZM259.588 82V73.2727H261.241V82H259.588ZM266.861 82.1761C266.043 82.1761 265.329 81.9886 264.719 81.6136C264.109 81.2386 263.636 80.714 263.299 80.0398C262.962 79.3655 262.793 78.5777 262.793 77.6761C262.793 76.7708 262.962 75.9792 263.299 75.3011C263.636 74.6231 264.109 74.0966 264.719 73.7216C265.329 73.3466 266.043 73.1591 266.861 73.1591C267.679 73.1591 268.394 73.3466 269.003 73.7216C269.613 74.0966 270.087 74.6231 270.424 75.3011C270.761 75.9792 270.929 76.7708 270.929 77.6761C270.929 78.5777 270.761 79.3655 270.424 80.0398C270.087 80.714 269.613 81.2386 269.003 81.6136C268.394 81.9886 267.679 82.1761 266.861 82.1761ZM266.867 80.75C267.397 80.75 267.837 80.6098 268.185 80.3295C268.534 80.0492 268.791 79.6761 268.958 79.2102C269.128 78.7443 269.214 78.2311 269.214 77.6705C269.214 77.1136 269.128 76.6023 268.958 76.1364C268.791 75.6667 268.534 75.2898 268.185 75.0057C267.837 74.7216 267.397 74.5795 266.867 74.5795C266.333 74.5795 265.89 74.7216 265.537 75.0057C265.189 75.2898 264.929 75.6667 264.759 76.1364C264.592 76.6023 264.509 77.1136 264.509 77.6705C264.509 78.2311 264.592 78.7443 264.759 79.2102C264.929 79.6761 265.189 80.0492 265.537 80.3295C265.89 80.6098 266.333 80.75 266.867 80.75ZM271.455 74.7386V73.2727H278.818V74.7386H275.972V82H274.313V74.7386H271.455ZM280.295 85.2727V73.2727H281.954V74.6875H282.096C282.195 74.5057 282.337 74.2955 282.522 74.0568C282.708 73.8182 282.966 73.6098 283.295 73.4318C283.625 73.25 284.06 73.1591 284.602 73.1591C285.307 73.1591 285.935 73.3371 286.488 73.6932C287.041 74.0492 287.475 74.5625 287.789 75.233C288.108 75.9034 288.267 76.7102 288.267 77.6534C288.267 78.5966 288.11 79.4053 287.795 80.0795C287.481 80.75 287.049 81.267 286.5 81.6307C285.95 81.9905 285.324 82.1705 284.619 82.1705C284.089 82.1705 283.655 82.0814 283.318 81.9034C282.985 81.7254 282.723 81.517 282.534 81.2784C282.344 81.0398 282.199 80.8277 282.096 80.642H281.994V85.2727H280.295ZM281.96 77.6364C281.96 78.25 282.049 78.7879 282.227 79.25C282.405 79.7121 282.663 80.0739 283 80.3352C283.337 80.5928 283.75 80.7216 284.238 80.7216C284.746 80.7216 285.17 80.5871 285.511 80.3182C285.852 80.0455 286.11 79.6761 286.284 79.2102C286.462 78.7443 286.551 78.2197 286.551 77.6364C286.551 77.0606 286.464 76.5436 286.289 76.0852C286.119 75.6269 285.861 75.2652 285.517 75C285.176 74.7348 284.75 74.6023 284.238 74.6023C283.746 74.6023 283.329 74.7292 282.988 74.983C282.651 75.2367 282.396 75.5909 282.221 76.0455C282.047 76.5 281.96 77.0303 281.96 77.6364ZM291.129 76.2727H293.663C294.731 76.2727 295.553 76.5379 296.129 77.0682C296.704 77.5985 296.992 78.2822 296.992 79.1193C296.992 79.6648 296.863 80.1553 296.606 80.5909C296.348 81.0265 295.971 81.3712 295.475 81.625C294.979 81.875 294.375 82 293.663 82H289.85V73.2727H291.515V80.5341H293.663C294.151 80.5341 294.553 80.4072 294.867 80.1534C295.182 79.8958 295.339 79.5682 295.339 79.1705C295.339 78.75 295.182 78.4072 294.867 78.142C294.553 77.8731 294.151 77.7386 293.663 77.7386H291.129V76.2727ZM298.231 82V73.2727H299.93V82H298.231Z" fill="black"/>
<g filter="url(#filter0_d_1_296)">
<rect x="62.5" y="112" width="187" height="56" rx="28" fill="#5C24FF"/>
<path d="M97.4034 134.364V146H94.9716V136.364H90.267V146H87.8352V134.364H97.4034ZM103.323 146.17C102.441 146.17 101.678 145.983 101.034 145.608C100.394 145.229 99.8992 144.703 99.5507 144.028C99.2023 143.35 99.028 142.564 99.028 141.67C99.028 140.769 99.2023 139.981 99.5507 139.307C99.8992 138.629 100.394 138.102 101.034 137.727C101.678 137.348 102.441 137.159 103.323 137.159C104.206 137.159 104.967 137.348 105.608 137.727C106.251 138.102 106.748 138.629 107.096 139.307C107.445 139.981 107.619 140.769 107.619 141.67C107.619 142.564 107.445 143.35 107.096 144.028C106.748 144.703 106.251 145.229 105.608 145.608C104.967 145.983 104.206 146.17 103.323 146.17ZM103.335 144.295C103.736 144.295 104.072 144.182 104.341 143.955C104.609 143.723 104.812 143.409 104.948 143.011C105.089 142.614 105.159 142.161 105.159 141.653C105.159 141.146 105.089 140.693 104.948 140.295C104.812 139.898 104.609 139.583 104.341 139.352C104.072 139.121 103.736 139.006 103.335 139.006C102.93 139.006 102.589 139.121 102.312 139.352C102.039 139.583 101.833 139.898 101.693 140.295C101.556 140.693 101.488 141.146 101.488 141.653C101.488 142.161 101.556 142.614 101.693 143.011C101.833 143.409 102.039 143.723 102.312 143.955C102.589 144.182 102.93 144.295 103.335 144.295ZM108.361 146L108.35 144.08H108.64C108.844 144.08 109.021 144.03 109.168 143.932C109.32 143.83 109.445 143.665 109.543 143.438C109.642 143.21 109.719 142.909 109.776 142.534C109.833 142.155 109.871 141.689 109.89 141.136L110.032 137.273H116.668V146H114.361V139.176H112.208L112.072 141.841C112.038 142.572 111.949 143.201 111.805 143.727C111.664 144.254 111.469 144.686 111.219 145.023C110.969 145.356 110.668 145.602 110.316 145.761C109.964 145.92 109.555 146 109.089 146H108.361ZM119.406 149.273C119.1 149.273 118.812 149.248 118.543 149.199C118.278 149.153 118.058 149.095 117.884 149.023L118.429 147.216C118.713 147.303 118.969 147.35 119.196 147.358C119.427 147.366 119.626 147.313 119.793 147.199C119.963 147.085 120.102 146.892 120.208 146.619L120.35 146.25L117.219 137.273H119.764L121.571 143.682H121.662L123.486 137.273H126.049L122.656 146.943C122.494 147.413 122.272 147.822 121.992 148.17C121.715 148.523 121.365 148.794 120.941 148.983C120.516 149.176 120.005 149.273 119.406 149.273ZM134.307 137.273V146H132.011V137.273H134.307ZM133.187 141.102V143.011C133.002 143.095 132.771 143.174 132.494 143.25C132.218 143.322 131.928 143.381 131.625 143.426C131.322 143.472 131.038 143.494 130.773 143.494C129.519 143.494 128.532 143.237 127.812 142.722C127.093 142.203 126.733 141.375 126.733 140.239V137.261H129.017V140.239C129.017 140.576 129.074 140.843 129.187 141.04C129.305 141.237 129.49 141.379 129.744 141.466C130.002 141.549 130.345 141.591 130.773 141.591C131.17 141.591 131.56 141.549 131.943 141.466C132.326 141.383 132.74 141.261 133.187 141.102ZM138.178 142.807L141.32 137.273H143.707V146H141.4V140.449L138.269 146H135.866V137.273H138.178V142.807ZM144.451 139.176V137.273H152.36V139.176H149.547V146H147.241V139.176H144.451ZM155.024 139.955H157.632C158.787 139.955 159.689 140.231 160.337 140.784C160.984 141.333 161.308 142.068 161.308 142.989C161.308 143.587 161.162 144.114 160.871 144.568C160.579 145.019 160.159 145.371 159.609 145.625C159.06 145.875 158.401 146 157.632 146H153.507V137.273H155.82V144.097H157.632C158.037 144.097 158.371 143.994 158.632 143.79C158.894 143.585 159.026 143.324 159.03 143.006C159.026 142.669 158.894 142.394 158.632 142.182C158.371 141.966 158.037 141.858 157.632 141.858H155.024V139.955ZM165.522 139.176V137.273H173.431V139.176H170.619V146H168.312V139.176H165.522ZM174.578 149.273V137.273H176.965V138.739H177.073C177.179 138.504 177.332 138.265 177.533 138.023C177.738 137.777 178.003 137.572 178.328 137.409C178.658 137.242 179.067 137.159 179.556 137.159C180.192 137.159 180.779 137.326 181.317 137.659C181.855 137.989 182.285 138.487 182.607 139.153C182.929 139.816 183.09 140.648 183.09 141.648C183.09 142.621 182.933 143.443 182.618 144.114C182.308 144.78 181.883 145.286 181.345 145.631C180.811 145.972 180.213 146.142 179.55 146.142C179.08 146.142 178.681 146.064 178.351 145.909C178.025 145.754 177.758 145.559 177.55 145.324C177.342 145.085 177.183 144.845 177.073 144.602H176.999V149.273H174.578ZM176.948 141.636C176.948 142.155 177.02 142.608 177.164 142.994C177.308 143.381 177.516 143.682 177.789 143.898C178.061 144.11 178.393 144.216 178.783 144.216C179.177 144.216 179.51 144.108 179.783 143.892C180.056 143.672 180.262 143.369 180.402 142.983C180.546 142.593 180.618 142.144 180.618 141.636C180.618 141.133 180.548 140.689 180.408 140.307C180.268 139.924 180.061 139.625 179.789 139.409C179.516 139.193 179.181 139.085 178.783 139.085C178.389 139.085 178.056 139.189 177.783 139.398C177.514 139.606 177.308 139.902 177.164 140.284C177.02 140.667 176.948 141.117 176.948 141.636ZM188.361 146.17C187.463 146.17 186.69 145.989 186.043 145.625C185.399 145.258 184.902 144.739 184.554 144.068C184.205 143.394 184.031 142.597 184.031 141.676C184.031 140.778 184.205 139.991 184.554 139.312C184.902 138.634 185.393 138.106 186.025 137.727C186.662 137.348 187.408 137.159 188.264 137.159C188.84 137.159 189.376 137.252 189.872 137.438C190.372 137.619 190.808 137.894 191.179 138.261C191.554 138.629 191.846 139.091 192.054 139.648C192.262 140.201 192.366 140.848 192.366 141.591V142.256H184.997V140.756H190.088C190.088 140.407 190.012 140.098 189.861 139.83C189.709 139.561 189.499 139.35 189.23 139.199C188.965 139.044 188.656 138.966 188.304 138.966C187.936 138.966 187.611 139.051 187.327 139.222C187.046 139.388 186.827 139.614 186.668 139.898C186.508 140.178 186.427 140.491 186.423 140.835V142.261C186.423 142.693 186.503 143.066 186.662 143.381C186.825 143.695 187.054 143.938 187.349 144.108C187.645 144.278 187.995 144.364 188.4 144.364C188.669 144.364 188.916 144.326 189.139 144.25C189.363 144.174 189.554 144.061 189.713 143.909C189.872 143.758 189.993 143.572 190.077 143.352L192.315 143.5C192.202 144.038 191.969 144.508 191.616 144.909C191.268 145.307 190.817 145.617 190.264 145.841C189.715 146.061 189.08 146.17 188.361 146.17ZM199.7 140.67V142.574H195.143V140.67H199.7ZM195.938 137.273V146H193.626V137.273H195.938ZM201.217 137.273V146H198.921V137.273H201.217ZM202.093 148.557V144.08H202.763C202.956 143.958 203.112 143.765 203.229 143.5C203.35 143.235 203.449 142.922 203.525 142.562C203.604 142.203 203.665 141.814 203.706 141.398C203.752 140.977 203.792 140.553 203.826 140.125L204.053 137.273H210.746V144.08H212.099V148.557H209.792V146H204.456V148.557H202.093ZM205.172 144.08H208.462V139.136H206.11L206.019 140.125C205.955 141.057 205.862 141.848 205.741 142.5C205.619 143.148 205.43 143.674 205.172 144.08ZM214.706 139.955H217.314C218.469 139.955 219.371 140.231 220.019 140.784C220.666 141.333 220.99 142.068 220.99 142.989C220.99 143.587 220.844 144.114 220.553 144.568C220.261 145.019 219.841 145.371 219.291 145.625C218.742 145.875 218.083 146 217.314 146H213.189V137.273H215.502V144.097H217.314C217.719 144.097 218.053 143.994 218.314 143.79C218.575 143.585 218.708 143.324 218.712 143.006C218.708 142.669 218.575 142.394 218.314 142.182C218.053 141.966 217.719 141.858 217.314 141.858H214.706V139.955ZM221.928 146V137.273H224.348V146H221.928Z" fill="white"/>
</g>
<defs>
<filter id="filter0_d_1_296" x="40.5" y="94" width="231" height="100" filterUnits="userSpaceOnUse" color-interpolation-filters="sRGB">
<feFlood flood-opacity="0" result="BackgroundImageFix"/>
<feColorMatrix in="SourceAlpha" type="matrix" values="0 0 0 0 0 0 0 0 0 0 0 0 0 0 0 0 0 0 127 0" result="hardAlpha"/>
<feOffset dy="4"/>
<feGaussianBlur stdDeviation="11"/>
<feComposite in2="hardAlpha" operator="out"/>
<feColorMatrix type="matrix" values="0 0 0 0 0.360784 0 0 0 0 0.141176 0 0 0 0 1 0 0 0 0.32 0"/>
<feBlend mode="normal" in2="BackgroundImageFix" result="effect1_dropShadow_1_296"/>
<feBlend mode="normal" in="SourceGraphic" in2="effect1_dropShadow_1_296" result="shape"/>
</filter>
</defs>
</svg>
